<svg width="700" height="300" xmlns="http://www.w3.org/2000/svg"><g fill="none" fill-rule="evenodd"><path d="M245.264 125.346l.71 4.875 1.042-4.393 7.312-25.797h4.113l7.135 25.797 1.016 4.469.787-4.977 5.738-25.289h4.9L269.056 137h-4.444l-7.617-26.94-.584-2.818-.584 2.819L247.93 137h-4.444l-8.937-36.969h4.875l5.84 25.315zM287.793 137h-4.697v-27.473h4.697V137zm-5.078-34.76c0-.761.233-1.405.698-1.93.466-.524 1.155-.787 2.07-.787.913 0 1.607.263 2.081.788.474.524.711 1.168.711 1.93 0 .761-.237 1.396-.71 1.904-.475.507-1.169.761-2.083.761-.914 0-1.603-.254-2.069-.761-.465-.508-.698-1.143-.698-1.905zM300.412 137h-4.697V98h4.697v39zm12.62 0h-4.698V98h4.697v39zm12.618 0h-4.697v-27.473h4.697V137zm-5.078-34.76c0-.761.233-1.405.699-1.93.465-.524 1.155-.787 2.069-.787.914 0 1.608.263 2.082.788.474.524.71 1.168.71 1.93 0 .761-.236 1.396-.71 1.904-.474.507-1.168.761-2.082.761-.914 0-1.604-.254-2.07-.761-.465-.508-.698-1.143-.698-1.905zM350.127 137c-.27-.542-.49-1.507-.66-2.895-2.184 2.269-4.79 3.403-7.82 3.403-2.709 0-4.93-.766-6.666-2.298-1.735-1.532-2.602-3.474-2.602-5.827 0-2.86 1.087-5.083 3.263-6.665 2.175-1.583 5.234-2.374 9.178-2.374h4.57v-2.158c0-1.642-.49-2.95-1.472-3.923-.982-.974-2.43-1.46-4.342-1.46-1.676 0-3.08.423-4.215 1.27-1.134.846-1.7 1.87-1.7 3.072h-4.723c0-1.372.486-2.696 1.46-3.974.973-1.278 2.293-2.29 3.96-3.034 1.668-.745 3.5-1.117 5.497-1.117 3.166 0 5.646.79 7.44 2.374 1.794 1.582 2.725 3.762 2.793 6.538v12.644c0 2.522.322 4.528.965 6.018V137h-4.926zm-7.795-3.58c1.473 0 2.87-.38 4.19-1.143 1.32-.761 2.276-1.752 2.869-2.97v-5.637h-3.682c-5.755 0-8.633 1.684-8.633 5.053 0 1.472.491 2.623 1.473 3.453.982.83 2.243 1.244 3.783 1.244zm23.537-23.893l.127 3.047c2.014-2.37 4.731-3.554 8.15-3.554 3.843 0 6.458 1.472 7.846 4.417.914-1.32 2.103-2.386 3.568-3.199 1.464-.812 3.195-1.218 5.192-1.218 6.026 0 9.09 3.19 9.191 9.572V137h-4.697v-18.129c0-1.963-.448-3.432-1.346-4.405-.897-.973-2.403-1.46-4.52-1.46-1.743 0-3.19.52-4.34 1.561-1.152 1.041-1.82 2.442-2.007 4.203V137h-4.722v-18.002c0-3.995-1.956-5.992-5.866-5.992-3.08 0-5.188 1.312-6.322 3.935V137h-4.697v-27.473h4.443zm65.66 10.994c-4.18-1.201-7.223-2.678-9.128-4.43-1.904-1.752-2.856-3.915-2.856-6.487 0-2.912 1.164-5.32 3.491-7.224 2.328-1.904 5.353-2.857 9.077-2.857 2.54 0 4.803.491 6.792 1.473 1.99.982 3.53 2.336 4.621 4.063a10.388 10.388 0 0 1 1.638 5.662h-4.9c0-2.235-.711-3.99-2.133-5.269-1.422-1.278-3.428-1.917-6.018-1.917-2.403 0-4.278.53-5.624 1.587-1.345 1.058-2.018 2.526-2.018 4.405 0 1.507.639 2.78 1.917 3.822 1.278 1.04 3.453 1.993 6.525 2.856 3.072.863 5.476 1.816 7.211 2.857 1.735 1.04 3.022 2.255 3.86 3.643.837 1.388 1.256 3.022 1.256 4.9 0 2.997-1.168 5.396-3.504 7.199-2.336 1.802-5.459 2.704-9.369 2.704-2.539 0-4.909-.487-7.11-1.46-2.2-.973-3.897-2.306-5.09-4-1.193-1.692-1.79-3.613-1.79-5.763h4.9c0 2.235.826 4 2.476 5.294 1.65 1.295 3.855 1.942 6.614 1.942 2.573 0 4.545-.524 5.916-1.574 1.371-1.05 2.057-2.48 2.057-4.29 0-1.812-.635-3.213-1.904-4.203-1.27-.99-3.572-1.968-6.907-2.933zm53.219.153h-15.514V137h-4.875v-36.969h22.903v4.012h-18.028v12.644h15.514v3.987zm24.578 13.61c-1.828 2.149-4.51 3.224-8.049 3.224-2.928 0-5.158-.85-6.69-2.552-1.532-1.701-2.306-4.219-2.323-7.554v-17.875h4.697v17.748c0 4.164 1.693 6.246 5.078 6.246 3.589 0 5.975-1.337 7.16-4.011v-19.983h4.697V137h-4.468l-.102-2.717zM526.135 137h-4.697V98h4.697v39zm12.619 0h-4.697V98h4.697v39zm18.916.508c-3.724 0-6.754-1.223-9.09-3.67-2.336-2.445-3.504-5.716-3.504-9.813v-.863c0-2.725.52-5.158 1.562-7.3 1.04-2.141 2.496-3.817 4.367-5.027 1.87-1.21 3.897-1.815 6.08-1.815 3.573 0 6.349 1.176 8.33 3.529 1.98 2.353 2.97 5.721 2.97 10.105v1.955h-18.612c.068 2.709.86 4.897 2.374 6.564 1.515 1.667 3.44 2.5 5.777 2.5 1.659 0 3.064-.338 4.215-1.015a10.59 10.59 0 0 0 3.021-2.691l2.87 2.234c-2.303 3.538-5.756 5.307-10.36 5.307zm-.584-24.63c-1.896 0-3.487.69-4.774 2.07-1.286 1.38-2.082 3.314-2.386 5.802h13.761v-.355c-.135-2.387-.778-4.236-1.93-5.548-1.15-1.312-2.708-1.968-4.671-1.968zm30.012.864a14.076 14.076 0 0 0-2.31-.178c-3.082 0-5.172 1.312-6.272 3.936V137h-4.698v-27.473h4.57l.077 3.174c1.54-2.454 3.724-3.681 6.55-3.681.915 0 1.609.118 2.083.355v4.367zM250.063 187.797h-9.915V202h-2.906v-34.125h11.086c3.64 0 6.484.883 8.531 2.648 2.047 1.766 3.07 4.235 3.07 7.407 0 2.187-.64 4.117-1.921 5.789-1.281 1.672-3 2.828-5.156 3.469l8.53 14.507V202h-3.07l-8.25-14.203zm-9.915-2.461h8.836c2.422 0 4.368-.688 5.836-2.063 1.47-1.375 2.203-3.156 2.203-5.343 0-2.407-.765-4.274-2.296-5.602-1.532-1.328-3.68-1.992-6.446-1.992h-8.133v15zm36.797 17.133c-2.156 0-4.105-.531-5.847-1.594-1.743-1.063-3.098-2.543-4.067-4.441-.969-1.899-1.453-4.028-1.453-6.387v-1.008c0-2.437.473-4.633 1.418-6.586.945-1.953 2.262-3.488 3.95-4.605 1.687-1.118 3.515-1.676 5.484-1.676 3.078 0 5.52 1.05 7.324 3.152 1.805 2.102 2.707 4.973 2.707 8.613v1.57h-18.094v.54c0 2.875.824 5.27 2.473 7.183 1.648 1.915 3.722 2.872 6.222 2.872 1.5 0 2.825-.274 3.973-.82 1.149-.548 2.192-1.423 3.13-2.626l1.757 1.336c-2.063 2.985-5.055 4.477-8.977 4.477zm-.515-23.906c-2.11 0-3.887.773-5.332 2.32-1.446 1.547-2.325 3.625-2.637 6.234h15.21v-.304c-.077-2.438-.773-4.422-2.085-5.954-1.313-1.53-3.031-2.297-5.156-2.297zm30.68 16.992c0-1.39-.56-2.508-1.676-3.352-1.118-.844-2.801-1.504-5.051-1.98-2.25-.477-3.996-1.024-5.238-1.641-1.243-.617-2.165-1.371-2.766-2.262-.602-.89-.902-1.968-.902-3.234 0-2 .835-3.652 2.507-4.957 1.672-1.305 3.813-1.957 6.422-1.957 2.828 0 5.098.7 6.809 2.098 1.71 1.398 2.566 3.222 2.566 5.472h-2.812c0-1.484-.621-2.719-1.864-3.703-1.242-.984-2.808-1.476-4.699-1.476-1.844 0-3.324.41-4.441 1.23-1.117.82-1.676 1.887-1.676 3.2 0 1.265.465 2.245 1.395 2.94.93.696 2.625 1.333 5.086 1.91 2.46.579 4.304 1.196 5.53 1.852 1.227.657 2.137 1.446 2.731 2.368.594.921.89 2.039.89 3.351 0 2.14-.862 3.852-2.589 5.133-1.727 1.281-3.98 1.922-6.762 1.922-2.953 0-5.347-.715-7.183-2.145-1.836-1.43-2.754-3.238-2.754-5.426h2.812c.11 1.641.801 2.918 2.075 3.832 1.273.915 2.957 1.372 5.05 1.372 1.953 0 3.532-.43 4.735-1.29 1.203-.859 1.804-1.945 1.804-3.257zm25.43 3.234c-1.688 2.453-4.384 3.68-8.087 3.68-2.703 0-4.758-.785-6.164-2.356-1.406-1.57-2.125-3.894-2.156-6.972v-16.5h2.789v16.148c0 4.828 1.953 7.242 5.86 7.242 4.062 0 6.632-1.68 7.71-5.039v-18.351h2.813V202h-2.72l-.046-3.21zm12.608-22.148l.094 4.125c.938-1.532 2.11-2.68 3.516-3.446 1.406-.765 2.969-1.148 4.687-1.148 4 0 6.54 1.64 7.618 4.922.906-1.578 2.117-2.793 3.632-3.645 1.516-.851 3.188-1.277 5.016-1.277 5.437 0 8.21 2.969 8.32 8.906V202h-2.812v-16.71c-.016-2.267-.504-3.946-1.465-5.04-.961-1.094-2.527-1.64-4.7-1.64-2.015.03-3.718.683-5.109 1.956-1.39 1.274-2.164 2.825-2.32 4.653V202h-2.813v-16.922c-.015-2.172-.527-3.793-1.535-4.863-1.007-1.07-2.558-1.606-4.652-1.606-1.766 0-3.281.504-4.547 1.512-1.266 1.008-2.203 2.504-2.812 4.488V202h-2.813v-25.36h2.695zm49.805 25.828c-2.156 0-4.105-.531-5.848-1.594-1.742-1.063-3.097-2.543-4.066-4.441-.969-1.899-1.453-4.028-1.453-6.387v-1.008c0-2.437.473-4.633 1.418-6.586.945-1.953 2.262-3.488 3.95-4.605 1.687-1.118 3.515-1.676 5.483-1.676 3.079 0 5.52 1.05 7.325 3.152 1.804 2.102 2.707 4.973 2.707 8.613v1.57h-18.094v.54c0 2.875.824 5.27 2.473 7.183 1.648 1.915 3.722 2.872 6.222 2.872 1.5 0 2.825-.274 3.973-.82 1.148-.548 2.191-1.423 3.129-2.626l1.758 1.336c-2.063 2.985-5.055 4.477-8.977 4.477zm-.515-23.906c-2.11 0-3.887.773-5.333 2.32-1.445 1.547-2.324 3.625-2.636 6.234h15.21v-.304c-.077-2.438-.773-4.422-2.085-5.954-1.313-1.53-3.031-2.297-5.156-2.297zm46.242 13.875h-15.493L421.673 202h-3.024l12.914-34.125h2.743L447.219 202h-3l-3.54-9.563zm-14.602-2.461h13.688l-6.844-18.586-6.844 18.586zm29.04-1.875V202h-2.884v-34.125h11.625c3.547 0 6.348.906 8.403 2.719 2.054 1.812 3.082 4.304 3.082 7.476 0 3.203-.989 5.676-2.965 7.418-1.977 1.742-4.84 2.614-8.59 2.614h-8.672zm0-2.438h8.741c2.797 0 4.93-.664 6.399-1.992 1.469-1.328 2.203-3.18 2.203-5.555 0-2.36-.73-4.238-2.191-5.637-1.461-1.398-3.536-2.113-6.223-2.144h-8.93v15.328zM485.304 202h-2.883v-34.125h2.883V202zM113 98h105v105H113z" fill="#FFF" fill-rule="nonzero"/><path d="M139 171h23v11h-23zM139 121h11v47h-11zM154 143h11v25h-11zM168 143h11v25h-11zM183 125h11v43h-11z" fill="#000"/></g></svg>