<svg width="700" height="300" xmlns="http://www.w3.org/2000/svg"><g fill="none" fill-rule="evenodd"><path d="M276.232 177.697h-4.779v-50.235L256.671 185l-14.67-56.985v49.682H241V105l17.56 68.271 17.672-68.16v72.586zm50.682-22.02c0 6.492-2.316 12.043-6.947 16.654-4.63 4.61-10.206 6.915-16.727 6.915-6.52 0-12.096-2.305-16.727-6.915-4.63-4.61-6.946-10.162-6.946-16.653 0-6.566 2.315-12.135 6.946-16.708 4.631-4.574 10.207-6.86 16.727-6.86 6.595 0 12.189 2.286 16.783 6.86 4.594 4.573 6.89 10.142 6.89 16.708zm-4.78 0c0-6.27-1.833-11.6-5.5-15.988-3.669-4.39-8.133-6.584-13.394-6.584-5.186 0-9.614 2.195-13.281 6.584-3.668 4.389-5.502 9.719-5.502 15.989 0 6.196 1.834 11.507 5.502 15.933 3.667 4.426 8.095 6.64 13.281 6.64 5.187 0 9.633-2.214 13.337-6.64 3.705-4.426 5.558-9.737 5.558-15.933zm31.12-22.24l-12.003 49.571-12.003-49.57h4.89l9.114 37.288 9.002-37.289h1zm7.78-5.754c0 1.623-.888 2.435-2.667 2.435-1.556 0-2.334-.812-2.334-2.435s.778-2.434 2.334-2.434c1.779 0 2.668.811 2.668 2.434zm-.11 50.014h-4.89v-44.26h4.89v44.26zm49.68-11.508c-2 3.91-4.89 7.064-8.668 9.461-3.78 2.397-7.966 3.596-12.56 3.596-6.52 0-12.114-2.323-16.782-6.97-4.668-4.648-7.002-10.217-7.002-16.709 0-6.565 2.334-12.153 7.002-16.763 4.668-4.61 10.262-6.916 16.782-6.916 4.52 0 8.651 1.143 12.393 3.43 3.742 2.287 6.613 5.348 8.613 9.184l-39.455 16.044c.963 5.09 3.167 9.313 6.613 12.67 3.445 3.356 7.39 5.034 11.836 5.034 3.853 0 7.317-1.235 10.392-3.706 3.075-2.472 5.39-5.736 6.947-9.793l3.89 1.438zm-4.445-21.244c-1.556-3.689-3.834-6.62-6.835-8.797-3.001-2.176-6.317-3.264-9.948-3.264-5.186 0-9.632 2.213-13.337 6.639s-5.557 9.774-5.557 16.044c0 .885.074 2.213.222 3.983l35.455-14.605zm62.685-10.401h-14.226v43.153h-4.78v-67.275h16.894v.996h-12.114v22.13h14.226v.996zm8.558-6.86c0 1.622-.89 2.434-2.668 2.434-1.556 0-2.334-.812-2.334-2.435s.778-2.434 2.334-2.434c1.779 0 2.668.811 2.668 2.434zm-.111 50.013h-4.89v-44.26h4.89v44.26zm28.23 0h-4.668v-35.519c0-2.36-.5-4.407-1.5-6.14-1-1.734-2.13-2.6-3.39-2.6-2.223 0-4.15.718-5.78 2.157-1.63 1.438-2.63 3.264-3 5.477v36.625h-4.78v-44.15h4.78v4.316c1.852-3.615 4.779-5.422 8.78-5.422 2.593 0 4.835.978 6.724 2.932 1.89 1.955 2.834 4.224 2.834 6.805v35.52zm51.126-22.13c0 6.492-2.315 12.06-6.946 16.708-4.631 4.648-10.244 6.971-16.839 6.971-6.52 0-12.114-2.323-16.782-6.97-4.668-4.648-7.002-10.217-7.002-16.709 0-6.565 2.334-12.153 7.002-16.763 4.668-4.61 10.262-6.916 16.782-6.916 8.077 0 14.412 3.135 19.006 9.405v-30.982h4.78v45.256zm-4.779 0c0-6.27-1.852-11.618-5.557-16.044s-8.188-6.64-13.449-6.64c-5.186 0-9.632 2.214-13.337 6.64s-5.557 9.774-5.557 16.044c0 6.27 1.852 11.618 5.557 16.044s8.15 6.64 13.337 6.64c5.261 0 9.744-2.214 13.449-6.64s5.557-9.774 5.557-16.044zm53.793 10.622c-2 3.91-4.89 7.064-8.669 9.461-3.779 2.397-7.965 3.596-12.559 3.596-6.52 0-12.115-2.323-16.783-6.97-4.668-4.648-7.002-10.217-7.002-16.709 0-6.565 2.334-12.153 7.002-16.763 4.668-4.61 10.263-6.916 16.783-6.916 4.52 0 8.65 1.143 12.392 3.43 3.742 2.287 6.613 5.348 8.614 9.184l-39.456 16.044c.963 5.09 3.168 9.313 6.613 12.67 3.446 3.356 7.391 5.034 11.837 5.034 3.853 0 7.317-1.235 10.392-3.706 3.075-2.472 5.39-5.736 6.946-9.793l3.89 1.438zm-4.445-21.244c-1.556-3.689-3.835-6.62-6.836-8.797-3-2.176-6.316-3.264-9.947-3.264-5.187 0-9.632 2.213-13.337 6.639s-5.557 9.774-5.557 16.044c0 .885.074 2.213.222 3.983l35.455-14.605zM624 135.207c0 1.918-1 2.877-3 2.877-2.001 0-3.002-.959-3.002-2.877 0-.59.223-1.18.667-1.77-1.482.59-2.408 1.807-2.778 3.652v40.608h-4.78v-44.26h4.78v1.107c1.111-1.55 2.815-2.324 5.112-2.324 2 0 3.001.996 3.001 2.987z" fill="#FFF" fill-rule="nonzero"/><g transform="translate(75 90)"><rect stroke="#FFF" stroke-width="3" x="1.5" y="1.5" width="117" height="117" rx="15"/><path fill="#FFF" fill-rule="nonzero" d="M80.845 59.812L39.22 83.845V35.78z"/></g></g></svg>