<svg width="314" height="128" xmlns="http://www.w3.org/2000/svg"><g fill="none" fill-rule="evenodd"><path d="M75.277 85.021h17.754v13.272H75.277V128H58.93V98.293H.658v-9.58L57.963.03h17.314v84.99zm-56.162 0H58.93V22.268l-1.934 3.515-37.88 59.238zM295.277 85.021h17.754v13.272h-17.754V128H278.93V98.293h-58.272v-9.58L277.963.03h17.314v84.99zm-56.162 0h39.815V22.268l-1.934 3.515-37.88 59.238z" fill="#FFF"/><g fill-rule="nonzero" fill="#35B3B3"><path d="M122.426 95.511h31.248v14.83h-31.248zM122.426 27.189h14.3v63.556h-14.3zM141.493 57.378h15.359v33.367h-15.36zM162.148 57.378h15.36v33.367h-15.36zM182.804 30.896h14.3v59.32h-14.3z"/></g></g></svg>