<?xml version="1.0" encoding="UTF-8"?>
<svg width="700px" height="300px" viewBox="0 0 700 300" version="1.1" xmlns="http://www.w3.org/2000/svg" xmlns:xlink="http://www.w3.org/1999/xlink">
    <!-- Generator: Sketch 55.2 (78181) - https://sketchapp.com -->
    <title>black-logos</title>
    <desc>Created with Sketch.</desc>
    <g id="black-logos" stroke="none" stroke-width="1" fill="none" fill-rule="evenodd">
        <rect fill="#FFFFFF" x="0" y="0" width="700" height="300"></rect>
        <g id="ghost-jack-entertainment" transform="translate(75.000000, 77.000000)" fill="#000000" fill-rule="nonzero">
            <g id="logo">
                <path d="M12.2336678,85.5562024 C12.2336678,75.0741511 16.2167224,65.4419958 22.7603122,58.3595288 L19.0617614,53.8267498 C11.3801561,62.0424116 6.54358974,73.374359 6.54358974,85.5562024 C6.54358974,109.919889 25.0363434,129.750797 48.6501672,132.300485 L48.0811594,126.351213 C27.8813824,123.518226 12.2336678,106.237006 12.2336678,85.5562024 M53.4867336,44.4778933 C60.883835,44.4778933 67.9964326,46.4609841 73.9710145,49.8605683 C74.8245262,48.1607762 75.9625418,46.4609841 76.8160535,44.761192 C69.9879599,40.7950104 62.0218506,38.5286209 53.4867336,38.5286209 C45.5206243,38.5286209 38.1235229,40.5117117 31.5799331,43.9112959 C32.4334448,45.611088 33.5714604,47.3108801 34.4249721,49.0106722 C40.3995541,46.1776854 46.6586399,44.4778933 53.4867336,44.4778933 M94.7397993,85.5562024 C94.7397993,105.670409 80.2301003,122.385031 61.1683389,125.784615 L60.5993311,131.733888 C83.3596433,128.334304 100.714381,108.786694 100.714381,85.2729037 C100.714381,73.6576577 96.4468227,62.8923077 89.3342252,54.6766459 L85.3511706,59.4927235 C91.3257525,66.5751906 94.7397993,75.6407484 94.7397993,85.5562024" id="Shape"></path>
                <path d="M0,0 L3.69855072,12.4651421 L10.8111483,41.3616078 L34.709476,70.5413721 L34.4249721,72.2411642 L27.3123746,88.6724879 L41.5375697,98.8712405 L44.0981048,113.319473 L47.7966555,116.15246 L50.6416945,142.782536 L53.4867336,145.615523 L56.9007804,142.782536 L56.9007804,142.499238 L59.7458194,116.15246 L63.4443701,113.319473 L66.0049052,98.8712405 L80.2301003,88.6724879 L73.1175028,71.9578656 L73.1175028,70.2580735 L97.0158305,41.0783091 L105.266444,13.5983368 L109.818506,0 L104.128428,3.96618157 C103.55942,4.24948025 99.5763657,9.06555787 78.238573,45.8943867 L73.1175028,54.6766459 C70.2724638,59.7760222 68.8499443,61.759113 67.1429208,64.8753985 L66.8584169,65.1586972 L41.5375697,65.1586972 L41.2530658,64.8753985 C39.2615385,61.4758143 38.6925307,60.3426195 35.5629877,54.9599446 L29.8729097,45.0444906 C9.38862876,9.06555787 5.40557414,4.24948025 4.83656633,3.96618157 M53.7712375,92.0720721 C50.0726867,92.0720721 46.9431438,88.9557866 46.9431438,85.2729037 C46.9431438,81.5900208 50.0726867,78.4737353 53.7712375,78.4737353 C57.4697882,78.4737353 60.5993311,81.5900208 60.5993311,85.2729037 C60.5993311,89.2390852 57.4697882,92.0720721 53.7712375,92.0720721" id="Shape"></path>
            </g>
            <g id="logo-text" transform="translate(125.000000, 24.000000)">
                <g id="Layer_1">
                    <g id="Group">
                        <path d="M30.0333333,69.1008772 C25.5,69.1008772 21.5333333,68.245614 17.85,66.8201754 C14.1666667,65.3947368 11.05,63.1140351 8.5,60.2631579 C5.95,57.4122807 3.96666667,53.7061404 2.26666667,49.4298246 C0.85,45.4385965 0,40.5921053 0,34.8903509 C0,29.4736842 0.85,24.3421053 2.26666667,20.0657895 C3.68333333,15.7894737 5.66666667,12.3684211 8.21666667,9.51754386 C10.7666667,6.66666667 13.8833333,4.38596491 17.5666667,2.96052632 C21.5333333,1.53508772 25.5,0.679824561 30.0333333,0.679824561 L54.6833333,0.679824561 L54.6833333,8.6622807 L30.8833333,8.6622807 C26.9166667,8.6622807 23.8,9.23245614 20.9666667,10.372807 C18.4166667,11.5131579 16.15,13.2236842 14.45,15.504386 C12.75,17.7850877 11.6166667,20.6359649 10.7666667,23.7719298 C9.91666667,26.9078947 9.63333333,30.6140351 9.63333333,34.6052632 C9.63333333,38.5964912 9.91666667,42.3026316 10.7666667,45.4385965 C11.3333333,49.1447368 12.4666667,51.995614 14.1666667,53.9912281 C15.8666667,56.2719298 18.1333333,57.9824561 20.6833333,59.122807 C23.2333333,60.2631579 26.6333333,60.8333333 30.6,60.8333333 L48.45,60.8333333 L48.45,40.0219298 L29.4666667,40.0219298 L29.4666667,32.3245614 L57.8,32.3245614 L57.8,68.8157895 L30.0333333,68.8157895 L30.0333333,69.1008772 Z M68,21.4912281 L74.5166667,21.4912281 L74.5166667,42.0175439 L99.1666667,42.0175439 L99.1666667,21.4912281 L105.683333,21.4912281 L105.683333,69.1008772 L99.1666667,69.1008772 L99.1666667,47.1491228 L74.5166667,47.1491228 L74.5166667,69.1008772 L68,69.1008772 L68,21.4912281 Z M137.983333,69.6710526 C134.866667,69.6710526 132.033333,69.3859649 129.2,68.5307018 C126.366667,67.6754386 124.1,66.5350877 121.833333,64.5394737 C119.85,62.5438596 118.15,60.2631579 117.016667,57.127193 C115.883333,53.9912281 115.316667,50.2850877 115.316667,45.4385965 C115.316667,40.877193 115.883333,36.8859649 117.016667,33.75 C118.15,30.6140351 119.85,28.0482456 121.833333,26.0526316 C123.816667,24.0570175 126.366667,22.9166667 129.2,22.0614035 C132.033333,21.2061404 134.866667,20.9210526 137.983333,20.9210526 C141.1,20.9210526 143.933333,21.2061404 146.766667,22.0614035 C149.6,22.9166667 151.866667,24.3421053 154.133333,26.0526316 C156.116667,28.0482456 157.816667,30.6140351 158.95,33.75 C160.083333,36.8859649 160.65,40.877193 160.65,45.4385965 C160.65,50 160.083333,53.9912281 158.95,57.127193 C157.816667,60.2631579 156.116667,62.8289474 154.133333,64.5394737 C152.15,66.5350877 149.6,67.6754386 147.05,68.5307018 C143.933333,69.3859649 141.1,69.6710526 137.983333,69.6710526 Z M137.983333,64.254386 C140.533333,64.254386 142.516667,63.9692982 144.5,63.3991228 C146.483333,62.8289474 148.183333,61.9736842 149.6,60.5482456 C151.016667,59.122807 152.15,57.127193 152.716667,54.8464912 C153.566667,52.5657895 153.85,49.4298246 153.85,45.7236842 C153.85,42.0175439 153.566667,38.8815789 152.716667,36.3157895 C151.866667,33.75 151.016667,31.754386 149.6,30.3289474 C148.183333,28.9035088 146.483333,27.7631579 144.5,27.1929825 C142.516667,26.622807 140.25,26.3377193 137.7,26.3377193 C135.15,26.3377193 132.883333,26.622807 130.9,27.1929825 C128.916667,27.7631579 127.216667,28.9035088 125.8,30.3289474 C124.383333,31.754386 123.25,33.75 122.683333,36.3157895 C121.833333,38.8815789 121.55,42.0175439 121.55,45.7236842 C121.55,49.4298246 121.833333,52.5657895 122.683333,54.8464912 C123.533333,57.127193 124.666667,59.122807 125.8,60.5482456 C127.216667,61.9736842 128.916667,62.8289474 130.9,63.3991228 C133.166667,63.9692982 135.433333,64.254386 137.983333,64.254386 Z M167.733333,63.3991228 L189.833333,63.3991228 C190.966667,63.3991228 192.1,63.3991228 192.95,63.1140351 C194.083333,62.8289474 194.933333,62.5438596 195.5,61.9736842 C196.35,61.4035088 196.916667,60.5482456 197.483333,59.6929825 C198.05,58.5526316 198.05,57.4122807 198.05,55.9868421 C198.05,54.5614035 197.766667,53.1359649 197.483333,52.2807018 C197.2,51.4254386 196.633333,50.5701754 195.783333,50 C195.216667,49.4298246 194.366667,49.1447368 193.233333,48.8596491 C192.383333,48.5745614 191.25,48.5745614 190.116667,48.5745614 L180.483333,48.5745614 C175.95,48.5745614 172.55,47.4342105 170,45.4385965 C167.45,43.4429825 166.033333,40.0219298 166.033333,35.745614 C166.033333,33.4649123 166.316667,31.4692982 167.166667,29.7587719 C168.016667,28.0482456 168.866667,26.622807 170.283333,25.4824561 C171.7,24.3421053 173.4,23.4868421 175.1,22.9166667 C177.083333,22.3464912 179.066667,22.0614035 181.333333,22.0614035 L201.166667,22.0614035 L201.166667,27.7631579 L180.766667,27.7631579 C179.633333,27.7631579 178.5,27.7631579 177.366667,28.0482456 C176.233333,28.3333333 175.383333,28.6184211 174.533333,29.1885965 C173.683333,29.7587719 173.116667,30.6140351 172.833333,31.4692982 C172.55,32.6096491 172.266667,33.75 172.266667,35.1754386 C172.266667,36.6008772 172.55,37.7412281 172.833333,38.8815789 C173.116667,39.7368421 173.683333,40.5921053 174.533333,41.1622807 C175.1,41.7324561 175.95,42.0175439 177.083333,42.3026316 C177.933333,42.5877193 179.066667,42.5877193 180.2,42.5877193 L189.55,42.5877193 C194.083333,42.5877193 197.483333,43.7280702 200.033333,45.7236842 C202.583333,48.004386 204,51.1403509 204,55.7017544 C204,57.9824561 203.716667,59.9780702 202.866667,61.6885965 C202.016667,63.3991228 201.166667,64.8245614 199.75,65.9649123 C198.333333,67.1052632 196.633333,67.9605263 194.933333,68.5307018 C192.95,69.1008772 190.966667,69.3859649 188.7,69.3859649 L166.883333,69.3859649 L166.883333,63.3991228 L167.733333,63.3991228 Z M225.533333,27.1929825 L209.95,27.1929825 L209.95,21.4912281 L247.633333,21.4912281 L247.633333,27.1929825 L232.05,27.1929825 L232.05,69.1008772 L225.533333,69.1008772 L225.533333,27.1929825 Z M251.6,61.1184211 L261.233333,61.1184211 C264.633333,61.1184211 267.466667,60.8333333 269.733333,60.2631579 C272,59.6929825 273.7,58.5526316 274.833333,57.4122807 C275.966667,55.9868421 276.816667,54.5614035 277.383333,52.5657895 C277.95,50.5701754 277.95,48.2894737 277.95,45.7236842 L277.95,2.96052632 L287.016667,2.96052632 L287.016667,45.7236842 C287.016667,50 286.45,53.7061404 285.316667,56.8421053 C284.183333,59.9780702 282.766667,62.2587719 280.5,64.254386 C278.516667,65.9649123 275.683333,67.3903509 272.85,68.245614 C269.733333,69.1008772 266.333333,69.3859649 262.083333,69.3859649 L251.6,69.3859649 L251.6,61.1184211 L251.6,61.1184211 Z M300.333333,69.1008772 L293.816667,69.1008772 L312.8,21.4912281 L319.316667,21.4912281 L337.733333,69.1008772 L330.933333,69.1008772 L326.116667,55.9868421 L306,55.9868421 L300.333333,69.1008772 Z M319.316667,39.1666667 C318.75,38.0263158 318.466667,36.6008772 317.9,35.4605263 C317.333333,34.0350877 317.05,32.8947368 316.766667,32.0394737 C316.483333,30.8991228 315.916667,29.4736842 315.633333,28.3333333 C315.35,29.4736842 315.066667,30.8991228 314.5,32.0394737 C314.216667,33.1798246 313.65,34.3201754 313.366667,35.4605263 C312.8,36.8859649 312.516667,38.0263158 311.95,39.1666667 L307.416667,50.8552632 L323.566667,50.8552632 L319.316667,39.1666667 L319.316667,39.1666667 Z M363.516667,69.1008772 C360.4,69.1008772 357.566667,68.5307018 355.016667,67.6754386 C352.466667,66.5350877 350.2,65.1096491 348.5,63.1140351 C346.8,61.1184211 345.383333,58.5526316 344.25,55.7017544 C343.116667,52.8508772 342.833333,49.4298246 342.833333,45.4385965 C342.833333,41.4473684 343.4,38.0263158 344.25,35.1754386 C345.383333,32.3245614 346.8,29.7587719 348.5,27.7631579 C350.2,25.7675439 352.466667,24.3421053 355.016667,23.2017544 C357.566667,22.0614035 360.4,21.7763158 363.516667,21.7763158 L378.533333,21.7763158 L378.533333,27.4780702 L364.083333,27.4780702 C361.25,27.4780702 358.983333,27.7631579 357.283333,28.6184211 C355.3,29.4736842 353.883333,30.6140351 352.75,32.3245614 C351.616667,34.0350877 350.766667,35.745614 350.2,38.0263158 C349.633333,40.3070175 349.35,42.872807 349.35,45.7236842 C349.35,48.5745614 349.633333,51.1403509 350.2,53.4210526 C350.766667,55.7017544 351.616667,57.6973684 352.75,59.122807 C353.883333,60.5482456 355.583333,61.9736842 357.283333,62.5438596 C359.266667,63.3991228 361.533333,63.6842105 364.083333,63.6842105 L378.533333,63.6842105 L378.533333,69.3859649 L363.516667,69.3859649 L363.516667,69.1008772 Z M415.933333,21.4912281 L423.583333,21.4912281 C420.183333,25.1973684 417.066667,28.6184211 414.516667,31.4692982 L405.166667,41.4473684 L425,69.1008772 L417.633333,69.1008772 L400.916667,45.7236842 L393.266667,53.9912281 L393.266667,69.1008772 L386.75,69.1008772 L386.75,21.4912281 L393.266667,21.4912281 L393.266667,46.2938596 L415.933333,21.4912281 Z" id="Shape"></path>
                        <path d="M228.933333,82.7850877 L241.4,82.7850877 L241.4,85.9210526 L232.333333,85.9210526 L232.333333,89.3421053 L240.266667,89.3421053 L240.266667,92.1929825 L232.333333,92.1929825 L232.333333,96.1842105 L241.116667,96.1842105 L241.116667,99.3201754 L228.65,99.3201754 L228.65,82.7850877 L228.933333,82.7850877 Z M243.666667,82.7850877 L247.35,82.7850877 L254.15,93.9035088 L254.15,82.7850877 L257.833333,82.7850877 L257.833333,99.3201754 L254.15,99.3201754 L247.35,88.2017544 L247.35,99.3201754 L243.666667,99.3201754 L243.666667,82.7850877 Z M264.633333,85.9210526 L259.816667,85.9210526 L259.816667,82.7850877 L273.416667,82.7850877 L273.416667,85.9210526 L268.6,85.9210526 L268.6,99.3201754 L264.916667,99.3201754 L264.916667,85.9210526 L264.633333,85.9210526 Z M275.116667,82.7850877 L287.583333,82.7850877 L287.583333,85.9210526 L278.8,85.9210526 L278.8,89.3421053 L286.733333,89.3421053 L286.733333,92.1929825 L278.8,92.1929825 L278.8,96.1842105 L287.583333,96.1842105 L287.583333,99.3201754 L275.116667,99.3201754 L275.116667,82.7850877 L275.116667,82.7850877 Z M290.133333,82.7850877 L298.916667,82.7850877 C301.75,82.7850877 303.733333,84.7807018 303.733333,87.3464912 C303.733333,89.3421053 302.883333,90.7675439 301.183333,91.622807 C302.883333,92.1929825 303.45,93.9035088 303.733333,95.6140351 C303.733333,96.754386 303.733333,98.75 304.3,99.6052632 L300.616667,99.6052632 C300.05,98.4649123 300.333333,97.0394737 300.05,95.6140351 C299.766667,93.9035088 299.2,93.0482456 297.216667,93.0482456 L293.533333,93.0482456 L293.533333,99.6052632 L289.85,99.6052632 L289.85,82.7850877 L290.133333,82.7850877 Z M293.816667,90.4824561 L297.783333,90.4824561 C299.483333,90.4824561 300.333333,89.9122807 300.333333,88.2017544 C300.333333,86.4912281 299.483333,85.9210526 297.783333,85.9210526 L293.816667,85.9210526 L293.816667,90.4824561 L293.816667,90.4824561 Z M309.966667,85.9210526 L305.15,85.9210526 L305.15,82.7850877 L318.75,82.7850877 L318.75,85.9210526 L313.933333,85.9210526 L313.933333,99.3201754 L310.25,99.3201754 L310.25,85.9210526 L309.966667,85.9210526 Z M323.283333,82.7850877 L326.966667,82.7850877 L333.2,99.3201754 L329.516667,99.3201754 L328.383333,95.6140351 L322.15,95.6140351 L320.733333,99.3201754 L317.05,99.3201754 L323.283333,82.7850877 Z M323,93.0482456 L327.25,93.0482456 L325.266667,87.0614035 L323,93.0482456 Z M334.616667,82.7850877 L338.3,82.7850877 L338.3,99.3201754 L334.616667,99.3201754 L334.616667,82.7850877 Z M341.416667,82.7850877 L345.1,82.7850877 L351.9,93.9035088 L351.9,82.7850877 L355.3,82.7850877 L355.3,99.3201754 L351.616667,99.3201754 L344.816667,88.2017544 L344.816667,99.3201754 L341.416667,99.3201754 L341.416667,82.7850877 Z M358.7,82.7850877 L363.8,82.7850877 L367.766667,94.1885965 L371.45,82.7850877 L376.55,82.7850877 L376.55,99.3201754 L373.15,99.3201754 L373.15,87.6315789 L369.183333,99.3201754 L366.35,99.3201754 L362.383333,87.6315789 L362.383333,99.3201754 L358.983333,99.3201754 L358.983333,82.7850877 L358.7,82.7850877 Z M379.666667,82.7850877 L392.133333,82.7850877 L392.133333,85.9210526 L383.35,85.9210526 L383.35,89.3421053 L391.283333,89.3421053 L391.283333,92.1929825 L383.35,92.1929825 L383.35,96.1842105 L392.133333,96.1842105 L392.133333,99.3201754 L379.666667,99.3201754 L379.666667,82.7850877 L379.666667,82.7850877 Z M394.683333,82.7850877 L398.366667,82.7850877 L405.166667,93.9035088 L405.166667,82.7850877 L408.566667,82.7850877 L408.566667,99.3201754 L404.883333,99.3201754 L398.083333,88.2017544 L398.083333,99.3201754 L394.683333,99.3201754 L394.683333,82.7850877 Z M415.366667,85.9210526 L410.55,85.9210526 L410.55,82.7850877 L424.15,82.7850877 L424.15,85.9210526 L419.333333,85.9210526 L419.333333,99.3201754 L415.65,99.3201754 L415.65,85.9210526 L415.366667,85.9210526 Z" id="Shape"></path>
                    </g>
                </g>
            </g>
        </g>
    </g>
</svg>