<svg width="700" height="300" xmlns="http://www.w3.org/2000/svg"><g fill="#FFF" fill-rule="nonzero"><path d="M87.234 162.556c0-10.482 3.983-20.114 10.526-27.196l-3.698-4.533c-7.682 8.215-12.518 19.547-12.518 31.73 0 24.363 18.492 44.194 42.106 46.743l-.569-5.949c-20.2-2.833-35.847-20.114-35.847-40.795m41.253-41.078c7.397 0 14.51 1.983 20.484 5.383.854-1.7 1.992-3.4 2.845-5.1-6.828-3.966-14.794-6.232-23.33-6.232-7.965 0-15.362 1.983-21.906 5.382.853 1.7 1.991 3.4 2.845 5.1 5.975-2.833 12.234-4.533 19.062-4.533m41.253 41.078c0 20.114-14.51 36.829-33.572 40.229l-.569 5.949c22.76-3.4 40.115-22.947 40.115-46.461a46.702 46.702 0 0 0-11.38-30.596l-3.983 4.816c5.975 7.082 9.389 16.148 9.389 26.063"/><path d="M75 77l3.699 12.465 7.112 28.897 23.898 29.18-.284 1.7-7.113 16.43 14.226 10.2 2.56 14.447 3.699 2.833 2.845 26.63 2.845 2.834 3.414-2.833v-.284l2.845-26.347 3.698-2.833 2.56-14.448 14.226-10.199-7.112-16.714v-1.7l23.898-29.18 8.25-27.48L184.82 77l-5.69 3.966c-.57.283-4.553 5.1-25.89 41.928l-5.121 8.783c-2.846 5.099-4.268 7.082-5.975 10.198l-.285.284h-25.32l-.285-.284c-1.991-3.4-2.56-4.532-5.69-9.915l-5.69-9.916C84.389 86.066 80.406 81.25 79.837 80.966m48.934 88.106c-3.698 0-6.828-3.116-6.828-6.8 0-3.682 3.13-6.798 6.828-6.798 3.699 0 6.828 3.116 6.828 6.799 0 3.966-3.13 6.8-6.828 6.8"/><g><path d="M230.033 170.1c-4.533 0-8.5-.854-12.183-2.28-3.683-1.425-6.8-3.706-9.35-6.557-2.55-2.85-4.533-6.557-6.233-10.833-1.417-3.991-2.267-8.838-2.267-14.54 0-5.416.85-10.548 2.267-14.824 1.416-4.277 3.4-7.698 5.95-10.548 2.55-2.851 5.666-5.132 9.35-6.557 3.966-1.426 7.933-2.281 12.466-2.281h24.65v7.982h-23.8c-3.966 0-7.083.57-9.916 1.71-2.55 1.141-4.817 2.852-6.517 5.132-1.7 2.281-2.833 5.132-3.683 8.268-.85 3.136-1.134 6.842-1.134 10.833 0 3.991.284 7.698 1.134 10.834.566 3.706 1.7 6.557 3.4 8.552 1.7 2.28 3.966 3.991 6.516 5.132 2.55 1.14 5.95 1.71 9.917 1.71h17.85v-20.811h-18.983v-7.697H257.8v36.49h-27.767v.286zM268 122.492h6.517v20.527h24.65V122.49h6.516v47.61h-6.516v-21.952h-24.65v21.952H268v-47.61zm69.983 48.18c-3.116 0-5.95-.285-8.783-1.14-2.833-.856-5.1-1.996-7.367-3.992-1.983-1.995-3.683-4.276-4.816-7.412-1.134-3.136-1.7-6.842-1.7-11.688 0-4.562.566-8.553 1.7-11.689 1.133-3.136 2.833-5.702 4.816-7.697 1.984-1.996 4.534-3.136 7.367-3.992 2.833-.855 5.667-1.14 8.783-1.14 3.117 0 5.95.285 8.784 1.14 2.833.856 5.1 2.281 7.366 3.992 1.984 1.995 3.684 4.561 4.817 7.697s1.7 7.127 1.7 11.689c0 4.561-.567 8.552-1.7 11.688-1.133 3.136-2.833 5.702-4.817 7.412-1.983 1.996-4.533 3.136-7.083 3.992-3.117.855-5.95 1.14-9.067 1.14zm0-5.417c2.55 0 4.534-.285 6.517-.855 1.983-.57 3.683-1.425 5.1-2.85 1.417-1.426 2.55-3.422 3.117-5.703.85-2.28 1.133-5.416 1.133-9.122 0-3.706-.283-6.842-1.133-9.408-.85-2.566-1.7-4.562-3.117-5.987-1.417-1.425-3.117-2.566-5.1-3.136-1.983-.57-4.25-.855-6.8-.855s-4.817.285-6.8.855c-1.983.57-3.683 1.71-5.1 3.136-1.417 1.425-2.55 3.421-3.117 5.987-.85 2.566-1.133 5.702-1.133 9.408 0 3.706.283 6.842 1.133 9.122.85 2.281 1.984 4.277 3.117 5.702 1.417 1.426 3.117 2.28 5.1 2.851 2.267.57 4.533.855 7.083.855zm29.75-.855h22.1c1.134 0 2.267 0 3.117-.285 1.133-.285 1.983-.57 2.55-1.14.85-.57 1.417-1.426 1.983-2.281.567-1.14.567-2.28.567-3.706 0-1.426-.283-2.851-.567-3.706-.283-.856-.85-1.71-1.7-2.281-.566-.57-1.416-.855-2.55-1.14-.85-.285-1.983-.285-3.116-.285h-9.634c-4.533 0-7.933-1.14-10.483-3.136-2.55-1.996-3.967-5.417-3.967-9.693 0-2.281.284-4.277 1.134-5.987.85-1.71 1.7-3.136 3.116-4.277 1.417-1.14 3.117-1.995 4.817-2.565 1.983-.57 3.967-.856 6.233-.856h19.834v5.702h-20.4c-1.134 0-2.267 0-3.4.285-1.134.285-1.984.57-2.834 1.14-.85.57-1.416 1.426-1.7 2.281-.283 1.14-.566 2.281-.566 3.706 0 1.426.283 2.566.566 3.707.284.855.85 1.71 1.7 2.28.567.57 1.417.856 2.55 1.14.85.286 1.984.286 3.117.286h9.35c4.533 0 7.933 1.14 10.483 3.136 2.55 2.28 3.967 5.416 3.967 9.978 0 2.28-.283 4.276-1.133 5.987-.85 1.71-1.7 3.136-3.117 4.276-1.417 1.14-3.117 1.996-4.817 2.566-1.983.57-3.966.855-6.233.855h-21.817v-5.987h.85zm57.8-36.206H409.95v-5.702h37.683v5.702H432.05v41.908h-6.517v-41.908zm26.067 33.925h9.633c3.4 0 6.234-.285 8.5-.855 2.267-.57 3.967-1.71 5.1-2.85 1.134-1.426 1.984-2.852 2.55-4.847.567-1.996.567-4.277.567-6.842V103.96h9.067v42.763c0 4.276-.567 7.982-1.7 11.118-1.134 3.136-2.55 5.417-4.817 7.412-1.983 1.71-4.817 3.136-7.65 3.992-3.117.855-6.517 1.14-10.767 1.14H451.6v-8.268zm48.733 7.983h-6.516l18.983-47.61h6.517l18.416 47.61h-6.8l-4.816-13.114H506l-5.667 13.114zm18.984-29.934c-.567-1.14-.85-2.566-1.417-3.706-.567-1.426-.85-2.566-1.133-3.422-.284-1.14-.85-2.565-1.134-3.706-.283 1.14-.566 2.566-1.133 3.706-.283 1.14-.85 2.281-1.133 3.422-.567 1.425-.85 2.565-1.417 3.706l-4.533 11.688h16.15l-4.25-11.688zm44.2 29.934c-3.117 0-5.95-.57-8.5-1.426-2.55-1.14-4.817-2.565-6.517-4.561-1.7-1.996-3.117-4.561-4.25-7.412s-1.417-6.272-1.417-10.263c0-3.992.567-7.413 1.417-10.264 1.133-2.85 2.55-5.416 4.25-7.412 1.7-1.995 3.967-3.42 6.517-4.561 2.55-1.14 5.383-1.426 8.5-1.426h15.016v5.702h-14.45c-2.833 0-5.1.285-6.8 1.14-1.983.856-3.4 1.996-4.533 3.707-1.133 1.71-1.983 3.42-2.55 5.701-.567 2.281-.85 4.847-.85 7.698 0 2.85.283 5.416.85 7.697.567 2.28 1.417 4.276 2.55 5.702 1.133 1.425 2.833 2.85 4.533 3.42 1.984.856 4.25 1.141 6.8 1.141h14.45v5.702h-15.016v-.285zm52.416-47.61h7.65c-3.4 3.706-6.516 7.127-9.066 9.978l-9.35 9.978L625 170.101h-7.367l-16.716-23.377-7.65 8.267v15.11h-6.517v-47.61h6.517v24.803l22.666-24.803zM428.933 183.785H441.4v3.136h-9.067v3.421h7.934v2.851h-7.934v3.991h8.784v3.136H428.65v-16.535h.283zm14.734 0h3.683l6.8 11.119v-11.119h3.683v16.535h-3.683l-6.8-11.118v11.118h-3.683v-16.535zm20.966 3.136h-4.816v-3.136h13.6v3.136H468.6v13.4h-3.683v-13.4h-.284zm10.484-3.136h12.466v3.136H478.8v3.421h7.933v2.851H478.8v3.991h8.783v3.136h-12.466v-16.535zm15.016 0h8.784c2.833 0 4.816 1.996 4.816 4.561 0 1.996-.85 3.422-2.55 4.277 1.7.57 2.267 2.28 2.55 3.991 0 1.14 0 3.136.567 3.991h-3.683c-.567-1.14-.284-2.566-.567-3.991-.283-1.71-.85-2.566-2.833-2.566h-3.684v6.557h-3.683v-16.82h.283zm3.684 7.697h3.966c1.7 0 2.55-.57 2.55-2.28s-.85-2.28-2.55-2.28h-3.966v4.56zm16.15-4.56h-4.817v-3.137h13.6v3.136h-4.817v13.4h-3.683v-13.4h-.283zm13.316-3.137h3.684l6.233 16.535h-3.683l-1.134-3.706h-6.233l-1.417 3.706h-3.683l6.233-16.535zM523 194.048h4.25l-1.983-5.987-2.267 5.987zm11.617-10.263h3.683v16.535h-3.683v-16.535zm6.8 0h3.683l6.8 11.119v-11.119h3.4v16.535h-3.683l-6.8-11.118v11.118h-3.4v-16.535zm17.283 0h5.1l3.967 11.404 3.683-11.404h5.1v16.535h-3.4v-11.688l-3.967 11.688h-2.833l-3.967-11.688v11.688h-3.4v-16.535h-.283zm20.967 0h12.466v3.136h-8.783v3.421h7.933v2.851h-7.933v3.991h8.783v3.136h-12.466v-16.535zm15.016 0h3.684l6.8 11.119v-11.119h3.4v16.535h-3.684l-6.8-11.118v11.118h-3.4v-16.535zm20.684 3.136h-4.817v-3.136h13.6v3.136h-4.817v13.4h-3.683v-13.4h-.283z"/></g></g></svg>