<?xml version="1.0" encoding="UTF-8"?>
<svg width="700px" height="300px" viewBox="0 0 700 300" version="1.1" xmlns="http://www.w3.org/2000/svg" xmlns:xlink="http://www.w3.org/1999/xlink">
    <!-- Generator: Sketch 64 (93537) - https://sketch.com -->
    <title>card-logo</title>
    <desc>Created with Sketch.</desc>
    <g id="card-logo" stroke="none" stroke-width="1" fill="none" fill-rule="evenodd">
        <rect fill="#FFFFFF" x="0" y="0" width="700" height="300"></rect>
        <g id="elder-scrolls-legends" transform="translate(124.000000, 102.000000)" fill-rule="nonzero">
            <g id="react-icon" transform="translate(0.000000, 1.000000)">
                <path d="M0,47.3291378 C0,55.309143 7.74242424,62.7582034 19.95,66.9572062 C17.5127273,79.3072142 19.5140909,89.2611096 26.1969697,93.1392232 C33.0665152,97.1260591 43.300303,94.3668351 53.0133333,85.8221073 C62.4813636,94.0216682 72.0512121,97.2485036 78.7277273,93.3587789 C85.5909091,89.3613874 87.6781818,78.731936 85.1730303,65.99665 C97.8875758,61.7659806 105,55.4146986 105,47.3291378 C105,39.5349105 97.2427273,32.7920173 85.1995455,28.6194034 C87.8966667,15.3573948 85.6110606,5.64522181 78.6513636,1.60666362 C71.9419697,-2.28728336 62.2618182,1.10632996 52.6537879,9.52016877 C42.6586364,0.591218516 33.0739394,-2.13633881 26.1227273,1.91383049 C19.419697,5.81938859 17.5063636,15.9537841 19.9521212,28.5317923 C8.155,32.6695727 0,39.5665772 0,47.3291378 Z" id="Path" fill="#FFFFFF"></path>
                <path d="M82.4645557,33.2259296 C81.4749837,32.8809439 80.4768641,32.5612825 79.471161,32.2672543 C79.6379299,31.5793013 79.7920327,30.8892249 79.9334695,30.194902 C82.1996255,19.0262818 80.7187606,10.0308713 75.6586994,7.06885136 C70.8065713,4.22892181 62.8723868,7.18988014 54.8590398,14.2690017 C54.0691637,14.9683485 53.2969954,15.6876734 52.5432755,16.4262865 C52.0385108,15.935469 51.5247465,15.4541023 51.0022472,14.9824345 C42.6036432,7.41070457 34.1860402,4.22042857 29.1312564,7.19094179 C24.2844059,10.0393646 22.8489275,18.4975772 24.8881512,29.0812249 C25.0918624,30.1290793 25.3209057,31.1726871 25.5763364,32.2078016 C24.4185253,32.5399792 23.2706997,32.9064095 22.1343548,33.3066154 C12.2886619,36.7941551 6,42.2542514 6,47.920309 C6,53.7721564 12.7499149,59.6409902 23.0061968,63.1985992 C23.8379299,63.4863079 24.6759959,63.7527835 25.520395,63.9969644 C25.2460161,65.1135479 25.0024543,66.2375652 24.7899898,67.3677219 C22.8447055,77.7677032 24.3635683,86.0252628 29.1977528,88.8556375 C34.1902622,91.7783762 42.5709227,88.7749516 50.730984,81.5333967 C51.3929861,80.9446633 52.0402103,80.3393293 52.6720463,79.7179651 C53.488078,80.5173854 54.3261181,81.2937577 55.185189,82.0461765 C63.0898195,88.9511865 70.8962887,91.7390949 75.7251958,88.900227 C80.7145386,85.9700567 82.3347293,77.0977983 80.2300647,66.3050043 C80.0643811,65.4594586 79.8785599,64.6180313 79.6727613,63.7814482 C80.2520597,63.608551 80.8284427,63.4259206 81.4016684,63.2336338 C92.0632618,59.6473601 99,53.8496572 99,47.920309 C99,42.2351416 92.5086823,36.7368257 82.4645557,33.2269912 L82.4645557,33.2259296 Z" id="Path" fill="#000000"></path>
                <path d="M80.9600641,58.7625591 C80.4452082,58.9310815 79.9176398,59.0943375 79.3805371,59.2523272 C78.1898004,55.5163969 76.5837891,51.5445354 74.6186499,47.4410157 C76.4937423,43.4343963 78.0383099,39.5141447 79.1951466,35.8024396 C80.1570584,36.0783949 81.0914265,36.3701493 81.9908352,36.6766493 C90.6925351,39.6479094 96,44.0400236 96,47.4210036 C96,51.0252758 90.267726,55.7049313 80.9600641,58.7625591 Z M77.0975856,66.3502788 C78.0383099,71.0625855 78.1728505,75.3240949 77.5499384,78.6545182 C76.9884701,81.6478968 75.8634146,83.6438336 74.4713969,84.4422083 C71.5072678,86.143231 65.1700912,83.9324282 58.336068,78.1015542 C57.5277727,77.4107683 56.7389406,76.6977839 55.9704853,75.9634266 C58.6210397,73.0911735 61.2684159,69.7502176 63.8522296,66.0416722 C68.3990638,65.6414315 72.6937669,64.9873541 76.589086,64.0941855 C76.7797733,64.8630688 76.9503326,65.6140467 77.0975856,66.3502788 L77.0975856,66.3502788 Z M38.0416359,84.1483475 C35.1463661,85.1615882 32.8401084,85.1910796 31.4459719,84.3937582 C28.4797241,82.6980018 27.2476718,76.1498545 28.9288987,67.3677326 C29.1288032,66.3294048 29.3577165,65.296806 29.6153732,64.271134 C33.4672579,65.1169057 37.7301798,65.7246395 42.2876078,66.0911756 C44.8894309,69.7207261 47.6141414,73.0564158 50.3600394,75.9781724 C49.7763242,76.5385092 49.1788372,77.0841004 48.5675782,77.6138926 C44.9190934,80.7768468 41.2631929,83.0192476 38.0416359,84.1483475 Z M24.4774082,58.7404405 C19.8924366,57.1858217 16.1051737,55.166713 13.5097068,52.9632831 C11.1780241,50.9831452 10,49.0166998 10,47.4210036 C10,44.0273844 15.1051244,39.6963595 23.6193151,36.7535377 C24.6879895,36.3855869 25.7672458,36.0487495 26.8557034,35.7434567 C28.0316088,39.5383698 29.5761764,43.5060184 31.4385563,47.5189573 C29.5528702,51.590879 27.9860557,55.6217234 26.7984972,59.4608737 C26.018994,59.2396292 25.245065,58.9994126 24.4774082,58.7404405 L24.4774082,58.7404405 Z M29.0242424,28.0546236 C27.2572062,19.0997662 28.4309929,12.3441258 31.3834688,10.6494227 C34.5298103,8.84412681 41.4856615,11.418306 48.8175905,17.8727127 C49.2868933,18.2855925 49.7572555,18.7174311 50.228677,19.1650687 C47.4976102,22.0720795 44.7972653,25.3845973 42.2187485,28.9920293 C37.795861,29.3996428 33.5626016,30.052667 29.6704607,30.9268768 C29.4307419,29.9746737 29.215267,29.016599 29.0242424,28.0535704 L29.0242424,28.0546236 Z M69.5855629,37.9848042 C68.6663116,36.4102769 67.7130062,34.8556476 66.7263119,33.3220009 C69.7275191,33.6980165 72.6016014,34.1962107 75.3008869,34.8071043 C74.4343714,37.5321601 73.4298623,40.2119253 72.2912047,42.8361419 C71.4219436,41.2012578 70.5198826,39.5838218 69.5855629,37.9848042 L69.5855629,37.9848042 Z M53.0444937,22.0109902 C54.8983986,24.0016607 56.7533629,26.2240494 58.5786647,28.6339193 C54.8761009,28.4605728 51.1673996,28.4598699 47.4647696,28.6318127 C49.2144102,26.3352827 51.0765665,24.1256741 53.0444937,22.0109902 L53.0444937,22.0109902 Z M36.3974871,38.0121891 C35.4752583,39.5983473 34.5904392,41.2057171 33.7437546,42.8329821 C32.6159391,40.1937971 31.6189308,37.5012295 30.7563193,34.7649737 C33.5727992,34.1473012 36.4172612,33.6633047 39.2800443,33.3146281 C38.2826508,34.8578142 37.321886,36.4241006 36.3985464,38.0121891 L36.3974871,38.0121891 Z M39.3658537,61.812814 C36.2862528,61.4715562 33.382508,61.0102262 30.7001725,60.4309305 C31.5796853,57.6394728 32.5968557,54.892746 33.7479921,52.2007193 C35.4661968,55.491536 37.3409376,58.6991954 39.3658537,61.812814 L39.3658537,61.812814 Z M53.155728,73.1143453 C51.1610726,70.9695524 49.2731306,68.7290387 47.4986696,66.4008355 C49.2996058,66.4703509 51.134442,66.5061619 53,66.5061619 C54.9174674,66.5061619 56.8116285,66.4640314 58.6761271,66.3808234 C56.8455285,68.8486229 54.995861,71.1047161 53.1567874,73.1132921 L53.155728,73.1143453 Z M72.3293422,52.0574753 C73.58576,54.8970772 74.6451343,57.6460984 75.4862774,60.2581951 C72.5902846,60.903606 69.6624457,61.3986088 66.7146588,61.741192 C67.7088643,60.1791125 68.6716734,58.5974972 69.6025129,56.9972873 C70.5482594,55.3710317 71.4574283,53.7240186 72.3293422,52.0574753 L72.3293422,52.0574753 Z M66.1214092,55.0066168 C64.6973288,57.460294 63.1932801,59.8672257 61.6116531,62.2235872 C58.8212614,62.421601 55.9376447,62.5238408 53,62.5238408 C50.1597943,62.5258913 47.3202572,62.4370199 44.4858093,62.2572917 C41.2472778,57.5664117 38.3699457,52.6388995 35.8783937,47.5168507 C37.1163805,44.9624269 38.4507259,42.4552829 39.8785908,40.0007531 L39.8785908,40.0018063 C41.3061331,37.5462245 42.8270809,35.1455037 44.4381375,32.8048479 C50.1436977,32.3787145 55.8734116,32.3797707 61.5788125,32.8080077 C63.1736238,35.1451164 64.6848811,37.5375198 66.1097561,39.980741 C67.5421554,42.4297473 68.8939276,44.9244994 70.1629219,47.4610277 C68.9067815,50.0235384 67.559107,52.5406861 66.1224686,55.00767 L66.1214092,55.0066168 Z M74.4099532,10.5325103 C77.5594728,12.3335931 78.7841094,19.5937474 76.8051983,29.1152613 C76.675566,29.7356624 76.5346461,30.353679 76.382508,30.9690074 C72.4818921,30.0758388 68.2454545,29.412282 63.8098546,28.9994022 C61.2249815,25.3519461 58.5479428,22.034162 55.8613698,19.1640154 C56.5652501,18.4904953 57.2858469,17.8344602 58.0224932,17.1965167 C64.9656319,11.2065998 71.4542991,8.84202028 74.4110126,10.5325103 L74.4099532,10.5325103 Z" id="Shape" fill="#FFFFFF"></path>
                <path d="M53.5,39 C58.1943182,39 62,42.8060664 62,47.4994629 C62,52.1939336 58.1943182,56 53.5,56 C48.8056818,56 45,52.1939336 45,47.4994629 C45,42.8049921 48.8056818,39 53.5,39" id="Path" fill="#000000"></path>
            </g>
            <path d="M222.109375,106.148438 L222.109375,92.671875 C220.796875,92.796875 219.9375,93.1171875 219.53125,93.6328125 L219.53125,93.6328125 L219.320312,93.8671875 C219.039062,94.1484375 218.851562,94.3203125 218.757812,94.3828125 C217.351562,95.3828125 213.492188,96.203125 207.179688,96.84375 C205.929688,96.96875 205.195312,97.03125 204.976562,97.03125 C204.242188,97.03125 203.796875,96.859375 203.640625,96.515625 C203.3125,95.765625 203.148438,94.4140625 203.148438,92.4609375 L203.148438,92.4609375 L203.195312,68.578125 C203.257812,68.25 203.484375,68.0546875 203.875,67.9921875 C205.25,67.9296875 206.382812,67.8984375 207.273438,67.8984375 L207.273438,67.8984375 L208.046875,67.8984375 C209.515625,67.8046875 210.25,67.421875 210.25,66.75 C210.25,66.484375 210.109375,66.2421875 209.828125,66.0234375 C209.40625,65.7109375 208.976562,65.5546875 208.539062,65.5546875 C208.476562,65.5546875 207.625,65.6796875 205.984375,65.9296875 C204.359375,66.1484375 202.539062,66.2578125 200.523438,66.2578125 C198.414062,66.2578125 196.382812,66.1015625 194.429688,65.7890625 C192.414062,65.4609375 191.367188,65.296875 191.289062,65.296875 C190.914062,65.296875 190.632812,65.3828125 190.445312,65.5546875 C190.148438,65.8671875 190,66.1015625 190,66.2578125 C190,66.5859375 190.304688,66.84375 190.914062,67.03125 C191.648438,67.15625 192.226562,67.265625 192.648438,67.359375 C194.367188,67.71875 195.546875,67.9609375 196.1875,68.0859375 C196.796875,68.2109375 197.203125,68.40625 197.40625,68.671875 L197.40625,68.671875 L197.40625,96.5625 C197.296875,97 196.921875,97.296875 196.28125,97.453125 C195.9375,97.5625 195.304688,97.6328125 194.382812,97.6640625 C193.257812,97.7265625 192.5625,97.7734375 192.296875,97.8046875 C191.5625,97.9296875 191.195312,98.25 191.195312,98.765625 C191.195312,98.859375 191.226562,99.03125 191.289062,99.28125 C191.429688,99.609375 192.007812,99.7734375 193.023438,99.7734375 C193.117188,99.7734375 193.773438,99.7421875 194.992188,99.6796875 C197.273438,99.5390625 198.710938,99.4375 199.304688,99.375 L199.304688,99.375 L203.59375,99.046875 L215.431885,99.0461426 C215.783936,99.0427246 216.267578,99.0273438 216.882812,99 L216.882812,99 L218.476562,99 C219.273438,99 219.765625,99.03125 219.953125,99.09375 C220.21875,99.3125 220.351562,99.859375 220.351562,100.734375 L220.351562,100.734375 L220.351562,102.75 C220.304688,103.890625 220.28125,105.023438 220.28125,106.148438 L220.28125,106.148438 L222.109375,106.148438 Z M232,99.9609375 C233.46875,99.9609375 235.5,99.3203125 238.09375,98.0390625 C239.3125,96.8203125 240.179688,95.90625 240.695312,95.296875 C240.335938,94.65625 240.03125,94.3359375 239.78125,94.3359375 C239.484375,94.3359375 238.808594,94.7460938 237.753906,95.5664062 C236.699219,96.3867188 235.757812,96.796875 234.929688,96.796875 C233.101562,96.796875 231.65625,96.15625 230.59375,94.875 C229.578125,93.71875 229.070312,92.28125 229.070312,90.5625 C229.070312,89.953125 230.289062,88.9765625 232.726562,87.6328125 C235.414062,86.2265625 237.414062,85.203125 238.726562,84.5625 C239.226562,84.296875 239.671875,84.0703125 240.0625,83.8828125 C240.859375,83.4296875 241.257812,83.09375 241.257812,82.875 C241.257812,82.265625 241.015625,81.9609375 240.53125,81.9609375 C240.34375,81.9609375 240.042969,82.0742188 239.628906,82.3007812 C239.214844,82.5273438 238.960938,82.640625 238.867188,82.640625 C238.664062,82.640625 238.101562,82.25 237.179688,81.46875 C236.117188,80.609375 234.953125,80.1796875 233.6875,80.1796875 C227.953125,80.1796875 224.890625,83.3828125 224.5,89.7890625 C224.46875,90.3359375 224.453125,90.65625 224.453125,90.75 C224.453125,93.71875 225.289062,96.0546875 226.960938,97.7578125 C228.367188,99.2265625 230.046875,99.9609375 232,99.9609375 Z M229.210938,87.46875 C229.882812,84.046875 230.8125,82.3359375 232,82.3359375 C232.125,82.3359375 232.570312,82.71875 233.335938,83.484375 C234.070312,84.234375 234.4375,84.703125 234.4375,84.890625 C234.4375,85.015625 233.71875,85.4140625 232.28125,86.0859375 C230.96875,86.7265625 229.945312,87.1875 229.210938,87.46875 Z M254.96875,114.257812 C258.90625,114.257812 262.09375,113.398438 264.53125,111.679688 C266.921875,109.976562 268.117188,107.796875 268.117188,105.140625 C268.117188,103.515625 267.539062,102.171875 266.382812,101.109375 C265.039062,99.890625 263.140625,99.28125 260.6875,99.28125 L260.6875,99.28125 L252.53125,99.28125 C250.765625,99.28125 249.882812,98.8984375 249.882812,98.1328125 C249.882812,97.0859375 252.15625,95.7265625 256.703125,94.0546875 L256.703125,94.0546875 L257.757812,93.6796875 C258.007812,93.5859375 258.195312,93.5 258.320312,93.421875 C260.851562,92.078125 262.117188,89.6953125 262.117188,86.2734375 L262.117188,86.2734375 L262.117188,84.4453125 L264.859375,84.4453125 C265.3125,84.5546875 265.664062,84.609375 265.914062,84.609375 C266.367188,84.609375 266.703125,84.4140625 266.921875,84.0234375 C266.953125,84.0234375 267.125,83.671875 267.4375,82.96875 L267.4375,82.96875 L267.4375,81.8203125 L261.34375,81.8203125 C261.1875,81.8203125 260.375,81.484375 258.90625,80.8125 C257.375,80.109375 255.921875,79.7578125 254.546875,79.7578125 C251.921875,79.7578125 249.695312,80.6171875 247.867188,82.3359375 C246.007812,84.0390625 245.078125,86.0703125 245.078125,88.4296875 C245.078125,90.9296875 245.945312,92.7109375 247.679688,93.7734375 C248.414062,94.1484375 249.179688,94.421875 249.976562,94.59375 C250.226562,94.6875 250.453125,94.75 250.65625,94.78125 L250.65625,94.78125 L248.195312,96.609375 C246.570312,97.84375 245.757812,98.9921875 245.757812,100.054688 C245.757812,100.757812 246.1875,101.273438 247.046875,101.601562 C247.78125,101.789062 248.515625,101.960938 249.25,102.117188 C245.484375,105.164062 243.601562,107.40625 243.601562,108.84375 C243.601562,110.953125 244.75,112.421875 247.046875,113.25 C248.484375,113.765625 250.710938,114.085938 253.726562,114.210938 C254.492188,114.242188 254.90625,114.257812 254.96875,114.257812 Z M254.828125,92.8125 C253.640625,92.8125 252.5,92.3125 251.40625,91.3125 C250.03125,90.09375 249.34375,88.5 249.34375,86.53125 C249.34375,85.28125 249.664062,84.1875 250.304688,83.25 C250.976562,82.265625 251.84375,81.7734375 252.90625,81.7734375 C253.859375,81.7734375 254.820312,82.34375 255.789062,83.484375 C256.773438,84.671875 257.460938,86.1640625 257.851562,87.9609375 C257.945312,88.4140625 257.992188,88.796875 257.992188,89.109375 C257.992188,90.171875 257.703125,91.0546875 257.125,91.7578125 C256.515625,92.4609375 255.75,92.8125 254.828125,92.8125 Z M256.75,112.289062 C254.1875,112.289062 252.023438,111.890625 250.257812,111.09375 C248.210938,110.171875 247.1875,108.90625 247.1875,107.296875 C247.1875,106.21875 248.023438,105.164062 249.695312,104.132812 C251.539062,102.976562 253.664062,102.398438 256.070312,102.398438 C256.132812,102.398438 256.453125,102.414062 257.03125,102.445312 C259.65625,102.617188 261.460938,103.117188 262.445312,103.945312 C263.195312,104.554688 263.570312,105.46875 263.570312,106.6875 C263.570312,108.03125 263.039062,109.242188 261.976562,110.320312 C260.664062,111.632812 258.921875,112.289062 256.75,112.289062 Z M278.007812,99.9609375 C279.476562,99.9609375 281.507812,99.3203125 284.101562,98.0390625 C285.320312,96.8203125 286.1875,95.90625 286.703125,95.296875 C286.34375,94.65625 286.039062,94.3359375 285.789062,94.3359375 C285.492188,94.3359375 284.816406,94.7460938 283.761719,95.5664062 C282.707031,96.3867188 281.765625,96.796875 280.9375,96.796875 C279.109375,96.796875 277.664062,96.15625 276.601562,94.875 C275.585938,93.71875 275.078125,92.28125 275.078125,90.5625 C275.078125,89.953125 276.296875,88.9765625 278.734375,87.6328125 C281.421875,86.2265625 283.421875,85.203125 284.734375,84.5625 C285.234375,84.296875 285.679688,84.0703125 286.070312,83.8828125 C286.867188,83.4296875 287.265625,83.09375 287.265625,82.875 C287.265625,82.265625 287.023438,81.9609375 286.539062,81.9609375 C286.351562,81.9609375 286.050781,82.0742188 285.636719,82.3007812 C285.222656,82.5273438 284.96875,82.640625 284.875,82.640625 C284.671875,82.640625 284.109375,82.25 283.1875,81.46875 C282.125,80.609375 280.960938,80.1796875 279.695312,80.1796875 C273.960938,80.1796875 270.898438,83.3828125 270.507812,89.7890625 C270.476562,90.3359375 270.460938,90.65625 270.460938,90.75 C270.460938,93.71875 271.296875,96.0546875 272.96875,97.7578125 C274.375,99.2265625 276.054688,99.9609375 278.007812,99.9609375 Z M275.21875,87.46875 C275.890625,84.046875 276.820312,82.3359375 278.007812,82.3359375 C278.132812,82.3359375 278.578125,82.71875 279.34375,83.484375 C280.078125,84.234375 280.445312,84.703125 280.445312,84.890625 C280.445312,85.015625 279.726562,85.4140625 278.289062,86.0859375 C276.976562,86.7265625 275.953125,87.1875 275.21875,87.46875 Z M292.773438,99.8671875 C295.820312,99.6484375 297.34375,96.796875 297.34375,91.3125 C297.34375,90.78125 297.328125,90.15625 297.296875,89.4375 C297.265625,88.734375 297.25,88.3359375 297.25,88.2421875 C297.25,86.7109375 297.328125,85.71875 297.484375,85.265625 C297.609375,84.859375 297.960938,84.4921875 298.539062,84.1640625 C299.632812,83.5234375 300.46875,83.203125 301.046875,83.203125 C303.53125,83.203125 304.773438,86.6953125 304.773438,93.6796875 C304.773438,94.5390625 304.742188,95.5 304.679688,96.5625 C304.679688,96.75 304.632812,97.046875 304.539062,97.453125 C304.476562,97.84375 304.445312,98.1484375 304.445312,98.3671875 C304.445312,98.9765625 304.828125,99.28125 305.59375,99.28125 C306.265625,99.15625 307.625,98.40625 309.671875,97.03125 C310.5,96.453125 311.445312,95.765625 312.507812,94.96875 C312.351562,94.421875 312.09375,94.1484375 311.734375,94.1484375 C311.390625,94.1484375 310.78125,94.484375 309.90625,95.15625 C309.046875,95.859375 308.523438,96.2109375 308.335938,96.2109375 C308.335938,95.7734375 308.460938,94.609375 308.710938,92.71875 C308.976562,90.921875 309.109375,89.625 309.109375,88.828125 C309.078125,83.15625 307.023438,80.3203125 302.945312,80.3203125 C302.148438,80.4140625 300.84375,80.9609375 299.03125,81.9609375 C298.125,82.4453125 297.289062,82.890625 296.523438,83.296875 C296.367188,83.265625 295.9375,82.8203125 295.234375,81.9609375 C294.53125,81.1328125 293.875,80.65625 293.265625,80.53125 C292.59375,80.53125 291.375,81.1484375 289.609375,82.3828125 C289.609375,82.8359375 289.835938,83.1875 290.289062,83.4375 C290.757812,83.734375 291.21875,84.140625 291.671875,84.65625 C292.375,85.484375 292.726562,88.0859375 292.726562,92.4609375 L292.726562,92.4609375 L292.726562,95.34375 C292.695312,96.5625 292.679688,97.3984375 292.679688,97.8515625 C292.679688,98.7421875 292.710938,99.4140625 292.773438,99.8671875 Z M321.625,100.054688 C323.125,100.054688 324.679688,99.3671875 326.289062,97.9921875 C327.664062,96.8046875 328.460938,96.1796875 328.679688,96.1171875 C328.710938,98.6796875 329.125,99.9609375 329.921875,99.9609375 C330.046875,99.9609375 330.671875,99.59375 331.796875,98.859375 L331.796875,98.859375 L332.898438,98.1328125 L333.4375,97.8046875 C334.328125,97.2890625 334.96875,96.9375 335.359375,96.75 C336,96.453125 336.320312,96.1171875 336.320312,95.7421875 C336.320312,95.0390625 336,94.6875 335.359375,94.6875 C335.1875,94.6875 334.5,95.0703125 333.296875,95.8359375 C333.0625,95.7421875 332.945312,95.46875 332.945312,95.015625 L332.945312,95.015625 L332.945312,68.1796875 C332.945312,68.0859375 332.976562,67.8828125 333.039062,67.5703125 C333.070312,67.2734375 333.085938,67.03125 333.085938,66.84375 C333.085938,65.9375 332.65625,65.484375 331.796875,65.484375 C330.546875,65.484375 329.007812,65.7109375 327.179688,66.1640625 C325.492188,66.5859375 324.648438,66.890625 324.648438,67.078125 C324.648438,67.375 325.09375,67.859375 325.984375,68.53125 C326.890625,69.203125 327.46875,69.7109375 327.71875,70.0546875 C328.140625,70.6328125 328.382812,73.71875 328.445312,79.3125 C328.476562,80.75 328.507812,81.4921875 328.539062,81.5390625 L328.539062,81.5390625 L323.921875,79.5703125 C318,79.5703125 314.976562,82.796875 314.851562,89.25 L314.851562,89.25 L314.851562,89.6484375 C314.851562,93.1015625 315.6875,95.8046875 317.359375,97.7578125 C318.671875,99.2890625 320.09375,100.054688 321.625,100.054688 Z M324.414062,96.609375 C322.898438,96.609375 321.632812,95.7109375 320.617188,93.9140625 C319.648438,92.2734375 319.164062,90.3984375 319.164062,88.2890625 C319.164062,86.4453125 319.570312,84.9453125 320.382812,83.7890625 C321.304688,82.4453125 322.617188,81.7734375 324.320312,81.7734375 C324.726562,81.7734375 325.460938,82.265625 326.523438,83.25 C327.804688,84.4375 328.445312,85.59375 328.445312,86.71875 L328.445312,86.71875 L328.445312,92.2734375 C328.445312,93.2109375 327.898438,94.1875 326.804688,95.203125 C325.789062,96.140625 324.992188,96.609375 324.414062,96.609375 Z M344.59375,99.6328125 C346.578125,99.6328125 348.53125,99.0546875 350.453125,97.8984375 C352.21875,96.8359375 353.359375,95.6796875 353.875,94.4296875 C354.34375,93.2890625 354.578125,92.203125 354.578125,91.171875 C354.578125,89.921875 354.210938,88.8515625 353.476562,87.9609375 C353.007812,87.3828125 352.484375,86.984375 351.90625,86.765625 C351.140625,86.46875 350.164062,86.2578125 348.976562,86.1328125 C347.945312,86.0078125 346.9375,85.8984375 345.953125,85.8046875 C343.875,85.4765625 342.835938,84.6875 342.835938,83.4375 C342.835938,83.25 342.867188,83.0625 342.929688,82.875 C343.210938,81.34375 344.28125,80.578125 346.140625,80.578125 C346.5,80.578125 346.789062,80.609375 347.007812,80.671875 C347.617188,80.828125 348.164062,81.3671875 348.648438,82.2890625 C349.054688,83.0859375 349.5,83.484375 349.984375,83.484375 C350.203125,83.484375 350.570312,83.359375 351.085938,83.109375 C352.148438,82.59375 352.679688,81.890625 352.679688,81 C352.679688,80.328125 352.375,79.765625 351.765625,79.3125 C351.1875,78.9375 350.5,78.75 349.703125,78.75 L349.703125,78.75 L349.304688,78.75 C346.554688,78.875 344.203125,79.4296875 342.25,80.4140625 C339.859375,81.6328125 338.664062,83.265625 338.664062,85.3125 C338.664062,86.078125 338.835938,86.8828125 339.179688,87.7265625 C339.695312,88.9453125 340.867188,89.6328125 342.695312,89.7890625 C342.976562,89.8203125 343.789062,89.8515625 345.132812,89.8828125 C346.117188,89.9140625 346.914062,89.9921875 347.523438,90.1171875 C348.164062,90.2734375 348.804688,90.71875 349.445312,91.453125 C350.179688,92.328125 350.546875,93.2109375 350.546875,94.1015625 C350.546875,94.8984375 350.3125,95.5859375 349.84375,96.1640625 C349.328125,96.8046875 348.671875,97.125 347.875,97.125 C345.828125,97.125 343.84375,95.65625 341.921875,92.71875 C340.0625,93.265625 339.132812,94.2890625 339.132812,95.7890625 C339.132812,97.6484375 340.304688,98.84375 342.648438,99.375 C343.351562,99.546875 344,99.6328125 344.59375,99.6328125 Z" id="Legends" fill="#000000"></path>
            <path d="M157.933594,48.5917969 C158.695312,48.4355469 159.173828,48.2988281 159.369141,48.1816406 L159.369141,48.1816406 L159.779297,47.9472656 C159.896484,47.8691406 160.101562,47.7910156 160.394531,47.7128906 L160.394531,47.7128906 L160.394862,35.9801788 C160.405221,35.6957041 160.659017,32.3214518 161.15625,25.8574219 C161.644531,19.2949219 161.888672,15.8574219 161.888672,15.5449219 C159.564453,15.8964844 157.787109,16.0722656 156.556641,16.0722656 C155.541016,16.0722656 155.033203,16.0136719 155.033203,15.8964844 C155.033203,14.6660156 156.498047,11.0625 159.427734,5.0859375 C160.072266,3.81640625 160.453125,2.9375 160.570312,2.44921875 C160.316406,2.33203125 160.169922,2.2734375 160.130859,2.2734375 C159.740234,2.0390625 159.466797,1.921875 159.310547,1.921875 C158.822266,1.921875 157.621094,3.54296875 155.707031,6.78515625 C155.472656,6.62890625 155.013672,6.28710938 154.330078,5.75976562 C149.916016,2.28320312 146.898438,0.544921875 145.277344,0.544921875 C142.835938,0.544921875 140.111328,1.16015625 137.103516,2.390625 C134.544922,3.484375 132.728516,4.56835938 131.654297,5.64257812 C130.638672,6.63867188 129.496094,8.71875 128.226562,11.8828125 C126.742188,15.671875 126,19.1484375 126,22.3125 C126,23.40625 126.097656,24.4511719 126.292969,25.4472656 C127.347656,30.6035156 128.851562,34.4023438 130.804688,36.84375 C133.363281,40.046875 137.259766,42.0097656 142.494141,42.7324219 C142.787109,42.7714844 143.265625,42.7910156 143.929688,42.7910156 C147.347656,42.7910156 152.015625,41.5117188 157.933594,38.953125 L157.933594,38.953125 L157.933594,48.5917969 Z M135.228516,17.15625 C134.349609,17.15625 133.773438,17.078125 133.5,16.921875 C133.148438,16.7265625 132.914062,16.2480469 132.796875,15.4863281 C132.796875,13.1230469 133.734375,10.7402344 135.609375,8.33789062 C137.40625,6.01367188 139.125,4.83203125 140.765625,4.79296875 L140.765625,4.79296875 L140.882812,4.79296875 C142.875,4.79296875 145.257812,6.27734375 148.03125,9.24609375 C150.550781,11.8828125 152.210938,14.2363281 153.011719,16.3066406 C150.492188,16.8730469 144.564453,17.15625 135.228516,17.15625 Z M149.876953,37.8691406 C145.638672,37.8691406 141.976562,36.609375 138.890625,34.0898438 C135.785156,31.4921875 133.753906,27.9667969 132.796875,23.5136719 C132.875,22.2050781 139.535156,21.5507812 152.777344,21.5507812 L152.777344,21.5507812 L156.292969,21.5507812 C157.582031,21.5898438 158.285156,21.609375 158.402344,21.609375 C158.285156,24.6367188 158.207031,27.234375 158.167969,29.4023438 C158.011719,33.484375 157.865234,35.7597656 157.728516,36.2285156 C155.306641,37.3222656 152.689453,37.8691406 149.876953,37.8691406 Z M168.539062,42.234375 C172.132812,41.5507812 175.150391,40.2519531 177.591797,38.3378906 C178.197266,37.8496094 178.5,37.4492188 178.5,37.1367188 C178.5,36.7070312 178.177734,36.4433594 177.533203,36.3457031 C177.162109,36.3457031 176.058594,36.8535156 174.222656,37.8691406 L174.222656,37.8691406 L174.339844,12.8496094 L174.339615,9.3410511 C174.334885,4.92716026 174.256836,2.19042969 174.105469,1.13085938 C174.105469,0.857421875 173.880859,0.720703125 173.431641,0.720703125 C172.689453,0.720703125 171.214844,1.1015625 169.007812,1.86328125 C166.839844,2.5859375 165.443359,3.16210938 164.818359,3.59179688 C164.818359,3.88476562 165.033203,4.24609375 165.462891,4.67578125 C167.376953,6.51171875 168.333984,7.88867188 168.333984,8.80664062 C168.255859,19.0214844 168.216797,27.1660156 168.216797,33.2402344 L168.216963,33.6313991 C168.221735,39.1758428 168.329102,42.0435014 168.539062,42.234375 Z M189.896484,43.3183594 C191.771484,43.3183594 193.714844,42.4589844 195.726562,40.7402344 C197.445312,39.2558594 198.441406,38.4746094 198.714844,38.3964844 C198.753906,41.5996094 199.271484,43.2011719 200.267578,43.2011719 C200.423828,43.2011719 201.205078,42.7421875 202.611328,41.8242188 L202.611328,41.8242188 L203.988281,40.9160156 L204.662109,40.5058594 C205.775391,39.8613281 206.576172,39.421875 207.064453,39.1875 C207.865234,38.8164062 208.265625,38.3964844 208.265625,37.9277344 C208.265625,37.0488281 207.865234,36.609375 207.064453,36.609375 C206.849609,36.609375 205.990234,37.0878906 204.486328,38.0449219 C204.193359,37.9277344 204.046875,37.5859375 204.046875,37.0195312 L204.046875,37.0195312 L204.046875,3.47460938 C204.046875,3.35742187 204.085938,3.10351562 204.164062,2.71289062 C204.203125,2.34179688 204.222656,2.0390625 204.222656,1.8046875 C204.222656,0.671875 203.685547,0.10546875 202.611328,0.10546875 C201.048828,0.10546875 199.125,0.388671875 196.839844,0.955078125 C194.730469,1.48242187 193.675781,1.86328125 193.675781,2.09765625 C193.675781,2.46875 194.232422,3.07421875 195.345703,3.9140625 C196.478516,4.75390625 197.201172,5.38867188 197.513672,5.81835938 C198.041016,6.54101562 198.34375,10.3984375 198.421875,17.390625 C198.460938,19.1875 198.5,20.1152344 198.539062,20.1738281 L198.539062,20.1738281 L192.767578,17.7128906 C185.365234,17.7128906 181.585938,21.7460937 181.429688,29.8125 L181.429688,29.8125 L181.429688,30.3105469 C181.429688,34.6269531 182.474609,38.0058594 184.564453,40.4472656 C186.205078,42.3613281 187.982422,43.3183594 189.896484,43.3183594 Z M193.382812,39.0117188 C191.488281,39.0117188 189.90625,37.8886719 188.636719,35.6425781 C187.425781,33.5917969 186.820312,31.2480469 186.820312,28.6113281 C186.820312,26.3066406 187.328125,24.4316406 188.34375,22.9863281 C189.496094,21.3066406 191.136719,20.4667969 193.265625,20.4667969 C193.773438,20.4667969 194.691406,21.0820312 196.019531,22.3125 C197.621094,23.796875 198.421875,25.2421875 198.421875,26.6484375 L198.421875,26.6484375 L198.421875,33.5917969 C198.421875,34.7636719 197.738281,35.984375 196.371094,37.2539062 C195.101562,38.4257812 194.105469,39.0117188 193.382812,39.0117188 Z M220.628906,43.2011719 C222.464844,43.2011719 225.003906,42.4003906 228.246094,40.7988281 C229.769531,39.2753906 230.853516,38.1328125 231.498047,37.3710938 C231.048828,36.5703125 230.667969,36.1699219 230.355469,36.1699219 C229.984375,36.1699219 229.139648,36.6826172 227.821289,37.7080078 C226.50293,38.7333984 225.326172,39.2460938 224.291016,39.2460938 C222.005859,39.2460938 220.199219,38.4453125 218.871094,36.84375 C217.601562,35.3984375 216.966797,33.6015625 216.966797,31.453125 C216.966797,30.6914062 218.490234,29.4707031 221.537109,27.7910156 C224.896484,26.0332031 227.396484,24.7539062 229.037109,23.953125 C229.662109,23.6210938 230.21875,23.3378906 230.707031,23.1035156 C231.703125,22.5371094 232.201172,22.1171875 232.201172,21.84375 C232.201172,21.0820312 231.898438,20.7011719 231.292969,20.7011719 C231.058594,20.7011719 230.682617,20.8427734 230.165039,21.1259766 C229.647461,21.4091797 229.330078,21.5507812 229.212891,21.5507812 C228.958984,21.5507812 228.255859,21.0625 227.103516,20.0859375 C225.775391,19.0117188 224.320312,18.4746094 222.738281,18.4746094 C215.570312,18.4746094 211.742188,22.4785156 211.253906,30.4863281 C211.214844,31.1699219 211.195312,31.5703125 211.195312,31.6875 C211.195312,35.3984375 212.240234,38.3183594 214.330078,40.4472656 C216.087891,42.2832031 218.1875,43.2011719 220.628906,43.2011719 Z M217.142578,27.5859375 C217.982422,23.3085938 219.144531,21.1699219 220.628906,21.1699219 C220.785156,21.1699219 221.341797,21.6484375 222.298828,22.6054688 C223.216797,23.5429688 223.675781,24.1289062 223.675781,24.3632812 C223.675781,24.5195312 222.777344,25.0175781 220.980469,25.8574219 C219.339844,26.6582031 218.060547,27.234375 217.142578,27.5859375 Z M239.935547,42.9082031 C240.853516,42.9082031 242.035156,42.46875 243.480469,41.5898438 C244.808594,40.7890625 245.53125,40.1640625 245.648438,39.7148438 L245.648438,39.7148438 L245.648438,25.3300781 C245.648438,25.2128906 246.351562,24.6464844 247.757812,23.6308594 C249.105469,22.6738281 249.945312,22.1757812 250.277344,22.1367188 C250.902344,22.2148438 251.634766,22.5761719 252.474609,23.2207031 C253.236328,23.7871094 253.900391,24.0703125 254.466797,24.0703125 C254.701172,24.03125 255.21875,23.3085938 256.019531,21.9023438 C256.351562,21.3359375 256.712891,20.6523438 257.103516,19.8515625 C256.986328,19.421875 256.302734,19.0019531 255.052734,18.5917969 C253.978516,18.2011719 253.226562,18.0058594 252.796875,18.0058594 C252.191406,18.0058594 250.863281,18.6992188 248.8125,20.0859375 C246.898438,21.4140625 245.902344,22.078125 245.824219,22.078125 C245.511719,21.9609375 245.355469,21.7167969 245.355469,21.3457031 C245.355469,21.1894531 245.394531,20.8964844 245.472656,20.4667969 C245.511719,20.0566406 245.53125,19.7539062 245.53125,19.5585938 C245.53125,18.8359375 245.169922,18.3964844 244.447266,18.2402344 C244.115234,18.2402344 243.451172,18.3769531 242.455078,18.6503906 C240.892578,19.0996094 239.535156,19.4023438 238.382812,19.5585938 C237.386719,19.6757812 236.683594,19.7539062 236.273438,19.7929688 C235.550781,19.9101562 235.169922,20.1347656 235.130859,20.4667969 C235.130859,21.0527344 235.570312,21.4921875 236.449219,21.7851562 C238.011719,22.2929688 238.900391,23.25 239.115234,24.65625 C239.193359,25.1835938 239.232422,26.0039062 239.232422,27.1171875 C239.232422,27.9960938 239.212891,29.6367188 239.173828,32.0390625 C239.095703,34.4414062 239.056641,36.21875 239.056641,37.3710938 C239.056641,40.9453125 239.349609,42.7910156 239.935547,42.9082031 Z M282.416016,51.2285156 C282.748047,51.2285156 283.109375,50.7109375 283.5,49.6757812 C283.910156,48.4453125 284.212891,47.46875 284.408203,46.7460938 C285.208984,44.0703125 285.804688,42.7324219 286.195312,42.7324219 C286.351562,42.7324219 286.976562,42.8496094 288.070312,43.0839844 C293.382812,44.2753906 297.5625,44.8710938 300.609375,44.8710938 L300.609375,44.8710938 L301.195312,44.8710938 C306.390625,44.7539062 310.511719,42.6542969 313.558594,38.5722656 C316.234375,35.0175781 317.572266,30.7597656 317.572266,25.7988281 C317.572266,22.8300781 316.957031,20.5742188 315.726562,19.03125 C314.4375,17.5078125 312.279297,16.3457031 309.251953,15.5449219 C308.490234,15.5449219 308.109375,15.4472656 308.109375,15.2519531 C308.109375,13.8457031 309.085938,11.5019531 311.039062,8.22070312 C312.601562,5.66210938 313.626953,4.13867188 314.115234,3.65039063 C314.115234,3.22070312 313.949219,2.83984375 313.617188,2.5078125 C313.304688,2.1953125 312.982422,2.0390625 312.650391,2.0390625 C312.142578,2.0390625 311.361328,2.859375 310.306641,4.5 C309.310547,6.140625 308.773438,6.9609375 308.695312,6.9609375 C308.65625,6.9609375 307.162109,5.83789062 304.212891,3.59179688 C301.244141,1.32617188 298.900391,0.1640625 297.181641,0.10546875 L297.181641,0.10546875 L296.947266,0.10546875 C292.787109,0.10546875 289.408203,1.91210938 286.810547,5.52539062 C284.291016,9.00195312 283.03125,13.2792969 283.03125,18.3574219 C283.03125,20.6425781 283.529297,22.5273438 284.525391,24.0117188 C285.677734,25.6914062 287.279297,26.53125 289.330078,26.53125 C290.716797,26.53125 293.792969,25.8671875 298.558594,24.5390625 C303.167969,23.25 305.931641,22.6054688 306.849609,22.6054688 C308.451172,22.6054688 309.691406,23.25 310.570312,24.5390625 C311.449219,25.828125 311.888672,27.5664062 311.888672,29.7539062 C311.888672,31.3554688 311.527344,33.2011719 310.804688,35.2910156 C309.769531,38.3574219 308.304688,40.3496094 306.410156,41.2675781 C305.785156,41.5996094 304.945312,41.765625 303.890625,41.765625 C301.136719,41.765625 297.376953,40.4667969 292.611328,37.8691406 C289.134766,35.9355469 287.035156,34.6171875 286.3125,33.9140625 C285.550781,33.9140625 284.935547,35.828125 284.466797,39.65625 C282.904297,44.65625 281.742188,48.0546875 280.980469,49.8515625 C280.980469,50.1445312 281.185547,50.4472656 281.595703,50.7597656 C281.947266,51.0722656 282.220703,51.2285156 282.416016,51.2285156 Z M293.109375,19.4414062 C291.664062,19.4414062 290.541016,18.8652344 289.740234,17.7128906 C289.017578,16.6582031 288.65625,15.3300781 288.65625,13.7285156 C288.65625,11.0136719 289.076172,8.7578125 289.916016,6.9609375 C290.873047,4.96875 292.25,3.97265625 294.046875,3.97265625 C296.136719,3.97265625 300.0625,7.86914062 305.824219,15.6621094 C304.984375,16.3066406 302.904297,17.1074219 299.583984,18.0644531 C296.419922,18.9824219 294.261719,19.4414062 293.109375,19.4414062 Z M331.166016,42.5859375 C333.451172,42.5859375 335.814453,41.609375 338.255859,39.65625 C340.345703,38.015625 341.390625,36.9414062 341.390625,36.4335938 C341.390625,36.2578125 341.224609,35.9941406 340.892578,35.6425781 C340.619141,35.3300781 340.365234,35.1738281 340.130859,35.1738281 C339.955078,35.1738281 339.24707,35.8134766 338.006836,37.0927734 C336.766602,38.3720703 335.6875,39.0117188 334.769531,39.0117188 C331.898438,39.0117188 329.701172,38.0058594 328.177734,35.9941406 C326.810547,34.1972656 326.126953,31.8828125 326.126953,29.0507812 C326.126953,27 326.488281,25.1152344 327.210938,23.3964844 C327.972656,21.5214844 328.919922,20.5839844 330.052734,20.5839844 C331.693359,20.5839844 333.8125,21.9414062 336.410156,24.65625 C336.566406,24.8125 336.722656,24.9785156 336.878906,25.1542969 C337.113281,25.3886719 337.308594,25.5058594 337.464844,25.5058594 C339.554688,23.9824219 340.599609,22.9179688 340.599609,22.3125 C340.599609,21.0820312 339.417969,20.0078125 337.054688,19.0898438 C335.140625,18.328125 333.558594,17.9472656 332.308594,17.9472656 C328.441406,17.9472656 325.423828,19.5 323.255859,22.6054688 C321.419922,25.3007812 320.501953,28.5429688 320.501953,32.3320312 C320.501953,35.2617188 321.263672,37.6054688 322.787109,39.3632812 C324.623047,41.5117188 327.416016,42.5859375 331.166016,42.5859375 Z M349.125,42.9082031 C350.042969,42.9082031 351.224609,42.46875 352.669922,41.5898438 C353.998047,40.7890625 354.720703,40.1640625 354.837891,39.7148438 L354.837891,39.7148438 L354.837891,25.3300781 C354.837891,25.2128906 355.541016,24.6464844 356.947266,23.6308594 C358.294922,22.6738281 359.134766,22.1757812 359.466797,22.1367188 C360.091797,22.2148438 360.824219,22.5761719 361.664062,23.2207031 C362.425781,23.7871094 363.089844,24.0703125 363.65625,24.0703125 C363.890625,24.03125 364.408203,23.3085938 365.208984,21.9023438 C365.541016,21.3359375 365.902344,20.6523438 366.292969,19.8515625 C366.175781,19.421875 365.492188,19.0019531 364.242188,18.5917969 C363.167969,18.2011719 362.416016,18.0058594 361.986328,18.0058594 C361.380859,18.0058594 360.052734,18.6992188 358.001953,20.0859375 C356.087891,21.4140625 355.091797,22.078125 355.013672,22.078125 C354.701172,21.9609375 354.544922,21.7167969 354.544922,21.3457031 C354.544922,21.1894531 354.583984,20.8964844 354.662109,20.4667969 C354.701172,20.0566406 354.720703,19.7539062 354.720703,19.5585938 C354.720703,18.8359375 354.359375,18.3964844 353.636719,18.2402344 C353.304688,18.2402344 352.640625,18.3769531 351.644531,18.6503906 C350.082031,19.0996094 348.724609,19.4023438 347.572266,19.5585938 C346.576172,19.6757812 345.873047,19.7539062 345.462891,19.7929688 C344.740234,19.9101562 344.359375,20.1347656 344.320312,20.4667969 C344.320312,21.0527344 344.759766,21.4921875 345.638672,21.7851562 C347.201172,22.2929688 348.089844,23.25 348.304688,24.65625 C348.382812,25.1835938 348.421875,26.0039062 348.421875,27.1171875 C348.421875,27.9960938 348.402344,29.6367188 348.363281,32.0390625 C348.285156,34.4414062 348.246094,36.21875 348.246094,37.3710938 C348.246094,40.9453125 348.539062,42.7910156 349.125,42.9082031 Z M379.798828,42.6738281 C381.791016,42.6738281 384.027344,41.765625 386.507812,39.9492188 C389.066406,38.1132812 390.6875,36.2382812 391.371094,34.3242188 C392.015625,32.4492188 392.337891,30.6523438 392.337891,28.9335938 C392.337891,25.6132812 391.214844,22.8105469 388.96875,20.5253906 C387.015625,18.5527344 384.955078,17.5664062 382.787109,17.5664062 C382.396484,17.5664062 381.996094,17.6347656 381.585938,17.7714844 C377.914062,18.8847656 375.355469,19.8613281 373.910156,20.7011719 C371.195312,22.3027344 369.720703,24.4414062 369.486328,27.1171875 C369.310547,28.875 369.222656,30.3789062 369.222656,31.6289062 C369.222656,33.8945312 369.486328,35.5546875 370.013672,36.609375 C371.966797,40.4765625 375.150391,42.4980469 379.564453,42.6738281 L379.564453,42.6738281 L379.798828,42.6738281 Z M382.728516,38.953125 C379.603516,38.1132812 377.289062,36.4921875 375.785156,34.0898438 C374.652344,32.2929688 374.085938,30.2910156 374.085938,28.0839844 C374.085938,26.6386719 374.447266,25.3007812 375.169922,24.0703125 C375.931641,22.703125 376.976562,21.7558594 378.304688,21.2285156 C378.539062,21.1113281 378.792969,21.0527344 379.066406,21.0527344 C380.628906,21.0527344 382.191406,21.8730469 383.753906,23.5136719 C385.472656,25.3886719 386.332031,27.546875 386.332031,29.9882812 C386.332031,33.484375 386.214844,35.671875 385.980469,36.5507812 C385.53125,38.1523438 384.447266,38.953125 382.728516,38.953125 Z M398.988281,42.234375 C402.582031,41.5507812 405.599609,40.2519531 408.041016,38.3378906 C408.646484,37.8496094 408.949219,37.4492188 408.949219,37.1367188 C408.949219,36.7070312 408.626953,36.4433594 407.982422,36.3457031 C407.611328,36.3457031 406.507812,36.8535156 404.671875,37.8691406 L404.671875,37.8691406 L404.789062,12.8496094 L404.789062,9.7734375 C404.789062,5.10546875 404.710938,2.22460938 404.554688,1.13085938 C404.554688,0.857421875 404.330078,0.720703125 403.880859,0.720703125 C403.138672,0.720703125 401.664062,1.1015625 399.457031,1.86328125 C397.289062,2.5859375 395.892578,3.16210938 395.267578,3.59179688 C395.267578,3.88476562 395.482422,4.24609375 395.912109,4.67578125 C397.826172,6.51171875 398.783203,7.88867188 398.783203,8.80664062 C398.711972,18.1201746 398.673213,25.7126271 398.666928,31.5839979 L398.666681,34.0138777 C398.676003,39.3077746 398.783203,42.0479403 398.988281,42.234375 Z M415.599609,42.234375 C419.193359,41.5507812 422.210938,40.2519531 424.652344,38.3378906 C425.257812,37.8496094 425.560547,37.4492188 425.560547,37.1367188 C425.560547,36.7070312 425.238281,36.4433594 424.59375,36.3457031 C424.222656,36.3457031 423.119141,36.8535156 421.283203,37.8691406 L421.283203,37.8691406 L421.400391,12.8496094 L421.400162,9.3410511 C421.395432,4.92716026 421.317383,2.19042969 421.166016,1.13085938 C421.166016,0.857421875 420.941406,0.720703125 420.492188,0.720703125 C419.75,0.720703125 418.275391,1.1015625 416.068359,1.86328125 C413.900391,2.5859375 412.503906,3.16210938 411.878906,3.59179688 C411.878906,3.88476562 412.09375,4.24609375 412.523438,4.67578125 C414.4375,6.51171875 415.394531,7.88867188 415.394531,8.80664062 C415.321002,18.4206112 415.282075,26.2006718 415.277749,32.1468223 L415.27751,33.6313991 C415.282282,39.1758428 415.389648,42.0435014 415.599609,42.234375 Z M435.902344,42.7910156 C438.382812,42.7910156 440.824219,42.0683594 443.226562,40.6230469 C445.433594,39.2949219 446.859375,37.8496094 447.503906,36.2871094 C448.089844,34.8613281 448.382812,33.5039062 448.382812,32.2148438 C448.382812,30.6523438 447.923828,29.3144531 447.005859,28.2011719 C446.419922,27.4785156 445.765625,26.9804688 445.042969,26.7070312 C444.085938,26.3359375 442.865234,26.0722656 441.380859,25.9160156 C440.091797,25.7597656 438.832031,25.6230469 437.601562,25.5058594 C435.003906,25.0957031 433.705078,24.109375 433.705078,22.546875 C433.705078,22.3125 433.744141,22.078125 433.822266,21.84375 C434.173828,19.9296875 435.511719,18.9726562 437.835938,18.9726562 C438.285156,18.9726562 438.646484,19.0117188 438.919922,19.0898438 C439.681641,19.2851562 440.365234,19.9589844 440.970703,21.1113281 C441.478516,22.1074219 442.035156,22.6054688 442.640625,22.6054688 C442.914062,22.6054688 443.373047,22.4492188 444.017578,22.1367188 C445.345703,21.4921875 446.009766,20.6132812 446.009766,19.5 C446.009766,18.6601562 445.628906,17.9570312 444.867188,17.390625 C444.144531,16.921875 443.285156,16.6875 442.289062,16.6875 L442.289062,16.6875 L441.791016,16.6875 C438.353516,16.84375 435.414062,17.5371094 432.972656,18.7675781 C429.984375,20.2910156 428.490234,22.3320312 428.490234,24.890625 C428.490234,25.8476562 428.705078,26.8535156 429.134766,27.9082031 C429.779297,29.4316406 431.244141,30.2910156 433.529297,30.4863281 C433.880859,30.5253906 434.896484,30.5644531 436.576172,30.6035156 C437.806641,30.6425781 438.802734,30.7402344 439.564453,30.8964844 C440.365234,31.0917969 441.166016,31.6484375 441.966797,32.5664062 C442.884766,33.6601562 443.34375,34.7636719 443.34375,35.8769531 C443.34375,36.8730469 443.050781,37.7324219 442.464844,38.4550781 C441.820312,39.2558594 441,39.65625 440.003906,39.65625 C437.445312,39.65625 434.964844,37.8203125 432.5625,34.1484375 C430.238281,34.8320312 429.076172,36.1113281 429.076172,37.9863281 C429.076172,40.3105469 430.541016,41.8046875 433.470703,42.46875 C434.349609,42.6835938 435.160156,42.7910156 435.902344,42.7910156 Z" id="ElderScrolls" fill="#000000"></path>
        </g>
    </g>
</svg>