<?xml version="1.0" encoding="UTF-8"?>
<svg width="700px" height="300px" viewBox="0 0 700 300" version="1.1" xmlns="http://www.w3.org/2000/svg" xmlns:xlink="http://www.w3.org/1999/xlink">
    <!-- Generator: Sketch 55.2 (78181) - https://sketchapp.com -->
    <title>black-logos</title>
    <desc>Created with Sketch.</desc>
    <g id="black-logos" stroke="none" stroke-width="1" fill="none" fill-rule="evenodd">
        <rect fill="#FFFFFF" x="0" y="0" width="700" height="300"></rect>
        <g id="react-weather" transform="translate(77.000000, 93.000000)" fill-rule="nonzero">
            <g id="react-weather-logo">
                <g id="cloudy" transform="translate(87.000000, 43.000000) scale(-1, 1) translate(-87.000000, -43.000000) " fill="#000000">
                    <g id="Imported-Layers-Copy-2" transform="translate(0.444543, 0.153994)">
                        <path d="M31.1023929,60.4255759 L19.0062694,60.4255759 C11.1208902,60.4255759 4.70644261,53.9994828 4.70644261,46.0990736 C4.70644261,38.195994 11.1208902,31.7672296 19.0062694,31.7672296 C19.5316022,31.7672296 20.1081212,31.8099633 20.8166469,31.895431 L23.144275,32.1838842 L23.3759603,29.8602343 C24.8145638,15.6619332 36.6520616,4.9571194 50.9168665,4.9571194 C57.1104048,4.9571194 62.9564153,7.06442931 67.6763281,10.6754344 C68.6946653,9.52696383 69.7614948,8.4399231 70.8875928,7.4276665 C65.2840432,2.994036 58.2661367,0.389945813 50.9168665,0.389945813 C34.9925491,0.389945813 21.7541638,11.6129069 19.119418,27.2027268 L19.0062694,27.2027268 C8.59659898,27.2027268 0.126618662,35.6800423 0.126618662,46.0990736 C0.126618662,56.5154345 8.59659898,64.9927495 19.0062694,64.9927495 L31.2101531,64.9927495 C31.1023929,64.0472645 31.0269602,63.0884251 31.0269602,62.1108898 C31.0269602,61.5419961 31.0646767,60.983786 31.1023929,60.4255759" id="Fill-1"></path>
                        <path d="M143.976195,27.2481315 C141.944909,27.2481315 139.91901,27.4644713 137.93891,27.89448 C131.605282,13.2154239 116.825921,3.42404473 100.834253,3.42404473 C80.8796909,3.42404473 64.2845641,17.4914735 60.9817032,37.0288272 L60.8416142,37.0288272 C47.7918098,37.0288272 37.1773943,47.6535153 37.1773943,60.7113581 C37.1773943,73.7692013 47.7918098,84.3912184 60.8416142,84.3912184 L143.976195,84.3912184 C159.714625,84.3912184 172.519274,71.5737528 172.519274,55.8210104 C172.519274,40.065597 159.714625,27.2481315 143.976195,27.2481315 L143.976195,27.2481315 Z M166.77833,55.8210104 C166.77833,68.4194655 156.549159,78.6675617 143.976195,78.6675617 L60.8416142,78.6675617 C50.9572767,78.6675617 42.9156446,70.6149134 42.9156446,60.7113581 C42.9156446,50.8078032 50.9572767,42.7524839 60.8416142,42.7524839 C61.4989535,42.7524839 62.2209495,42.8032303 63.1099741,42.9127357 L66.0248973,43.2733019 L66.3185448,40.3593916 C68.1208404,22.5661109 82.9594698,9.14770147 100.834253,9.14770147 C115.457362,9.14770147 128.582599,18.4423003 133.49648,32.2720223 L134.423221,34.8841254 L137.068743,34.0428038 C139.315551,33.3323546 141.637791,32.9744591 143.976195,32.9744591 C156.549159,32.9744591 166.77833,43.2225556 166.77833,55.8210104 L166.77833,55.8210104 Z" id="Fill-2"></path>
                    </g>
                </g>
                <g id="react" transform="translate(26.258621, 28.143905)">
                    <path d="M0.276503906,42.4067955 C0.276503906,49.5078552 7.15719728,56.1366192 18.0046582,59.8732216 C15.8384665,70.8627717 17.6166726,79.7207107 23.5552724,83.1720138 C29.6592612,86.7197721 38.7530859,84.2640584 47.3844818,76.6603995 C55.7980483,83.9569554 64.3010935,86.8284219 70.2345591,83.3671408 C76.3330474,79.8094046 78.1875306,70.3509337 75.9615639,59.018064 C87.2600857,55.253745 93.58007,49.6013534 93.58007,42.4067955 C93.58007,35.4705591 86.6869083,29.4700436 75.9854004,25.7574627 C78.3818898,13.9563628 76.351383,5.31350679 70.1667169,1.71955399 C64.2042802,-1.74542306 55.6022216,1.27460599 47.0650719,8.76185374 C38.1832094,0.814875683 29.6662288,-1.61127345 23.4881634,1.99265745 C17.5312278,5.46761257 15.8314989,14.4866788 18.0046582,25.6794859 C7.5231799,29.3621325 0.276503906,35.4986453 0.276503906,42.4067955 Z" id="Shape" fill="#FFFFFF"></path>
                    <path d="M73.7190951,29.4441747 C72.8371315,29.1392994 71.9476851,28.8568674 71.0516024,28.5971472 C71.2002052,27.988635 71.3376251,27.3774045 71.4637916,26.7637694 C73.4829301,16.8862197 72.1627523,8.92889402 67.6543448,6.30946596 C63.3318631,3.79720979 56.2623108,6.41663782 49.1223492,12.6780613 C48.4187983,13.2964588 47.7308638,13.9326714 47.0592044,14.5860899 C46.6094127,14.1516053 46.1516725,13.7255548 45.6862196,13.3081579 C38.2033787,6.61250366 30.7029351,3.79129686 26.1992952,6.41848561 C21.8808469,8.93776341 20.6017413,16.4187287 22.4195528,25.7796362 C22.6004123,26.7066391 22.8046169,27.6288611 23.0319686,28.5454093 C21.9706924,28.8491861 20.945721,29.1729188 19.9651222,29.5173472 C11.1925408,32.5994617 5.58985286,37.4303257 5.58985286,42.4407948 C5.58985286,47.616087 11.6039962,52.8069008 20.7418269,55.9540578 C21.48277,56.2080662 22.2298803,56.4434245 22.982462,56.6599136 C22.737973,57.6473508 22.5209147,58.6414806 22.3315409,59.6411391 C20.5984409,68.8394409 21.9519898,76.1430182 26.2590699,78.6467747 C30.7077026,81.2318339 38.1740413,78.5747108 45.4445537,72.1702684 C46.0191979,71.6639737 46.5960422,71.1270059 47.1736202,70.5641689 C47.9011192,71.2715251 48.6480432,71.9583077 49.4135218,72.6237161 C56.4559369,78.7306645 63.4110734,81.1967258 67.7144867,78.6863173 C72.1590851,76.0934977 73.6032127,68.2474089 71.7278271,58.7013527 C71.5848077,57.9722144 71.4179518,57.227555 71.2309266,56.4692217 C71.7553305,56.3132681 72.2698334,56.1521408 72.7718676,55.9843614 C82.2712804,52.8128133 88.4515459,47.6851943 88.4515459,42.4407948 C88.4515459,37.4122175 82.6684338,32.5488326 73.7190951,29.4441747 Z" id="Shape" fill="#000000"></path>
                    <path d="M71.6585177,52.5984697 C71.2056233,52.7496193 70.7406274,52.8955944 70.2668302,53.0371353 C69.2180222,49.6915254 67.8024985,46.1337895 66.0708652,42.4585337 C67.7236542,38.8701243 69.0841709,35.3582135 70.1036415,32.034038 C70.9511222,32.2816418 71.7740332,32.5421805 72.5668735,32.8175015 C80.2349061,35.4772112 84.9120026,39.4104184 84.9120026,42.4407948 C84.9120026,45.6688851 79.8604892,49.8596747 71.6588843,52.5984697 L71.6585177,52.5984697 Z M68.2553927,59.3942745 C69.0845375,63.615367 69.2029867,67.4317938 68.6536464,70.4152366 C68.1600465,73.0960118 67.1677127,74.8831946 65.9406807,75.5990287 C63.3292959,77.1223472 57.7445768,75.1422548 51.722366,69.9196594 C51.0318394,69.3209753 50.3361793,68.6816398 49.6386853,68.0053483 C51.9735665,65.4317454 54.3069809,62.4398028 56.5842874,59.1174751 C60.5902938,58.7593734 64.3748036,58.1736238 67.8068988,57.3742692 C67.9755882,58.0616475 68.1259419,58.735352 68.2553927,59.3942745 L68.2553927,59.3942745 Z M33.8390906,75.3359033 C31.2878471,76.2439074 29.2558735,76.2697769 28.0277414,75.5561599 C25.4137894,74.037276 24.3275765,68.1723885 25.809476,60.3063437 C25.9856978,59.3767426 26.1874692,58.4522453 26.4145575,57.5339187 C29.8085145,58.2904042 33.5655208,58.8347634 37.5810615,59.1629308 C39.8734036,62.4139337 42.2742936,65.4021808 44.6938861,68.0190218 C44.1796581,68.5203139 43.6532612,69.0087715 43.1151734,69.4839503 C39.9001738,72.3162441 36.6785733,74.3251616 33.8394575,75.3359033 L33.8390906,75.3359033 Z M21.8867144,52.5785137 C17.8462369,51.1867578 14.5094875,49.37814 12.2222794,47.4046996 C10.1672027,45.6308207 9.1293962,43.8698763 9.1293962,42.4407948 C9.1293962,39.4004401 13.6279021,35.5219275 21.1305459,32.8858695 C22.0722357,32.5564517 23.0232933,32.2548863 23.9824967,31.9815608 C25.0195696,35.3803868 26.3797195,38.9340579 28.0211406,42.5276412 C26.35845,46.1748102 24.9788641,49.7850236 23.9322565,53.2237621 C23.2452658,53.0256021 22.5632125,52.8104545 21.8867144,52.5785137 L21.8867144,52.5785137 Z M25.893454,25.0944754 C24.3360109,17.0739552 25.3701502,11.0239191 27.972734,9.50577426 C30.7451074,7.88858789 36.8747665,10.1946306 43.33557,15.9756285 C43.7484921,16.3451866 44.1632479,16.732114 44.5787372,17.1323454 C42.1716128,19.7373607 39.7927261,22.7030647 37.5201868,25.9352201 C33.6230949,26.2992349 29.8924927,26.8838759 26.462964,27.6669695 C26.2517075,26.8143064 26.0618105,25.9564127 25.893454,25.0941058 L25.893454,25.0944754 Z M61.636168,33.9886309 C60.8261204,32.5785562 59.9860233,31.1862309 59.1164616,29.8126239 C61.7604847,30.1489219 64.2933923,30.5960874 66.6719128,31.1434029 C65.9579166,33.4498153 65.0678967,35.8615516 64.0198222,38.3338957 C63.2540519,36.8696284 62.4593422,35.420918 61.636168,33.9886309 L61.636168,33.9886309 Z M47.060305,19.6815574 C48.6929247,21.4639363 50.3281113,23.4543764 51.9365282,25.6137046 C48.6738593,25.458335 45.4057469,25.4575951 42.1430091,25.6114872 C43.7528927,23.4721152 45.4020148,21.4846315 47.060305,19.6815574 L47.060305,19.6815574 Z M32.3909289,34.0130219 C31.5780614,35.4339181 30.7982103,36.8737391 30.0520141,38.3313084 C29.0211752,35.8674645 28.1392231,33.445011 27.4189928,31.105708 C29.7832112,30.5724356 32.3043843,30.1367267 34.9311712,29.8059719 C34.0518643,31.1880916 33.2048837,32.590828 32.3909289,34.0130219 L32.3909289,34.0130219 Z M35.0067147,55.3302435 C32.2930159,55.0249883 29.7337047,54.6114529 27.3702195,54.0929628 C28.1018181,51.7122693 29.0032061,49.2377081 30.0560478,46.7210175 C30.8053902,48.1796672 31.5886675,49.6203565 32.4052311,51.041891 C33.2384506,52.4919734 34.1058584,53.9218307 35.0067147,55.3302435 L35.0067147,55.3302435 Z M47.1582177,65.452071 C45.480492,63.6275626 43.8071665,61.6097754 42.1727134,59.4393603 C43.7591267,59.5021851 45.3767114,59.5339671 47.0206995,59.5339671 C48.7097937,59.5339671 50.3794517,59.4959026 52.0227063,59.4219913 C50.4091556,61.631949 48.7798365,63.6526928 47.1582177,65.452071 Z M64.0535602,46.5927807 C65.1610423,49.1368186 66.0947017,51.5980759 66.8362015,53.9384876 C64.4334777,54.490977 61.839695,54.9359248 59.1065607,55.26631 C59.9824074,53.867057 60.830545,52.4503839 61.6504698,51.0171304 C62.4839734,49.5604971 63.2852018,48.0853484 64.0535602,46.5927807 L64.0535602,46.5927807 Z M58.5839903,49.2351212 C57.3287944,51.4324978 56.0030264,53.5881608 54.6087881,55.6986928 C52.1503236,55.8757113 49.6097148,55.9669921 47.0206995,55.9669921 C44.4423186,55.9669921 41.9339809,55.8860588 39.5184222,55.7282574 C38.0880231,53.6226394 36.7371755,51.4632456 35.4687769,49.2547078 C34.206307,47.0578878 33.0270764,44.8135455 31.9336339,42.5265324 C33.0242953,40.2388341 34.1999625,37.9932899 35.4581422,35.7946615 L35.4581422,35.7954004 C36.7159271,33.5963041 38.0561398,31.4461436 39.4758833,29.3495678 C41.9402153,29.1618322 44.4668889,29.0635296 47.0210661,29.0635296 C49.5866117,29.0635296 52.1165856,29.1625714 54.5801842,29.3517851 C55.9855669,31.4451345 57.3172081,33.5878109 58.5726219,35.775814 C59.8351281,37.9695508 61.0264852,40.2040956 62.1448028,42.475903 C61.0379889,44.7708566 59.8504207,47.0253582 58.5843568,49.2351212 L58.5839903,49.2351212 Z M65.8864069,9.3997111 C68.6609807,11.0124628 69.7402261,17.5155772 67.9968578,26.0438702 C67.8825895,26.599437 67.7583744,27.1528789 67.6242743,27.7039253 C64.1866778,26.9045711 60.4535084,26.3095825 56.5450488,25.9400244 C54.2681089,22.6727609 51.9090246,19.7018831 49.5407719,17.1304976 C50.1613522,16.5275813 50.7967006,15.9402954 51.4462286,15.3691836 C57.5637862,10.0039386 63.2812561,7.8856314 65.8864069,9.3997111 L65.8864069,9.3997111 Z" id="Shape" fill="#FFFFFF"></path>
                    <path d="M47.0206995,34.9842207 C51.1073831,34.9842207 54.4199292,38.3228086 54.4199292,42.4407948 C54.4199292,46.5591507 51.1073831,49.8977389 47.0206995,49.8977389 C42.9343822,49.8977389 39.6214696,46.5591507 39.6214696,42.4407948 C39.6214696,38.3228086 42.9343822,34.9842207 47.0206995,34.9842207" id="Shape" fill="#000000"></path>
                </g>
            </g>
            <path d="M208.038113,44.7789202 L198.424964,44.7789202 L198.424964,61.4344472 L193,61.4344472 L193,20.2622108 L206.548356,20.2622108 C211.158193,20.2622108 214.704529,21.3178986 217.18747,23.4293059 C219.670411,25.5407132 220.911863,28.6135187 220.911863,32.647815 C220.911863,35.2116666 220.223208,37.4455773 218.845879,39.3496143 C217.468549,41.2536512 215.552497,42.6769447 213.097665,43.6195371 L222.710815,61.0951157 L222.710815,61.4344472 L216.920438,61.4344472 L208.038113,44.7789202 Z M198.424964,40.3393317 L206.717008,40.3393317 C209.39671,40.3393317 211.528259,39.6418235 213.11172,38.2467865 C214.69518,36.8517495 215.486899,34.9854445 215.486899,32.647815 C215.486899,30.1028152 214.732658,28.1516776 213.224154,26.7943444 C211.715651,25.4370113 209.537254,24.7489288 206.688899,24.7300771 L198.424964,24.7300771 L198.424964,40.3393317 Z M240.278704,62 C236.156085,62 232.801823,60.6379741 230.215817,57.9138817 C227.629811,55.1897893 226.336827,51.5467236 226.336827,46.9845757 L226.336827,46.0231363 C226.336827,42.9879881 226.913048,40.2780754 228.065507,37.8933161 C229.217967,35.508557 230.829511,33.6422517 232.90019,32.2943446 C234.970869,30.9464371 237.214852,30.2724936 239.632206,30.2724936 C243.586172,30.2724936 246.659351,31.5826774 248.851834,34.2030849 C251.044318,36.8234921 252.140543,40.5749543 252.140543,45.4575836 L252.140543,47.6349612 L231.536922,47.6349612 C231.611879,50.6512574 232.487922,53.0878226 234.165079,54.94473 C235.842235,56.8016373 237.973784,57.7300771 240.55979,57.7300771 C242.396229,57.7300771 243.951558,57.3530457 245.225822,56.5989716 C246.500086,55.8448975 247.61505,54.8457644 248.570748,53.6015424 L251.747022,56.0899741 C249.198494,60.030011 245.37576,62 240.278704,62 Z M239.632206,34.5706939 C237.533418,34.5706939 235.771962,35.3388954 234.347784,36.8753214 C232.923607,38.4117472 232.042879,40.5655389 231.705574,43.3367609 L246.940448,43.3367609 L246.940448,42.940874 C246.790534,40.282763 246.078456,38.2232292 244.804192,36.7622108 C243.529928,35.3011925 241.80595,34.5706939 239.632206,34.5706939 Z M276.932349,61.4344472 C276.632522,60.8311879 276.388916,59.7566486 276.201524,58.2107968 C273.784171,60.7369449 270.898381,62 267.544069,62 C264.5458,62 262.08632,61.1469664 260.165555,59.4408741 C258.244789,57.7347815 257.284421,55.571564 257.284421,52.9511568 C257.284421,49.7651941 258.488395,47.2909257 260.896379,45.5282775 C263.304363,43.7656296 266.691418,42.8843187 271.057646,42.8843187 L276.117198,42.8843187 L276.117198,40.4807198 C276.117198,38.6520903 275.57377,37.1958067 274.486898,36.1118252 C273.400026,35.0278438 271.797851,34.4858611 269.680324,34.4858611 C267.825146,34.4858611 266.269817,34.9571505 265.014292,35.8997429 C263.758767,36.8423353 263.131015,37.9828553 263.131015,39.3213368 L257.902811,39.3213368 C257.902811,37.7943367 258.441554,36.3192017 259.519056,34.8958869 C260.596559,33.4725721 262.058193,32.346191 263.904002,31.5167095 C265.74981,30.6872279 267.778296,30.2724936 269.989519,30.2724936 C273.493745,30.2724936 276.238993,31.1538044 278.225345,32.9164523 C280.211698,34.6791005 281.242337,37.10624 281.317294,40.1979433 L281.317294,54.2802055 C281.317294,57.0891313 281.673333,59.3230421 282.385422,60.9820051 L282.385422,61.4344472 L276.932349,61.4344472 Z M268.303001,57.4473006 C269.93331,57.4473006 271.479268,57.0231405 272.940924,56.1748072 C274.40258,55.326474 275.461327,54.2236572 276.117198,52.8663237 L276.117198,46.5886888 L272.041448,46.5886888 C265.670128,46.5886888 262.484516,48.4644199 262.484516,52.2159381 C262.484516,53.8560494 263.027944,55.137956 264.114816,56.0616966 C265.201689,56.9854373 266.597736,57.4473006 268.303001,57.4473006 Z M301.667938,57.7300771 C303.523114,57.7300771 305.144031,57.1645299 306.530728,56.0334188 C307.917429,54.9023078 308.685723,53.4884403 308.835635,51.7917738 L313.754643,51.7917738 C313.660949,53.5449959 313.061304,55.2133597 311.955692,56.796915 C310.850082,58.3804707 309.374393,59.6435255 307.528585,60.5861182 C305.682777,61.5287106 303.729247,62 301.667938,62 C297.526579,62 294.233218,60.6096969 291.787756,57.8290489 C289.342293,55.0484008 288.119581,51.2450969 288.119581,46.4190232 L288.119581,45.5424164 C288.119581,42.563824 288.663009,39.9151786 289.749881,37.5964009 C290.836753,35.2776233 292.396766,33.4772986 294.429967,32.1953728 C296.463167,30.9134467 298.86643,30.2724936 301.639827,30.2724936 C305.050358,30.2724936 307.884616,31.2999039 310.142687,33.3547559 C312.400759,35.4096076 313.604731,38.0771044 313.754643,41.3573263 L308.835635,41.3573263 C308.685723,39.377882 307.940852,37.7519344 306.601002,36.4794343 C305.261148,35.2069345 303.607443,34.5706939 301.639827,34.5706939 C298.997606,34.5706939 296.95038,35.5274113 295.498094,37.4408739 C294.045808,39.3543369 293.319676,42.1208045 293.319676,45.7403598 L293.319676,46.7300769 C293.319676,50.2553733 294.041123,52.9699988 295.48404,54.8740358 C296.926956,56.778073 298.988234,57.7300771 301.667938,57.7300771 Z M326.656502,23.4293059 L326.656502,30.8380464 L332.334446,30.8380464 L332.334446,34.881748 L326.656502,34.881748 L326.656502,53.8560411 C326.656502,55.0814113 326.909479,56.0004254 327.415437,56.6131105 C327.921395,57.2257956 328.783383,57.5321337 330.001429,57.5321337 C330.601083,57.5321337 331.425595,57.4190243 332.474987,57.1928019 L332.474987,61.4344472 C331.107029,61.8114841 329.776568,62 328.483565,62 C326.159907,62 324.40782,61.2930661 323.22725,59.8791773 C322.046683,58.4652885 321.456409,56.4575966 321.456409,53.8560411 L321.456409,34.881748 L315.919009,34.881748 L315.919009,30.8380464 L321.456409,30.8380464 L321.456409,23.4293059 L326.656502,23.4293059 Z M348.047166,48.4550127 L348.834208,53.8843186 L349.986661,48.992288 L358.081945,20.2622108 L362.63554,20.2622108 L370.534064,48.992288 L371.65841,53.9691515 L372.529775,48.4267352 L378.882325,20.2622108 L384.307288,20.2622108 L374.384945,61.4344472 L369.465937,61.4344472 L361.03335,31.4318766 L360.386851,28.293059 L359.740353,31.4318766 L350.998571,61.4344472 L346.079562,61.4344472 L336.185327,20.2622108 L341.582182,20.2622108 L348.047166,48.4550127 Z M402.100048,62 C397.977429,62 394.623167,60.6379741 392.037161,57.9138817 C389.451154,55.1897893 388.158169,51.5467236 388.158169,46.9845757 L388.158169,46.0231363 C388.158169,42.9879881 388.734391,40.2780754 389.886851,37.8933161 C391.03931,35.508557 392.650856,33.6422517 394.721533,32.2943446 C396.792214,30.9464371 399.036194,30.2724936 401.453549,30.2724936 C405.407517,30.2724936 408.480693,31.5826774 410.673178,34.2030849 C412.865661,36.8234921 413.961887,40.5749543 413.961887,45.4575836 L413.961887,47.6349612 L393.358266,47.6349612 C393.433223,50.6512574 394.309267,53.0878226 395.986423,54.94473 C397.663579,56.8016373 399.795126,57.7300771 402.381133,57.7300771 C404.217572,57.7300771 405.7729,57.3530457 407.047164,56.5989716 C408.321428,55.8448975 409.436393,54.8457644 410.39209,53.6015424 L413.568365,56.0899741 C411.019837,60.030011 407.197103,62 402.100048,62 Z M401.453549,34.5706939 C399.354761,34.5706939 397.593306,35.3388954 396.169127,36.8753214 C394.744951,38.4117472 393.864223,40.5655389 393.526917,43.3367609 L408.76179,43.3367609 L408.76179,42.940874 C408.611878,40.282763 407.899799,38.2232292 406.625535,36.7622108 C405.351271,35.3011925 403.627295,34.5706939 401.453549,34.5706939 Z M438.753692,61.4344472 C438.453864,60.8311879 438.210258,59.7566486 438.022867,58.2107968 C435.605515,60.7369449 432.719724,62 429.365411,62 C426.367144,62 423.907665,61.1469664 421.9869,59.4408741 C420.066134,57.7347815 419.105765,55.571564 419.105765,52.9511568 C419.105765,49.7651941 420.309737,47.2909257 422.717724,45.5282775 C425.125708,43.7656296 428.512761,42.8843187 432.878989,42.8843187 L437.938541,42.8843187 L437.938541,40.4807198 C437.938541,38.6520903 437.395114,37.1958067 436.308241,36.1118252 C435.221368,35.0278438 433.619194,34.4858611 431.501666,34.4858611 C429.64649,34.4858611 428.091159,34.9571505 426.835635,35.8997429 C425.58011,36.8423353 424.952357,37.9828553 424.952357,39.3213368 L419.724153,39.3213368 C419.724153,37.7943367 420.262896,36.3192017 421.340401,34.8958869 C422.417903,33.4725721 423.879536,32.346191 425.725344,31.5167095 C427.571155,30.6872279 429.59964,30.2724936 431.810861,30.2724936 C435.315089,30.2724936 438.060337,31.1538044 440.046689,32.9164523 C442.033041,34.6791005 443.06368,37.10624 443.138638,40.1979433 L443.138638,54.2802055 C443.138638,57.0891313 443.494677,59.3230421 444.206765,60.9820051 L444.206765,61.4344472 L438.753692,61.4344472 Z M430.124346,57.4473006 C431.754652,57.4473006 433.300612,57.0231405 434.762267,56.1748072 C436.223924,55.326474 437.282672,54.2236572 437.938541,52.8663237 L437.938541,46.5886888 L433.862791,46.5886888 C427.491471,46.5886888 424.305858,48.4644199 424.305858,52.2159381 C424.305858,53.8560494 424.849289,55.137956 425.936159,56.0616966 C427.023032,56.9854373 428.419079,57.4473006 430.124346,57.4473006 Z M458.345403,23.4293059 L458.345403,30.8380464 L464.023344,30.8380464 L464.023344,34.881748 L458.345403,34.881748 L458.345403,53.8560411 C458.345403,55.0814113 458.598377,56.0004254 459.104335,56.6131105 C459.610293,57.2257956 460.472281,57.5321337 461.69033,57.5321337 C462.289981,57.5321337 463.114494,57.4190243 464.163888,57.1928019 L464.163888,61.4344472 C462.795927,61.8114841 461.465466,62 460.172463,62 C457.848805,62 456.096718,61.2930661 454.916151,59.8791773 C453.735581,58.4652885 453.145307,56.4575966 453.145307,53.8560411 L453.145307,34.881748 L447.607907,34.881748 L447.607907,30.8380464 L453.145307,30.8380464 L453.145307,23.4293059 L458.345403,23.4293059 Z M475.294902,34.5424164 C477.599821,31.6957871 480.598043,30.2724936 484.289661,30.2724936 C490.717199,30.2724936 493.959027,33.9202721 494.015245,41.2159382 L494.015245,61.4344472 L488.815149,61.4344472 L488.815149,41.1876607 C488.796409,38.9819939 488.295145,37.3513334 487.311337,36.2956298 C486.327532,35.2399261 484.795628,34.7120824 482.715579,34.7120824 C481.029052,34.7120824 479.548679,35.16452 478.274415,36.0694088 C477.000151,36.9742974 476.00699,38.1619464 475.294902,39.6323908 L475.294902,61.4344472 L470.094806,61.4344472 L470.094806,18 L475.294902,18 L475.294902,34.5424164 Z M514.422107,62 C510.299488,62 506.945224,60.6379741 504.359217,57.9138817 C501.773214,55.1897893 500.480228,51.5467236 500.480228,46.9845757 L500.480228,46.0231363 C500.480228,42.9879881 501.05645,40.2780754 502.20891,37.8933161 C503.361369,35.508557 504.972912,33.6422517 507.043593,32.2943446 C509.11427,30.9464371 511.358253,30.2724936 513.775608,30.2724936 C517.729573,30.2724936 520.802752,31.5826774 522.995235,34.2030849 C525.18772,36.8234921 526.283946,40.5749543 526.283946,45.4575836 L526.283946,47.6349612 L505.680325,47.6349612 C505.755279,50.6512574 506.631323,53.0878226 508.308479,54.94473 C509.985636,56.8016373 512.117185,57.7300771 514.703192,57.7300771 C516.539632,57.7300771 518.094959,57.3530457 519.369223,56.5989716 C520.643487,55.8448975 521.758452,54.8457644 522.71415,53.6015424 L525.890424,56.0899741 C523.341897,60.030011 519.519163,62 514.422107,62 Z M513.775608,34.5706939 C511.67682,34.5706939 509.915362,35.3388954 508.491186,36.8753214 C507.06701,38.4117472 506.18628,40.5655389 505.848976,43.3367609 L521.083849,43.3367609 L521.083849,42.940874 C520.933937,40.282763 520.221858,38.2232292 518.947594,36.7622108 C517.67333,35.3011925 515.949351,34.5706939 513.775608,34.5706939 Z M547,35.5321336 C546.212954,35.4001706 545.360335,35.3341901 544.442116,35.3341901 C541.031585,35.3341901 538.717332,36.7951869 537.499286,39.7172236 L537.499286,61.4344472 L532.299189,61.4344472 L532.299189,30.8380464 L537.358742,30.8380464 L537.443068,34.3727505 C539.148332,31.6392324 541.56565,30.2724936 544.695093,30.2724936 C545.707009,30.2724936 546.475303,30.4044545 547,30.6683804 L547,35.5321336 Z" id="Shape" fill="#000000"></path>
        </g>
    </g>
</svg>