<svg width="700" height="300" xmlns="http://www.w3.org/2000/svg"><g fill="none" fill-rule="evenodd"><path fill="#FFF" d="M0 0h700v300H0z"/><g fill-rule="nonzero"><g fill="#000"><path d="M219.453 153.58h12.096c7.886 0 14.3-6.427 14.3-14.327 0-7.903-6.414-14.332-14.3-14.332-.525 0-1.102.043-1.81.128l-2.328.289-.232-2.324a27.606 27.606 0 0 0-27.54-24.903c-6.194 0-12.04 2.107-16.76 5.718a40.365 40.365 0 0 0-3.211-3.247c5.603-4.434 12.621-7.038 19.97-7.038 15.925 0 29.163 11.223 31.798 26.813h.113c10.41 0 18.88 8.477 18.88 18.896 0 10.416-8.47 18.894-18.88 18.894h-12.204c.108-.946.183-1.905.183-2.882 0-.569-.037-1.127-.075-1.685"/><path d="M106.58 120.402c2.03 0 4.056.216 6.037.646 6.333-14.679 21.113-24.47 37.104-24.47 19.955 0 36.55 14.067 39.853 33.605h.14c13.05 0 23.664 10.625 23.664 23.682 0 13.058-10.614 23.68-23.664 23.68h-83.135c-15.738 0-28.543-12.817-28.543-28.57 0-15.755 12.805-28.573 28.543-28.573zm-22.803 28.573c0 12.598 10.23 22.847 22.802 22.847h83.135c9.884 0 17.926-8.053 17.926-17.957 0-9.903-8.042-17.959-17.926-17.959-.657 0-1.38.051-2.269.16l-2.914.361-.294-2.914a34.6 34.6 0 0 0-34.516-31.211c-14.623 0-27.748 9.294-32.662 23.124l-.927 2.612-2.645-.841a22.875 22.875 0 0 0-6.908-1.069c-12.573 0-22.802 10.249-22.802 22.847z"/></g><path d="M103.535 163.55c0 7.102 6.88 13.73 17.728 17.467-2.166 10.99-.388 19.848 5.55 23.299 6.105 3.548 15.199 1.092 23.83-6.512 8.414 7.297 16.917 10.168 22.85 6.707 6.099-3.558 7.953-13.016 5.727-24.349 11.299-3.764 17.619-9.417 17.619-16.611 0-6.937-6.893-12.937-17.595-16.65 2.397-11.8.366-20.444-5.819-24.038-5.962-3.465-14.564-.444-23.101 7.043-8.882-7.947-17.4-10.373-23.577-6.77-5.957 3.476-7.657 12.495-5.484 23.687-10.481 3.683-17.728 9.82-17.728 16.728z" fill="#FFF"/><path d="M176.978 150.588a55.197 55.197 0 0 0-2.668-.847c.149-.608.286-1.22.412-1.833 2.02-9.878.7-17.835-3.809-20.455-4.323-2.512-11.392.108-18.532 6.369a55.586 55.586 0 0 0-2.063 1.908 50.6 50.6 0 0 0-1.373-1.278c-7.483-6.696-14.983-9.517-19.487-6.89-4.319 2.52-5.598 10-3.78 19.362.181.927.385 1.849.613 2.765a54.654 54.654 0 0 0-3.067.972c-8.773 3.082-14.376 7.913-14.376 12.924 0 5.175 6.015 10.366 15.152 13.513.741.254 1.489.49 2.241.706a54.99 54.99 0 0 0-.65 2.981c-1.734 9.198-.38 16.502 3.927 19.006 4.448 2.585 11.915-.072 19.185-6.477a47.08 47.08 0 0 0 1.73-1.606 54.553 54.553 0 0 0 2.24 2.06c7.042 6.107 13.997 8.573 18.3 6.062 4.445-2.593 5.889-10.439 4.013-19.985-.143-.729-.31-1.474-.496-2.232a48.34 48.34 0 0 0 1.54-.485c9.5-3.171 15.68-8.299 15.68-13.543 0-5.029-5.783-9.892-14.732-12.997z" fill="#000"/><path d="M174.917 173.742c-.453.152-.918.297-1.392.439-1.048-3.346-2.464-6.903-4.196-10.579 1.653-3.588 3.014-7.1 4.033-10.424.848.248 1.67.508 2.463.783 7.669 2.66 12.346 6.593 12.346 9.624 0 3.228-5.052 7.419-13.253 10.157zm-3.403 6.796c.83 4.221.948 8.038.398 11.021-.493 2.68-1.486 4.468-2.713 5.184-2.611 1.523-8.196-.457-14.218-5.68a50.893 50.893 0 0 1-2.084-1.914c2.335-2.573 4.669-5.565 6.946-8.888 4.006-.358 7.79-.943 11.223-1.743.168.688.319 1.361.448 2.02zm-34.416 15.942c-2.552.908-4.584.934-5.812.22-2.614-1.519-3.7-7.384-2.218-15.25.176-.93.378-1.854.605-2.772 3.394.756 7.151 1.3 11.167 1.629 2.292 3.25 4.693 6.24 7.113 8.856-.515.501-1.041.99-1.58 1.465-3.214 2.832-6.436 4.841-9.275 5.852zm-11.953-22.758c-4.04-1.391-7.377-3.2-9.664-5.173-2.055-1.774-3.093-3.535-3.093-4.964 0-3.04 4.499-6.92 12.001-9.555.942-.33 1.893-.631 2.852-.905 1.037 3.4 2.397 6.953 4.039 10.547-1.663 3.647-3.043 7.257-4.09 10.696a43.36 43.36 0 0 1-2.045-.646zm4.007-27.484c-1.557-8.02-.523-14.07 2.08-15.588 2.772-1.618 8.901.689 15.362 6.47.413.37.828.756 1.243 1.156-2.407 2.605-4.786 5.571-7.058 8.803-3.897.364-7.628.949-11.057 1.732a52.65 52.65 0 0 1-.57-2.573zm35.743 8.895c-.81-1.41-1.65-2.803-2.52-4.176 2.644.336 5.177.783 7.556 1.33a76.469 76.469 0 0 1-2.653 7.19 124.617 124.617 0 0 0-2.383-4.344zm-14.576-14.308a76.161 76.161 0 0 1 4.876 5.933c-3.263-.156-6.53-.156-9.793-.003a78.528 78.528 0 0 1 4.917-5.93zm-14.67 14.332a105.67 105.67 0 0 0-2.338 4.318 79.12 79.12 0 0 1-2.633-7.225 79.306 79.306 0 0 1 7.512-1.3 105.034 105.034 0 0 0-2.54 4.207zm2.616 21.317a74.837 74.837 0 0 1-7.636-1.237 80.388 80.388 0 0 1 2.686-7.372 105.02 105.02 0 0 0 4.95 8.61zm12.152 10.122a80.037 80.037 0 0 1-4.986-6.013c1.587.063 3.204.095 4.848.095 1.69 0 3.36-.038 5.002-.112a75.748 75.748 0 0 1-4.864 6.03zm16.895-18.86c1.108 2.545 2.041 5.006 2.783 7.346a74.597 74.597 0 0 1-7.73 1.328c.876-1.399 1.724-2.816 2.544-4.249a113.592 113.592 0 0 0 2.403-4.424zm-5.47 2.643a117.112 117.112 0 0 1-3.975 6.464c-2.458.177-4.999.268-7.588.268-2.578 0-5.086-.081-7.502-.239a101.303 101.303 0 0 1-7.585-13.202 101.483 101.483 0 0 1 3.525-6.731c1.258-2.199 2.598-4.349 4.018-6.446a99.523 99.523 0 0 1 15.104.003 107.564 107.564 0 0 1 3.992 6.424 117.235 117.235 0 0 1 3.572 6.7 107.755 107.755 0 0 1-3.56 6.759zm7.303-39.835c2.775 1.612 3.854 8.115 2.11 16.644a47.44 47.44 0 0 1-.372 1.66c-3.438-.8-7.17-1.395-11.08-1.764-2.276-3.267-4.635-6.238-7.004-8.81.621-.603 1.256-1.19 1.906-1.76 6.117-5.366 11.835-7.484 14.44-5.97z" fill="#FFF"/><path d="M150.28 156.128c4.086 0 7.399 3.339 7.399 7.457s-3.313 7.457-7.4 7.457c-4.086 0-7.399-3.339-7.399-7.457s3.313-7.457 7.4-7.457M285.038 137.779h-9.613v16.655H270v-41.172h13.548c4.61 0 8.157 1.056 10.64 3.167 2.482 2.112 3.724 5.185 3.724 9.219 0 2.564-.689 4.798-2.066 6.702-1.377 1.904-3.294 3.327-5.748 4.27l9.613 17.475v.34h-5.79l-8.883-16.656zm-9.613-4.44h8.292c2.68 0 4.811-.697 6.395-2.092 1.583-1.395 2.375-3.262 2.375-5.6 0-2.544-.754-4.495-2.263-5.853-1.508-1.357-3.687-2.045-6.535-2.064h-8.264v15.61zM317.279 155c-4.123 0-7.477-1.362-10.063-4.086-2.586-2.724-3.88-6.367-3.88-10.93v-.96c0-3.036.577-5.746 1.73-8.13 1.152-2.385 2.764-4.252 4.834-5.6 2.07-1.348 4.315-2.022 6.732-2.022 3.954 0 7.027 1.31 9.22 3.931 2.192 2.62 3.289 6.372 3.289 11.255v2.177h-20.604c.075 3.016.95 5.453 2.628 7.31 1.677 1.857 3.809 2.785 6.395 2.785 1.836 0 3.392-.377 4.666-1.131 1.274-.754 2.39-1.753 3.345-2.997l3.176 2.488c-2.549 3.94-6.371 5.91-11.468 5.91zm-.647-27.43c-2.099 0-3.86.769-5.284 2.305-1.424 1.537-2.305 3.69-2.642 6.462h15.234v-.396c-.15-2.658-.862-4.718-2.136-6.179-1.274-1.46-2.998-2.191-5.172-2.191zm37.3 26.864c-.3-.603-.543-1.677-.73-3.223-2.418 2.526-5.304 3.789-8.658 3.789-2.998 0-5.458-.853-7.378-2.56-1.921-1.705-2.882-3.868-2.882-6.489 0-3.186 1.204-5.66 3.612-7.423 2.408-1.762 5.795-2.644 10.162-2.644h5.06v-2.403c0-1.829-.544-3.285-1.631-4.37-1.087-1.083-2.69-1.625-4.807-1.625-1.855 0-3.41.471-4.666 1.414-1.255.942-1.883 2.083-1.883 3.421h-5.228c0-1.527.539-3.002 1.616-4.425 1.078-1.423 2.54-2.55 4.385-3.38 1.846-.829 3.874-1.244 6.086-1.244 3.504 0 6.249.882 8.235 2.644 1.987 1.763 3.017 4.19 3.092 7.282v14.082c0 2.81.356 5.043 1.068 6.702v.452h-5.453zm-8.629-3.987c1.63 0 3.176-.424 4.638-1.272 1.462-.849 2.52-1.951 3.176-3.309v-6.277h-4.076c-6.37 0-9.556 1.875-9.556 5.627 0 1.64.543 2.922 1.63 3.846 1.087.923 2.483 1.385 4.188 1.385zm33.365.283c1.855 0 3.476-.565 4.863-1.697 1.386-1.13 2.155-2.545 2.305-4.241h4.919c-.094 1.753-.694 3.421-1.8 5.005-1.105 1.583-2.58 2.847-4.426 3.79a12.712 12.712 0 0 1-5.861 1.413c-4.141 0-7.435-1.39-9.88-4.171-2.446-2.78-3.668-6.584-3.668-11.41v-.877c0-2.978.543-5.627 1.63-7.946 1.087-2.318 2.647-4.119 4.68-5.4 2.033-1.283 4.436-1.924 7.21-1.924 3.41 0 6.245 1.028 8.503 3.083s3.462 4.722 3.612 8.002h-4.92c-.15-1.98-.894-3.605-2.234-4.878-1.34-1.272-2.994-1.908-4.961-1.908-2.642 0-4.69.956-6.142 2.87-1.452 1.913-2.178 4.68-2.178 8.3v.99c0 3.524.721 6.239 2.164 8.143 1.443 1.904 3.504 2.856 6.184 2.856zm24.989-34.3v7.408h5.677v4.044h-5.677v18.974c0 1.225.252 2.144.758 2.757s1.368.92 2.586.92c.6 0 1.425-.114 2.474-.34v4.241c-1.368.377-2.698.566-3.991.566-2.324 0-4.076-.707-5.257-2.12-1.18-1.415-1.77-3.422-1.77-6.024v-18.974h-5.538v-4.044h5.537v-7.409h5.2zm21.39 25.025l.787 5.43 1.153-4.893 8.095-28.73h4.554l7.898 28.73 1.124 4.977.872-5.542 6.352-28.165h5.425l-9.922 41.172h-4.92l-8.432-30.002-.646-3.139-.647 3.139L428 154.434h-4.92l-9.894-41.172h5.397l6.465 28.193zM479.1 155c-4.123 0-7.477-1.362-10.063-4.086-2.586-2.724-3.879-6.367-3.879-10.93v-.96c0-3.036.576-5.746 1.729-8.13 1.152-2.385 2.764-4.252 4.835-5.6 2.07-1.348 4.314-2.022 6.732-2.022 3.954 0 7.027 1.31 9.22 3.931 2.192 2.62 3.288 6.372 3.288 11.255v2.177h-20.604c.075 3.016.951 5.453 2.628 7.31 1.678 1.857 3.81 2.785 6.395 2.785 1.837 0 3.392-.377 4.666-1.131 1.274-.754 2.39-1.753 3.345-2.997l3.176 2.488c-2.548 3.94-6.37 5.91-11.468 5.91zm-.646-27.43c-2.1 0-3.86.769-5.285 2.305-1.424 1.537-2.305 3.69-2.642 6.462h15.235v-.396c-.15-2.658-.862-4.718-2.136-6.179-1.275-1.46-2.999-2.191-5.172-2.191zm37.3 26.864c-.3-.603-.544-1.677-.731-3.223-2.417 2.526-5.303 3.789-8.658 3.789-2.998 0-5.457-.853-7.378-2.56-1.92-1.705-2.881-3.868-2.881-6.489 0-3.186 1.204-5.66 3.612-7.423 2.408-1.762 5.795-2.644 10.161-2.644h5.06v-2.403c0-1.829-.544-3.285-1.63-4.37-1.088-1.083-2.69-1.625-4.807-1.625-1.856 0-3.41.471-4.666 1.414-1.256.942-1.884 2.083-1.884 3.421h-5.228c0-1.527.539-3.002 1.616-4.425 1.078-1.423 2.54-2.55 4.385-3.38 1.846-.829 3.875-1.244 6.086-1.244 3.504 0 6.25.882 8.236 2.644 1.986 1.763 3.017 4.19 3.092 7.282v14.082c0 2.81.356 5.043 1.068 6.702v.452h-5.453zm-8.63-3.987c1.63 0 3.177-.424 4.638-1.272 1.462-.849 2.52-1.951 3.177-3.309v-6.277h-4.076c-6.372 0-9.557 1.875-9.557 5.627 0 1.64.543 2.922 1.63 3.846 1.087.923 2.483 1.385 4.188 1.385zm28.221-34.018v7.409h5.678v4.044h-5.678v18.974c0 1.225.253 2.144.76 2.757.505.613 1.367.92 2.585.92.6 0 1.424-.114 2.474-.34v4.241c-1.368.377-2.699.566-3.992.566-2.323 0-4.075-.707-5.256-2.12-1.18-1.415-1.77-3.422-1.77-6.024v-18.974h-5.538v-4.044h5.537v-7.409h5.2zm16.95 11.113c2.305-2.846 5.303-4.27 8.995-4.27 6.427 0 9.669 3.648 9.725 10.944v20.218h-5.2v-20.246c-.019-2.206-.52-3.837-1.504-4.892-.983-1.056-2.515-1.584-4.595-1.584-1.687 0-3.167.453-4.442 1.357-1.274.905-2.267 2.093-2.98 3.563v21.802h-5.2V111h5.2v16.542zM591.422 155c-4.123 0-7.477-1.362-10.063-4.086-2.586-2.724-3.879-6.367-3.879-10.93v-.96c0-3.036.576-5.746 1.729-8.13 1.152-2.385 2.764-4.252 4.835-5.6 2.07-1.348 4.314-2.022 6.732-2.022 3.954 0 7.027 1.31 9.22 3.931 2.192 2.62 3.288 6.372 3.288 11.255v2.177H582.68c.075 3.016.951 5.453 2.628 7.31 1.678 1.857 3.81 2.785 6.395 2.785 1.837 0 3.392-.377 4.666-1.131 1.274-.754 2.39-1.753 3.345-2.997l3.176 2.488c-2.548 3.94-6.37 5.91-11.468 5.91zm-.646-27.43c-2.1 0-3.86.769-5.285 2.305-1.424 1.537-2.305 3.69-2.642 6.462h15.235v-.396c-.15-2.658-.862-4.718-2.136-6.179-1.275-1.46-2.999-2.191-5.172-2.191zm33.224.962a15.492 15.492 0 0 0-2.558-.198c-3.41 0-5.725 1.461-6.943 4.383v21.717h-5.2v-30.596h5.06l.084 3.535c1.705-2.734 4.123-4.1 7.252-4.1 1.012 0 1.78.131 2.305.395v4.864z" fill="#000"/></g></g></svg>