<svg width="233" height="250" xmlns="http://www.w3.org/2000/svg"><path d="M232.993 195.964c-.08-7.183-1.764-14.275-4.39-20.937-2.024-5.157-4.376-10.179-6.672-15.22a2883.532 2883.532 0 0 0-57.515-117.943c-2.822-5.431-5.584-10.896-8.565-16.244-2.928-5.217-6.338-10.239-10.752-14.322C138.057 4.598 128.607.603 118.91 0h-4.466c-9.984.492-19.73 4.673-26.893 11.643-4.252 4.02-7.542 8.92-10.393 13.991-2.941 5.26-5.664 10.639-8.433 15.984a2904.645 2904.645 0 0 0-39.196 78.843c-7.55 15.844-15.037 31.716-22.238 47.716-2.986 6.666-5.687 13.56-6.703 20.836-1.884 12.286.817 25.181 7.394 35.732 5.668 9.164 14.177 16.55 24.096 20.815a54.388 54.388 0 0 0 24.611 4.347c11.262-.596 22.12-4.634 31.648-10.527 10.63-6.51 19.72-15.168 28.184-24.232 7.87 8.465 16.293 16.543 26.016 22.875 9.39 6.166 20.097 10.63 31.359 11.692 12.23 1.275 24.903-1.75 35.168-8.546a53.513 53.513 0 0 0 20.157-24.718 52.82 52.82 0 0 0 3.773-20.487zM115.562 192c-3.056-3.628-5.747-7.552-8.451-11.448-4.55-6.73-8.686-13.765-12.013-21.198-2.727-6.167-4.916-12.641-5.77-19.365-.623-5.335-.474-10.9 1.467-15.964 1.738-4.75 5.077-8.864 9.308-11.582 10.08-6.561 24.447-5.852 33.58 2.106 4.624 3.972 7.385 9.845 8.08 15.88.91 8.022-.9 16.08-3.677 23.562-5.244 13.884-13.546 26.33-22.524 38.009zm99.962 16.064c-2.708 9.325-9.22 17.47-17.739 22.17-7.551 4.213-16.564 5.656-25.077 4.237-10.842-1.683-20.57-7.42-28.998-14.192-6.195-4.965-11.773-10.638-17.117-16.486 8.437-10.643 16.385-21.777 22.456-33.948 5.299-10.66 9.325-22.208 9.708-34.192.215-7.605-1.22-15.349-4.781-22.12-4.664-9.045-13.018-15.994-22.596-19.355-8.947-3.188-18.893-3.472-28.02-.878-8.608 2.43-16.47 7.589-21.856 14.74-4.742 6.236-7.445 13.902-8.072 21.676-.964 11.198 1.85 22.37 6.107 32.663 6.328 15.041 15.616 28.656 25.874 41.284a141.198 141.198 0 0 1-15.016 14.882c-8.328 7.028-17.857 13.147-28.651 15.475-8.727 1.954-18.142.98-26.146-3.056-9.374-4.659-16.572-13.434-19.287-23.52-2.076-7.41-1.615-15.41.853-22.67 2.053-6.005 4.838-11.728 7.444-17.506A2883.458 2883.458 0 0 1 81.52 50.582c2.96-5.725 5.874-11.477 9.006-17.108 2.557-4.536 5.531-8.99 9.734-12.175a25.21 25.21 0 0 1 15.927-5.295c5.92-.07 11.804 2.105 16.331 5.9 4.473 3.703 7.494 8.77 10.207 13.82 6.133 11.49 12.024 23.112 17.916 34.722a2825.317 2825.317 0 0 1 48.469 100.548c2.34 5.256 4.846 10.47 6.423 16.017 1.926 6.84 1.99 14.228-.009 21.053z" fill="#F4F4F4" fill-rule="nonzero"/></svg>