<svg width="249" height="98" xmlns="http://www.w3.org/2000/svg"><g fill="#F4F4F4" fill-rule="nonzero"><path d="M243.035 76c-3.56 0-6.078-2.602-6.078-6.315 0-3.713 2.492-6.316 6.078-6.316 3.586 0 5.965 2.603 5.965 6.316 0 3.713-2.405 6.315-5.965 6.315zM133.077 21.305l-.817 7.452c-2.813-5.613-8.951-8.519-16.245-8.519C102.062 20.238 91 31.281 91 48.12S101.732 76 115.477 76c8.483 0 13.892-3.973 16.636-8.77l.964 7.703h9.863V21.305h-9.863zm-16.185 44.728c-9.117 0-15.629-7.495-15.629-18.13 0-10.636 6.373-18.131 15.629-18.131s15.264 7.382 15.264 18.13-6.19 18.13-15.264 18.13zM183.012 0v62.927s0 12.05 13.483 12.05h5.731v-9.543h-4.906c-2.249 0-3.594-1.735-3.594-6.072V0H183.01z"/><path d="M249 21.311l-20.108 59.7C225.798 90.554 220.466 98 209.112 98a18.375 18.375 0 01-12.833-5.206l4.494-7.81c2.208 1.914 5 3.013 7.915 3.115 4.485 0 7.907-3.87 9.506-8.59l1.495-4.512h-3.37L197.61 21.31h11.865l13.912 43.082h.164l14.008-43.082H249zM38.022 65.451v9.546H0V0h10.68v65.452h27.342zm50.12-14.611h-40.07c.864 9.544 5.988 15.887 16.142 15.887 5.029 0 10.266-2.603 12.512-7.809h10.551c-2.67 11.28-13.126 17.172-23.193 17.172-16.418 0-26.624-11.159-26.624-28.123 0-16.321 11.122-27.697 25.769-27.697 13.325 0 24.843 8.235 24.913 27.142v3.428zm-10.37-8.27c-.19-7.08-5.427-13.415-14.198-13.415-7.915 0-13.472 5.259-15.07 13.415h29.268zm93.905-33.025h8.063V0h-11.666c-7.838 0-12.962 5.979-12.962 13.44v7.871h-8.097v9.06h8.097v44.626h10.715l.087-44.627h13.307v-9.059h-13.307v-5.805c-.087-4.555 2.039-5.961 5.763-5.961z"/></g></svg>
