<svg width="103" height="135" xmlns="http://www.w3.org/2000/svg"><g fill="#F4F4F4" fill-rule="nonzero"><path d="M103 124.061v-2.521h-3.139v-3.92l-.105.033-2.948.9-.058.017v2.97h-4.653v-1.654c0-.77.172-1.36.513-1.754.338-.388.821-.586 1.438-.586.443 0 .902.105 1.364.31l.115.052v-2.656l-.054-.02c-.431-.154-1.017-.232-1.743-.232-.916 0-1.748.199-2.473.593a4.222 4.222 0 00-1.697 1.673c-.398.715-.6 1.54-.6 2.455v1.819h-2.186v2.521h2.185v10.622h3.138v-10.622h4.653v6.75c0 2.78 1.314 4.189 3.906 4.189.426 0 .875-.05 1.332-.147.466-.1.784-.2.97-.307l.042-.025v-2.544l-.128.084a2.2 2.2 0 01-.63.274c-.25.07-.459.106-.62.106-.608 0-1.057-.164-1.336-.486-.281-.325-.425-.893-.425-1.689v-6.205H103zm-22.506 8.796c-1.129 0-2.019-.373-2.646-1.107-.631-.739-.95-1.791-.95-3.128 0-1.38.319-2.46.95-3.211.628-.746 1.51-1.125 2.62-1.125 1.08 0 1.938.361 2.552 1.076.618.717.932 1.789.932 3.184 0 1.413-.295 2.499-.876 3.225-.578.72-1.447 1.086-2.582 1.086m-.215-11.428c-2.15 0-3.858.625-5.075 1.859s-1.834 2.942-1.834 5.076c0 2.027.602 3.658 1.79 4.846 1.188 1.188 2.805 1.79 4.805 1.79 2.084 0 3.758-.634 4.975-1.885 1.217-1.25 1.834-2.941 1.834-5.026 0-2.059-.579-3.701-1.72-4.881-1.142-1.181-2.749-1.78-4.775-1.78m-11.901 0c-1.43 0-2.612.372-3.515 1.104-.909.737-1.37 1.704-1.37 2.873 0 .608.1 1.148.296 1.605.197.46.501.864.906 1.204.402.337 1.023.69 1.845 1.048.69.29 1.206.534 1.534.726.32.19.547.379.675.564.125.18.188.428.188.734 0 .87-.641 1.293-1.96 1.293-.49 0-1.048-.104-1.66-.309a6.195 6.195 0 01-1.698-.875l-.126-.092v2.969l.046.021c.43.202.971.372 1.609.505a8.497 8.497 0 001.718.202c1.55 0 2.8-.373 3.711-1.11.917-.742 1.382-1.731 1.382-2.94 0-.873-.25-1.622-.743-2.225-.49-.599-1.34-1.149-2.526-1.634-.945-.386-1.55-.706-1.8-.951-.24-.237-.363-.573-.363-.997 0-.377.151-.679.461-.923.312-.245.746-.37 1.291-.37.506 0 1.023.081 1.537.24.514.159.966.372 1.343.633l.124.086v-2.816l-.048-.02c-.348-.152-.806-.282-1.363-.387a8.194 8.194 0 00-1.494-.157m-13.282 11.428c-1.128 0-2.018-.373-2.646-1.107-.63-.739-.95-1.79-.95-3.128 0-1.38.32-2.46.951-3.211.627-.746 1.509-1.125 2.62-1.125 1.079 0 1.937.361 2.552 1.076.618.717.932 1.789.932 3.184 0 1.413-.295 2.499-.877 3.225-.577.72-1.446 1.086-2.582 1.086m.492-11.428c-2.15 0-3.859.625-5.076 1.859-1.217 1.234-1.834 2.942-1.834 5.076 0 2.028.603 3.658 1.79 4.846 1.189 1.188 2.805 1.79 4.805 1.79 2.084 0 3.759-.634 4.976-1.885 1.216-1.25 1.833-2.941 1.833-5.026 0-2.059-.579-3.701-1.72-4.881-1.143-1.181-2.749-1.78-4.774-1.78m-11.53 2.542v-2.31h-3.14V135h3.14v-6.824c0-1.16.262-2.114.782-2.834.513-.711 1.196-1.071 2.03-1.071.283 0 .6.046.944.138.34.092.587.191.732.296l.132.096v-3.164l-.05-.022c-.293-.124-.707-.186-1.23-.186-.789 0-1.495.253-2.1.752-.53.438-.914 1.04-1.207 1.79h-.034zm-8.547-2.541c-1.459 0-2.76.3-3.866.89a6.126 6.126 0 00-2.55 2.512c-.58 1.072-.876 2.324-.876 3.72 0 1.224.286 2.346.851 3.336a5.858 5.858 0 002.38 2.304c1.01.537 2.18.809 3.475.809 1.51 0 2.8-.29 3.835-.86l.041-.023v-2.79l-.133.093a6.073 6.073 0 01-1.556.776c-.561.188-1.074.283-1.523.283-1.247 0-2.249-.374-2.976-1.111-.728-.738-1.097-1.775-1.097-3.08 0-1.312.385-2.375 1.144-3.16.757-.781 1.76-1.178 2.982-1.178 1.044 0 2.063.339 3.026 1.008l.133.093v-2.94l-.043-.023c-.362-.195-.857-.355-1.47-.477a9.156 9.156 0 00-1.777-.182m-9.408 0H23.28V135h2.822v-13.571zm-1.77-5.715c-.479 0-.896.173-1.239.517a1.756 1.756 0 00-.519 1.288c0 .503.173.929.514 1.264.339.333.757.503 1.244.503s.907-.17 1.25-.503c.345-.335.52-.76.52-1.264 0-.493-.17-.922-.506-1.275a1.68 1.68 0 00-1.264-.53m-7.72 4.995V135h3.14v-18.571h-4.346l-5.523 13.794-5.361-13.794H0V135h2.95v-14.292h.102L8.712 135h2.228l5.572-14.291h.101zM48.325 48.52H.353V.355h47.972zM102.647 48.52H54.675V.355h47.972zM48.325 101.646H.353V53.479h47.972zM102.647 101.646H54.675V53.479h47.972z"/></g></svg>