<?xml version="1.0" encoding="UTF-8"?>
<svg width="700px" height="300px" viewBox="0 0 700 300" version="1.1" xmlns="http://www.w3.org/2000/svg" xmlns:xlink="http://www.w3.org/1999/xlink">
    <!-- Generator: Sketch 55.2 (78181) - https://sketchapp.com -->
    <title>card-logos</title>
    <desc>Created with Sketch.</desc>
    <g id="card-logos" stroke="none" stroke-width="1" fill="none" fill-rule="evenodd">
        <rect fill="#FFFFFF" x="0" y="0" width="700" height="300"></rect>
        <g id="u-watch" transform="translate(75.000000, 83.000000)" fill="#000000" fill-rule="nonzero">
            <path d="M72.3684211,132.951724 L72.3684211,37.2413793 L68.65722,37.2413793 L68.65722,91.4275862 C68.65722,96.7655441 67.914987,101.855148 66.4304993,106.696552 C64.9460116,111.537955 62.7502397,115.789637 59.8431174,119.451724 C56.9359951,123.113811 53.3176105,126.031024 48.9878543,128.203448 C44.658098,130.375873 39.6480267,131.462069 33.9574899,131.462069 C29.8751483,131.462069 26.0093525,130.87242 22.3599865,129.693103 C18.7106205,128.513787 15.4942784,126.651737 12.7108637,124.106897 C9.92744897,121.562056 7.73167696,118.334502 6.12348178,114.424138 C4.51528661,110.513774 3.71120108,105.765545 3.71120108,100.17931 L3.71120108,37.2413793 L0,37.2413793 L0,100.737931 C0,106.324166 0.835011893,111.258599 2.50506073,115.541379 C4.17510956,119.824159 6.52551341,123.424123 9.55634278,126.341379 C12.5871721,129.258636 16.1746307,131.431028 20.3188259,132.858621 C24.4630212,134.286214 29.009197,135 33.9574899,135 C43.3592463,135 50.9980588,132.579334 56.8741565,127.737931 C62.7502543,122.896528 66.5541976,116.751761 68.2860999,109.303448 L68.65722,109.303448 L68.65722,132.951724 L72.3684211,132.951724 Z M242.15587,0 L205.22942,128.296552 L204.8583,128.296552 L166.076248,0 L160.695007,0 L122.469636,128.296552 L122.098516,128.296552 L84.6153846,0 L80.9041835,0 L119.871795,132.951724 L124.881916,132.951724 L163.107287,4.65517241 L163.478408,4.65517241 L202.446019,132.951724 L207.45614,132.951724 L245.867072,0 L242.15587,0 Z M250.691633,66.8482759 L254.402834,66.8482759 C255.021371,57.9103003 258.114007,50.9896796 263.680837,46.0862069 C269.247666,41.1827342 277.04111,38.7310345 287.061404,38.7310345 C293.370477,38.7310345 298.380548,39.5689569 302.091768,41.2448276 C305.802988,42.9206983 308.617287,45.0620557 310.53475,47.6689655 C312.452214,50.2758754 313.658342,53.131019 314.153171,56.2344828 C314.648,59.3379466 314.895412,62.317227 314.895412,65.1724138 C314.895412,68.7724315 314.184105,71.534473 312.761471,73.4586207 C311.338837,75.3827684 309.112138,76.8103402 306.081309,77.7413793 C303.05048,78.6724184 299.184684,79.2931019 294.483806,79.6034483 C289.782927,79.9137947 284.154329,80.2551704 277.597841,80.6275862 C273.639207,80.8758632 269.680631,81.4034445 265.721997,82.2103448 C261.763363,83.0172451 258.237757,84.4448176 255.145074,86.4931034 C252.052391,88.5413893 249.547356,91.3654995 247.629892,94.9655172 C245.712428,98.565535 244.753711,103.344798 244.753711,109.303448 C244.753711,117.869008 247.66079,124.293082 253.475034,128.575862 C259.289278,132.858642 267.020869,135 276.67004,135 C281.618333,135 286.195436,134.348283 290.401484,133.044828 C294.607533,131.741373 298.349624,129.972425 301.627868,127.737931 C304.906111,125.503437 307.627632,122.958635 309.79251,120.103448 C311.957388,117.248261 313.534633,114.268981 314.524291,111.165517 L314.895412,111.165517 L314.895412,123.641379 C314.895412,127.241397 315.915982,129.693097 317.957152,130.996552 C319.998323,132.300007 322.379654,132.951724 325.101215,132.951724 L330.668016,132.951724 L330.668016,129.227586 C329.430943,129.351725 328.101109,129.444827 326.678475,129.506897 C325.255841,129.568966 323.926007,129.444829 322.688934,129.134483 C321.451861,128.824136 320.462217,128.234487 319.719973,127.365517 C318.977729,126.496548 318.606613,125.131044 318.606613,123.268966 L318.606613,62.3793103 C318.482905,57.1654913 317.555114,52.8207072 315.823212,49.3448276 C314.09131,45.868948 311.802758,43.0448384 308.95749,40.8724138 C306.112221,38.6999891 302.8031,37.1793146 299.030027,36.3103448 C295.256954,35.4413751 291.267452,35.0068966 287.061404,35.0068966 C281.123452,35.0068966 275.958749,35.8137849 271.567139,37.4275862 C267.175529,39.0413875 263.464365,41.2758477 260.433536,44.1310345 C257.402707,46.9862213 255.083229,50.3689462 253.475034,54.2793103 C251.866838,58.1896745 250.939047,62.3792877 250.691633,66.8482759 Z M314.895412,76.7172414 L314.895412,94.4068966 C314.895412,99.1241617 314.0604,103.717219 312.390351,108.186207 C310.720302,112.655195 308.246192,116.596535 304.967949,120.010345 C301.689705,123.424155 297.63835,126.186196 292.813765,128.296552 C287.98918,130.406907 282.484286,131.462069 276.29892,131.462069 C271.103213,131.462069 266.742595,130.810351 263.216937,129.506897 C259.691278,128.203442 256.815126,126.527596 254.588394,124.47931 C252.361662,122.431025 250.784418,120.072427 249.856613,117.403448 C248.928808,114.73447 248.464912,112.034496 248.464912,109.303448 C248.464912,104.213767 249.268998,100.086223 250.877193,96.9206897 C252.485388,93.7551565 254.650234,91.2724227 257.371795,89.4724138 C260.093356,87.6724049 263.216919,86.431038 266.742578,85.7482759 C270.268237,85.0655137 273.886621,84.6000011 277.597841,84.3517241 C281.30906,84.1034472 285.113004,83.9172423 289.009784,83.7931034 C292.906564,83.6689646 296.52495,83.3586229 299.865047,82.862069 C303.205145,82.365515 306.174076,81.6517288 308.77193,80.7206897 C311.369784,79.7896505 313.287218,78.4551808 314.524291,76.7172414 L314.895412,76.7172414 Z M350.337382,40.9655172 L371.862348,40.9655172 L371.862348,37.2413793 L350.337382,37.2413793 L350.337382,7.07586207 L346.626181,7.07586207 L346.626181,37.2413793 L329.183536,37.2413793 L329.183536,40.9655172 L346.626181,40.9655172 L346.626181,115.075862 C346.626181,121.903482 348.141573,126.589642 351.172402,129.134483 C354.203231,131.679323 357.883469,132.951724 362.213225,132.951724 C365.058494,132.951724 367.006855,132.889656 368.058367,132.765517 C369.10988,132.641378 370.192302,132.517242 371.305668,132.393103 L371.305668,128.668966 C370.687131,128.917242 369.635635,129.072413 368.151147,129.134483 C366.666659,129.196552 364.996635,129.227586 363.141026,129.227586 C361.656538,129.227586 360.172072,129.134483 358.687584,128.948276 C357.203097,128.762068 355.842336,128.172419 354.605263,127.17931 C353.36819,126.186202 352.34762,124.696562 351.543522,122.710345 C350.739425,120.724128 350.337382,117.931052 350.337382,114.331034 L350.337382,40.9655172 Z M461.673414,100.365517 L457.962213,100.365517 C457.591091,105.20692 456.41589,109.520671 454.436572,113.306897 C452.457255,117.093123 449.890367,120.351711 446.73583,123.082759 C443.581293,125.813807 439.962909,127.893097 435.880567,129.32069 C431.798225,130.748283 427.406681,131.462069 422.705803,131.462069 C416.396729,131.462069 410.829983,130.251736 406.005398,127.831034 C401.180813,125.410333 397.160385,122.151745 393.943995,118.055172 C390.727604,113.9586 388.284422,109.241406 386.614372,103.903448 C384.944323,98.5654904 384.109312,92.9793394 384.109312,87.1448276 C384.109312,81.5585928 384.820618,75.8793389 386.243252,70.1068966 C387.665886,64.3344542 389.954438,59.1207129 393.108974,54.4655172 C396.263511,49.8103216 400.469497,46.0241528 405.727058,43.1068966 C410.984619,40.1896403 417.386377,38.7310345 424.932524,38.7310345 C428.891158,38.7310345 432.664175,39.2896499 436.251687,40.4068966 C439.839199,41.5241433 443.055541,43.2310227 445.90081,45.5275862 C448.746078,47.8241497 451.158334,50.6792933 453.137652,54.0931034 C455.116969,57.5069136 456.477729,61.5723901 457.219973,66.2896552 L460.931174,66.2896552 C460.312637,61.1999743 458.920951,56.7000193 456.756073,52.7896552 C454.591195,48.8792911 451.900601,45.620703 448.684211,43.0137931 C445.46782,40.4068833 441.818509,38.4206967 437.736167,37.0551724 C433.653826,35.6896481 429.385987,35.0068966 424.932524,35.0068966 C417.386377,35.0068966 410.799061,36.4344683 405.170378,39.2896552 C399.541695,42.144842 394.90274,45.9620448 391.253374,50.7413793 C387.604008,55.5207138 384.882487,61.0447961 383.088731,67.3137931 C381.294975,73.5827901 380.398111,80.1930684 380.398111,87.1448276 C380.398111,93.724171 381.325902,99.8999714 383.181511,105.672414 C385.037121,111.444856 387.758642,116.503427 391.346154,120.848276 C394.933666,125.193125 399.356137,128.637918 404.613698,131.182759 C409.871259,133.727599 415.9019,135 422.705803,135 C428.148925,135 433.12807,134.193112 437.643387,132.57931 C442.158704,130.965509 446.117279,128.66898 449.519231,125.689655 C452.921182,122.71033 455.673629,119.079332 457.776653,114.796552 C459.879677,110.513772 461.178585,105.703475 461.673414,100.365517 Z M477.631579,0 L477.631579,132.951724 L481.34278,132.951724 L481.34278,78.7655172 C481.34278,73.4275594 482.085013,68.337955 483.569501,63.4965517 C485.053988,58.6551485 487.24976,54.4034665 490.156883,50.7413793 C493.064005,47.0792922 496.68239,44.1620798 501.012146,41.9896552 C505.341902,39.8172305 510.351973,38.7310345 516.04251,38.7310345 C520.124852,38.7310345 523.990648,39.3206839 527.640013,40.5 C531.289379,41.6793161 534.505722,43.5413665 537.289136,46.0862069 C540.072551,48.6310473 542.268323,51.8586014 543.876518,55.7689655 C545.484714,59.6793296 546.288799,64.4275583 546.288799,70.0137931 L546.288799,132.951724 L550,132.951724 L550,69.4551724 C550,63.8689376 549.164988,58.934504 547.494939,54.6517241 C545.82489,50.3689442 543.474486,46.7689804 540.443657,43.8517241 C537.412828,40.9344679 533.82537,38.7310418 529.681174,37.2413793 C525.536979,35.7517168 520.990803,35.0068966 516.04251,35.0068966 C511.341632,35.0068966 507.073794,35.658614 503.238866,36.962069 C499.403939,38.2655239 496.032966,40.0965402 493.125843,42.4551724 C490.218721,44.8138046 487.806465,47.5448121 485.889001,50.6482759 C483.971538,53.7517397 482.579851,57.1654986 481.7139,60.8896552 L481.34278,60.8896552 L481.34278,0 L477.631579,0 Z" id="uWatch"></path>
        </g>
    </g>
</svg>