<svg width="700" height="300" xmlns="http://www.w3.org/2000/svg"><path d="M147.368 215.952v-95.71h-3.71v54.186c0 5.338-.743 10.427-2.228 15.269-1.484 4.841-3.68 9.093-6.587 12.755-2.907 3.662-6.525 6.579-10.855 8.751-4.33 2.173-9.34 3.26-15.03 3.26-4.083 0-7.949-.59-11.598-1.77-3.65-1.18-6.866-3.041-9.65-5.586-2.783-2.545-4.978-5.772-6.587-9.683-1.608-3.91-2.412-8.658-2.412-14.245v-62.938H75v63.497c0 5.586.835 10.52 2.505 14.803 1.67 4.283 4.02 7.883 7.051 10.8 3.031 2.918 6.619 5.09 10.763 6.518 4.144 1.427 8.69 2.141 13.638 2.141 9.402 0 17.041-2.42 22.917-7.262 5.876-4.841 9.68-10.986 11.412-18.435h.371v23.649h3.711zM317.156 83l-36.927 128.297h-.37L241.075 83h-5.381L197.47 211.297h-.371L159.615 83h-3.71l38.967 132.952h5.01l38.225-128.297h.371l38.968 128.297h5.01L320.867 83h-3.711zm8.536 66.848h3.71c.62-8.938 3.712-15.858 9.279-20.762 5.567-4.903 13.36-7.355 23.38-7.355 6.31 0 11.32.838 15.03 2.514 3.712 1.676 6.526 3.817 8.444 6.424 1.917 2.607 3.123 5.462 3.618 8.565.495 3.104.742 6.083.742 8.938 0 3.6-.71 6.362-2.134 8.287-1.422 1.924-3.649 3.351-6.68 4.282-3.03.931-6.896 1.552-11.597 1.862-4.701.31-10.33.652-16.886 1.025a86.51 86.51 0 0 0-11.876 1.582c-3.959.807-7.484 2.235-10.577 4.283-3.093 2.048-5.598 4.872-7.515 8.473-1.918 3.6-2.876 8.379-2.876 14.337 0 8.566 2.907 14.99 8.721 19.273 5.814 4.283 13.546 6.424 23.195 6.424 4.948 0 9.525-.652 13.731-1.955 4.207-1.304 7.949-3.073 11.227-5.307 3.278-2.235 6-4.78 8.165-7.635 2.164-2.855 3.742-5.834 4.731-8.937h.371v12.475c0 3.6 1.021 6.052 3.062 7.356 2.041 1.303 4.423 1.955 7.144 1.955h5.567v-3.724a71.135 71.135 0 0 1-3.99.279c-1.422.062-2.752-.062-3.99-.373-1.236-.31-2.226-.9-2.968-1.768-.742-.87-1.113-2.235-1.113-4.097v-60.89c-.124-5.214-1.052-9.558-2.784-13.034-1.732-3.476-4.02-6.3-6.866-8.473-2.845-2.172-6.154-3.693-9.927-4.562-3.773-.869-7.763-1.303-11.969-1.303-5.938 0-11.102.807-15.494 2.42-4.391 1.614-8.103 3.849-11.133 6.704-3.031 2.855-5.35 6.238-6.959 10.148-1.608 3.91-2.536 8.1-2.783 12.57zm64.203 9.87v17.689c0 4.717-.835 9.31-2.505 13.78-1.67 4.468-4.144 8.41-7.422 11.823-3.278 3.414-7.33 6.176-12.154 8.287-4.825 2.11-10.33 3.165-16.515 3.165-5.196 0-9.556-.652-13.082-1.955-3.526-1.304-6.402-2.98-8.629-5.028-2.226-2.048-3.804-4.407-4.731-7.076-.928-2.669-1.392-5.369-1.392-8.1 0-5.09.804-9.217 2.412-12.382 1.608-3.166 3.773-5.649 6.495-7.449 2.721-1.8 5.845-3.041 9.37-3.724a87.91 87.91 0 0 1 10.856-1.396c3.711-.249 7.515-.435 11.412-.559 3.897-.124 7.515-.434 10.855-.93 3.34-.497 6.31-1.211 8.907-2.142 2.598-.931 4.515-2.266 5.752-4.004h.371zm35.442-35.752h21.525v-3.725h-21.525V90.076h-3.71v30.165h-17.443v3.725h17.442v74.11c0 6.827 1.516 11.514 4.546 14.058 3.031 2.545 6.711 3.818 11.041 3.818 2.845 0 4.794-.062 5.845-.186 1.052-.125 2.134-.249 3.248-.373v-3.724c-.619.248-1.67.403-3.155.465-1.484.063-3.154.094-5.01.094-1.484 0-2.969-.094-4.453-.28-1.485-.186-2.846-.776-4.083-1.769-1.237-.993-2.257-2.482-3.061-4.469-.805-1.986-1.207-4.779-1.207-8.379v-73.365zm111.336 59.4h-3.71c-.372 4.84-1.547 9.155-3.526 12.94-1.98 3.787-4.547 7.046-7.701 9.777-3.155 2.73-6.773 4.81-10.855 6.238-4.083 1.427-8.474 2.141-13.175 2.141-6.31 0-11.876-1.21-16.7-3.631-4.825-2.42-8.846-5.68-12.062-9.776-3.216-4.096-5.66-8.814-7.33-14.152-1.67-5.338-2.505-10.924-2.505-16.758 0-5.586.712-11.266 2.134-17.038 1.423-5.773 3.711-10.986 6.866-15.641 3.155-4.656 7.36-8.442 12.618-11.36 5.258-2.916 11.66-4.375 19.206-4.375 3.958 0 7.731.559 11.319 1.676 3.587 1.117 6.804 2.824 9.649 5.12 2.845 2.297 5.257 5.152 7.237 8.566 1.979 3.414 3.34 7.48 4.082 12.197h3.711c-.618-5.09-2.01-9.59-4.175-13.5s-4.855-7.17-8.072-9.776c-3.216-2.607-6.865-4.593-10.948-5.959-4.082-1.365-8.35-2.048-12.803-2.048-7.547 0-14.134 1.427-19.763 4.283-5.628 2.855-10.267 6.672-13.917 11.451-3.649 4.78-6.37 10.304-8.164 16.573-1.794 6.269-2.69 12.88-2.69 19.83 0 6.58.927 12.756 2.783 18.528 1.855 5.773 4.577 10.831 8.164 15.176 3.588 4.345 8.01 7.79 13.268 10.335 5.257 2.545 11.288 3.817 18.092 3.817 5.443 0 10.422-.807 14.937-2.42 4.516-1.614 8.474-3.911 11.876-6.89 3.402-2.98 6.155-6.61 8.258-10.893 2.103-4.283 3.402-9.094 3.896-14.431zM552.632 83v132.952h3.71v-54.186c0-5.338.743-10.428 2.228-15.27 1.484-4.84 3.68-9.093 6.587-12.755 2.907-3.662 6.525-6.579 10.855-8.751 4.33-2.173 9.34-3.259 15.03-3.259 4.083 0 7.949.59 11.598 1.769 3.65 1.18 6.866 3.041 9.65 5.586 2.783 2.545 4.978 5.773 6.587 9.683 1.608 3.91 2.412 8.659 2.412 14.245v62.938H625v-63.497c0-5.586-.835-10.52-2.505-14.803-1.67-4.283-4.02-7.883-7.051-10.8-3.031-2.918-6.619-5.121-10.763-6.61-4.144-1.49-8.69-2.235-13.638-2.235-4.701 0-8.97.652-12.804 1.955-3.835 1.304-7.206 3.135-10.113 5.493-2.907 2.359-5.32 5.09-7.237 8.193-1.917 3.104-3.31 6.517-4.175 10.242h-.371V83h-3.711z" fill="#FFF" fill-rule="nonzero" fill-opacity=".8"/></svg>