<svg width="244" height="48" xmlns="http://www.w3.org/2000/svg"><path d="M237.632.718c.955 0 1.89.244 2.801.734.9.48 1.64 1.213 2.129 2.108.507.911.762 1.865.762 2.857 0 .98-.25 1.925-.752 2.829a5.306 5.306 0 0 1-2.105 2.11 5.753 5.753 0 0 1-2.835.752 5.759 5.759 0 0 1-2.835-.752 5.319 5.319 0 0 1-2.11-2.11 5.727 5.727 0 0 1-.755-2.83c0-.991.255-1.945.765-2.856a5.253 5.253 0 0 1 2.135-2.108 5.85 5.85 0 0 1 2.8-.734zm0 .943c-.8 0-1.578.206-2.336.616-.757.41-1.35.997-1.778 1.757a4.8 4.8 0 0 0-.64 2.383c0 .818.21 1.604.63 2.356a4.453 4.453 0 0 0 1.76 1.76c.72.41 1.534.628 2.363.63a4.812 4.812 0 0 0 2.363-.63 4.436 4.436 0 0 0 1.756-1.76 4.789 4.789 0 0 0 .625-2.356c0-.828-.21-1.621-.636-2.383a4.393 4.393 0 0 0-1.778-1.757c-.76-.41-1.535-.616-2.33-.616zm-2.498 7.902V3.436h2.102c.723 0 1.244.055 1.566.168.321.113.577.311.77.592.19.285.287.583.287.9 0 .448-.16.837-.479 1.168-.321.333-.744.517-1.273.56.218.09.393.197.521.324.245.243.547.648.907 1.217l.747 1.198h-1.21l-.544-.966c-.428-.757-.77-1.233-1.034-1.424-.18-.141-.446-.211-.792-.211h-.58v2.601h-.988zm.988-3.447h1.201c.572 0 .963-.088 1.173-.258a.837.837 0 0 0 .314-.68.844.844 0 0 0-.152-.486.91.91 0 0 0-.418-.32c-.18-.072-.51-.105-.996-.105h-1.122v1.849zM127.82.343h.189v13.094h-13.23V.343h13.04zm-57.576 27.69l30.597 1.898a2.32 2.32 0 0 1 2.313 2.313 2.32 2.32 0 0 1-2.313 2.312H57.235V17.511c1.34 5.263 5.952 9.568 13.01 10.523zM57.235 47.725h44.58c6.498 0 11.954-4.688 13.157-10.849 1.06 6.14 6.431 10.85 12.849 10.85h28.483c6.363 0 11.7-4.634 12.82-10.7v10.7h45.668c7.372 0 13.403-6.032 13.403-13.406V32.42c0-7.372-6.03-13.403-13.403-13.403l-2.506-.11c-14.208-.625-28.374-1.341-42.564-2.074 1.105 5.568 5.804 10.204 13.162 11.2l30.933 1.897a2.322 2.322 0 0 1 2.315 2.313 2.322 2.322 0 0 1-2.315 2.312h-44.475V16.815l-13.228-.682v15.174a3.871 3.871 0 0 1-3.86 3.861H131.87a3.87 3.87 0 0 1-3.86-3.86V14.682L114.78 14v15.043c-1.513-5.69-6.765-9.793-12.965-9.793l-58.264-3.809v32.285h13.684v-.002zm55.442-34.28V.277H70.244c-6.264 0-11.559 4.354-13.009 10.186V.342H31.907l-8.632 13.095h33.57l55.832.007zm-74.713 1.673L17.042 47.724H.676L22.748 14.24l15.216.878zm190.23-1.673V.277h-45.311c-7.29 0-13.268 5.9-13.4 13.16l58.71.007zm-72.08-.007V.343h13.227v13.094h-13.228z" fill="#F4F4F4" fill-rule="nonzero"/></svg>