<svg width="249" height="250" xmlns="http://www.w3.org/2000/svg"><g fill="#F4F4F4" fill-rule="nonzero"><path d="M222.937 48.591c42.015 54.588 31.988 133.056-22.394 175.229-54.381 42.184-132.512 32.105-174.516-22.495C-15.988 146.737-5.96 68.292 48.41 26.108 102.79-16.077 180.92-6.01 222.937 48.59zm-73.993 34.212c-8.96 4.107-23.544 16.523-47.209 40.186l6.729 6.756 2.243 2.264L156.44 86.09c1.427-1.433 3.238-2.156 5.097-2.48-3.394-2.554-6.657-3.53-12.594-.808zm20.174 17.522l-47.868 42.233c4.258 4.287 6.596 6.623 7.796 7.84 18.963-18.064 37.014-36.489 40.072-50.073zm-81.764 37.32c.072.12.144.108.216.096l19.394-4.203-7.856-7.876-11.73 11.766c-.036.024-.096.072-.024.217zm87.93-65.258l16.228-16.294c-3.275-2.565-7.245-3.829-11.215-3.829-4.69 0-9.38 1.782-12.906 5.335-3.454 3.468-5.35 8.068-5.35 12.97 0 4.9 1.896 9.513 5.35 12.981a18.18 18.18 0 0 0 20.21 3.842l-12.305-12.344a1.893 1.893 0 0 1-.552-1.324 1.86 1.86 0 0 1 .54-1.337zm17.403 4.25c-.324 0-.648-.12-.923-.336a1.452 1.452 0 0 1-.18-2.036 4.306 4.306 0 0 0 .515-4.696 1.461 1.461 0 0 1 .648-1.939 1.45 1.45 0 0 1 1.931.65 7.226 7.226 0 0 1-.9 7.828 1.39 1.39 0 0 1-1.09.53zm1.535-17.979l-14.98 15.066 11.706 11.753a19.434 19.434 0 0 0 2.29-1.927c3.455-3.468 5.35-8.08 5.35-12.982 0-4.407-1.535-8.574-4.366-11.91zm-35.143 30.07l-45.602 45.798 5.242 5.262 48.289-42.582a5.768 5.768 0 0 0 1.955-4.179 5.838 5.838 0 0 0-1.692-4.31c-2.255-2.253-5.925-2.253-8.192.011zm-85.087 97.676s.012 0 .024-.012c21.746-10.946 39.317-22.206 52.247-33.478l-7.376-7.394-19.383 3.023-38.381 38.536 12.282 12.33c.3.29.6.218.803.121.204-.12.42-.337.336-.746l-2.099-9.02a3.013 3.013 0 0 1 1.547-3.36zm-4.45 14.427l-11.058-11.103-9.38 9.417c-.036.024-.072.072-.036.169.036.108.108.12.144.12l20.33 1.397zm34.928-57.262h.036c.036 0 .108.012.144.012l10.902-1.42-4.821-4.866-6.261 6.274z"/><path d="M194.69 68.28a1.446 1.446 0 0 0-1.943-.65c-.708.35-.995 1.216-.648 1.939a4.331 4.331 0 0 1-.527 4.696c-.516.615-.42 1.53.192 2.036.263.216.587.337.923.337.42 0 .816-.193 1.104-.53a7.226 7.226 0 0 0 .9-7.828"/></g></svg>