<?xml version="1.0" encoding="UTF-8"?>
<svg width="700px" height="300px" viewBox="0 0 700 300" version="1.1" xmlns="http://www.w3.org/2000/svg" xmlns:xlink="http://www.w3.org/1999/xlink">
    <!-- Generator: Sketch 64 (93537) - https://sketch.com -->
    <title>hero-logo</title>
    <desc>Created with Sketch.</desc>
    <g id="hero-logo" stroke="none" stroke-width="1" fill="none" fill-rule="evenodd">
        <g id="elder-scrolls-legends" transform="translate(134.000000, 98.000000)">
            <g id="react-logo" transform="translate(0.000000, 5.000000)">
                <circle id="Oval" fill="#FFFFFF" fill-rule="nonzero" cx="43.5" cy="47.5" r="8.5"></circle>
                <g id="Group" stroke="#FFFFFF" stroke-width="6">
                    <ellipse id="Oval" cx="43.5" cy="47.5" rx="43.5" ry="16.9790289"></ellipse>
                    <ellipse id="Oval" transform="translate(43.500000, 47.500000) rotate(60.000000) translate(-43.500000, -47.500000) " cx="43.5" cy="47.5" rx="44.2266503" ry="16.7069494"></ellipse>
                    <ellipse id="Oval" transform="translate(43.500000, 47.500000) rotate(120.000000) translate(-43.500000, -47.500000) " cx="43.5" cy="47.5" rx="44.2266503" ry="16.7069494"></ellipse>
                </g>
            </g>
            <path d="M212.109375,110.148438 L212.109375,96.671875 C210.796875,96.796875 209.9375,97.1171875 209.53125,97.6328125 L209.53125,97.6328125 L209.320312,97.8671875 C209.039062,98.1484375 208.851562,98.3203125 208.757812,98.3828125 C207.351562,99.3828125 203.492188,100.203125 197.179688,100.84375 C195.929688,100.96875 195.195312,101.03125 194.976562,101.03125 C194.242188,101.03125 193.796875,100.859375 193.640625,100.515625 C193.3125,99.765625 193.148438,98.4140625 193.148438,96.4609375 L193.148438,96.4609375 L193.195312,72.578125 C193.257812,72.25 193.484375,72.0546875 193.875,71.9921875 C195.25,71.9296875 196.382812,71.8984375 197.273438,71.8984375 L197.273438,71.8984375 L198.046875,71.8984375 C199.515625,71.8046875 200.25,71.421875 200.25,70.75 C200.25,70.484375 200.109375,70.2421875 199.828125,70.0234375 C199.40625,69.7109375 198.976562,69.5546875 198.539062,69.5546875 C198.476562,69.5546875 197.625,69.6796875 195.984375,69.9296875 C194.359375,70.1484375 192.539062,70.2578125 190.523438,70.2578125 C188.414062,70.2578125 186.382812,70.1015625 184.429688,69.7890625 C182.414062,69.4609375 181.367188,69.296875 181.289062,69.296875 C180.914062,69.296875 180.632812,69.3828125 180.445312,69.5546875 C180.148438,69.8671875 180,70.1015625 180,70.2578125 C180,70.5859375 180.304688,70.84375 180.914062,71.03125 C181.648438,71.15625 182.226562,71.265625 182.648438,71.359375 C184.367188,71.71875 185.546875,71.9609375 186.1875,72.0859375 C186.796875,72.2109375 187.203125,72.40625 187.40625,72.671875 L187.40625,72.671875 L187.40625,100.5625 C187.296875,101 186.921875,101.296875 186.28125,101.453125 C185.9375,101.5625 185.304688,101.632812 184.382812,101.664062 C183.257812,101.726562 182.5625,101.773438 182.296875,101.804688 C181.5625,101.929688 181.195312,102.25 181.195312,102.765625 C181.195312,102.859375 181.226562,103.03125 181.289062,103.28125 C181.429688,103.609375 182.007812,103.773438 183.023438,103.773438 C183.117188,103.773438 183.773438,103.742188 184.992188,103.679688 C187.273438,103.539062 188.710938,103.4375 189.304688,103.375 L189.304688,103.375 L193.59375,103.046875 L205.431885,103.046143 C205.783936,103.042725 206.267578,103.027344 206.882812,103 L206.882812,103 L208.476562,103 C209.273438,103 209.765625,103.03125 209.953125,103.09375 C210.21875,103.3125 210.351562,103.859375 210.351562,104.734375 L210.351562,104.734375 L210.351562,106.75 C210.304688,107.890625 210.28125,109.023438 210.28125,110.148438 L210.28125,110.148438 L212.109375,110.148438 Z M222,103.960938 C223.46875,103.960938 225.5,103.320312 228.09375,102.039062 C229.3125,100.820312 230.179688,99.90625 230.695312,99.296875 C230.335938,98.65625 230.03125,98.3359375 229.78125,98.3359375 C229.484375,98.3359375 228.808594,98.7460938 227.753906,99.5664062 C226.699219,100.386719 225.757812,100.796875 224.929688,100.796875 C223.101562,100.796875 221.65625,100.15625 220.59375,98.875 C219.578125,97.71875 219.070312,96.28125 219.070312,94.5625 C219.070312,93.953125 220.289062,92.9765625 222.726562,91.6328125 C225.414062,90.2265625 227.414062,89.203125 228.726562,88.5625 C229.226562,88.296875 229.671875,88.0703125 230.0625,87.8828125 C230.859375,87.4296875 231.257812,87.09375 231.257812,86.875 C231.257812,86.265625 231.015625,85.9609375 230.53125,85.9609375 C230.34375,85.9609375 230.042969,86.0742188 229.628906,86.3007812 C229.214844,86.5273438 228.960938,86.640625 228.867188,86.640625 C228.664062,86.640625 228.101562,86.25 227.179688,85.46875 C226.117188,84.609375 224.953125,84.1796875 223.6875,84.1796875 C217.953125,84.1796875 214.890625,87.3828125 214.5,93.7890625 C214.46875,94.3359375 214.453125,94.65625 214.453125,94.75 C214.453125,97.71875 215.289062,100.054688 216.960938,101.757812 C218.367188,103.226562 220.046875,103.960938 222,103.960938 Z M219.210938,91.46875 C219.882812,88.046875 220.8125,86.3359375 222,86.3359375 C222.125,86.3359375 222.570312,86.71875 223.335938,87.484375 C224.070312,88.234375 224.4375,88.703125 224.4375,88.890625 C224.4375,89.015625 223.71875,89.4140625 222.28125,90.0859375 C220.96875,90.7265625 219.945312,91.1875 219.210938,91.46875 Z M244.96875,118.257812 C248.90625,118.257812 252.09375,117.398438 254.53125,115.679688 C256.921875,113.976562 258.117188,111.796875 258.117188,109.140625 C258.117188,107.515625 257.539062,106.171875 256.382812,105.109375 C255.039062,103.890625 253.140625,103.28125 250.6875,103.28125 L250.6875,103.28125 L242.53125,103.28125 C240.765625,103.28125 239.882812,102.898438 239.882812,102.132812 C239.882812,101.085938 242.15625,99.7265625 246.703125,98.0546875 L246.703125,98.0546875 L247.757812,97.6796875 C248.007812,97.5859375 248.195312,97.5 248.320312,97.421875 C250.851562,96.078125 252.117188,93.6953125 252.117188,90.2734375 L252.117188,90.2734375 L252.117188,88.4453125 L254.859375,88.4453125 C255.3125,88.5546875 255.664062,88.609375 255.914062,88.609375 C256.367188,88.609375 256.703125,88.4140625 256.921875,88.0234375 C256.953125,88.0234375 257.125,87.671875 257.4375,86.96875 L257.4375,86.96875 L257.4375,85.8203125 L251.34375,85.8203125 C251.1875,85.8203125 250.375,85.484375 248.90625,84.8125 C247.375,84.109375 245.921875,83.7578125 244.546875,83.7578125 C241.921875,83.7578125 239.695312,84.6171875 237.867188,86.3359375 C236.007812,88.0390625 235.078125,90.0703125 235.078125,92.4296875 C235.078125,94.9296875 235.945312,96.7109375 237.679688,97.7734375 C238.414062,98.1484375 239.179688,98.421875 239.976562,98.59375 C240.226562,98.6875 240.453125,98.75 240.65625,98.78125 L240.65625,98.78125 L238.195312,100.609375 C236.570312,101.84375 235.757812,102.992188 235.757812,104.054688 C235.757812,104.757812 236.1875,105.273438 237.046875,105.601562 C237.78125,105.789062 238.515625,105.960938 239.25,106.117188 C235.484375,109.164062 233.601562,111.40625 233.601562,112.84375 C233.601562,114.953125 234.75,116.421875 237.046875,117.25 C238.484375,117.765625 240.710938,118.085938 243.726562,118.210938 C244.492188,118.242188 244.90625,118.257812 244.96875,118.257812 Z M244.828125,96.8125 C243.640625,96.8125 242.5,96.3125 241.40625,95.3125 C240.03125,94.09375 239.34375,92.5 239.34375,90.53125 C239.34375,89.28125 239.664062,88.1875 240.304688,87.25 C240.976562,86.265625 241.84375,85.7734375 242.90625,85.7734375 C243.859375,85.7734375 244.820312,86.34375 245.789062,87.484375 C246.773438,88.671875 247.460938,90.1640625 247.851562,91.9609375 C247.945312,92.4140625 247.992188,92.796875 247.992188,93.109375 C247.992188,94.171875 247.703125,95.0546875 247.125,95.7578125 C246.515625,96.4609375 245.75,96.8125 244.828125,96.8125 Z M246.75,116.289062 C244.1875,116.289062 242.023438,115.890625 240.257812,115.09375 C238.210938,114.171875 237.1875,112.90625 237.1875,111.296875 C237.1875,110.21875 238.023438,109.164062 239.695312,108.132812 C241.539062,106.976562 243.664062,106.398438 246.070312,106.398438 C246.132812,106.398438 246.453125,106.414062 247.03125,106.445312 C249.65625,106.617188 251.460938,107.117188 252.445312,107.945312 C253.195312,108.554688 253.570312,109.46875 253.570312,110.6875 C253.570312,112.03125 253.039062,113.242188 251.976562,114.320312 C250.664062,115.632812 248.921875,116.289062 246.75,116.289062 Z M268.007812,103.960938 C269.476562,103.960938 271.507812,103.320312 274.101562,102.039062 C275.320312,100.820312 276.1875,99.90625 276.703125,99.296875 C276.34375,98.65625 276.039062,98.3359375 275.789062,98.3359375 C275.492188,98.3359375 274.816406,98.7460938 273.761719,99.5664062 C272.707031,100.386719 271.765625,100.796875 270.9375,100.796875 C269.109375,100.796875 267.664062,100.15625 266.601562,98.875 C265.585938,97.71875 265.078125,96.28125 265.078125,94.5625 C265.078125,93.953125 266.296875,92.9765625 268.734375,91.6328125 C271.421875,90.2265625 273.421875,89.203125 274.734375,88.5625 C275.234375,88.296875 275.679688,88.0703125 276.070312,87.8828125 C276.867188,87.4296875 277.265625,87.09375 277.265625,86.875 C277.265625,86.265625 277.023438,85.9609375 276.539062,85.9609375 C276.351562,85.9609375 276.050781,86.0742188 275.636719,86.3007812 C275.222656,86.5273438 274.96875,86.640625 274.875,86.640625 C274.671875,86.640625 274.109375,86.25 273.1875,85.46875 C272.125,84.609375 270.960938,84.1796875 269.695312,84.1796875 C263.960938,84.1796875 260.898438,87.3828125 260.507812,93.7890625 C260.476562,94.3359375 260.460938,94.65625 260.460938,94.75 C260.460938,97.71875 261.296875,100.054688 262.96875,101.757812 C264.375,103.226562 266.054688,103.960938 268.007812,103.960938 Z M265.21875,91.46875 C265.890625,88.046875 266.820312,86.3359375 268.007812,86.3359375 C268.132812,86.3359375 268.578125,86.71875 269.34375,87.484375 C270.078125,88.234375 270.445312,88.703125 270.445312,88.890625 C270.445312,89.015625 269.726562,89.4140625 268.289062,90.0859375 C266.976562,90.7265625 265.953125,91.1875 265.21875,91.46875 Z M282.773438,103.867188 C285.820312,103.648438 287.34375,100.796875 287.34375,95.3125 C287.34375,94.78125 287.328125,94.15625 287.296875,93.4375 C287.265625,92.734375 287.25,92.3359375 287.25,92.2421875 C287.25,90.7109375 287.328125,89.71875 287.484375,89.265625 C287.609375,88.859375 287.960938,88.4921875 288.539062,88.1640625 C289.632812,87.5234375 290.46875,87.203125 291.046875,87.203125 C293.53125,87.203125 294.773438,90.6953125 294.773438,97.6796875 C294.773438,98.5390625 294.742188,99.5 294.679688,100.5625 C294.679688,100.75 294.632812,101.046875 294.539062,101.453125 C294.476562,101.84375 294.445312,102.148438 294.445312,102.367188 C294.445312,102.976562 294.828125,103.28125 295.59375,103.28125 C296.265625,103.15625 297.625,102.40625 299.671875,101.03125 C300.5,100.453125 301.445312,99.765625 302.507812,98.96875 C302.351562,98.421875 302.09375,98.1484375 301.734375,98.1484375 C301.390625,98.1484375 300.78125,98.484375 299.90625,99.15625 C299.046875,99.859375 298.523438,100.210938 298.335938,100.210938 C298.335938,99.7734375 298.460938,98.609375 298.710938,96.71875 C298.976562,94.921875 299.109375,93.625 299.109375,92.828125 C299.078125,87.15625 297.023438,84.3203125 292.945312,84.3203125 C292.148438,84.4140625 290.84375,84.9609375 289.03125,85.9609375 C288.125,86.4453125 287.289062,86.890625 286.523438,87.296875 C286.367188,87.265625 285.9375,86.8203125 285.234375,85.9609375 C284.53125,85.1328125 283.875,84.65625 283.265625,84.53125 C282.59375,84.53125 281.375,85.1484375 279.609375,86.3828125 C279.609375,86.8359375 279.835938,87.1875 280.289062,87.4375 C280.757812,87.734375 281.21875,88.140625 281.671875,88.65625 C282.375,89.484375 282.726562,92.0859375 282.726562,96.4609375 L282.726562,96.4609375 L282.726562,99.34375 C282.695312,100.5625 282.679688,101.398438 282.679688,101.851562 C282.679688,102.742188 282.710938,103.414062 282.773438,103.867188 Z M311.625,104.054688 C313.125,104.054688 314.679688,103.367188 316.289062,101.992188 C317.664062,100.804688 318.460938,100.179688 318.679688,100.117188 C318.710938,102.679688 319.125,103.960938 319.921875,103.960938 C320.046875,103.960938 320.671875,103.59375 321.796875,102.859375 L321.796875,102.859375 L322.898438,102.132812 L323.4375,101.804688 C324.328125,101.289062 324.96875,100.9375 325.359375,100.75 C326,100.453125 326.320312,100.117188 326.320312,99.7421875 C326.320312,99.0390625 326,98.6875 325.359375,98.6875 C325.1875,98.6875 324.5,99.0703125 323.296875,99.8359375 C323.0625,99.7421875 322.945312,99.46875 322.945312,99.015625 L322.945312,99.015625 L322.945312,72.1796875 C322.945312,72.0859375 322.976562,71.8828125 323.039062,71.5703125 C323.070312,71.2734375 323.085938,71.03125 323.085938,70.84375 C323.085938,69.9375 322.65625,69.484375 321.796875,69.484375 C320.546875,69.484375 319.007812,69.7109375 317.179688,70.1640625 C315.492188,70.5859375 314.648438,70.890625 314.648438,71.078125 C314.648438,71.375 315.09375,71.859375 315.984375,72.53125 C316.890625,73.203125 317.46875,73.7109375 317.71875,74.0546875 C318.140625,74.6328125 318.382812,77.71875 318.445312,83.3125 C318.476562,84.75 318.507812,85.4921875 318.539062,85.5390625 L318.539062,85.5390625 L313.921875,83.5703125 C308,83.5703125 304.976562,86.796875 304.851562,93.25 L304.851562,93.25 L304.851562,93.6484375 C304.851562,97.1015625 305.6875,99.8046875 307.359375,101.757812 C308.671875,103.289062 310.09375,104.054688 311.625,104.054688 Z M314.414062,100.609375 C312.898438,100.609375 311.632812,99.7109375 310.617188,97.9140625 C309.648438,96.2734375 309.164062,94.3984375 309.164062,92.2890625 C309.164062,90.4453125 309.570312,88.9453125 310.382812,87.7890625 C311.304688,86.4453125 312.617188,85.7734375 314.320312,85.7734375 C314.726562,85.7734375 315.460938,86.265625 316.523438,87.25 C317.804688,88.4375 318.445312,89.59375 318.445312,90.71875 L318.445312,90.71875 L318.445312,96.2734375 C318.445312,97.2109375 317.898438,98.1875 316.804688,99.203125 C315.789062,100.140625 314.992188,100.609375 314.414062,100.609375 Z M334.59375,103.632812 C336.578125,103.632812 338.53125,103.054688 340.453125,101.898438 C342.21875,100.835938 343.359375,99.6796875 343.875,98.4296875 C344.34375,97.2890625 344.578125,96.203125 344.578125,95.171875 C344.578125,93.921875 344.210938,92.8515625 343.476562,91.9609375 C343.007812,91.3828125 342.484375,90.984375 341.90625,90.765625 C341.140625,90.46875 340.164062,90.2578125 338.976562,90.1328125 C337.945312,90.0078125 336.9375,89.8984375 335.953125,89.8046875 C333.875,89.4765625 332.835938,88.6875 332.835938,87.4375 C332.835938,87.25 332.867188,87.0625 332.929688,86.875 C333.210938,85.34375 334.28125,84.578125 336.140625,84.578125 C336.5,84.578125 336.789062,84.609375 337.007812,84.671875 C337.617188,84.828125 338.164062,85.3671875 338.648438,86.2890625 C339.054688,87.0859375 339.5,87.484375 339.984375,87.484375 C340.203125,87.484375 340.570312,87.359375 341.085938,87.109375 C342.148438,86.59375 342.679688,85.890625 342.679688,85 C342.679688,84.328125 342.375,83.765625 341.765625,83.3125 C341.1875,82.9375 340.5,82.75 339.703125,82.75 L339.703125,82.75 L339.304688,82.75 C336.554688,82.875 334.203125,83.4296875 332.25,84.4140625 C329.859375,85.6328125 328.664062,87.265625 328.664062,89.3125 C328.664062,90.078125 328.835938,90.8828125 329.179688,91.7265625 C329.695312,92.9453125 330.867188,93.6328125 332.695312,93.7890625 C332.976562,93.8203125 333.789062,93.8515625 335.132812,93.8828125 C336.117188,93.9140625 336.914062,93.9921875 337.523438,94.1171875 C338.164062,94.2734375 338.804688,94.71875 339.445312,95.453125 C340.179688,96.328125 340.546875,97.2109375 340.546875,98.1015625 C340.546875,98.8984375 340.3125,99.5859375 339.84375,100.164062 C339.328125,100.804688 338.671875,101.125 337.875,101.125 C335.828125,101.125 333.84375,99.65625 331.921875,96.71875 C330.0625,97.265625 329.132812,98.2890625 329.132812,99.7890625 C329.132812,101.648438 330.304688,102.84375 332.648438,103.375 C333.351562,103.546875 334,103.632812 334.59375,103.632812 Z" id="Legends" fill="#FFFFFF" fill-rule="nonzero"></path>
            <path d="M147.933594,52.5917969 C148.695312,52.4355469 149.173828,52.2988281 149.369141,52.1816406 L149.369141,52.1816406 L149.779297,51.9472656 C149.896484,51.8691406 150.101562,51.7910156 150.394531,51.7128906 L150.394531,51.7128906 L150.394862,39.9801788 C150.405221,39.6957041 150.659017,36.3214518 151.15625,29.8574219 C151.644531,23.2949219 151.888672,19.8574219 151.888672,19.5449219 C149.564453,19.8964844 147.787109,20.0722656 146.556641,20.0722656 C145.541016,20.0722656 145.033203,20.0136719 145.033203,19.8964844 C145.033203,18.6660156 146.498047,15.0625 149.427734,9.0859375 C150.072266,7.81640625 150.453125,6.9375 150.570312,6.44921875 C150.316406,6.33203125 150.169922,6.2734375 150.130859,6.2734375 C149.740234,6.0390625 149.466797,5.921875 149.310547,5.921875 C148.822266,5.921875 147.621094,7.54296875 145.707031,10.7851562 C145.472656,10.6289062 145.013672,10.2871094 144.330078,9.75976562 C139.916016,6.28320312 136.898438,4.54492188 135.277344,4.54492188 C132.835938,4.54492188 130.111328,5.16015625 127.103516,6.390625 C124.544922,7.484375 122.728516,8.56835938 121.654297,9.64257812 C120.638672,10.6386719 119.496094,12.71875 118.226562,15.8828125 C116.742188,19.671875 116,23.1484375 116,26.3125 C116,27.40625 116.097656,28.4511719 116.292969,29.4472656 C117.347656,34.6035156 118.851562,38.4023438 120.804688,40.84375 C123.363281,44.046875 127.259766,46.0097656 132.494141,46.7324219 C132.787109,46.7714844 133.265625,46.7910156 133.929688,46.7910156 C137.347656,46.7910156 142.015625,45.5117188 147.933594,42.953125 L147.933594,42.953125 L147.933594,52.5917969 Z M125.228516,21.15625 C124.349609,21.15625 123.773438,21.078125 123.5,20.921875 C123.148438,20.7265625 122.914062,20.2480469 122.796875,19.4863281 C122.796875,17.1230469 123.734375,14.7402344 125.609375,12.3378906 C127.40625,10.0136719 129.125,8.83203125 130.765625,8.79296875 L130.765625,8.79296875 L130.882812,8.79296875 C132.875,8.79296875 135.257812,10.2773438 138.03125,13.2460938 C140.550781,15.8828125 142.210938,18.2363281 143.011719,20.3066406 C140.492188,20.8730469 134.564453,21.15625 125.228516,21.15625 Z M139.876953,41.8691406 C135.638672,41.8691406 131.976562,40.609375 128.890625,38.0898438 C125.785156,35.4921875 123.753906,31.9667969 122.796875,27.5136719 C122.875,26.2050781 129.535156,25.5507812 142.777344,25.5507812 L142.777344,25.5507812 L146.292969,25.5507812 C147.582031,25.5898438 148.285156,25.609375 148.402344,25.609375 C148.285156,28.6367188 148.207031,31.234375 148.167969,33.4023438 C148.011719,37.484375 147.865234,39.7597656 147.728516,40.2285156 C145.306641,41.3222656 142.689453,41.8691406 139.876953,41.8691406 Z M158.539062,46.234375 C162.132812,45.5507812 165.150391,44.2519531 167.591797,42.3378906 C168.197266,41.8496094 168.5,41.4492188 168.5,41.1367188 C168.5,40.7070312 168.177734,40.4433594 167.533203,40.3457031 C167.162109,40.3457031 166.058594,40.8535156 164.222656,41.8691406 L164.222656,41.8691406 L164.339844,16.8496094 L164.339615,13.3410511 C164.334885,8.92716026 164.256836,6.19042969 164.105469,5.13085938 C164.105469,4.85742188 163.880859,4.72070312 163.431641,4.72070312 C162.689453,4.72070312 161.214844,5.1015625 159.007812,5.86328125 C156.839844,6.5859375 155.443359,7.16210938 154.818359,7.59179688 C154.818359,7.88476562 155.033203,8.24609375 155.462891,8.67578125 C157.376953,10.5117188 158.333984,11.8886719 158.333984,12.8066406 C158.255859,23.0214844 158.216797,31.1660156 158.216797,37.2402344 L158.216963,37.6313991 C158.221735,43.1758428 158.329102,46.0435014 158.539062,46.234375 Z M179.896484,47.3183594 C181.771484,47.3183594 183.714844,46.4589844 185.726562,44.7402344 C187.445312,43.2558594 188.441406,42.4746094 188.714844,42.3964844 C188.753906,45.5996094 189.271484,47.2011719 190.267578,47.2011719 C190.423828,47.2011719 191.205078,46.7421875 192.611328,45.8242188 L192.611328,45.8242188 L193.988281,44.9160156 L194.662109,44.5058594 C195.775391,43.8613281 196.576172,43.421875 197.064453,43.1875 C197.865234,42.8164062 198.265625,42.3964844 198.265625,41.9277344 C198.265625,41.0488281 197.865234,40.609375 197.064453,40.609375 C196.849609,40.609375 195.990234,41.0878906 194.486328,42.0449219 C194.193359,41.9277344 194.046875,41.5859375 194.046875,41.0195312 L194.046875,41.0195312 L194.046875,7.47460938 C194.046875,7.35742188 194.085938,7.10351562 194.164062,6.71289062 C194.203125,6.34179688 194.222656,6.0390625 194.222656,5.8046875 C194.222656,4.671875 193.685547,4.10546875 192.611328,4.10546875 C191.048828,4.10546875 189.125,4.38867188 186.839844,4.95507812 C184.730469,5.48242188 183.675781,5.86328125 183.675781,6.09765625 C183.675781,6.46875 184.232422,7.07421875 185.345703,7.9140625 C186.478516,8.75390625 187.201172,9.38867188 187.513672,9.81835938 C188.041016,10.5410156 188.34375,14.3984375 188.421875,21.390625 C188.460938,23.1875 188.5,24.1152344 188.539062,24.1738281 L188.539062,24.1738281 L182.767578,21.7128906 C175.365234,21.7128906 171.585938,25.7460937 171.429688,33.8125 L171.429688,33.8125 L171.429688,34.3105469 C171.429688,38.6269531 172.474609,42.0058594 174.564453,44.4472656 C176.205078,46.3613281 177.982422,47.3183594 179.896484,47.3183594 Z M183.382812,43.0117188 C181.488281,43.0117188 179.90625,41.8886719 178.636719,39.6425781 C177.425781,37.5917969 176.820312,35.2480469 176.820312,32.6113281 C176.820312,30.3066406 177.328125,28.4316406 178.34375,26.9863281 C179.496094,25.3066406 181.136719,24.4667969 183.265625,24.4667969 C183.773438,24.4667969 184.691406,25.0820312 186.019531,26.3125 C187.621094,27.796875 188.421875,29.2421875 188.421875,30.6484375 L188.421875,30.6484375 L188.421875,37.5917969 C188.421875,38.7636719 187.738281,39.984375 186.371094,41.2539062 C185.101562,42.4257812 184.105469,43.0117188 183.382812,43.0117188 Z M210.628906,47.2011719 C212.464844,47.2011719 215.003906,46.4003906 218.246094,44.7988281 C219.769531,43.2753906 220.853516,42.1328125 221.498047,41.3710938 C221.048828,40.5703125 220.667969,40.1699219 220.355469,40.1699219 C219.984375,40.1699219 219.139648,40.6826172 217.821289,41.7080078 C216.50293,42.7333984 215.326172,43.2460938 214.291016,43.2460938 C212.005859,43.2460938 210.199219,42.4453125 208.871094,40.84375 C207.601562,39.3984375 206.966797,37.6015625 206.966797,35.453125 C206.966797,34.6914062 208.490234,33.4707031 211.537109,31.7910156 C214.896484,30.0332031 217.396484,28.7539062 219.037109,27.953125 C219.662109,27.6210938 220.21875,27.3378906 220.707031,27.1035156 C221.703125,26.5371094 222.201172,26.1171875 222.201172,25.84375 C222.201172,25.0820312 221.898438,24.7011719 221.292969,24.7011719 C221.058594,24.7011719 220.682617,24.8427734 220.165039,25.1259766 C219.647461,25.4091797 219.330078,25.5507812 219.212891,25.5507812 C218.958984,25.5507812 218.255859,25.0625 217.103516,24.0859375 C215.775391,23.0117188 214.320312,22.4746094 212.738281,22.4746094 C205.570312,22.4746094 201.742188,26.4785156 201.253906,34.4863281 C201.214844,35.1699219 201.195312,35.5703125 201.195312,35.6875 C201.195312,39.3984375 202.240234,42.3183594 204.330078,44.4472656 C206.087891,46.2832031 208.1875,47.2011719 210.628906,47.2011719 Z M207.142578,31.5859375 C207.982422,27.3085938 209.144531,25.1699219 210.628906,25.1699219 C210.785156,25.1699219 211.341797,25.6484375 212.298828,26.6054688 C213.216797,27.5429688 213.675781,28.1289062 213.675781,28.3632812 C213.675781,28.5195312 212.777344,29.0175781 210.980469,29.8574219 C209.339844,30.6582031 208.060547,31.234375 207.142578,31.5859375 Z M229.935547,46.9082031 C230.853516,46.9082031 232.035156,46.46875 233.480469,45.5898438 C234.808594,44.7890625 235.53125,44.1640625 235.648438,43.7148438 L235.648438,43.7148438 L235.648438,29.3300781 C235.648438,29.2128906 236.351562,28.6464844 237.757812,27.6308594 C239.105469,26.6738281 239.945312,26.1757812 240.277344,26.1367188 C240.902344,26.2148438 241.634766,26.5761719 242.474609,27.2207031 C243.236328,27.7871094 243.900391,28.0703125 244.466797,28.0703125 C244.701172,28.03125 245.21875,27.3085938 246.019531,25.9023438 C246.351562,25.3359375 246.712891,24.6523438 247.103516,23.8515625 C246.986328,23.421875 246.302734,23.0019531 245.052734,22.5917969 C243.978516,22.2011719 243.226562,22.0058594 242.796875,22.0058594 C242.191406,22.0058594 240.863281,22.6992188 238.8125,24.0859375 C236.898438,25.4140625 235.902344,26.078125 235.824219,26.078125 C235.511719,25.9609375 235.355469,25.7167969 235.355469,25.3457031 C235.355469,25.1894531 235.394531,24.8964844 235.472656,24.4667969 C235.511719,24.0566406 235.53125,23.7539062 235.53125,23.5585938 C235.53125,22.8359375 235.169922,22.3964844 234.447266,22.2402344 C234.115234,22.2402344 233.451172,22.3769531 232.455078,22.6503906 C230.892578,23.0996094 229.535156,23.4023438 228.382812,23.5585938 C227.386719,23.6757812 226.683594,23.7539062 226.273438,23.7929688 C225.550781,23.9101562 225.169922,24.1347656 225.130859,24.4667969 C225.130859,25.0527344 225.570312,25.4921875 226.449219,25.7851562 C228.011719,26.2929688 228.900391,27.25 229.115234,28.65625 C229.193359,29.1835938 229.232422,30.0039062 229.232422,31.1171875 C229.232422,31.9960938 229.212891,33.6367188 229.173828,36.0390625 C229.095703,38.4414062 229.056641,40.21875 229.056641,41.3710938 C229.056641,44.9453125 229.349609,46.7910156 229.935547,46.9082031 Z M272.416016,55.2285156 C272.748047,55.2285156 273.109375,54.7109375 273.5,53.6757812 C273.910156,52.4453125 274.212891,51.46875 274.408203,50.7460938 C275.208984,48.0703125 275.804688,46.7324219 276.195312,46.7324219 C276.351562,46.7324219 276.976562,46.8496094 278.070312,47.0839844 C283.382812,48.2753906 287.5625,48.8710938 290.609375,48.8710938 L290.609375,48.8710938 L291.195312,48.8710938 C296.390625,48.7539062 300.511719,46.6542969 303.558594,42.5722656 C306.234375,39.0175781 307.572266,34.7597656 307.572266,29.7988281 C307.572266,26.8300781 306.957031,24.5742188 305.726562,23.03125 C304.4375,21.5078125 302.279297,20.3457031 299.251953,19.5449219 C298.490234,19.5449219 298.109375,19.4472656 298.109375,19.2519531 C298.109375,17.8457031 299.085938,15.5019531 301.039062,12.2207031 C302.601562,9.66210938 303.626953,8.13867188 304.115234,7.65039062 C304.115234,7.22070312 303.949219,6.83984375 303.617188,6.5078125 C303.304688,6.1953125 302.982422,6.0390625 302.650391,6.0390625 C302.142578,6.0390625 301.361328,6.859375 300.306641,8.5 C299.310547,10.140625 298.773438,10.9609375 298.695312,10.9609375 C298.65625,10.9609375 297.162109,9.83789062 294.212891,7.59179688 C291.244141,5.32617188 288.900391,4.1640625 287.181641,4.10546875 L287.181641,4.10546875 L286.947266,4.10546875 C282.787109,4.10546875 279.408203,5.91210938 276.810547,9.52539062 C274.291016,13.0019531 273.03125,17.2792969 273.03125,22.3574219 C273.03125,24.6425781 273.529297,26.5273438 274.525391,28.0117188 C275.677734,29.6914062 277.279297,30.53125 279.330078,30.53125 C280.716797,30.53125 283.792969,29.8671875 288.558594,28.5390625 C293.167969,27.25 295.931641,26.6054688 296.849609,26.6054688 C298.451172,26.6054688 299.691406,27.25 300.570312,28.5390625 C301.449219,29.828125 301.888672,31.5664062 301.888672,33.7539062 C301.888672,35.3554688 301.527344,37.2011719 300.804688,39.2910156 C299.769531,42.3574219 298.304688,44.3496094 296.410156,45.2675781 C295.785156,45.5996094 294.945312,45.765625 293.890625,45.765625 C291.136719,45.765625 287.376953,44.4667969 282.611328,41.8691406 C279.134766,39.9355469 277.035156,38.6171875 276.3125,37.9140625 C275.550781,37.9140625 274.935547,39.828125 274.466797,43.65625 C272.904297,48.65625 271.742188,52.0546875 270.980469,53.8515625 C270.980469,54.1445312 271.185547,54.4472656 271.595703,54.7597656 C271.947266,55.0722656 272.220703,55.2285156 272.416016,55.2285156 Z M283.109375,23.4414062 C281.664062,23.4414062 280.541016,22.8652344 279.740234,21.7128906 C279.017578,20.6582031 278.65625,19.3300781 278.65625,17.7285156 C278.65625,15.0136719 279.076172,12.7578125 279.916016,10.9609375 C280.873047,8.96875 282.25,7.97265625 284.046875,7.97265625 C286.136719,7.97265625 290.0625,11.8691406 295.824219,19.6621094 C294.984375,20.3066406 292.904297,21.1074219 289.583984,22.0644531 C286.419922,22.9824219 284.261719,23.4414062 283.109375,23.4414062 Z M321.166016,46.5859375 C323.451172,46.5859375 325.814453,45.609375 328.255859,43.65625 C330.345703,42.015625 331.390625,40.9414062 331.390625,40.4335938 C331.390625,40.2578125 331.224609,39.9941406 330.892578,39.6425781 C330.619141,39.3300781 330.365234,39.1738281 330.130859,39.1738281 C329.955078,39.1738281 329.24707,39.8134766 328.006836,41.0927734 C326.766602,42.3720703 325.6875,43.0117188 324.769531,43.0117188 C321.898438,43.0117188 319.701172,42.0058594 318.177734,39.9941406 C316.810547,38.1972656 316.126953,35.8828125 316.126953,33.0507812 C316.126953,31 316.488281,29.1152344 317.210938,27.3964844 C317.972656,25.5214844 318.919922,24.5839844 320.052734,24.5839844 C321.693359,24.5839844 323.8125,25.9414062 326.410156,28.65625 C326.566406,28.8125 326.722656,28.9785156 326.878906,29.1542969 C327.113281,29.3886719 327.308594,29.5058594 327.464844,29.5058594 C329.554688,27.9824219 330.599609,26.9179688 330.599609,26.3125 C330.599609,25.0820312 329.417969,24.0078125 327.054688,23.0898438 C325.140625,22.328125 323.558594,21.9472656 322.308594,21.9472656 C318.441406,21.9472656 315.423828,23.5 313.255859,26.6054688 C311.419922,29.3007812 310.501953,32.5429688 310.501953,36.3320312 C310.501953,39.2617188 311.263672,41.6054688 312.787109,43.3632812 C314.623047,45.5117188 317.416016,46.5859375 321.166016,46.5859375 Z M339.125,46.9082031 C340.042969,46.9082031 341.224609,46.46875 342.669922,45.5898438 C343.998047,44.7890625 344.720703,44.1640625 344.837891,43.7148438 L344.837891,43.7148438 L344.837891,29.3300781 C344.837891,29.2128906 345.541016,28.6464844 346.947266,27.6308594 C348.294922,26.6738281 349.134766,26.1757812 349.466797,26.1367188 C350.091797,26.2148438 350.824219,26.5761719 351.664062,27.2207031 C352.425781,27.7871094 353.089844,28.0703125 353.65625,28.0703125 C353.890625,28.03125 354.408203,27.3085938 355.208984,25.9023438 C355.541016,25.3359375 355.902344,24.6523438 356.292969,23.8515625 C356.175781,23.421875 355.492188,23.0019531 354.242188,22.5917969 C353.167969,22.2011719 352.416016,22.0058594 351.986328,22.0058594 C351.380859,22.0058594 350.052734,22.6992188 348.001953,24.0859375 C346.087891,25.4140625 345.091797,26.078125 345.013672,26.078125 C344.701172,25.9609375 344.544922,25.7167969 344.544922,25.3457031 C344.544922,25.1894531 344.583984,24.8964844 344.662109,24.4667969 C344.701172,24.0566406 344.720703,23.7539062 344.720703,23.5585938 C344.720703,22.8359375 344.359375,22.3964844 343.636719,22.2402344 C343.304688,22.2402344 342.640625,22.3769531 341.644531,22.6503906 C340.082031,23.0996094 338.724609,23.4023438 337.572266,23.5585938 C336.576172,23.6757812 335.873047,23.7539062 335.462891,23.7929688 C334.740234,23.9101562 334.359375,24.1347656 334.320312,24.4667969 C334.320312,25.0527344 334.759766,25.4921875 335.638672,25.7851562 C337.201172,26.2929688 338.089844,27.25 338.304688,28.65625 C338.382812,29.1835938 338.421875,30.0039062 338.421875,31.1171875 C338.421875,31.9960938 338.402344,33.6367188 338.363281,36.0390625 C338.285156,38.4414062 338.246094,40.21875 338.246094,41.3710938 C338.246094,44.9453125 338.539062,46.7910156 339.125,46.9082031 Z M369.798828,46.6738281 C371.791016,46.6738281 374.027344,45.765625 376.507812,43.9492188 C379.066406,42.1132812 380.6875,40.2382812 381.371094,38.3242188 C382.015625,36.4492188 382.337891,34.6523438 382.337891,32.9335938 C382.337891,29.6132812 381.214844,26.8105469 378.96875,24.5253906 C377.015625,22.5527344 374.955078,21.5664062 372.787109,21.5664062 C372.396484,21.5664062 371.996094,21.6347656 371.585938,21.7714844 C367.914062,22.8847656 365.355469,23.8613281 363.910156,24.7011719 C361.195312,26.3027344 359.720703,28.4414062 359.486328,31.1171875 C359.310547,32.875 359.222656,34.3789062 359.222656,35.6289062 C359.222656,37.8945312 359.486328,39.5546875 360.013672,40.609375 C361.966797,44.4765625 365.150391,46.4980469 369.564453,46.6738281 L369.564453,46.6738281 L369.798828,46.6738281 Z M372.728516,42.953125 C369.603516,42.1132812 367.289062,40.4921875 365.785156,38.0898438 C364.652344,36.2929688 364.085938,34.2910156 364.085938,32.0839844 C364.085938,30.6386719 364.447266,29.3007812 365.169922,28.0703125 C365.931641,26.703125 366.976562,25.7558594 368.304688,25.2285156 C368.539062,25.1113281 368.792969,25.0527344 369.066406,25.0527344 C370.628906,25.0527344 372.191406,25.8730469 373.753906,27.5136719 C375.472656,29.3886719 376.332031,31.546875 376.332031,33.9882812 C376.332031,37.484375 376.214844,39.671875 375.980469,40.5507812 C375.53125,42.1523438 374.447266,42.953125 372.728516,42.953125 Z M388.988281,46.234375 C392.582031,45.5507812 395.599609,44.2519531 398.041016,42.3378906 C398.646484,41.8496094 398.949219,41.4492188 398.949219,41.1367188 C398.949219,40.7070312 398.626953,40.4433594 397.982422,40.3457031 C397.611328,40.3457031 396.507812,40.8535156 394.671875,41.8691406 L394.671875,41.8691406 L394.789062,16.8496094 L394.789062,13.7734375 C394.789062,9.10546875 394.710938,6.22460938 394.554688,5.13085938 C394.554688,4.85742188 394.330078,4.72070312 393.880859,4.72070312 C393.138672,4.72070312 391.664062,5.1015625 389.457031,5.86328125 C387.289062,6.5859375 385.892578,7.16210938 385.267578,7.59179688 C385.267578,7.88476562 385.482422,8.24609375 385.912109,8.67578125 C387.826172,10.5117188 388.783203,11.8886719 388.783203,12.8066406 C388.711972,22.1201746 388.673213,29.7126271 388.666928,35.5839979 L388.666681,38.0138777 C388.676003,43.3077746 388.783203,46.0479403 388.988281,46.234375 Z M405.599609,46.234375 C409.193359,45.5507812 412.210938,44.2519531 414.652344,42.3378906 C415.257812,41.8496094 415.560547,41.4492188 415.560547,41.1367188 C415.560547,40.7070312 415.238281,40.4433594 414.59375,40.3457031 C414.222656,40.3457031 413.119141,40.8535156 411.283203,41.8691406 L411.283203,41.8691406 L411.400391,16.8496094 L411.400162,13.3410511 C411.395432,8.92716026 411.317383,6.19042969 411.166016,5.13085938 C411.166016,4.85742188 410.941406,4.72070312 410.492188,4.72070312 C409.75,4.72070312 408.275391,5.1015625 406.068359,5.86328125 C403.900391,6.5859375 402.503906,7.16210938 401.878906,7.59179688 C401.878906,7.88476562 402.09375,8.24609375 402.523438,8.67578125 C404.4375,10.5117188 405.394531,11.8886719 405.394531,12.8066406 C405.321002,22.4206112 405.282075,30.2006718 405.277749,36.1468223 L405.27751,37.6313991 C405.282282,43.1758428 405.389648,46.0435014 405.599609,46.234375 Z M425.902344,46.7910156 C428.382812,46.7910156 430.824219,46.0683594 433.226562,44.6230469 C435.433594,43.2949219 436.859375,41.8496094 437.503906,40.2871094 C438.089844,38.8613281 438.382812,37.5039062 438.382812,36.2148438 C438.382812,34.6523438 437.923828,33.3144531 437.005859,32.2011719 C436.419922,31.4785156 435.765625,30.9804688 435.042969,30.7070312 C434.085938,30.3359375 432.865234,30.0722656 431.380859,29.9160156 C430.091797,29.7597656 428.832031,29.6230469 427.601562,29.5058594 C425.003906,29.0957031 423.705078,28.109375 423.705078,26.546875 C423.705078,26.3125 423.744141,26.078125 423.822266,25.84375 C424.173828,23.9296875 425.511719,22.9726562 427.835938,22.9726562 C428.285156,22.9726562 428.646484,23.0117188 428.919922,23.0898438 C429.681641,23.2851562 430.365234,23.9589844 430.970703,25.1113281 C431.478516,26.1074219 432.035156,26.6054688 432.640625,26.6054688 C432.914062,26.6054688 433.373047,26.4492188 434.017578,26.1367188 C435.345703,25.4921875 436.009766,24.6132812 436.009766,23.5 C436.009766,22.6601562 435.628906,21.9570312 434.867188,21.390625 C434.144531,20.921875 433.285156,20.6875 432.289062,20.6875 L432.289062,20.6875 L431.791016,20.6875 C428.353516,20.84375 425.414062,21.5371094 422.972656,22.7675781 C419.984375,24.2910156 418.490234,26.3320312 418.490234,28.890625 C418.490234,29.8476562 418.705078,30.8535156 419.134766,31.9082031 C419.779297,33.4316406 421.244141,34.2910156 423.529297,34.4863281 C423.880859,34.5253906 424.896484,34.5644531 426.576172,34.6035156 C427.806641,34.6425781 428.802734,34.7402344 429.564453,34.8964844 C430.365234,35.0917969 431.166016,35.6484375 431.966797,36.5664062 C432.884766,37.6601562 433.34375,38.7636719 433.34375,39.8769531 C433.34375,40.8730469 433.050781,41.7324219 432.464844,42.4550781 C431.820312,43.2558594 431,43.65625 430.003906,43.65625 C427.445312,43.65625 424.964844,41.8203125 422.5625,38.1484375 C420.238281,38.8320312 419.076172,40.1113281 419.076172,41.9863281 C419.076172,44.3105469 420.541016,45.8046875 423.470703,46.46875 C424.349609,46.6835938 425.160156,46.7910156 425.902344,46.7910156 Z" id="ElderScrolls" fill="#FFFFFF" fill-rule="nonzero"></path>
        </g>
    </g>
</svg>