<?xml version="1.0" encoding="UTF-8"?>
<svg width="700px" height="300px" viewBox="0 0 700 300" version="1.1" xmlns="http://www.w3.org/2000/svg" xmlns:xlink="http://www.w3.org/1999/xlink">
    <!-- Generator: Sketch 55.2 (78181) - https://sketchapp.com -->
    <title>black-logos</title>
    <desc>Created with Sketch.</desc>
    <g id="black-logos" stroke="none" stroke-width="1" fill="none" fill-rule="evenodd">
        <rect fill="#FFFFFF" x="0" y="0" width="700" height="300"></rect>
        <g id="dark-remnants-podcast" transform="translate(76.000000, 123.000000)" stroke="#000000" stroke-width="2">
            <g id="dark">
                <g id="Shape" transform="translate(0.000000, 1.102041)">
                    <path d="M8.25624225,47.17229 L8.25624225,0.0247493652 C8.25624225,0.0247493652 29.0839228,4.65288065 29.5827894,23.586145 C30.081656,42.5194094 9.20408879,45.5883307 0.0997733202,45.5883307" id="Path"></path>
                    <path d="M13.8934348,43.4103865 L13.8934348,8.81077401" id="Path"></path>
                </g>
                <g id="Shape" transform="translate(35.417476, 4.408163)">
                    <polyline id="Path" points="0.601807328 43.9075117 11.2588121 0.0493342828 22.0411934 43.9075117"></polyline>
                    <path d="M0.100301221,18.3030189 L15.0702585,18.3030189" id="Path"></path>
                    <path d="M0,24.0257957 L16.4494003,24.0257957" id="Path"></path>
                </g>
                <g id="Shape" transform="translate(61.980583, 0.000000)">
                    <path d="M0.100928104,48.2267281 L0.100928104,0.248578858 C0.100928104,0.248578858 20.5893332,-0.0248847926 21.1192058,24.1133641 L1.43822548,24.1631336 C1.43822548,24.1631336 23.4657842,35.5603687 23.9704247,53.5769585" id="Path"></path>
                    <path d="M5.55104572,48.2516129 L5.55104572,26.9004608" id="Path"></path>
                </g>
                <g id="Shape" transform="translate(90.757282, 0.000000)">
                    <path d="M0.147442795,48.002765 L0.147442795,0.0248847926" id="Path"></path>
                    <path d="M21.1580411,0.0248847926 C21.1580411,0.0248847926 21.1088935,24.0138249 0.147442795,24.0138249" id="Path"></path>
                    <path d="M22.1409931,53.875576 C22.1409931,53.875576 21.1826149,23.8645161 0.221164193,23.8645161" id="Path"></path>
                    <path d="M4.49700526,15.9262673 L4.49700526,32.524424" id="Path"></path>
                </g>
            </g>
            <g id="remnants" transform="translate(137.000000, 0.000000)">
                <g id="Shape" transform="translate(55.909091, 2.196610)">
                    <path d="M0.198218945,44.6927618 L0.198218945,0.218962905 C0.198218945,0.218962905 10.7286004,14.256918 10.7286004,44.6927618" id="Path"></path>
                    <path d="M10.7286004,44.717091 L10.7286004,0.243292116 C10.7286004,0.243292116 21.2589819,14.2812472 21.2589819,44.717091" id="Path"></path>
                </g>
                <g id="Shape" transform="translate(82.219251, 1.098305)">
                    <path d="M0.198218945,46.8150602 L0.198218945,0.197323752 C0.198218945,0.197323752 20.391774,14.8979433 20.391774,46.7903948" id="Path"></path>
                    <path d="M20.391774,46.8150602 L20.391774,0.197323752" id="Path"></path>
                </g>
                <g id="Shape" transform="translate(160.053476, 0.000000)">
                    <path d="M8.72266597,47.1645216 L8.72266597,0.41522365" id="Path"></path>
                    <path d="M0,0.317523967 L17.4207611,0.317523967" id="Path"></path>
                </g>
                <path d="M204.881017,10.9004715 C204.881017,10.9004715 201.271925,0 184.171123,0 L184.171123,23.2130496 L204.881017,22.8909902 C204.881017,22.8909902 207.836113,49.4237288 184.292233,49.4237288" id="Shape"></path>
                <g id="Shape">
                    <path d="M0.22439004,47.8648442 L0.22439004,0.0245322809 C0.22439004,0.0245322809 20.4693581,-0.248004374 20.9929349,23.8084199 L1.54579805,23.8580208 C1.54579805,23.8580208 23.3116319,35.2166211 23.8102765,53.1721378" id="Path"></path>
                    <path d="M5.609751,47.8648442 L5.609751,26.5860689" id="Path"></path>
                </g>
                <g id="Shape" transform="translate(28.502674, 0.000000)">
                    <polyline id="Path" points="21.3085366 47.2622213 0.123886841 47.2622213 0.123886841 0.195399365 21.3085366 0.195399365"></polyline>
                    <path d="M11.5214762,22.5442017 L0.123886841,22.5442017" id="Path"></path>
                    <path d="M21.3085366,41.6444896 L0.123886841,41.6444896" id="Path"></path>
                </g>
                <g id="Shape" transform="translate(107.433155, 4.393220)">
                    <polyline id="Path" points="0.693766308 43.7340891 11.2241478 0 21.8784161 43.7340891"></polyline>
                    <path d="M0.198218945,18.1918077 L14.9903077,18.1918077" id="Path"></path>
                    <path d="M0.0743321044,23.8951853 L16.353063,23.8951853" id="Path"></path>
                </g>
                <g id="Shape" transform="translate(134.839572, 1.098305)">
                    <path d="M0.148664209,46.7163983 L0.148664209,0.123327345 C0.148664209,0.123327345 20.3422192,14.8239469 20.3422192,46.7163983" id="Path"></path>
                    <path d="M20.3422192,46.7163983 L20.3422192,0.123327345" id="Path"></path>
                </g>
            </g>
            <g id="Group" transform="translate(360.000000, 0.000000)">
                <ellipse id="Oval" cx="45.5779074" cy="24.9537037" rx="10.4334969" ry="23.8687601"></ellipse>
                <path d="M109.826283,30.4028027 C108.557848,40.3989126 104.454089,47.7375201 99.6041918,47.7375201 C93.7345726,47.7375201 88.9592892,37.058749 88.9592892,23.8687601 C88.9592892,10.6787711 93.7097014,0 99.6041918,0 C103.981535,0 107.737096,5.94890445 109.3786,14.4577883" id="Shape"></path>
                <path d="M164.61395,11.6054732 C164.61395,11.6054732 160.807953,1.08494364 142.774168,1.08494364 L142.774168,23.5089831 L164.61395,23.1879341 C164.61395,23.1879341 167.73027,48.8224638 142.901886,48.8224638" id="Shape"></path>
                <g id="Shape">
                    <path d="M7.27060923,47.9594404 L7.27060923,0.0738033355 C7.27060923,0.0738033355 28.4147279,-0.22192029 28.4147279,23.8687601 L0.173109743,23.8687601" id="Path"></path>
                    <path d="M28.0190485,18.4193841 L0.173109743,18.4193841" id="Path"></path>
                </g>
                <path d="M45.028776,15.189211 L45.028776,31.4633655" id="Shape"></path>
                <g id="Shape" transform="translate(53.814879, 1.084944)">
                    <path d="M8.25980776,46.4790038 L8.25980776,0.121736521 C8.25980776,0.121736521 28.9093272,4.67468241 29.4039264,23.3003701 C29.8985257,41.9260579 9.19954637,44.9451236 0.173109743,44.9451236" id="Path"></path>
                    <path d="M13.8487795,42.7782135 L13.8487795,8.74068222" id="Path"></path>
                </g>
                <g id="Shape" transform="translate(115.317597, 4.339775)">
                    <polyline id="Path" points="0.765712939 43.3883521 11.6133129 0.218397746 22.6140555 43.3883521"></polyline>
                    <path d="M0.255237646,18.1755457 L15.5184489,18.1755457" id="Path"></path>
                    <path d="M0.153142588,23.8053543 L16.922256,23.8053543" id="Path"></path>
                </g>
                <g id="Shape" transform="translate(169.132476, 0.000000)">
                    <path d="M8.85065543,47.7375201 L8.85065543,0.2465781" id="Path"></path>
                    <path d="M0.0986145452,0.17260467 L17.6026963,0.17260467" id="Path"></path>
                </g>
            </g>
        </g>
    </g>
</svg>