<?xml version="1.0" encoding="UTF-8"?>
<svg width="700px" height="300px" viewBox="0 0 700 300" version="1.1" xmlns="http://www.w3.org/2000/svg" xmlns:xlink="http://www.w3.org/1999/xlink">
    <!-- Generator: Sketch 55.2 (78181) - https://sketchapp.com -->
    <title>black-logos</title>
    <desc>Created with Sketch.</desc>
    <g id="black-logos" stroke="none" stroke-width="1" fill="none" fill-rule="evenodd">
        <rect fill="#FFFFFF" x="0" y="0" width="700" height="300"></rect>
        <g id="movie-finder" transform="translate(75.000000, 90.000000)">
            <path d="M201.232443,87.6970954 L196.453279,87.6970954 L196.453279,37.461964 L181.671213,95 L167.00029,38.0152144 L167.00029,87.6970954 L166,87.6970954 L166,15 L183.56065,83.2710927 L201.232443,15.1106501 L201.232443,87.6970954 Z M251.913813,65.6777317 C251.913813,72.1692349 249.59835,77.7201245 244.967353,82.3305671 C240.336357,86.9410097 234.760721,89.2461964 228.240279,89.2461964 C221.719836,89.2461964 216.1442,86.9410097 211.513204,82.3305671 C206.882207,77.7201245 204.566744,72.1692349 204.566744,65.6777317 C204.566744,59.1124616 206.882207,53.5431302 211.513204,48.9695712 C216.1442,44.3960123 221.719836,42.1092669 228.240279,42.1092669 C234.834817,42.1092669 240.428977,44.3960123 245.022925,48.9695712 C249.616873,53.5431302 251.913813,59.1124616 251.913813,65.6777317 Z M247.134649,65.6777317 C247.134649,59.4075297 245.300802,54.077938 241.633053,49.6887967 C237.965304,45.2996554 233.50109,43.1051176 228.240279,43.1051176 C223.053563,43.1051176 218.626397,45.2996554 214.958648,49.6887967 C211.290899,54.077938 209.457052,59.4075297 209.457052,65.6777317 C209.457052,71.8741664 211.290899,77.1853167 214.958648,81.6113416 C218.626397,86.0373665 223.053563,88.2503458 228.240279,88.2503458 C233.426994,88.2503458 237.872684,86.0373665 241.577481,81.6113416 C245.282278,77.1853167 247.134649,71.8741664 247.134649,65.6777317 Z M278.254788,43.4370678 L266.251306,93.0082988 L254.247824,43.4370678 L259.138131,43.4370678 L268.251886,80.7261411 L277.254498,43.4370678 L278.254788,43.4370678 Z M286.034823,37.6832642 C286.034823,39.30614 285.145685,40.1175657 283.367382,40.1175657 C281.811368,40.1175657 281.033372,39.30614 281.033372,37.6832642 C281.033372,36.0603884 281.811368,35.2489627 283.367382,35.2489627 C285.145685,35.2489627 286.034823,36.0603884 286.034823,37.6832642 Z M285.92368,87.6970954 L281.033372,87.6970954 L281.033372,43.4370678 L285.92368,43.4370678 L285.92368,87.6970954 Z M335.604759,76.1894882 C333.604169,80.0991436 330.714471,83.252639 326.935577,85.6500692 C323.156684,88.0474993 318.970327,89.2461964 314.376378,89.2461964 C307.855936,89.2461964 302.261776,86.9225683 297.593732,82.275242 C292.925688,77.6279158 290.591701,72.0585849 290.591701,65.5670816 C290.591701,59.0018115 292.925688,53.4140387 297.593732,48.8035961 C302.261776,44.1931535 307.855936,41.8879668 314.376378,41.8879668 C318.896231,41.8879668 323.027017,43.0313394 326.768862,45.3181189 C330.510708,47.6048986 333.381882,50.6661865 335.382472,54.5020747 L295.926582,70.5463347 C296.889829,75.6362632 299.09415,79.8593653 302.539611,83.2157676 C305.985072,86.5721699 309.930622,88.2503458 314.376378,88.2503458 C318.229367,88.2503458 321.693301,87.0147659 324.768282,84.5435685 C327.843263,82.0723711 330.158727,78.8082268 331.714742,74.7510373 L335.604759,76.1894882 Z M331.159025,54.944675 C329.60301,51.2563209 327.324594,48.3241233 324.323709,46.1479945 C321.322823,43.9718656 318.007079,42.8838174 314.376378,42.8838174 C309.189663,42.8838174 304.743973,45.0967967 301.039176,49.5228216 C297.334379,53.9488465 295.482008,59.2968797 295.482008,65.5670816 C295.482008,66.4522865 295.556103,67.7800743 295.704295,69.5504841 L331.159025,54.944675 Z M393.843877,44.5435685 L379.617528,44.5435685 L379.617528,87.6970954 L374.838363,87.6970954 L374.838363,20.4218534 L391.732153,20.4218534 L391.732153,21.417704 L379.617528,21.417704 L379.617528,43.5477178 L393.843877,43.5477178 L393.843877,44.5435685 Z M402.401915,37.6832642 C402.401915,39.30614 401.512776,40.1175657 399.734475,40.1175657 C398.17846,40.1175657 397.400464,39.30614 397.400464,37.6832642 C397.400464,36.0603884 398.17846,35.2489627 399.734475,35.2489627 C401.512776,35.2489627 402.401915,36.0603884 402.401915,37.6832642 Z M402.290772,87.6970954 L397.400464,87.6970954 L397.400464,43.4370678 L402.290772,43.4370678 L402.290772,87.6970954 Z M430.521184,87.6970954 L425.853163,87.6970954 L425.853163,52.1784232 C425.853163,49.8178767 425.353022,47.770871 424.352728,46.0373444 C423.352434,44.3038178 422.222487,43.4370678 420.962855,43.4370678 C418.739976,43.4370678 416.813513,44.156286 415.183401,45.5947441 C413.553289,47.0332021 412.553011,48.8589101 412.18253,51.0719225 L412.18253,87.6970954 L407.403366,87.6970954 L407.403366,43.5477178 L412.18253,43.5477178 L412.18253,47.8630705 C414.034929,44.2484837 416.961675,42.4412172 420.962855,42.4412172 C423.556215,42.4412172 425.797583,43.4186163 427.687028,45.373444 C429.576473,47.3282715 430.521184,49.5965754 430.521184,52.1784232 L430.521184,87.6970954 Z M481.647127,65.5670816 C481.647127,72.0585849 479.331666,77.6279158 474.700667,82.275242 C470.069673,86.9225683 464.456989,89.2461964 457.862449,89.2461964 C451.342006,89.2461964 445.747847,86.9225683 441.079803,82.275242 C436.411758,77.6279158 434.077771,72.0585849 434.077771,65.5670816 C434.077771,59.0018115 436.411758,53.4140387 441.079803,48.8035961 C445.747847,44.1931535 451.342006,41.8879668 457.862449,41.8879668 C465.938907,41.8879668 472.274015,45.0230207 476.867963,51.2932227 L476.867963,20.3112033 L481.647127,20.3112033 L481.647127,65.5670816 Z M476.867963,65.5670816 C476.867963,59.2968797 475.015592,53.9488465 471.310795,49.5228216 C467.605998,45.0967967 463.123261,42.8838174 457.862449,42.8838174 C452.675734,42.8838174 448.230044,45.0967967 444.525247,49.5228216 C440.82045,53.9488465 438.968079,59.2968797 438.968079,65.5670816 C438.968079,71.8372835 440.82045,77.1853167 444.525247,81.6113416 C448.230044,86.0373665 452.675734,88.2503458 457.862449,88.2503458 C463.123261,88.2503458 467.605998,86.0373665 471.310795,81.6113416 C475.015592,77.1853167 476.867963,71.8372835 476.867963,65.5670816 Z M530.661346,76.1894882 C528.660754,80.0991436 525.771059,83.252639 521.992165,85.6500692 C518.213271,88.0474993 514.026914,89.2461964 509.432966,89.2461964 C502.912523,89.2461964 497.318364,86.9225683 492.650319,82.275242 C487.982275,77.6279158 485.648288,72.0585849 485.648288,65.5670816 C485.648288,59.0018115 487.982275,53.4140387 492.650319,48.8035961 C497.318364,44.1931535 502.912523,41.8879668 509.432966,41.8879668 C513.952817,41.8879668 518.083606,43.0313394 521.82545,45.3181189 C525.567293,47.6048986 528.438467,50.6661865 530.43906,54.5020747 L490.983169,70.5463347 C491.946417,75.6362632 494.150739,79.8593653 497.596198,83.2157676 C501.041658,86.5721699 504.987208,88.2503458 509.432966,88.2503458 C513.285957,88.2503458 516.749886,87.0147659 519.824869,84.5435685 C522.899853,82.0723711 525.215314,78.8082268 526.771329,74.7510373 L530.661346,76.1894882 Z M526.215612,54.944675 C524.659597,51.2563209 522.381182,48.3241233 519.380296,46.1479945 C516.37941,43.9718656 513.063666,42.8838174 509.432966,42.8838174 C504.246251,42.8838174 499.80056,45.0967967 496.095763,49.5228216 C492.390966,53.9488465 490.538595,59.2968797 490.538595,65.5670816 C490.538595,66.4522865 490.612688,67.7800743 490.760882,69.5504841 L526.215612,54.944675 Z M549,45.2074689 C549,47.1254132 547.999722,48.0843707 545.999129,48.0843707 C543.998537,48.0843707 542.998259,47.1254132 542.998259,45.2074689 C542.998259,44.6173321 543.220542,44.0272044 543.665119,43.4370678 C542.183201,44.0272044 541.257016,45.244343 540.886535,47.0885201 L540.886535,87.6970954 L536.107371,87.6970954 L536.107371,43.4370678 L540.886535,43.4370678 L540.886535,44.5435685 C541.997973,42.9944598 543.702154,42.219917 545.999129,42.219917 C547.999722,42.219917 549,43.2157577 549,45.2074689 Z" id="Movie-Finder" fill="#000000" fill-rule="nonzero"></path>
            <g id="play-button">
                <rect id="Rectangle" stroke="#000000" stroke-width="3" x="1.5" y="1.5" width="117" height="117" rx="15"></rect>
                <polygon id="Polygon" fill="#000000" fill-rule="nonzero" transform="translate(60.032205, 59.812500) rotate(90.000000) translate(-60.032205, -59.812500) " points="60.0322048 39 84.0644101 80.625 36 80.625"></polygon>
            </g>
        </g>
    </g>
</svg>