<svg width="700" height="300" xmlns="http://www.w3.org/2000/svg"><g fill="none" fill-rule="evenodd"><g fill="#FFF" fill-rule="nonzero"><path d="M219.453 153.58h12.096c7.886 0 14.3-6.427 14.3-14.327 0-7.903-6.414-14.332-14.3-14.332-.525 0-1.102.043-1.81.128l-2.328.289-.232-2.324a27.606 27.606 0 0 0-27.54-24.903c-6.194 0-12.04 2.107-16.76 5.718a40.365 40.365 0 0 0-3.211-3.247c5.603-4.434 12.621-7.038 19.97-7.038 15.925 0 29.163 11.223 31.798 26.813h.113c10.41 0 18.88 8.477 18.88 18.896 0 10.416-8.47 18.894-18.88 18.894h-12.204c.108-.946.183-1.905.183-2.882 0-.569-.037-1.127-.075-1.685"/><path d="M185.664 177.545h4.05c13.05 0 23.664-10.622 23.664-23.68 0-13.057-10.614-23.682-23.664-23.682h-.14c-3.303-19.538-19.898-33.605-39.853-33.605-15.991 0-30.77 9.791-37.104 24.47a28.461 28.461 0 0 0-6.038-.646c-15.738 0-28.543 12.818-28.543 28.573 0 15.753 12.805 28.57 28.543 28.57h7.056c-2.85-1.688-5.178-3.625-6.878-5.723h-.178c-12.573 0-22.802-10.249-22.802-22.847s10.23-22.847 22.802-22.847c2.339 0 4.66.358 6.908 1.069l2.645.841.927-2.612c4.914-13.83 18.04-23.124 32.662-23.124a34.6 34.6 0 0 1 34.516 31.211l.294 2.914 2.914-.36c.89-.11 1.612-.16 2.269-.16 9.884 0 17.926 8.055 17.926 17.958 0 8.43-5.826 15.519-13.656 17.442-1.89 2.35-4.691 4.437-8.32 6.238z"/></g><g transform="translate(111 124)"><circle fill="#FFF" fill-rule="nonzero" cx="39.5" cy="42.5" r="7.5"/><g stroke="#FFF" stroke-width="3"><ellipse cx="39" cy="42" rx="39" ry="15.05"/><ellipse transform="rotate(60 39 42)" cx="39" cy="42" rx="39.313" ry="14.932"/><ellipse transform="rotate(120 39 42)" cx="39" cy="42" rx="39.313" ry="14.932"/></g></g><path d="M285.038 137.779h-9.613v16.655H270v-41.172h13.548c4.61 0 8.157 1.056 10.64 3.167 2.482 2.112 3.724 5.185 3.724 9.219 0 2.564-.689 4.798-2.066 6.702-1.377 1.904-3.294 3.327-5.748 4.27l9.613 17.475v.34h-5.79l-8.883-16.656zm-9.613-4.44h8.292c2.68 0 4.811-.697 6.395-2.092 1.583-1.395 2.375-3.262 2.375-5.6 0-2.544-.754-4.495-2.263-5.853-1.508-1.357-3.687-2.045-6.535-2.064h-8.264v15.61zM317.279 155c-4.123 0-7.477-1.362-10.063-4.086-2.586-2.724-3.88-6.367-3.88-10.93v-.96c0-3.036.577-5.746 1.73-8.13 1.152-2.385 2.764-4.252 4.834-5.6 2.07-1.348 4.315-2.022 6.732-2.022 3.954 0 7.027 1.31 9.22 3.931 2.192 2.62 3.289 6.372 3.289 11.255v2.177h-20.604c.075 3.016.95 5.453 2.628 7.31 1.677 1.857 3.809 2.785 6.395 2.785 1.836 0 3.392-.377 4.666-1.131 1.274-.754 2.39-1.753 3.345-2.997l3.176 2.488c-2.549 3.94-6.371 5.91-11.468 5.91zm-.647-27.43c-2.099 0-3.86.769-5.284 2.305-1.424 1.537-2.305 3.69-2.642 6.462h15.234v-.396c-.15-2.658-.862-4.718-2.136-6.179-1.274-1.46-2.998-2.191-5.172-2.191zm37.3 26.864c-.3-.603-.543-1.677-.73-3.223-2.418 2.526-5.304 3.789-8.658 3.789-2.998 0-5.458-.853-7.378-2.56-1.921-1.705-2.882-3.868-2.882-6.489 0-3.186 1.204-5.66 3.612-7.423 2.408-1.762 5.795-2.644 10.162-2.644h5.06v-2.403c0-1.829-.544-3.285-1.631-4.37-1.087-1.083-2.69-1.625-4.807-1.625-1.855 0-3.41.471-4.666 1.414-1.255.942-1.883 2.083-1.883 3.421h-5.228c0-1.527.539-3.002 1.616-4.425 1.078-1.423 2.54-2.55 4.385-3.38 1.846-.829 3.874-1.244 6.086-1.244 3.504 0 6.249.882 8.235 2.644 1.987 1.763 3.017 4.19 3.092 7.282v14.082c0 2.81.356 5.043 1.068 6.702v.452h-5.453zm-8.629-3.987c1.63 0 3.176-.424 4.638-1.272 1.462-.849 2.52-1.951 3.176-3.309v-6.277h-4.076c-6.37 0-9.556 1.875-9.556 5.627 0 1.64.543 2.922 1.63 3.846 1.087.923 2.483 1.385 4.188 1.385zm33.365.283c1.855 0 3.476-.565 4.863-1.697 1.386-1.13 2.155-2.545 2.305-4.241h4.919c-.094 1.753-.694 3.421-1.8 5.005-1.105 1.583-2.58 2.847-4.426 3.79a12.712 12.712 0 0 1-5.861 1.413c-4.141 0-7.435-1.39-9.88-4.171-2.446-2.78-3.668-6.584-3.668-11.41v-.877c0-2.978.543-5.627 1.63-7.946 1.087-2.318 2.647-4.119 4.68-5.4 2.033-1.283 4.436-1.924 7.21-1.924 3.41 0 6.245 1.028 8.503 3.083s3.462 4.722 3.612 8.002h-4.92c-.15-1.98-.894-3.605-2.234-4.878-1.34-1.272-2.994-1.908-4.961-1.908-2.642 0-4.69.956-6.142 2.87-1.452 1.913-2.178 4.68-2.178 8.3v.99c0 3.524.721 6.239 2.164 8.143 1.443 1.904 3.504 2.856 6.184 2.856zm24.989-34.3v7.408h5.677v4.044h-5.677v18.974c0 1.225.252 2.144.758 2.757s1.368.92 2.586.92c.6 0 1.425-.114 2.474-.34v4.241c-1.368.377-2.698.566-3.991.566-2.324 0-4.076-.707-5.257-2.12-1.18-1.415-1.77-3.422-1.77-6.024v-18.974h-5.538v-4.044h5.537v-7.409h5.2zm21.39 25.025l.787 5.43 1.153-4.893 8.095-28.73h4.554l7.898 28.73 1.124 4.977.872-5.542 6.352-28.165h5.425l-9.922 41.172h-4.92l-8.432-30.002-.646-3.139-.647 3.139L428 154.434h-4.92l-9.894-41.172h5.397l6.465 28.193zM479.1 155c-4.123 0-7.477-1.362-10.063-4.086-2.586-2.724-3.879-6.367-3.879-10.93v-.96c0-3.036.576-5.746 1.729-8.13 1.152-2.385 2.764-4.252 4.835-5.6 2.07-1.348 4.314-2.022 6.732-2.022 3.954 0 7.027 1.31 9.22 3.931 2.192 2.62 3.288 6.372 3.288 11.255v2.177h-20.604c.075 3.016.951 5.453 2.628 7.31 1.678 1.857 3.81 2.785 6.395 2.785 1.837 0 3.392-.377 4.666-1.131 1.274-.754 2.39-1.753 3.345-2.997l3.176 2.488c-2.548 3.94-6.37 5.91-11.468 5.91zm-.646-27.43c-2.1 0-3.86.769-5.285 2.305-1.424 1.537-2.305 3.69-2.642 6.462h15.235v-.396c-.15-2.658-.862-4.718-2.136-6.179-1.275-1.46-2.999-2.191-5.172-2.191zm37.3 26.864c-.3-.603-.544-1.677-.731-3.223-2.417 2.526-5.303 3.789-8.658 3.789-2.998 0-5.457-.853-7.378-2.56-1.92-1.705-2.881-3.868-2.881-6.489 0-3.186 1.204-5.66 3.612-7.423 2.408-1.762 5.795-2.644 10.161-2.644h5.06v-2.403c0-1.829-.544-3.285-1.63-4.37-1.088-1.083-2.69-1.625-4.807-1.625-1.856 0-3.41.471-4.666 1.414-1.256.942-1.884 2.083-1.884 3.421h-5.228c0-1.527.539-3.002 1.616-4.425 1.078-1.423 2.54-2.55 4.385-3.38 1.846-.829 3.875-1.244 6.086-1.244 3.504 0 6.25.882 8.236 2.644 1.986 1.763 3.017 4.19 3.092 7.282v14.082c0 2.81.356 5.043 1.068 6.702v.452h-5.453zm-8.63-3.987c1.63 0 3.177-.424 4.638-1.272 1.462-.849 2.52-1.951 3.177-3.309v-6.277h-4.076c-6.372 0-9.557 1.875-9.557 5.627 0 1.64.543 2.922 1.63 3.846 1.087.923 2.483 1.385 4.188 1.385zm28.221-34.018v7.409h5.678v4.044h-5.678v18.974c0 1.225.253 2.144.76 2.757.505.613 1.367.92 2.585.92.6 0 1.424-.114 2.474-.34v4.241c-1.368.377-2.699.566-3.992.566-2.323 0-4.075-.707-5.256-2.12-1.18-1.415-1.77-3.422-1.77-6.024v-18.974h-5.538v-4.044h5.537v-7.409h5.2zm16.95 11.113c2.305-2.846 5.303-4.27 8.995-4.27 6.427 0 9.669 3.648 9.725 10.944v20.218h-5.2v-20.246c-.019-2.206-.52-3.837-1.504-4.892-.983-1.056-2.515-1.584-4.595-1.584-1.687 0-3.167.453-4.442 1.357-1.274.905-2.267 2.093-2.98 3.563v21.802h-5.2V111h5.2v16.542zM591.422 155c-4.123 0-7.477-1.362-10.063-4.086-2.586-2.724-3.879-6.367-3.879-10.93v-.96c0-3.036.576-5.746 1.729-8.13 1.152-2.385 2.764-4.252 4.835-5.6 2.07-1.348 4.314-2.022 6.732-2.022 3.954 0 7.027 1.31 9.22 3.931 2.192 2.62 3.288 6.372 3.288 11.255v2.177H582.68c.075 3.016.951 5.453 2.628 7.31 1.678 1.857 3.81 2.785 6.395 2.785 1.837 0 3.392-.377 4.666-1.131 1.274-.754 2.39-1.753 3.345-2.997l3.176 2.488c-2.548 3.94-6.37 5.91-11.468 5.91zm-.646-27.43c-2.1 0-3.86.769-5.285 2.305-1.424 1.537-2.305 3.69-2.642 6.462h15.235v-.396c-.15-2.658-.862-4.718-2.136-6.179-1.275-1.46-2.999-2.191-5.172-2.191zm33.224.962a15.492 15.492 0 0 0-2.558-.198c-3.41 0-5.725 1.461-6.943 4.383v21.717h-5.2v-30.596h5.06l.084 3.535c1.705-2.734 4.123-4.1 7.252-4.1 1.012 0 1.78.131 2.305.395v4.864z" fill="#FFF" fill-rule="nonzero"/></g></svg>