<?xml version="1.0" encoding="UTF-8"?>
<svg width="700px" height="300px" viewBox="0 0 700 300" version="1.1" xmlns="http://www.w3.org/2000/svg" xmlns:xlink="http://www.w3.org/1999/xlink">
    <!-- Generator: Sketch 55.2 (78181) - https://sketchapp.com -->
    <title>black-logos</title>
    <desc>Created with Sketch.</desc>
    <g id="black-logos" stroke="none" stroke-width="1" fill="none" fill-rule="evenodd">
        <rect fill="#FFFFFF" x="0" y="0" width="700" height="300"></rect>
        <g id="angular-pokedex" transform="translate(80.000000, 114.000000)" fill="#000000" fill-rule="nonzero">
            <path d="M34.2572203,40.1987829 L8.10583052,40.1987829 L2.164,56.0811361 L0,56.0811361 L19.9894915,2.9208925 L22.4102373,2.9208925 L42.3997288,56.0811361 L40.2357288,56.0811361 L34.2572203,40.1987829 Z M8.83938981,38.2271806 L33.523661,38.2271806 L21.1998644,5.29411766 L8.83938981,38.2271806 Z M51.936,25.7768763 C53.2319612,22.7099238 55.1391964,20.2880414 57.6577627,18.5111562 C60.1763291,16.7342711 62.9638265,15.8458418 66.0203391,15.8458418 C70.2750044,15.8458418 73.435391,17.0446128 75.5015934,19.4421907 C77.5677957,21.8397686 78.6131074,25.460422 78.6375594,30.3042597 L78.6375594,56.0811361 L76.6569491,56.0811361 L76.6569491,30.2312374 C76.632497,25.9959221 75.7644606,22.8620791 74.0528137,20.8296146 C72.3411667,18.7971501 69.6270242,17.7809331 65.9103052,17.7809331 C62.4870113,17.7809331 59.5222387,18.9918743 57.0158981,21.4137931 C54.509558,23.8357119 52.8162755,26.9573846 51.936,30.7789047 L51.936,56.0811361 L49.9553897,56.0811361 L49.9553897,16.5760649 L51.936,16.5760649 L51.936,25.7768763 Z M89.2008137,35.9269777 C89.2008137,29.6226865 90.5334329,24.6998149 93.1987118,21.158215 C95.8639907,17.6166152 99.5195246,15.8458418 104.165424,15.8458418 C107.124128,15.8458418 109.752689,16.5212914 112.051186,17.872211 C114.349684,19.2231305 116.19579,21.2007984 117.589559,23.8052739 L117.589559,16.5760649 L119.606848,16.5760649 L119.606848,55.387424 C119.606848,60.596375 118.262002,64.6673283 115.572271,67.6004058 C112.88254,70.5334832 109.227006,72 104.605559,72 C101.94028,72 99.5012201,71.4279978 97.2883052,70.2839759 C95.0753902,69.139954 93.1864938,67.4969682 91.6215594,65.3549697 L93.0153221,64.0405679 C94.5558045,65.9878393 96.2429741,67.4786966 98.0768812,68.5131846 C99.9107887,69.5476726 102.062541,70.0649088 104.532203,70.0649088 C108.615704,70.0649088 111.794429,68.8296269 114.068475,66.3590264 C116.34252,63.8884258 117.516203,60.4016453 117.589559,55.8985801 L117.589559,49.8377281 C116.220242,52.0770903 114.368023,53.7991829 112.032848,55.004057 C109.697672,56.2089312 107.050772,56.811359 104.092068,56.811359 C99.495073,56.811359 95.8639907,54.9979897 93.1987118,51.3711967 C90.5334329,47.744404 89.2008137,42.7667662 89.2008137,36.4381339 L89.2008137,35.9269777 Z M91.2181019,36.693712 C91.2181019,42.3407992 92.3428813,46.7768603 94.5924745,50.0020284 C96.8420677,53.2271969 99.9963414,54.8397567 104.05539,54.8397567 C107.405327,54.8397567 110.253954,54.0669447 112.601356,52.5212982 C114.948757,50.9756517 116.611475,48.8032595 117.589559,46.0040568 L117.589559,28.0770791 C115.437775,21.2372883 110.950881,17.8174442 104.128746,17.8174442 C100.045245,17.8174442 96.8726327,19.4117488 94.6108137,22.6004057 C92.3489942,25.7890626 91.2181019,30.4867844 91.2181019,36.693712 Z M158.852271,56.0811361 L158.852271,49.6916836 C157.678571,51.8823641 155.966949,53.6166265 153.717356,54.8945235 C151.467763,56.1724201 148.619136,56.811359 145.17139,56.811359 C140.843368,56.811359 137.597401,55.5517366 135.43339,53.0324544 C133.269379,50.5131722 132.162938,46.8438376 132.114034,42.024341 L132.114034,16.5760649 L134.094644,16.5760649 L134.094644,42.097363 C134.143548,46.2839967 135.097166,49.4543503 136.955525,51.6085194 C138.813885,53.7626885 141.528027,54.8397567 145.098034,54.8397567 C148.888109,54.8397567 151.969028,53.9513273 154.340881,52.1744423 C156.712735,50.397557 158.216516,47.7931205 158.852271,44.3610548 L158.852271,16.5760649 L160.869559,16.5760649 L160.869559,56.0811361 L158.852271,56.0811361 Z M175.834169,56.0811361 L173.853559,56.0811361 L173.853559,0 L175.834169,0 L175.834169,56.0811361 Z M214.492746,56.0811361 C214.003704,54.4016145 213.759186,51.9919022 213.759186,48.8519272 C212.194252,51.38338 210.054725,53.3427923 207.340542,54.7302232 C204.626359,56.1176541 201.557667,56.811359 198.134373,56.811359 C194.466558,56.811359 191.514011,55.8194826 189.276644,53.8356997 C187.039277,51.8519172 185.92061,49.265736 185.92061,46.0770793 C185.92061,42.4502862 187.564989,39.5476781 190.853797,37.3691684 C194.142604,35.1906585 198.513351,34.0770794 203.966169,34.0283976 L213.759186,34.0283976 L213.759186,28.2596349 C213.759186,24.9492735 212.713875,22.3813479 210.62322,20.5557809 C208.532566,18.730214 205.543342,17.8174442 201.655458,17.8174442 C198.036547,17.8174442 195.016758,18.7423843 192.596,20.5922921 C190.175242,22.4421999 188.964881,24.7302095 188.964881,27.4563895 L186.984271,27.3833672 C186.984271,24.1703694 188.402472,21.4442303 191.238915,19.2048682 C194.075359,16.9655061 197.547505,15.8458418 201.655458,15.8458418 C205.934575,15.8458418 209.333366,16.9107399 211.851932,19.040568 C214.370498,21.1703961 215.66644,24.1703661 215.739797,28.040568 L215.739797,46.9168357 C215.739797,51.2495146 216.082121,54.1947185 216.76678,55.7525356 L216.76678,56.0811361 L214.492746,56.0811361 Z M198.134373,54.8762678 C201.851092,54.8762678 205.048156,54.0486898 207.725661,52.393509 C210.403166,50.7383286 212.414321,48.4138082 213.759186,45.4198782 L213.759186,36.0365112 L204.589695,36.0365112 C198.916808,36.0365112 194.576625,37.1561755 191.569017,39.3955376 C189.123807,41.2211046 187.90122,43.4969437 187.90122,46.2231239 C187.90122,48.6328722 188.867064,50.6774763 190.79878,52.356998 C192.730496,54.0365112 195.175669,54.8762678 198.134373,54.8762678 Z M245.999119,18 L243.431661,17.7809331 C240.057271,17.7809331 237.233096,18.8701717 234.959051,21.0486816 C232.685006,23.2271915 231.19345,26.2758425 230.484339,30.1947262 L230.484339,56.0811361 L228.503729,56.0811361 L228.503729,16.5760649 L230.484339,16.5760649 L230.484339,24.7910751 C231.560231,22.0405542 233.174046,19.862077 235.325831,18.2555781 C237.477615,16.6490792 240.179532,15.8458418 243.431661,15.8458418 C244.58091,15.8458418 245.510075,15.9797147 246.219186,16.2474645 L245.999119,18 Z M266.795525,32.7505072 L249.556881,32.7505072 L249.556881,30.7789047 L266.795525,30.7789047 L266.795525,32.7505072 Z M278.899254,33.6267749 L278.899254,56.0811361 L276.918644,56.0811361 L276.918644,2.9208925 L293.607119,2.9208925 C299.059937,2.9208925 303.2962,4.29004716 306.316034,7.02839759 C309.335868,9.76674798 310.845763,13.5699554 310.845763,18.4381339 C310.845763,23.2576306 309.372546,26.9817313 306.426068,29.6105477 C303.47959,32.2393641 299.292231,33.5780931 293.863865,33.6267749 L278.899254,33.6267749 Z M278.899254,31.6551724 L293.607119,31.6551724 C298.424182,31.6551724 302.17141,30.4989974 304.848915,28.1866126 C307.52642,25.8742278 308.865152,22.6491079 308.865152,18.5111562 C308.865152,14.2271591 307.52642,10.8864217 304.848915,8.48884383 C302.17141,6.09126592 298.424182,4.89249493 293.607119,4.89249493 L278.899254,4.89249493 L278.899254,31.6551724 Z M317.521152,35.5618661 C317.521152,31.7890278 318.248591,28.3996094 319.703492,25.3935092 C321.158392,22.3874089 323.212337,20.0446332 325.86539,18.3651116 C328.518443,16.68559 331.519893,15.8458418 334.869831,15.8458418 C338.195316,15.8458418 341.178427,16.6612495 343.819254,18.2920893 C346.460081,19.9229291 348.520139,22.2352792 349.999492,25.229209 C351.478844,28.2231387 352.230734,31.5943018 352.255186,35.3427992 L352.255186,37.0953347 C352.255186,40.8925141 351.53386,44.2880176 350.091186,47.2819473 C348.648513,50.2758769 346.60068,52.6125679 343.947627,54.2920891 C341.294574,55.9716107 338.293124,56.811359 334.943186,56.811359 C331.593249,56.811359 328.591798,55.9837813 325.938746,54.3286006 C323.285693,52.6734198 321.225634,50.3549845 319.758508,47.3732251 C318.291383,44.391466 317.545605,41.0385582 317.521152,37.3144017 L317.521152,35.5618661 Z M319.501763,37.0953347 C319.501763,40.3813552 320.155847,43.3934956 321.464034,46.1318461 C322.772221,48.8701965 324.593875,51.0060777 326.929051,52.539554 C329.264226,54.0730302 331.935578,54.8397567 334.943186,54.8397567 C339.466825,54.8397567 343.152924,53.1480901 346.001593,49.764706 C348.850263,46.381322 350.274576,42.0243673 350.274576,36.693712 L350.274576,35.5618661 C350.274576,32.3245275 349.614379,29.3306426 348.293966,26.5801217 C346.973553,23.8296009 345.145786,21.6815493 342.81061,20.1359027 C340.475435,18.590256 337.828535,17.8174442 334.869831,17.8174442 C330.346192,17.8174442 326.65398,19.5334514 323.793085,22.9655173 C320.932189,26.3975831 319.501763,30.7180267 319.501763,35.9269777 L319.501763,37.0953347 Z M369.67722,34.7221096 L369.603865,34.7951319 L363.845424,39.7241378 L363.845424,56.0811361 L361.864814,56.0811361 L361.864814,0 L363.845424,0 L363.845424,37.5699798 L368.503525,33.188641 L386.549085,16.5760649 L389.373288,16.5760649 L371.144339,33.4077079 L390.510306,56.0811361 L387.942848,56.0811361 L369.67722,34.7221096 Z M410.939934,56.811359 C407.736708,56.811359 404.796384,55.9533554 402.118882,54.2373228 C399.441376,52.5212897 397.344639,50.1663438 395.828609,47.1724137 C394.312579,44.1784841 393.554576,40.8560023 393.554576,37.2048682 L393.554576,35.5618661 C393.554576,31.9107323 394.288129,28.5639098 395.755255,25.5212982 C397.22238,22.4786866 399.239649,20.1054852 401.807118,18.4016227 C404.374587,16.6977603 407.174313,15.8458418 410.206373,15.8458418 C414.632204,15.8458418 418.251058,17.4158058 421.063052,20.5557809 C423.875041,23.6957561 425.281019,27.8214755 425.281019,32.9330629 L425.281019,35.0141988 L395.535188,35.0141988 L395.535188,37.168357 C395.535188,40.3813548 396.213723,43.3569842 397.570812,46.0953346 C398.927904,48.8336851 400.798464,50.9817369 403.182542,52.539554 C405.56662,54.0973711 408.152394,54.8762678 410.939934,54.8762678 C413.605211,54.8762678 415.87311,54.4320532 417.743694,53.5436106 C419.614281,52.6551679 421.270885,51.2860133 422.713561,49.4361055 L424.107321,50.4219068 C421.148619,54.6815629 416.759533,56.811359 410.939934,56.811359 Z M410.206373,17.8174442 C406.34294,17.8174442 403.06641,19.2474502 400.376679,22.1075051 C397.686948,24.96756 396.109812,28.6125539 395.645221,33.0425964 L423.300406,33.0425964 L423.300406,32.5679513 C423.300406,29.8904532 422.731904,27.4016342 421.594882,25.1014199 C420.45786,22.8012056 418.892949,21.0121768 416.900103,19.7342799 C414.907254,18.4563831 412.676034,17.8174442 410.206373,17.8174442 Z M432.689967,35.9269777 C432.689967,29.6226865 434.022586,24.6998149 436.687863,21.158215 C439.353145,17.6166152 443.008678,15.8458418 447.654576,15.8458418 C450.637731,15.8458418 453.272405,16.5152063 455.558679,17.8539554 C457.844949,19.1927045 459.697169,21.1886277 461.115391,23.841785 L461.115391,0 L463.096,0 L463.096,56.0811361 L461.115391,56.0811361 L461.115391,49.764706 C459.770524,52.0040682 457.924418,53.7383306 455.577019,54.9675456 C453.229616,56.196761 450.564377,56.811359 447.581221,56.811359 C442.984224,56.811359 439.353145,54.9979897 436.687863,51.3711967 C434.022586,47.744404 432.689967,42.7667662 432.689967,36.4381339 L432.689967,35.9269777 Z M434.743934,36.693712 C434.743934,42.2921172 435.856487,46.7160081 438.081627,49.9655174 C440.306768,53.2150263 443.461043,54.8397567 447.544542,54.8397567 C450.821123,54.8397567 453.620848,54.115626 455.943797,52.6673428 C458.266746,51.2190596 459.990594,49.0953486 461.115391,46.296146 L461.115391,27.7849899 C458.841346,21.1399262 454.342227,17.8174442 447.617897,17.8174442 C443.558851,17.8174442 440.398462,19.4117488 438.136646,22.6004057 C435.874826,25.7890626 434.743934,30.4867844 434.743934,36.693712 Z M489.907594,56.811359 C486.704368,56.811359 483.764049,55.9533554 481.086542,54.2373228 C478.409036,52.5212897 476.312303,50.1663438 474.796269,47.1724137 C473.280239,44.1784841 472.522236,40.8560023 472.522236,37.2048682 L472.522236,35.5618661 C472.522236,31.9107323 473.255789,28.5639098 474.722915,25.5212982 C476.190041,22.4786866 478.207309,20.1054852 480.774779,18.4016227 C483.342252,16.6977603 486.141973,15.8458418 489.174033,15.8458418 C493.599865,15.8458418 497.218719,17.4158058 500.030712,20.5557809 C502.842702,23.6957561 504.248679,27.8214755 504.248679,32.9330629 L504.248679,35.0141988 L474.502849,35.0141988 L474.502849,37.168357 C474.502849,40.3813548 475.181383,43.3569842 476.538476,46.0953346 C477.895565,48.8336851 479.766125,50.9817369 482.150203,52.539554 C484.534285,54.0973711 487.120055,54.8762678 489.907594,54.8762678 C492.572872,54.8762678 494.840771,54.4320532 496.711354,53.5436106 C498.581941,52.6551679 500.238546,51.2860133 501.681221,49.4361055 L503.074981,50.4219068 C500.11628,54.6815629 495.727193,56.811359 489.907594,56.811359 Z M489.174033,17.8174442 C485.3106,17.8174442 482.034071,19.2474502 479.34434,22.1075051 C476.654608,24.96756 475.077473,28.6125539 474.612882,33.0425964 L502.268066,33.0425964 L502.268066,32.5679513 C502.268066,29.8904532 501.699565,27.4016342 500.562542,25.1014199 C499.42552,22.8012056 497.860609,21.0121768 495.867764,19.7342799 C493.874918,18.4563831 491.643694,17.8174442 489.174033,17.8174442 Z M495.592679,0.76673428 L498.013424,0.76673428 L490.861221,10.4787018 L488.660542,10.4787018 L495.592679,0.76673428 Z M525.118439,34.1014199 L537.77234,16.5760649 L540.266439,16.5760649 L526.328812,35.8174443 L541,56.0811361 L538.542576,56.0811361 L525.081764,37.5334686 L511.657627,56.0811361 L509.200203,56.0811361 L523.871391,35.8174443 L509.933764,16.5760649 L512.427863,16.5760649 L525.118439,34.1014199 Z" id="Angular-Pokedéx"></path>
        </g>
    </g>
</svg>