<svg width="700" height="300" xmlns="http://www.w3.org/2000/svg"><g fill="none" fill-rule="evenodd"><path fill="#FFF" d="M0 0h700v300H0z"/><path d="M114.257 154.199H88.106l-5.942 15.882H80l19.99-53.16h2.42l19.99 53.16h-2.164l-5.979-15.882zm-25.418-1.972h24.685L101.2 119.294l-12.36 32.933zm43.097-12.45c1.296-3.067 3.203-5.489 5.722-7.266 2.518-1.777 5.306-2.665 8.362-2.665 4.255 0 7.415 1.199 9.482 3.596 2.066 2.398 3.111 6.018 3.136 10.862v25.777h-1.981v-25.85c-.025-4.235-.893-7.369-2.604-9.401-1.712-2.033-4.426-3.05-8.143-3.05-3.423 0-6.388 1.212-8.894 3.634-2.506 2.422-4.2 5.543-5.08 9.365v25.302h-1.98v-39.505h1.98v9.2zm37.265 10.15c0-6.304 1.332-11.227 3.998-14.769 2.665-3.541 6.32-5.312 10.966-5.312 2.96 0 5.588.675 7.886 2.026 2.299 1.351 4.145 3.329 5.539 5.933v-7.229h2.017v38.811c0 5.21-1.345 9.28-4.035 12.213-2.69 2.933-6.345 4.4-10.966 4.4-2.666 0-5.105-.572-7.318-1.716-2.213-1.144-4.102-2.787-5.666-4.929l1.393-1.314c1.54 1.947 3.228 3.438 5.062 4.472 1.834 1.035 3.986 1.552 6.455 1.552 4.084 0 7.262-1.235 9.536-3.706 2.275-2.47 3.448-5.957 3.522-10.46v-6.061a13.824 13.824 0 0 1-5.557 5.166c-2.335 1.205-4.982 1.807-7.94 1.807-4.598 0-8.229-1.813-10.894-5.44-2.666-3.627-3.998-8.604-3.998-14.933v-.511zm2.017.767c0 5.647 1.125 10.083 3.374 13.308 2.25 3.225 5.404 4.838 9.463 4.838 3.35 0 6.199-.773 8.546-2.319 2.348-1.545 4.01-3.718 4.989-6.517v-17.927c-2.152-6.84-6.64-10.26-13.461-10.26-4.084 0-7.256 1.595-9.518 4.783-2.262 3.19-3.393 7.887-3.393 14.094zm67.634 19.387v-6.39c-1.173 2.191-2.885 3.926-5.135 5.204-2.25 1.277-5.098 1.916-8.546 1.916-4.328 0-7.574-1.26-9.738-3.779-2.164-2.519-3.27-6.188-3.319-11.008v-25.448h1.98v25.521c.05 4.187 1.003 7.357 2.862 9.512 1.858 2.154 4.572 3.23 8.142 3.23 3.79 0 6.871-.888 9.243-2.665 2.372-1.776 3.876-4.38 4.511-7.813v-27.785h2.018v39.505h-2.018zm16.982 0h-1.98V114h1.98v56.081zm38.659 0c-.49-1.68-.734-4.09-.734-7.23-1.565 2.532-3.704 4.492-6.418 5.88-2.715 1.387-5.783 2.08-9.207 2.08-3.667 0-6.62-.992-8.857-2.975-2.238-1.984-3.356-4.57-3.356-7.759 0-3.627 1.644-6.53 4.933-8.708 3.289-2.178 7.66-3.292 13.112-3.34h9.793v-5.77c0-3.31-1.045-5.878-3.136-7.703-2.09-1.826-5.08-2.739-8.968-2.739-3.618 0-6.638.925-9.059 2.775-2.42 1.85-3.631 4.138-3.631 6.864l-1.98-.073c0-3.213 1.417-5.939 4.254-8.178 2.836-2.24 6.309-3.36 10.416-3.36 4.28 0 7.678 1.066 10.197 3.196 2.518 2.13 3.814 5.13 3.888 9v18.876c0 4.333.342 7.278 1.027 8.836v.328h-2.274zm-16.359-1.205c3.717 0 6.914-.827 9.592-2.482 2.677-1.656 4.688-3.98 6.033-6.974v-9.383h-9.17c-5.672 0-10.012 1.12-13.02 3.359-2.445 1.825-3.668 4.1-3.668 6.827 0 2.41.966 4.454 2.898 6.134 1.931 1.68 4.377 2.52 7.335 2.52zM326 132l-2.567-.22c-3.375 0-6.199 1.09-8.473 3.269-2.274 2.178-3.766 5.227-4.475 9.146v25.886h-1.98v-39.505h1.98v8.215c1.076-2.75 2.69-4.929 4.842-6.535 2.152-1.607 4.854-2.41 8.106-2.41 1.149 0 2.078.134 2.787.401L326 132zm20.797 14.75h-17.24v-1.971h17.24v1.972zm12.103.877v22.454h-1.98v-53.16h16.688c5.453 0 9.69 1.369 12.709 4.107 3.02 2.739 4.53 6.542 4.53 11.41 0 4.82-1.473 8.544-4.42 11.173-2.946 2.628-7.134 3.967-12.562 4.016h-14.965zm0-1.972h14.708c4.817 0 8.564-1.156 11.242-3.468 2.677-2.313 4.016-5.538 4.016-9.676 0-4.284-1.339-7.625-4.016-10.022-2.678-2.398-6.425-3.597-11.242-3.597H358.9v26.763zm38.622 3.907c0-3.773.728-7.162 2.182-10.168 1.455-3.007 3.51-5.35 6.162-7.029 2.653-1.68 5.655-2.52 9.005-2.52 3.325 0 6.308.816 8.95 2.447 2.64 1.63 4.7 3.943 6.18 6.937 1.479 2.994 2.23 6.365 2.255 10.114v1.752c0 3.798-.721 7.193-2.164 10.187-1.442 2.994-3.49 5.33-6.143 7.01-2.653 1.68-5.655 2.52-9.005 2.52-3.35 0-6.351-.828-9.004-2.483-2.653-1.656-4.713-3.974-6.18-6.956-1.468-2.982-2.213-6.334-2.238-10.059v-1.752zm1.98 1.533c0 3.286.655 6.298 1.963 9.037 1.308 2.738 3.13 4.874 5.465 6.408 2.335 1.533 5.007 2.3 8.014 2.3 4.524 0 8.21-1.692 11.059-5.075 2.848-3.384 4.273-7.74 4.273-13.071v-1.132c0-3.237-.66-6.231-1.981-8.982-1.32-2.75-3.148-4.898-5.483-6.444-2.336-1.546-4.982-2.319-7.941-2.319-4.524 0-8.216 1.716-11.077 5.149-2.86 3.432-4.291 7.752-4.291 12.961v1.168zm50.176-2.373l-.073.073-5.759 4.93v16.356h-1.98V114h1.98v37.57l4.659-4.381 18.045-16.613h2.824l-18.229 16.832 19.366 22.673h-2.567l-18.266-21.359zm41.263 22.09c-3.203 0-6.144-.859-8.821-2.575-2.678-1.716-4.774-4.07-6.29-7.065-1.516-2.994-2.274-6.316-2.274-9.967v-1.643c0-3.651.733-6.998 2.2-10.04 1.467-3.043 3.485-5.417 6.052-7.12 2.568-1.704 5.367-2.556 8.4-2.556 4.425 0 8.044 1.57 10.856 4.71 2.812 3.14 4.218 7.265 4.218 12.377v2.081h-29.746v2.154c0 3.213.679 6.189 2.036 8.927 1.357 2.739 3.227 4.887 5.612 6.445 2.384 1.557 4.97 2.336 7.757 2.336 2.665 0 4.933-.444 6.804-1.332 1.87-.889 3.527-2.258 4.97-4.108l1.393.986c-2.958 4.26-7.347 6.39-13.167 6.39zm-.734-38.995c-3.863 0-7.14 1.43-9.83 4.29-2.69 2.86-4.266 6.506-4.73 10.936H503.3v-.475c0-2.678-.568-5.166-1.705-7.467-1.137-2.3-2.702-4.089-4.695-5.367-1.993-1.278-4.224-1.917-6.694-1.917zm22.484 18.11c0-6.304 1.333-11.227 3.998-14.769 2.665-3.541 6.32-5.312 10.967-5.312 2.983 0 5.617.67 7.904 2.008 2.286 1.339 4.138 3.335 5.556 5.988V114h1.981v56.081h-1.98v-6.316c-1.345 2.24-3.192 3.973-5.539 5.203-2.347 1.229-5.013 1.843-7.996 1.843-4.597 0-8.228-1.813-10.893-5.44-2.665-3.627-3.998-8.604-3.998-14.933v-.511zm2.054.767c0 5.598 1.112 10.022 3.338 13.272 2.225 3.249 5.379 4.874 9.463 4.874 3.276 0 6.076-.724 8.399-2.173 2.323-1.448 4.047-3.572 5.171-6.37v-18.512c-2.274-6.645-6.773-9.968-13.497-9.968-4.06 0-7.22 1.595-9.481 4.783-2.262 3.19-3.393 7.887-3.393 14.094zm55.164 20.117c-3.204 0-6.144-.858-8.821-2.574-2.678-1.716-4.775-4.07-6.29-7.065-1.517-2.994-2.275-6.316-2.275-9.967v-1.643c0-3.651.734-6.998 2.2-10.04 1.468-3.043 3.485-5.417 6.053-7.12 2.567-1.704 5.367-2.556 8.399-2.556 4.426 0 8.045 1.57 10.857 4.71 2.812 3.14 4.218 7.265 4.218 12.377v2.081h-29.746v2.154c0 3.213.678 6.189 2.035 8.927 1.358 2.739 3.228 4.887 5.612 6.445 2.384 1.557 4.97 2.336 7.758 2.336 2.665 0 4.933-.444 6.803-1.332 1.87-.889 3.528-2.258 4.97-4.108l1.394.986c-2.959 4.26-7.348 6.39-13.167 6.39zm-.734-38.994c-3.863 0-7.14 1.43-9.83 4.29-2.69 2.86-4.267 6.506-4.731 10.936h27.655v-.475c0-2.678-.568-5.166-1.705-7.467-1.137-2.3-2.702-4.089-4.695-5.367-1.993-1.278-4.224-1.917-6.694-1.917zm6.419-17.05h2.42l-7.152 9.712h-2.2l6.932-9.712zm29.525 33.334l12.654-17.525h2.494l-13.937 19.241L621 170.081h-2.457l-13.461-18.548-13.424 18.548H589.2l14.671-20.264-13.937-19.24h2.494l12.69 17.524z" fill="#000" fill-rule="nonzero"/></g></svg>