<svg width="700" height="300" xmlns="http://www.w3.org/2000/svg"><g fill="none" fill-rule="evenodd"><path fill="#FFF" d="M0 0h700v300H0z"/><g fill="#000" fill-rule="nonzero"><path d="M232.273 75c-1.47.016-2.857.7-3.806 1.875L166 154.345l5.696 4.604 60.66-75.228L295.389 159l5.611-4.709-64.884-77.486A5.013 5.013 0 0 0 232.273 75zM232 194c-4.722 0-6 2.355-6 4.716 0 2.363 2.686 4.284 6 4.284 3.313 0 6-1.918 6-4.284-.001-2.36-1.15-4.716-6-4.716z"/><path d="M226 153.098s-9.044-1.686-17.95 8.907c-8.906 10.594-17.258 23.144 0 23.98 17.255.837 17.95-32.887 17.95-32.887zM255.95 185.985c17.258-.836 8.906-13.385 0-23.98-8.906-10.593-17.95-8.907-17.95-8.907s.697 33.724 17.95 32.887z"/><path d="M255.415 190.576c-.248.011-.492.018-.73.018-18.477 0-19.381-33.96-19.413-35.406l-.013-.639a15.598 15.598 0 0 0-4.022-.549 15.31 15.31 0 0 0-3.746.476l-.013.712c-.017.818-.318 12.111-3.947 21.723-1.772 4.94-4.034 8.715-9.676 12.39-1.708.82-3.627 1.29-5.786 1.29h-.002c-.239 0-.484-.007-.727-.017-.118-.007-.226-.016-.34-.025.877 7.022 6.782 12.451 13.94 12.451 1.137 0 2.24-.138 3.295-.4a4.758 4.758 0 0 1-.722-2.494c0-1.952.822-6.494 8.419-6.494 7.326 0 8.417 4.07 8.417 6.494 0 .792-.206 1.54-.57 2.228 1.343.43 2.773.666 4.258.666 7.231 0 13.185-5.54 13.963-12.666-.806.111-1.665.195-2.585.242zm-26.704-2.417c-1.556.794-2.974 1.059-4.174 1.059-2.386 0-3.927-1.053-4.023-1.118a.825.825 0 0 1-.204-1.136.799.799 0 0 1 1.117-.21c.113.078 2.803 1.87 6.557-.054a.8.8 0 0 1 1.082.363c.202.4.042.89-.355 1.096zm13.141 0c-1.556.794-2.975 1.059-4.174 1.059-2.387 0-3.928-1.053-4.023-1.118a.825.825 0 0 1-.205-1.136.796.796 0 0 1 1.115-.21c.116.078 2.805 1.87 6.56-.054a.8.8 0 0 1 1.081.363c.203.4.042.89-.354 1.096z"/><path d="M231.573 90.508L184 148.906 193.404 202h16.782l-.484-3.31c-3.153-2.703-5.338-6.508-5.896-10.86l-.07-.57c-4.64-.794-7.683-2.699-9.013-5.72-2.846-6.464 3.195-14.922 10.148-23.1 7.754-9.122 15.937-10.105 19.097-10.105 1.147 0 1.874.117 2.068.152l1.526.28a18.692 18.692 0 0 1 7.699.006l1.546-.286c.194-.038.92-.152 2.067-.152 3.16 0 11.341.984 19.098 10.102 6.95 8.181 12.992 16.64 10.15 23.103-1.07 2.424-3.24 4.13-6.445 5.125l-.1.903a17.174 17.174 0 0 1-5.757 11.001l-.586 3.431h13.933L283 148.906 233.578 90.49c-.558-.66-1.457-.652-2.005.018zM331.287 137.526v4.066h-12.179v8.132h10.279v4.085h-10.279V165h-5.149v-27.474h17.328zm11.799 7.676c1.229 0 2.36.196 3.391.589a7.426 7.426 0 0 1 2.67 1.72c.747.753 1.33 1.678 1.748 2.773.418 1.096.627 2.347.627 3.753 0 .355-.016.65-.048.883a1.414 1.414 0 0 1-.17.551.692.692 0 0 1-.333.285c-.14.058-.317.086-.532.086h-12.046c.14 2.001.678 3.47 1.615 4.408.937.937 2.179 1.406 3.724 1.406.76 0 1.415-.089 1.966-.266a9.22 9.22 0 0 0 1.444-.589c.412-.215.773-.412 1.083-.589.31-.177.612-.266.903-.266.19 0 .355.038.494.114.14.076.26.184.361.323l1.368 1.71a7.822 7.822 0 0 1-1.748 1.53 9.803 9.803 0 0 1-2.024.988 11.06 11.06 0 0 1-2.147.522c-.728.101-1.434.152-2.118.152-1.355 0-2.616-.225-3.781-.675a8.464 8.464 0 0 1-3.04-1.995c-.861-.88-1.539-1.97-2.033-3.268-.494-1.298-.741-2.802-.741-4.512 0-1.33.215-2.58.646-3.753a9.023 9.023 0 0 1 1.852-3.059c.805-.867 1.786-1.554 2.945-2.061 1.16-.507 2.467-.76 3.924-.76zm.095 3.363c-1.368 0-2.438.386-3.211 1.159-.773.773-1.267 1.868-1.482 3.287h8.816c0-.608-.082-1.181-.247-1.72a3.966 3.966 0 0 0-.76-1.415 3.597 3.597 0 0 0-1.292-.96c-.52-.234-1.127-.351-1.824-.351zm18.563 16.739c-1.685 0-2.983-.478-3.895-1.434-.912-.957-1.368-2.277-1.368-3.962v-10.887h-1.976a.949.949 0 0 1-.655-.247c-.184-.165-.276-.412-.276-.741v-1.862l3.135-.513.988-5.32a.94.94 0 0 1 .352-.589c.183-.14.414-.209.693-.209h2.432v6.137h5.13v3.344h-5.13v10.564c0 .608.152 1.083.456 1.425.304.342.71.513 1.216.513.291 0 .535-.035.732-.104.196-.07.367-.143.513-.219.145-.076.275-.149.389-.218a.651.651 0 0 1 .342-.105c.14 0 .253.035.342.105.089.07.184.174.285.313l1.406 2.28c-.684.57-1.47 1-2.356 1.292a8.77 8.77 0 0 1-2.755.437zm22.002-15.675a2.34 2.34 0 0 1-.408.418c-.134.101-.327.152-.58.152a1.29 1.29 0 0 1-.703-.218c-.228-.146-.5-.31-.817-.494a6.108 6.108 0 0 0-1.13-.494c-.438-.146-.979-.219-1.625-.219-.823 0-1.545.149-2.166.447a4.106 4.106 0 0 0-1.548 1.282c-.412.557-.72 1.232-.922 2.024-.203.791-.304 1.687-.304 2.688 0 1.039.11 1.963.332 2.774.222.81.542 1.491.96 2.042.418.552.925.97 1.52 1.254.595.286 1.267.428 2.014.428.747 0 1.352-.092 1.815-.275a5.725 5.725 0 0 0 1.168-.608c.317-.222.592-.425.827-.608.234-.184.497-.276.788-.276.38 0 .665.146.855.437l1.349 1.71a8.484 8.484 0 0 1-1.691 1.53 9.14 9.14 0 0 1-1.89.988 9.599 9.599 0 0 1-2.024.522c-.697.101-1.387.152-2.071.152a8.646 8.646 0 0 1-3.401-.674 7.94 7.94 0 0 1-2.784-1.967c-.791-.861-1.418-1.916-1.88-3.163-.463-1.248-.694-2.67-.694-4.266 0-1.431.206-2.758.618-3.98.411-1.223 1.016-2.28 1.814-3.173.798-.894 1.786-1.593 2.964-2.1 1.178-.507 2.533-.76 4.066-.76 1.457 0 2.733.234 3.828.703a9.355 9.355 0 0 1 2.955 2.014l-1.235 1.71zM388.173 165v-28.234h4.693v10.849a9.931 9.931 0 0 1 2.508-1.748c.912-.443 1.982-.665 3.211-.665 1.064 0 2.008.18 2.831.541.823.362 1.51.868 2.061 1.52.552.653.97 1.432 1.255 2.337.285.906.427 1.904.427 2.993V165h-4.693v-12.407c0-1.19-.275-2.112-.827-2.765-.55-.652-1.377-.978-2.479-.978-.81 0-1.57.184-2.28.551-.71.367-1.38.868-2.014 1.501V165h-4.693zm46.265-13.737c0 2.014-.336 3.863-1.007 5.548-.671 1.685-1.615 3.135-2.831 4.351-1.216 1.216-2.679 2.16-4.389 2.831-1.71.671-3.604 1.007-5.681 1.007h-10.488v-27.474h10.488c2.077 0 3.971.339 5.681 1.016 1.71.678 3.173 1.622 4.389 2.832 1.216 1.21 2.16 2.656 2.831 4.341.671 1.685 1.007 3.534 1.007 5.548zm-5.225 0c0-1.507-.203-2.86-.608-4.056-.405-1.198-.982-2.21-1.729-3.04a7.454 7.454 0 0 0-2.726-1.91c-1.07-.443-2.277-.665-3.62-.665h-5.339v19.342h5.339c1.343 0 2.55-.222 3.62-.665a7.454 7.454 0 0 0 2.726-1.91c.747-.83 1.324-1.842 1.729-3.04.405-1.197.608-2.549.608-4.056zm17.29-6.061c1.457 0 2.777.234 3.962.703 1.184.469 2.194 1.134 3.03 1.995.836.861 1.482 1.913 1.938 3.154.456 1.241.684 2.628.684 4.161 0 1.545-.228 2.939-.684 4.18-.456 1.241-1.102 2.299-1.938 3.173a8.419 8.419 0 0 1-3.03 2.014c-1.185.469-2.505.703-3.962.703-1.457 0-2.78-.234-3.971-.703a8.495 8.495 0 0 1-3.05-2.014c-.842-.874-1.494-1.932-1.957-3.173-.462-1.241-.693-2.635-.693-4.18 0-1.533.231-2.92.694-4.161.462-1.241 1.114-2.293 1.957-3.154.842-.861 1.858-1.526 3.049-1.995 1.19-.469 2.514-.703 3.971-.703zm0 16.473c1.621 0 2.821-.545 3.6-1.634.78-1.09 1.169-2.685 1.169-4.788s-.39-3.705-1.168-4.807c-.78-1.102-1.98-1.653-3.601-1.653-1.647 0-2.863.554-3.648 1.662-.785 1.109-1.178 2.708-1.178 4.798s.393 3.683 1.178 4.778c.785 1.096 2.001 1.644 3.648 1.644zm20.026-16.511c.836 0 1.621.085 2.356.257a8.027 8.027 0 0 1 2.014.75h5.605v1.748c0 .291-.076.52-.228.684-.152.165-.412.279-.779.342l-1.748.323a6.04 6.04 0 0 1 .399 2.204c0 .963-.193 1.833-.58 2.612a5.856 5.856 0 0 1-1.595 1.986c-.678.545-1.482.966-2.413 1.264-.932.297-1.942.446-3.031.446-.735 0-1.45-.07-2.147-.209-.608.367-.912.779-.912 1.235 0 .393.18.68.541.865.362.183.836.313 1.425.389.59.076 1.258.123 2.005.143.747.019 1.514.06 2.299.123.785.063 1.552.174 2.299.333a6.749 6.749 0 0 1 2.005.75 4.012 4.012 0 0 1 1.425 1.397c.36.589.541 1.345.541 2.27 0 .861-.212 1.697-.637 2.508-.424.81-1.038 1.533-1.842 2.166-.805.633-1.79 1.143-2.955 1.53-1.165.386-2.495.579-3.99.579-1.482 0-2.768-.142-3.857-.427-1.09-.286-1.992-.665-2.707-1.14-.716-.476-1.251-1.023-1.606-1.644a3.853 3.853 0 0 1-.532-1.938c0-.912.279-1.678.836-2.299.557-.62 1.33-1.115 2.318-1.482a3.233 3.233 0 0 1-1.159-1.064c-.291-.443-.437-1.02-.437-1.729 0-.291.05-.592.152-.902.101-.31.256-.618.466-.922.209-.304.471-.592.788-.864.317-.273.69-.517 1.121-.732-.988-.532-1.764-1.241-2.327-2.128-.564-.887-.846-1.925-.846-3.116 0-.963.193-1.833.58-2.612a5.854 5.854 0 0 1 1.615-1.995c.69-.552 1.507-.973 2.45-1.264.944-.291 1.973-.437 3.088-.437zm5.149 20.71c0-.38-.114-.69-.342-.931-.228-.24-.538-.427-.931-.56a6.887 6.887 0 0 0-1.377-.295 25.404 25.404 0 0 0-1.673-.142c-.589-.032-1.196-.064-1.824-.095a23.005 23.005 0 0 1-1.814-.162c-.532.291-.96.636-1.282 1.036a2.127 2.127 0 0 0-.485 1.377c0 .342.085.662.257.96.17.297.443.554.817.769.373.215.858.383 1.453.504.595.12 1.324.18 2.185.18.874 0 1.628-.066 2.261-.2.633-.133 1.156-.316 1.567-.55.412-.235.713-.513.903-.836.19-.324.285-.675.285-1.055zm-5.149-11.096c.583 0 1.09-.08 1.52-.237.43-.159.788-.377 1.074-.656.285-.279.5-.614.646-1.007.145-.393.218-.823.218-1.292 0-.963-.288-1.726-.865-2.29-.576-.563-1.44-.845-2.593-.845s-2.017.282-2.594.846c-.576.563-.864 1.326-.864 2.289 0 .456.073.88.218 1.273.146.393.361.731.647 1.017.285.285.645.506 1.083.665.437.158.94.237 1.51.237zm19.665-9.614c.836 0 1.621.085 2.356.257a8.027 8.027 0 0 1 2.014.75h5.605v1.748c0 .291-.076.52-.228.684-.152.165-.412.279-.779.342l-1.748.323a6.04 6.04 0 0 1 .399 2.204c0 .963-.193 1.833-.58 2.612a5.856 5.856 0 0 1-1.596 1.986c-.677.545-1.481.966-2.413 1.264-.93.297-1.94.446-3.03.446-.735 0-1.45-.07-2.147-.209-.608.367-.912.779-.912 1.235 0 .393.18.68.541.865.362.183.836.313 1.425.389.59.076 1.258.123 2.005.143.747.019 1.514.06 2.299.123.785.063 1.552.174 2.299.333a6.749 6.749 0 0 1 2.005.75 4.012 4.012 0 0 1 1.425 1.397c.36.589.541 1.345.541 2.27 0 .861-.212 1.697-.637 2.508-.424.81-1.038 1.533-1.843 2.166-.804.633-1.789 1.143-2.954 1.53-1.165.386-2.495.579-3.99.579-1.482 0-2.768-.142-3.857-.427-1.09-.286-1.992-.665-2.707-1.14-.716-.476-1.251-1.023-1.606-1.644a3.853 3.853 0 0 1-.532-1.938c0-.912.279-1.678.836-2.299.557-.62 1.33-1.115 2.318-1.482a3.233 3.233 0 0 1-1.159-1.064c-.291-.443-.437-1.02-.437-1.729 0-.291.05-.592.152-.902.101-.31.256-.618.465-.922.21-.304.472-.592.789-.864.317-.273.69-.517 1.121-.732-.988-.532-1.764-1.241-2.327-2.128-.564-.887-.846-1.925-.846-3.116 0-.963.193-1.833.58-2.612a5.854 5.854 0 0 1 1.615-1.995c.69-.552 1.507-.973 2.45-1.264.944-.291 1.973-.437 3.088-.437zm5.149 20.71c0-.38-.114-.69-.342-.931-.228-.24-.538-.427-.931-.56a6.887 6.887 0 0 0-1.377-.295 25.404 25.404 0 0 0-1.672-.142c-.59-.032-1.197-.064-1.825-.095a23.005 23.005 0 0 1-1.814-.162c-.532.291-.96.636-1.283 1.036a2.127 2.127 0 0 0-.484 1.377c0 .342.085.662.257.96.17.297.443.554.816.769.374.215.859.383 1.454.504.595.12 1.324.18 2.185.18.874 0 1.628-.066 2.261-.2.633-.133 1.156-.316 1.567-.55.412-.235.713-.513.903-.836.19-.324.285-.675.285-1.055zm-5.149-11.096c.583 0 1.09-.08 1.52-.237.43-.159.788-.377 1.074-.656.285-.279.5-.614.645-1.007.146-.393.219-.823.219-1.292 0-.963-.288-1.726-.864-2.29-.577-.563-1.441-.845-2.594-.845-1.153 0-2.017.282-2.594.846-.576.563-.864 1.326-.864 2.289 0 .456.073.88.219 1.273.145.393.36.731.646 1.017.285.285.645.506 1.082.665.438.158.941.237 1.511.237zm21.242-9.576c1.457 0 2.777.234 3.962.703 1.184.469 2.194 1.134 3.03 1.995.836.861 1.482 1.913 1.938 3.154.456 1.241.684 2.628.684 4.161 0 1.545-.228 2.939-.684 4.18-.456 1.241-1.102 2.299-1.938 3.173a8.419 8.419 0 0 1-3.03 2.014c-1.185.469-2.505.703-3.962.703-1.457 0-2.78-.234-3.971-.703a8.495 8.495 0 0 1-3.05-2.014c-.842-.874-1.494-1.932-1.957-3.173-.462-1.241-.693-2.635-.693-4.18 0-1.533.231-2.92.694-4.161.462-1.241 1.114-2.293 1.957-3.154.842-.861 1.858-1.526 3.049-1.995 1.19-.469 2.514-.703 3.971-.703zm0 16.473c1.621 0 2.821-.545 3.6-1.634.78-1.09 1.169-2.685 1.169-4.788s-.39-3.705-1.169-4.807c-.779-1.102-1.979-1.653-3.6-1.653-1.647 0-2.863.554-3.648 1.662-.785 1.109-1.178 2.708-1.178 4.798s.393 3.683 1.178 4.778c.785 1.096 2.001 1.644 3.648 1.644zm24.852-12.369c-.127.203-.26.345-.399.428-.14.082-.317.123-.532.123-.228 0-.472-.063-.732-.19s-.56-.27-.902-.427a8.266 8.266 0 0 0-1.168-.428c-.438-.127-.954-.19-1.549-.19-.925 0-1.653.196-2.185.589-.532.393-.798.906-.798 1.539 0 .418.136.77.408 1.055.273.285.634.535 1.083.75.45.215.96.408 1.53.58.57.17 1.153.357 1.748.56.595.203 1.178.434 1.748.694.57.26 1.08.588 1.53.987.45.4.81.878 1.082 1.435.273.557.409 1.229.409 2.014a6.47 6.47 0 0 1-.513 2.593 5.701 5.701 0 0 1-1.501 2.052c-.659.577-1.472 1.026-2.442 1.35-.969.323-2.08.484-3.334.484-.671 0-1.327-.06-1.966-.18-.64-.12-1.254-.289-1.844-.504a10.199 10.199 0 0 1-1.634-.76 7.93 7.93 0 0 1-1.32-.95l1.083-1.786c.14-.215.304-.38.494-.494.19-.114.43-.171.722-.171.291 0 .567.082.826.247.26.165.561.342.903.532.342.19.744.367 1.206.532.463.165 1.049.247 1.758.247.557 0 1.035-.066 1.434-.2.4-.133.729-.307.988-.522.26-.215.45-.465.57-.75.12-.286.181-.58.181-.884 0-.456-.136-.83-.409-1.121-.272-.291-.633-.545-1.083-.76a10.46 10.46 0 0 0-1.538-.58 50.85 50.85 0 0 1-1.768-.56c-.601-.203-1.19-.44-1.767-.712a6.022 6.022 0 0 1-1.539-1.036 4.686 4.686 0 0 1-1.083-1.539c-.272-.608-.408-1.343-.408-2.204 0-.798.158-1.558.475-2.28a5.348 5.348 0 0 1 1.396-1.89c.615-.539 1.381-.97 2.3-1.292.918-.324 1.979-.485 3.182-.485 1.343 0 2.565.222 3.667.665 1.102.443 2.02 1.026 2.755 1.748l-1.064 1.691z"/></g></g></svg>