<svg width="700" height="300" xmlns="http://www.w3.org/2000/svg"><g fill="none" fill-rule="evenodd"><path fill="#FFF" d="M0 0h700v300H0z"/><g fill="#000"><g fill-rule="nonzero"><path d="M232.273 75c-1.47.016-2.857.7-3.806 1.875L166 154.345l5.696 4.604 60.66-75.228L295.389 159l5.611-4.709-64.884-77.486A5.013 5.013 0 0 0 232.273 75zM232 194c-4.722 0-6 2.355-6 4.716 0 2.363 2.686 4.284 6 4.284 3.313 0 6-1.918 6-4.284-.001-2.36-1.15-4.716-6-4.716z"/><path d="M226 153.098s-9.044-1.686-17.95 8.907c-8.906 10.594-17.258 23.144 0 23.98 17.255.837 17.95-32.887 17.95-32.887zM255.95 185.985c17.258-.836 8.906-13.385 0-23.98-8.906-10.593-17.95-8.907-17.95-8.907s.697 33.724 17.95 32.887z"/><path d="M255.415 190.576c-.248.011-.492.018-.73.018-18.477 0-19.381-33.96-19.413-35.406l-.013-.639a15.598 15.598 0 0 0-4.022-.549 15.31 15.31 0 0 0-3.746.476l-.013.712c-.017.818-.318 12.111-3.947 21.723-1.772 4.94-4.034 8.715-9.676 12.39-1.708.82-3.627 1.29-5.786 1.29h-.002c-.239 0-.484-.007-.727-.017-.118-.007-.226-.016-.34-.025.877 7.022 6.782 12.451 13.94 12.451 1.137 0 2.24-.138 3.295-.4a4.758 4.758 0 0 1-.722-2.494c0-1.952.822-6.494 8.419-6.494 7.326 0 8.417 4.07 8.417 6.494 0 .792-.206 1.54-.57 2.228 1.343.43 2.773.666 4.258.666 7.231 0 13.185-5.54 13.963-12.666-.806.111-1.665.195-2.585.242zm-26.704-2.417c-1.556.794-2.974 1.059-4.174 1.059-2.386 0-3.927-1.053-4.023-1.118a.825.825 0 0 1-.204-1.136.799.799 0 0 1 1.117-.21c.113.078 2.803 1.87 6.557-.054a.8.8 0 0 1 1.082.363c.202.4.042.89-.355 1.096zm13.141 0c-1.556.794-2.975 1.059-4.174 1.059-2.387 0-3.928-1.053-4.023-1.118a.825.825 0 0 1-.205-1.136.796.796 0 0 1 1.115-.21c.116.078 2.805 1.87 6.56-.054a.8.8 0 0 1 1.081.363c.203.4.042.89-.354 1.096z"/><path d="M231.573 90.508L184 148.906 193.404 202h16.782l-.484-3.31c-3.153-2.703-5.338-6.508-5.896-10.86l-.07-.57c-4.64-.794-7.683-2.699-9.013-5.72-2.846-6.464 3.195-14.922 10.148-23.1 7.754-9.122 15.937-10.105 19.097-10.105 1.147 0 1.874.117 2.068.152l1.526.28a18.692 18.692 0 0 1 7.699.006l1.546-.286c.194-.038.92-.152 2.067-.152 3.16 0 11.341.984 19.098 10.102 6.95 8.181 12.992 16.64 10.15 23.103-1.07 2.424-3.24 4.13-6.445 5.125l-.1.903a17.174 17.174 0 0 1-5.757 11.001l-.586 3.431h13.933L283 148.906 233.578 90.49c-.558-.66-1.457-.652-2.005.018z"/></g><text font-family="Lato-Bold, Lato" font-size="38" font-weight="bold" transform="translate(166 75)"><tspan x="145.185" y="90">FetchDoggos</tspan></text></g></g></svg>