<svg width="700" height="300" xmlns="http://www.w3.org/2000/svg"><g fill="none" fill-rule="evenodd"><path fill="#FFF" d="M0 0h700v300H0z"/><g fill="#000"><path d="M82 100.19a8 8 0 014.27 1.234l62.03 39.154a8 8 0 01-.06 13.568l-62.03 38.386A8 8 0 0174 185.73v-77.54a8 8 0 018-8zm9.9 13.64c-6.628 0-12 5.373-12 12v42.321a12 12 0 001.672 6.111c3.375 5.704 10.735 7.592 16.439 4.217l35.405-20.951a12 12 0 004.163-4.127c3.424-5.674 1.601-13.05-4.073-16.474l-35.405-21.37a12 12 0 00-6.201-1.726z"/><path d="M125.48 149.229l-26.682 15.856a6 6 0 01-9.065-5.158v-28.591a6 6 0 019.11-5.131l26.667 16.164a4 4 0 01-.03 6.86z"/><path d="M219.455 178.824c2.311 0 3.733-1.45 3.733-3.823v-55.903c0-2.988-2-4.922-5.021-4.922-2.755 0-4.488 1.318-5.733 4.219l-20.662 49.31h-.356l-20.707-49.31c-1.244-2.945-2.888-4.22-5.599-4.22-3.066 0-5.11 1.978-5.11 4.923v55.903c0 2.373 1.422 3.823 3.733 3.823 2.31 0 3.732-1.45 3.732-3.823v-45.663h.311l19.019 45.091c.977 2.286 2.488 3.34 4.799 3.34 2.31 0 3.777-1.054 4.8-3.428l19.018-45.003h.31v45.663c0 2.373 1.423 3.823 3.733 3.823zm34.127.176c12.753 0 21.374-9.097 21.374-23.644 0-14.591-8.62-23.645-21.374-23.645-12.797 0-21.418 9.054-21.418 23.645 0 14.547 8.62 23.644 21.418 23.644zm0-6.724c-8.176 0-13.553-6.153-13.553-16.92 0-10.768 5.377-16.92 13.553-16.92 8.176 0 13.509 6.152 13.509 16.92 0 10.767-5.333 16.92-13.509 16.92zm46.08 6.724c2.489 0 4.133-1.23 5.155-3.867l14.664-37.928c.266-.66.4-1.319.4-1.978 0-2.11-1.511-3.516-3.822-3.516-1.688 0-2.844.923-3.555 2.9l-12.708 35.467h-.178l-12.664-35.466c-.711-1.978-1.867-2.9-3.6-2.9-2.31 0-3.866 1.406-3.866 3.515 0 .66.134 1.319.4 1.978l14.709 37.928c1.11 2.768 2.532 3.867 5.065 3.867zm31.283-54.189c2.666 0 4.844-2.153 4.844-4.746 0-2.637-2.178-4.747-4.844-4.747-2.622 0-4.799 2.11-4.799 4.747 0 2.593 2.177 4.746 4.8 4.746zm0 54.189c2.266 0 3.866-1.67 3.866-4.087v-39.114c0-2.418-1.6-4.088-3.866-4.088s-3.866 1.67-3.866 4.088v39.114c0 2.417 1.6 4.087 3.866 4.087zm33.683 0c8.442 0 14.93-3.516 17.907-9.713.356-.835.578-1.626.578-2.241 0-2.022-1.378-3.34-3.422-3.34-1.2 0-2.088.44-2.888 1.538-3.6 5.186-6.976 7.12-12.486 7.12-8.266 0-13.376-5.714-13.376-14.943h28.884c2.666 0 4.266-1.67 4.266-4.439 0-12.525-8.31-21.27-20.13-21.27-12.753 0-20.974 9.404-20.974 23.82 0 14.766 7.999 23.468 21.64 23.468zm11.464-27.556h-25.106c.489-7.867 5.643-13.096 12.842-13.096 7.154 0 12.086 5.185 12.264 13.096zm20.974 27.38c2.444 0 4-1.582 4-4.087v-23.996h25.283c2.222 0 3.777-1.406 3.777-3.516 0-2.11-1.555-3.516-3.777-3.516h-25.284v-21.798h27.773c2.266 0 3.821-1.45 3.821-3.56 0-2.11-1.555-3.56-3.821-3.56h-31.772c-2.444 0-4 1.582-4 4.087v55.859c0 2.505 1.556 4.087 4 4.087zm47.102-54.013c2.666 0 4.844-2.153 4.844-4.746 0-2.637-2.178-4.747-4.844-4.747-2.622 0-4.8 2.11-4.8 4.747 0 2.593 2.178 4.746 4.8 4.746zm0 54.189c2.266 0 3.866-1.67 3.866-4.087v-39.114c0-2.418-1.6-4.088-3.866-4.088s-3.866 1.67-3.866 4.088v39.114c0 2.417 1.6 4.087 3.866 4.087zm48.569 0c2.266 0 3.865-1.67 3.865-4.087v-26.37c0-10.371-5.865-16.832-15.996-16.832-7.155 0-12.087 3.165-14.664 8.087h-.178v-4.22c0-2.285-1.51-3.867-3.644-3.867-2.133 0-3.644 1.582-3.644 3.868v39.334c0 2.417 1.6 4.087 3.866 4.087 2.267 0 3.866-1.67 3.866-4.087v-23.6c0-7.736 4.755-12.834 12.042-12.834 7.11 0 10.62 4.044 10.62 11.427v25.007c0 2.417 1.6 4.087 3.867 4.087zm49.857 0c2.221 0 3.777-1.538 3.777-3.736v-57.177c0-2.417-1.6-4.087-3.866-4.087s-3.866 1.67-3.866 4.087v21.843h-.178c-2.755-5.01-8.087-8.219-14.708-8.219-11.642 0-19.596 9.317-19.596 23.645 0 14.327 7.998 23.644 19.774 23.644 7.243 0 12.042-3.516 14.575-8.966h.133v5.23c0 2.242 1.777 3.736 3.955 3.736zm-17.197-6.724c-8.176 0-13.33-6.548-13.33-16.92 0-10.328 5.154-16.92 13.33-16.92 7.954 0 13.286 6.724 13.286 16.92 0 10.24-5.332 16.92-13.286 16.92zm50.79 6.724c8.443 0 14.93-3.516 17.908-9.713.355-.835.578-1.626.578-2.241 0-2.022-1.378-3.34-3.422-3.34-1.2 0-2.088.44-2.888 1.538-3.6 5.186-6.977 7.12-12.487 7.12-8.265 0-13.375-5.714-13.375-14.943h28.883c2.667 0 4.266-1.67 4.266-4.439 0-12.525-8.31-21.27-20.13-21.27-12.752 0-20.973 9.404-20.973 23.82 0 14.766 7.998 23.468 21.64 23.468zm11.465-27.556h-25.107c.49-7.867 5.644-13.096 12.842-13.096 7.155 0 12.087 5.185 12.265 13.096zM607.292 179c2.267 0 3.866-1.67 3.866-4.087v-25.095c0-5.845 2.978-10.811 9.954-10.811 1.689 0 2.888-.308 3.688-.967.8-.615 1.2-1.494 1.2-2.681 0-1.055-.311-1.934-.978-2.549-.755-.703-1.955-1.099-3.643-1.099-4.622 0-9.154 3.516-10.487 8.263h-.178v-4.395c0-2.286-1.51-3.868-3.644-3.868-2.133 0-3.643 1.582-3.643 3.868v39.334c0 2.417 1.6 4.087 3.865 4.087z" fill-rule="nonzero"/></g></g></svg>