<svg width="1920" height="1000" xmlns="http://www.w3.org/2000/svg" style="background:#212121"><g fill="none" fill-rule="evenodd" opacity=".35"><g transform="translate(1532 656)"><rect fill="#545454" y="216" width="25" height="8" rx="4"/><rect fill="#78C3EB" x="10" y="198" width="25" height="8" rx="4"/><rect fill="#545454" x="20" y="180" width="10" height="8" rx="4"/><rect fill="#545454" x="30" y="162" width="140" height="8" rx="4"/><path d="M96 166c0-2.21 1.79-4 3.993-4h57.014a4 4 0 0 1 3.993 4c0 2.21-1.79 4-3.993 4H99.993A4 4 0 0 1 96 166z" fill="#6FC16E"/><rect fill="#545454" x="30" y="144" width="120" height="8" rx="4"/><rect fill="#545454" x="30" y="126" width="90" height="8" rx="4"/><rect fill="#545454" x="30" y="108" width="145" height="8" rx="4"/><path d="M38 112c0-2.21 1.79-4 3.993-4h57.014a4 4 0 0 1 3.993 4c0 2.21-1.79 4-3.993 4H41.993A4 4 0 0 1 38 112z" fill="#78C3EB"/><rect fill="#545454" x="30" y="90" width="65" height="8" rx="4"/><rect fill="#545454" x="30" y="72" width="100" height="8" rx="4"/><path d="M49 76c0-2.21 1.79-4 3.993-4H114v8H52.993A4 4 0 0 1 49 76z" fill="#5F859A"/><path d="M130 76c0 2.21-1.796 4-4 4H90v-8h36c2.21 0 4 1.795 4 4z" fill="#588356"/><rect fill="#545454" x="30" y="54" width="35" height="8" rx="4"/><rect fill="#545454" x="30" y="36" width="25" height="8" rx="4"/><rect fill="#545454" x="20" y="18" width="40" height="8" rx="4"/><rect fill="#545454" x="10" width="15" height="8" rx="4"/><g transform="translate(30)"><rect fill="#545454" width="90" height="8" rx="4"/><path d="M0 4c0-2.21 1.79-4 3.993-4H65v8H3.993A4 4 0 0 1 0 4z" fill="#588356"/><path d="M90 4c0 2.21-1.796 4-4 4H50V0h36c2.21 0 4 1.795 4 4z" fill="#6FC16E"/></g><rect fill="#545454" x="125" width="40" height="8" rx="4"/></g><g transform="translate(1542 520)"><rect fill="#545454" y="108" width="5" height="8" rx="2.5"/><rect fill="#6FC16E" x="10" y="90" width="60" height="8" rx="4"/><rect fill="#545454" x="75" y="90" width="5" height="8" rx="2.5"/><rect fill="#78C3EB" x="85" y="90" width="15" height="8" rx="4"/><rect fill="#545454" y="72" width="5" height="8" rx="2.5"/><rect fill="#545454" x="10" y="72" width="20" height="8" rx="4"/><rect fill="#545454" x="35" y="72" width="5" height="8" rx="2.5"/><rect fill="#545454" x="10" y="54" width="60" height="8" rx="4"/><rect fill="#545454" x="75" y="54" width="5" height="8" rx="2.5"/><rect fill="#545454" x="85" y="54" width="115" height="8" rx="4"/><rect fill="#545454" y="36" width="5" height="8" rx="2.5"/><rect fill="#545454" x="10" y="36" width="20" height="8" rx="4"/><rect fill="#545454" x="35" y="36" width="10" height="8" rx="4"/><rect fill="#545454" x="50" y="36" width="45" height="8" rx="4"/><rect fill="#78C3EB" x="100" y="36" width="10" height="8" rx="4"/><rect fill="#545454" x="113" y="36" width="30" height="8" rx="4"/><rect fill="#545454" x="10" y="18" width="15" height="8" rx="4"/><rect fill="#545454" x="30" y="18" width="55" height="8" rx="4"/><rect fill="#545454" x="90" y="18" width="5" height="8" rx="2.5"/><rect fill="#6FC16E" x="100" y="18" width="25" height="8" rx="4"/><rect fill="#545454" x="130" y="18" width="15" height="8" rx="4"/><rect fill="#545454" x="150" y="18" width="10" height="8" rx="4"/><rect fill="#6FC16E" x="165" y="18" width="20" height="8" rx="4"/><rect fill="#545454" x="190" y="18" width="40" height="8" rx="4"/><rect fill="#545454" x="235" y="18" width="45" height="8" rx="4"/><rect fill="#588356" width="70" height="8" rx="4"/><rect fill="#5F859A" x="75" width="10" height="8" rx="4"/><rect fill="#545454" x="90" width="25" height="8" rx="4"/></g><g transform="translate(1565 312)"><rect fill="#545454" x="20" y="180" width="150" height="8" rx="4"/><rect fill="#545454" x="20" y="162" width="120" height="8" rx="4"/><rect fill="#545454" x="20" y="144" width="140" height="8" rx="4"/><g transform="translate(20 126)"><rect fill="#545454" width="100" height="8" rx="4"/><path d="M0 4c0-2.21 1.79-4 3.993-4H65v8H3.993A4 4 0 0 1 0 4z" fill="#78C3EB"/><path d="M100 4c0 2.21-1.796 4-4 4H60V0h36c2.21 0 4 1.795 4 4z" fill="#6FC16E"/></g><rect fill="#545454" x="20" y="108" width="105" height="8" rx="4"/><path d="M20 112c0-2.21 1.79-4 3.993-4H85v8H23.993A4 4 0 0 1 20 112z" fill="#5F859A"/><path d="M125 112c0 2.21-1.796 4-4 4H85v-8h36c2.21 0 4 1.795 4 4z" fill="#78C3EB"/><rect fill="#545454" x="20" y="90" width="70" height="8" rx="4"/><rect fill="#545454" x="20" y="72" width="50" height="8" rx="4"/><rect fill="#545454" x="20" y="54" width="40" height="8" rx="4"/><rect fill="#6FC16E" x="20" y="36" width="30" height="8" rx="4"/><g transform="translate(0 18)"><rect fill="#545454" width="160" height="8" rx="4"/><rect fill="#78C3EB" x="68" width="56" height="8" rx="4"/></g><rect fill="#545454" width="25" height="8" rx="4"/></g><g transform="translate(1555 50)"><rect fill="#545454" x="10" y="234" width="70" height="8" rx="4"/><rect fill="#545454" x="30" y="216" width="35" height="8" rx="4"/><rect fill="#545454" x="70" y="216" width="50" height="8" rx="4"/><rect fill="#5F859A" x="125" y="216" width="45" height="8" rx="4"/><rect fill="#545454" x="175" y="216" width="80" height="8" rx="4"/><rect fill="#545454" x="260" y="216" width="45" height="8" rx="4"/><rect fill="#545454" x="310" y="216" width="10" height="8" rx="4"/><rect fill="#545454" x="30" y="198" width="35" height="8" rx="4"/><rect fill="#545454" x="70" y="198" width="85" height="8" rx="4"/><rect fill="#545454" x="160" y="198" width="110" height="8" rx="4"/><rect fill="#545454" x="275" y="198" width="10" height="8" rx="4"/><rect fill="#6FC16E" x="30" y="180" width="35" height="8" rx="4"/><rect fill="#545454" x="70" y="180" width="35" height="8" rx="4"/><rect fill="#545454" x="110" y="180" width="70" height="8" rx="4"/><rect fill="#545454" x="185" y="180" width="50" height="8" rx="4"/><rect fill="#545454" x="240" y="180" width="10" height="8" rx="4"/><rect fill="#545454" x="30" y="162" width="10" height="8" rx="4"/><rect fill="#545454" x="30" y="144" width="195" height="8" rx="4"/><rect fill="#545454" x="30" y="126" width="70" height="8" rx="4"/><rect fill="#78C3EB" x="105" y="126" width="25" height="8" rx="4"/><rect fill="#545454" x="135" y="126" width="70" height="8" rx="4"/><rect fill="#6FC16E" x="210" y="126" width="15" height="8" rx="4"/><rect fill="#588356" x="230" y="126" width="105" height="8" rx="4"/><rect fill="#545454" x="30" y="108" width="140" height="8" rx="4"/><rect fill="#545454" x="30" y="90" width="145" height="8" rx="4"/><g transform="translate(30 72)"><rect fill="#545454" width="105" height="8" rx="4"/><path d="M0 4c0-2.21 1.79-4 3.993-4H65v8H3.993A4 4 0 0 1 0 4z" fill="#588356"/><path d="M160 4c0 2.21-1.792 4-3.991 4H65V0h91.009A3.998 3.998 0 0 1 160 4z" fill="#6FC16E"/></g><rect fill="#545454" x="30" y="54" width="70" height="8" rx="4"/><rect fill="#588356" x="20" y="36" width="50" height="8" rx="4"/><g transform="translate(10 18)"><rect fill="#545454" width="160" height="8" rx="4"/><path d="M0 4c0-2.21 1.79-4 3.993-4H65v8H3.993A4 4 0 0 1 0 4z" fill="#78C3EB"/><path d="M160 4c0 2.21-1.792 4-3.991 4H65V0h91.009A3.998 3.998 0 0 1 160 4z" fill="#6FC16E"/></g><rect fill="#545454" width="90" height="8" rx="4"/></g><g><g transform="translate(997 682)"><rect fill="#545454" y="198" width="25" height="8" rx="4"/><rect fill="#545454" x="10" y="180" width="10" height="8" rx="4"/><rect fill="#545454" x="20" y="162" width="170" height="8" rx="4"/><g transform="translate(20 144)"><rect fill="#545454" width="120" height="8" rx="4"/><path d="M0 4c0-2.21 1.79-4 3.993-4H65v8H3.993A4 4 0 0 1 0 4z" fill="#78C3EB"/><path d="M120 4c0 2.21-1.799 4-4 4H65V0h51c2.21 0 4 1.795 4 4z" fill="#5F859A"/></g><rect fill="#545454" x="20" y="126" width="120" height="8" rx="4"/><g transform="translate(20 108)"><rect fill="#545454" width="140" height="8" rx="4"/><path d="M0 4a4 4 0 0 1 3.993-4H45v8H3.993A4 4 0 0 1 0 4z" fill="#78C3EB"/><path d="M80 4c0 2.21-1.799 4-4 4H25V0h51c2.21 0 4 1.795 4 4z" fill="#6FC16E"/></g><rect fill="#545454" x="20" y="90" width="70" height="8" rx="4"/><rect fill="#545454" x="20" y="72" width="95" height="8" rx="4"/><rect fill="#6FC16E" x="120" y="72" width="25" height="8" rx="4"/><rect fill="#545454" x="20" y="54" width="65" height="8" rx="4"/><rect fill="#5F859A" x="20" y="36" width="60" height="8" rx="4"/><rect fill="#545454" x="10" y="18" width="40" height="8" rx="4"/><rect fill="#545454" width="15" height="8" rx="4"/><rect fill="#545454" x="20" width="90" height="8" rx="4"/><path d="M20 4c0-2.21 1.79-4 3.993-4H85v8H23.993A4 4 0 0 1 20 4z" fill="#588356"/><path d="M110 4c0 2.21-1.799 4-4 4H55V0h51c2.21 0 4 1.795 4 4z" fill="#5F859A"/><rect fill="#545454" x="115" width="45" height="8" rx="4"/></g><g transform="translate(997 564)"><rect fill="#545454" y="90" width="5" height="8" rx="2.5"/><rect fill="#545454" x="10" y="72" width="5" height="8" rx="2.5"/><rect fill="#545454" x="20" y="54" width="125" height="8" rx="4"/><path d="M93 58c0 2.21-1.796 4-4 4H57c-2.21 0-4-1.795-4-4 0-2.21 1.796-4 4-4h32c2.21 0 4 1.795 4 4z" fill="#78C3EB"/><rect fill="#545454" x="10" y="36" width="60" height="8" rx="4"/><rect fill="#545454" x="75" y="36" width="10" height="8" rx="4"/><rect fill="#545454" x="90" y="36" width="25" height="8" rx="4"/><rect fill="#545454" x="10" y="18" width="25" height="8" rx="4"/><rect fill="#545454" x="40" y="18" width="5" height="8" rx="2.5"/><rect fill="#545454" x="50" y="18" width="45" height="8" rx="4"/><rect fill="#545454" x="100" y="18" width="60" height="8" rx="4"/><rect fill="#545454" x="165" y="18" width="60" height="8" rx="4"/><rect fill="#545454" x="230" y="18" width="5" height="8" rx="2.5"/><rect fill="#545454" x="240" y="18" width="5" height="8" rx="2.5"/><rect fill="#545454" x="250" y="18" width="40" height="8" rx="4"/><rect fill="#545454" width="170" height="8" rx="4"/><path d="M0 4c0-2.21 1.798-4 4.006-4h66.988A4.006 4.006 0 0 1 75 4c0 2.21-1.798 4-4.006 4H4.006A4.006 4.006 0 0 1 0 4z" fill="#588356"/><path d="M170 4c0 2.21-1.796 4-4 4h-32c-2.21 0-4-1.795-4-4 0-2.21 1.796-4 4-4h32c2.21 0 4 1.795 4 4z" fill="#78C3EB"/></g><g transform="translate(998 50)"><rect fill="#545454" y="486" width="5" height="8" rx="2.5"/><rect fill="#545454" x="10" y="468" width="5" height="8" rx="2.5"/><rect fill="#545454" x="20" y="450" width="155" height="8" rx="4"/><rect fill="#545454" x="20" y="432" width="5" height="8" rx="2.5"/><rect fill="#545454" x="30" y="414" width="70" height="8" rx="4"/><rect fill="#545454" x="105" y="414" width="115" height="8" rx="4"/><rect fill="#545454" x="30" y="396" width="55" height="8" rx="4"/><rect fill="#545454" x="90" y="396" width="100" height="8" rx="4"/><rect fill="#545454" x="30" y="378" width="40" height="8" rx="4"/><rect fill="#545454" x="75" y="378" width="90" height="8" rx="4"/><rect fill="#5F859A" x="30" y="360" width="75" height="8" rx="4"/><rect fill="#545454" x="110" y="360" width="125" height="8" rx="4"/><path d="M120 364c0-2.21 1.798-4 4.006-4H195v8h-70.994a4.006 4.006 0 0 1-4.006-4z" fill="#6FC16E"/><path d="M235 364c0 2.21-1.796 4-4 4h-36v-8h36c2.21 0 4 1.795 4 4z" fill="#588356"/><rect fill="#545454" x="30" y="342" width="60" height="8" rx="4"/><rect fill="#545454" x="95" y="342" width="105" height="8" rx="4"/><rect fill="#545454" x="30" y="324" width="30" height="8" rx="4"/><rect fill="#545454" x="65" y="324" width="80" height="8" rx="4"/><rect fill="#545454" x="30" y="306" width="25" height="8" rx="4"/><rect fill="#545454" x="60" y="306" width="75" height="8" rx="4"/><rect fill="#588356" x="30" y="288" width="25" height="8" rx="4"/><rect fill="#78C3EB" x="60" y="288" width="75" height="8" rx="4"/><rect fill="#545454" x="30" y="270" width="45" height="8" rx="4"/><rect fill="#545454" x="80" y="270" width="90" height="8" rx="4"/><rect fill="#545454" x="30" y="252" width="50" height="8" rx="4"/><rect fill="#545454" x="85" y="252" width="95" height="8" rx="4"/><rect fill="#545454" x="30" y="234" width="15" height="8" rx="4"/><rect fill="#545454" x="50" y="234" width="60" height="8" rx="4"/><rect fill="#545454" x="20" y="216" width="15" height="8" rx="4"/><rect fill="#78C3EB" x="40" y="216" width="15" height="8" rx="4"/><rect fill="#545454" x="60" y="216" width="5" height="8" rx="2.5"/><rect fill="#545454" x="70" y="216" width="5" height="8" rx="2.5"/><rect fill="#545454" x="10" y="198" width="45" height="8" rx="4"/><rect fill="#545454" x="60" y="198" width="15" height="8" rx="4"/><rect fill="#545454" x="80" y="198" width="25" height="8" rx="4"/><rect fill="#545454" x="10" y="180" width="25" height="8" rx="4"/><rect fill="#545454" x="40" y="180" width="30" height="8" rx="4"/><rect fill="#545454" x="75" y="180" width="5" height="8" rx="2.5"/><rect fill="#545454" x="85" y="180" width="115" height="8" rx="4"/><path d="M85 184c0-2.21 1.798-4 4.006-4H160v8H89.006A4.006 4.006 0 0 1 85 184z" fill="#588356"/><path d="M200 184c0 2.21-1.796 4-4 4h-36v-8h36c2.21 0 4 1.795 4 4z" fill="#78C3EB"/><rect fill="#545454" x="205" y="180" width="15" height="8" rx="4"/><rect fill="#545454" x="225" y="180" width="10" height="8" rx="4"/><rect fill="#545454" x="10" y="162" width="70" height="8" rx="4"/><rect fill="#5F859A" x="85" y="162" width="25" height="8" rx="4"/><rect fill="#588356" x="115" y="162" width="15" height="8" rx="4"/><rect fill="#545454" x="10" y="144" width="100" height="8" rx="4"/><rect fill="#588356" x="115" y="144" width="65" height="8" rx="4"/><rect fill="#545454" x="185" y="144" width="5" height="8" rx="2.5"/><rect fill="#545454" x="195" y="144" width="25" height="8" rx="4"/><rect fill="#78C3EB" x="225" y="144" width="20" height="8" rx="4"/><rect fill="#545454" x="250" y="144" width="10" height="8" rx="4"/><rect fill="#545454" x="265" y="144" width="30" height="8" rx="4"/><rect fill="#545454" x="10" y="126" width="145" height="8" rx="4"/><path d="M10 130c0-2.21 1.8-4 4.004-4H115v8H14.004A4.005 4.005 0 0 1 10 130z" fill="#6FC16E"/><path d="M155 130c0 2.21-1.796 4-4 4h-36v-8h36c2.21 0 4 1.795 4 4z" fill="#5F859A"/><rect fill="#545454" x="160" y="126" width="110" height="8" rx="4"/><rect fill="#545454" x="275" y="126" width="5" height="8" rx="2.5"/><rect fill="#588356" x="285" y="126" width="20" height="8" rx="4"/><rect fill="#5F859A" x="310" y="126" width="25" height="8" rx="4"/><rect fill="#588356" x="340" y="126" width="5" height="8" rx="2.5"/><rect fill="#545454" x="350" y="126" width="25" height="8" rx="4"/><rect fill="#545454" x="10" y="108" width="115" height="8" rx="4"/><rect fill="#545454" x="130" y="108" width="85" height="8" rx="4"/><path d="M130 112c0-2.21 1.794-4 4.005-4H183v8h-48.995a4.006 4.006 0 0 1-4.005-4z" fill="#78C3EB"/><path d="M215 112a4 4 0 0 1-4.004 4H183v-8h27.996a4.005 4.005 0 0 1 4.004 4z" fill="#5F859A"/><rect fill="#545454" x="220" y="108" width="5" height="8" rx="2.5"/><rect fill="#545454" x="230" y="108" width="20" height="8" rx="4"/><rect fill="#545454" x="255" y="108" width="20" height="8" rx="4"/><rect fill="#545454" x="280" y="108" width="20" height="8" rx="4"/><rect fill="#5F859A" x="305" y="108" width="10" height="8" rx="4"/><rect fill="#545454" x="320" y="108" width="30" height="8" rx="4"/><rect fill="#545454" x="10" y="90" width="125" height="8" rx="4"/><path d="M55 94c0-2.21 1.784-4 3.998-4H90v8H58.998A4.002 4.002 0 0 1 55 94z" fill="#588356"/><path d="M135 94a4 4 0 0 1-3.993 4H90v-8h41.007A4 4 0 0 1 135 94z" fill="#6FC16E"/><rect fill="#545454" x="140" y="90" width="85" height="8" rx="4"/><rect fill="#545454" x="230" y="90" width="5" height="8" rx="2.5"/><rect fill="#545454" x="240" y="90" width="25" height="8" rx="4"/><rect fill="#545454" x="270" y="90" width="15" height="8" rx="4"/><rect fill="#545454" x="290" y="90" width="25" height="8" rx="4"/><rect fill="#545454" x="320" y="90" width="10" height="8" rx="4"/><rect fill="#545454" x="335" y="90" width="30" height="8" rx="4"/><rect fill="#545454" x="10" y="72" width="70" height="8" rx="4"/><rect fill="#545454" x="85" y="72" width="15" height="8" rx="4"/><rect fill="#545454" x="105" y="72" width="50" height="8" rx="4"/><rect fill="#545454" x="160" y="72" width="5" height="8" rx="2.5"/><rect fill="#545454" x="170" y="72" width="15" height="8" rx="4"/><rect fill="#545454" x="190" y="72" width="20" height="8" rx="4"/><rect fill="#545454" x="215" y="72" width="10" height="8" rx="4"/><rect fill="#545454" x="230" y="72" width="30" height="8" rx="4"/><rect fill="#545454" x="10" y="54" width="15" height="8" rx="4"/><rect fill="#5F859A" x="30" y="54" width="25" height="8" rx="4"/><rect fill="#545454" x="60" y="54" width="5" height="8" rx="2.5"/><rect fill="#78C3EB" x="70" y="54" width="15" height="8" rx="4"/><rect fill="#545454" x="10" y="36" width="10" height="8" rx="4"/><rect fill="#545454" x="25" y="36" width="50" height="8" rx="4"/><rect fill="#545454" x="80" y="36" width="15" height="8" rx="4"/><rect fill="#545454" x="100" y="36" width="35" height="8" rx="4"/><rect fill="#545454" x="140" y="36" width="10" height="8" rx="4"/><rect fill="#545454" x="155" y="36" width="15" height="8" rx="4"/><rect fill="#545454" x="175" y="36" width="10" height="8" rx="4"/><rect fill="#545454" x="190" y="36" width="20" height="8" rx="4"/><rect fill="#545454" x="215" y="36" width="15" height="8" rx="4"/><rect fill="#545454" x="235" y="36" width="20" height="8" rx="4"/><rect fill="#545454" x="10" y="18" width="85" height="8" rx="4"/><rect fill="#545454" width="55" height="8" rx="4"/><rect fill="#545454" x="60" width="5" height="8" rx="2.5"/><rect fill="#545454" x="70" width="15" height="8" rx="4"/><rect fill="#545454" x="90" width="10" height="8" rx="4"/><rect fill="#545454" x="105" width="5" height="8" rx="2.5"/></g></g><g><g transform="translate(544 584)"><rect fill="#545454" x="20" y="126" width="25" height="8" rx="4"/><rect fill="#545454" x="30" y="108" width="65" height="8" rx="4"/><rect fill="#545454" x="30" y="90" width="50" height="8" rx="4"/><rect fill="#78C3EB" x="30" y="72" width="40" height="8" rx="4"/><g transform="translate(30 108)"><rect fill="#545454" width="80" height="8" rx="4"/><path d="M0 4a4 4 0 0 1 3.993-4H45v8H3.993A4 4 0 0 1 0 4z" fill="#78C3EB"/><path d="M80 4c0 2.21-1.784 4-3.998 4H45V0h31.002A4.002 4.002 0 0 1 80 4z" fill="#5F859A"/></g><rect fill="#545454" x="75" y="72" width="40" height="8" rx="4"/><path d="M120 76a4 4 0 0 1 3.993-4H165v8h-41.007A4 4 0 0 1 120 76z" fill="#78C3EB"/><path d="M200 76c0 2.21-1.799 4-4 4h-51v-8h51c2.21 0 4 1.795 4 4z" fill="#6FC16E"/><rect fill="#6FC16E" x="20" y="54" width="20" height="8" rx="4"/><rect fill="#588356" x="20" y="36" width="30" height="8" rx="4"/><rect fill="#5F859A" x="55" y="36" width="45" height="8" rx="4"/><rect fill="#545454" x="10" y="18" width="20" height="8" rx="4"/><rect fill="#545454" width="20" height="8" rx="4"/></g><g transform="translate(544 322)"><rect fill="#545454" y="234" width="5" height="8" rx="2.5"/><rect fill="#545454" x="10" y="216" width="5" height="8" rx="2.5"/><rect fill="#545454" x="20" y="198" width="70" height="8" rx="4"/><rect fill="#5F859A" x="95" y="198" width="65" height="8" rx="4"/><rect fill="#545454" x="165" y="198" width="65" height="8" rx="4"/><rect fill="#545454" x="235" y="198" width="15" height="8" rx="4"/><rect fill="#545454" x="235" y="198" width="15" height="8" rx="4"/><rect fill="#545454" x="10" y="180" width="5" height="8" rx="2.5"/><rect fill="#545454" x="20" y="180" width="20" height="8" rx="4"/><rect fill="#545454" x="45" y="180" width="5" height="8" rx="2.5"/><rect fill="#545454" x="20" y="162" width="15" height="8" rx="4"/><rect fill="#545454" x="30" y="144" width="25" height="8" rx="4"/><rect fill="#545454" x="30" y="126" width="70" height="8" rx="4"/><rect fill="#545454" x="105" y="126" width="65" height="8" rx="4"/><rect fill="#545454" x="20" y="108" width="70" height="8" rx="4"/><rect fill="#545454" x="20" y="90" width="25" height="8" rx="4"/><rect fill="#5F859A" x="50" y="90" width="100" height="8" rx="4"/><rect fill="#545454" x="20" y="72" width="15" height="8" rx="4"/><rect fill="#545454" x="40" y="72" width="25" height="8" rx="4"/><rect fill="#6FC16E" x="70" y="72" width="5" height="8" rx="2.5"/><rect fill="#545454" x="80" y="72" width="75" height="8" rx="4"/><rect fill="#588356" x="160" y="72" width="85" height="8" rx="4"/><rect fill="#545454" x="10" y="54" width="175" height="8" rx="4"/><rect fill="#545454" x="10" y="36" width="65" height="8" rx="4"/><rect fill="#78C3EB" x="80" y="36" width="75" height="8" rx="4"/><rect fill="#545454" x="160" y="36" width="60" height="8" rx="4"/><rect fill="#545454" x="225" y="36" width="15" height="8" rx="4"/><rect fill="#545454" x="10" y="18" width="10" height="8" rx="4"/><rect fill="#545454" x="25" y="18" width="25" height="8" rx="4"/><rect fill="#545454" x="55" y="18" width="30" height="8" rx="4"/><rect fill="#545454" x="90" y="18" width="40" height="8" rx="4"/><rect fill="#545454" x="135" y="18" width="10" height="8" rx="4"/><rect fill="#5F859A" x="150" y="18" width="20" height="8" rx="4"/><rect fill="#545454" x="175" y="18" width="25" height="8" rx="4"/><rect fill="#545454" x="205" y="18" width="15" height="8" rx="4"/><rect fill="#5F859A" x="225" y="18" width="15" height="8" rx="4"/><rect fill="#588356" x="245" y="18" width="30" height="8" rx="4"/><rect fill="#6FC16E" x="280" y="18" width="15" height="8" rx="4"/><rect fill="#545454" width="55" height="8" rx="4"/><rect fill="#545454" x="60" width="5" height="8" rx="2.5"/><rect fill="#545454" x="70" width="15" height="8" rx="4"/><rect fill="#545454" x="90" width="15" height="8" rx="4"/></g><g transform="translate(544 222)"><rect fill="#545454" y="72" width="5" height="8" rx="2.5"/><rect fill="#545454" x="10" y="54" width="45" height="8" rx="4"/><rect fill="#78C3EB" x="60" y="54" width="5" height="8" rx="2.5"/><rect fill="#545454" x="70" y="54" width="60" height="8" rx="4"/><path d="M70 58c0-2.21 1.784-4 3.998-4H105v8H73.998A4.002 4.002 0 0 1 70 58z" fill="#588356"/><path d="M130 58a4 4 0 0 1-3.993 4H85v-8h41.007A4 4 0 0 1 130 58z" fill="#6FC16E"/><rect fill="#545454" x="10" y="36" width="60" height="8" rx="4"/><g transform="translate(0 18)"><rect fill="#545454" width="90" height="8" rx="4"/><path d="M0 4c0-2.21 1.784-4 3.998-4H35v8H3.998A4.002 4.002 0 0 1 0 4z" fill="#78C3EB"/><path d="M80 4a4 4 0 0 1-3.993 4H35V0h41.007A4 4 0 0 1 80 4z" fill="#5F859A"/></g><rect fill="#545454" width="20" height="8" rx="4"/><rect fill="#545454" x="25" width="30" height="8" rx="4"/><rect fill="#545454" x="60" width="25" height="8" rx="4"/><rect fill="#588356" x="90" width="20" height="8" rx="4"/><rect fill="#588356" x="115" width="30" height="8" rx="4"/><rect fill="#545454" x="150" width="40" height="8" rx="4"/><rect fill="#6FC16E" x="195" width="5" height="8" rx="2.5"/></g><g transform="translate(544 50)"><rect fill="#545454" y="144" width="10" height="8" rx="4"/><rect fill="#545454" x="10" y="126" width="5" height="8" rx="2.5"/><rect fill="#545454" x="20" y="108" width="35" height="8" rx="4"/><rect fill="#78C3EB" x="60" y="108" width="80" height="8" rx="4"/><rect fill="#545454" x="20" y="90" width="70" height="8" rx="4"/><rect fill="#545454" x="95" y="90" width="115" height="8" rx="4"/><rect fill="#545454" x="20" y="72" width="60" height="8" rx="4"/><rect fill="#588356" x="85" y="72" width="90" height="8" rx="4"/><rect fill="#6FC16E" x="20" y="54" width="55" height="8" rx="4"/><rect fill="#545454" x="80" y="54" width="85" height="8" rx="4"/><rect fill="#545454" x="20" y="36" width="50" height="8" rx="4"/><rect fill="#545454" x="75" y="36" width="80" height="8" rx="4"/><rect fill="#5F859A" x="10" y="18" width="35" height="8" rx="4"/><rect fill="#545454" width="75" height="8" rx="4"/><rect fill="#588356" x="80" width="10" height="8" rx="4"/><rect fill="#545454" x="95" width="5" height="8" rx="2.5"/></g></g><g transform="translate(30 50)"><g transform="translate(0 664)"><rect fill="#545454" x="20" y="252" width="25" height="8" rx="4"/><rect fill="#6FC16E" x="30" y="234" width="10" height="8" rx="4"/><rect fill="#545454" x="40" y="216" width="175" height="8" rx="4"/><rect fill="#545454" x="40" y="198" width="120" height="8" rx="4"/><g transform="translate(40 180)"><rect fill="#545454" width="125" height="8" rx="4"/><path d="M0 4c0-2.21 1.8-4 4.002-4H70v8H4.002A4.004 4.004 0 0 1 0 4z" fill="#78C3EB"/><path d="M125 4c0 2.21-1.799 4-4 4H70V0h51c2.21 0 4 1.795 4 4z" fill="#6FC16E"/></g><rect fill="#545454" x="40" y="162" width="140" height="8" rx="4"/><rect fill="#545454" x="40" y="144" width="65" height="8" rx="4"/><rect fill="#545454" x="40" y="126" width="100" height="8" rx="4"/><rect fill="#588356" x="145" y="126" width="25" height="8" rx="4"/><g transform="translate(40 108)"><rect fill="#545454" width="70" height="8" rx="4"/><path d="M0 4c0-2.21 1.8-4 4.01-4H22v8H4.01A4.008 4.008 0 0 1 0 4z" fill="#78C3EB"/><path d="M77 4c0 2.21-1.799 4-4 4H22V0h51c2.21 0 4 1.795 4 4z" fill="#5F859A"/></g><rect fill="#545454" x="40" y="90" width="60" height="8" rx="4"/><rect fill="#545454" x="30" y="72" width="40" height="8" rx="4"/><rect fill="#545454" x="20" y="54" width="15" height="8" rx="4"/><rect fill="#5F859A" x="40" y="54" width="90" height="8" rx="4"/><rect fill="#545454" x="135" y="54" width="45" height="8" rx="4"/><rect fill="#545454" x="10" y="36" width="15" height="8" rx="4"/><rect fill="#588356" x="30" y="36" width="70" height="8" rx="4"/><rect fill="#545454" y="18" width="20" height="8" rx="4"/><rect fill="#5F859A" x="25" y="18" width="130" height="8" rx="4"/><rect fill="#545454" width="15" height="8" rx="4"/><rect fill="#545454" x="20" width="20" height="8" rx="4"/><rect fill="#545454" x="45" width="15" height="8" rx="4"/><rect fill="#545454" x="65" width="20" height="8" rx="4"/><rect fill="#545454" x="90" width="15" height="8" rx="4"/><rect fill="#5F859A" x="110" width="40" height="8" rx="4"/><rect fill="#545454" x="155" width="10" height="8" rx="4"/><rect fill="#545454" x="170" width="35" height="8" rx="4"/><rect fill="#545454" x="210" width="15" height="8" rx="4"/></g><g transform="translate(0 510)"><rect fill="#545454" x="10" y="126" width="5" height="8" rx="2.5"/><rect fill="#545454" x="20" y="108" width="45" height="8" rx="4"/><rect fill="#545454" x="70" y="108" width="5" height="8" rx="2.5"/><rect fill="#545454" x="80" y="108" width="15" height="8" rx="4"/><rect fill="#545454" x="10" y="90" width="5" height="8" rx="2.5"/><rect fill="#545454" x="20" y="90" width="20" height="8" rx="4"/><rect fill="#545454" x="45" y="90" width="5" height="8" rx="2.5"/><rect fill="#545454" x="20" y="72" width="15" height="8" rx="4"/><rect fill="#545454" x="40" y="72" width="40" height="8" rx="4"/><rect fill="#545454" x="85" y="72" width="5" height="8" rx="2.5"/><rect fill="#545454" x="95" y="72" width="75" height="8" rx="4"/><rect fill="#545454" x="175" y="72" width="40" height="8" rx="4"/><rect fill="#545454" x="220" y="72" width="70" height="8" rx="4"/><rect fill="#545454" x="10" y="54" width="65" height="8" rx="4"/><rect fill="#545454" x="80" y="54" width="10" height="8" rx="4"/><rect fill="#545454" x="95" y="54" width="25" height="8" rx="4"/><rect fill="#545454" x="10" y="36" width="25" height="8" rx="4"/><rect fill="#545454" x="40" y="36" width="5" height="8" rx="2.5"/><rect fill="#545454" x="50" y="36" width="50" height="8" rx="4"/><rect fill="#545454" x="105" y="36" width="65" height="8" rx="4"/><rect fill="#5F859A" x="175" y="36" width="60" height="8" rx="4"/><rect fill="#545454" x="240" y="36" width="40" height="8" rx="4"/><rect fill="#588356" x="285" y="36" width="5" height="8" rx="2.5"/><rect fill="#6FC16E" x="295" y="36" width="5" height="8" rx="2.5"/><rect fill="#545454" x="305" y="36" width="50" height="8" rx="4"/><rect fill="#545454" x="10" y="18" width="80" height="8" rx="4"/><rect fill="#545454" x="95" y="18" width="25" height="8" rx="4"/><rect fill="#545454" x="125" y="18" width="50" height="8" rx="4"/><rect fill="#545454" width="45" height="8" rx="4"/></g><g transform="translate(0 333)"><rect fill="#545454" y="149" width="10" height="8" rx="4"/><g transform="translate(7 131)"><rect fill="#545454" width="135" height="8" rx="4"/><path d="M31 4c0-2.21 1.797-4 3.993-4H85v8H34.993A4 4 0 0 1 31 4z" fill="#6FC16E"/><path d="M135 4c0 2.21-1.794 4-4.007 4H85V0h45.993A4.006 4.006 0 0 1 135 4z" fill="#78C3EB"/></g><rect fill="#545454" x="7" y="113" width="55" height="8" rx="4"/><rect fill="#545454" x="17" y="95" width="80" height="8" rx="4"/><rect fill="#545454" x="27" y="77" width="15" height="8" rx="4"/><rect fill="#545454" x="47" y="77" width="10" height="8" rx="4"/><g transform="translate(17 59)"><rect fill="#545454" width="75" height="8" rx="4"/><path d="M0 4c0-2.21 1.797-4 3.996-4H12v8H3.996A4 4 0 0 1 0 4z" fill="#78C3EB"/><path d="M62 4c0 2.21-1.794 4-4.007 4H12V0h45.993A4.006 4.006 0 0 1 62 4z" fill="#6FC16E"/></g><rect fill="#545454" x="97" y="59" width="85" height="8" rx="4"/><rect fill="#588356" x="7" y="41" width="40" height="8" rx="4"/><path d="M52 45a4 4 0 0 1 3.993-4H97v8H55.993A4 4 0 0 1 52 45z" fill="#78C3EB"/><path d="M114 45a4 4 0 0 1-4.006 4H95v-8h14.994A4.006 4.006 0 0 1 114 45z" fill="#6FC16E"/><rect fill="#5F859A" y="23" width="70" height="8" rx="4"/><rect fill="#545454" width="25" height="8" rx="4"/><rect fill="#545454" x="30" width="15" height="8" rx="4"/><rect fill="#545454" x="50" width="15" height="8" rx="4"/><g><path d="M70 4a4 4 0 0 1 3.993-4H115v8H73.993A4 4 0 0 1 70 4z" fill="#78C3EB"/><path d="M170 4c0 2.21-1.799 4-4 4h-51V0h51c2.21 0 4 1.795 4 4z" fill="#6FC16E"/></g></g><g transform="translate(0 198)"><rect fill="#545454" y="108" width="15" height="8" rx="4"/><rect fill="#545454" x="7" y="90" width="5" height="8" rx="2.5"/><rect fill="#545454" x="17" y="72" width="55" height="8" rx="4"/><rect fill="#545454" x="77" y="72" width="40" height="8" rx="4"/><rect fill="#545454" x="17" y="54" width="60" height="8" rx="4"/><rect fill="#545454" x="82" y="54" width="45" height="8" rx="4"/><rect fill="#545454" x="7" y="36" width="40" height="8" rx="4"/><rect fill="#545454" x="7" y="18" width="50" height="8" rx="4"/><rect fill="#545454" x="62" y="18" width="85" height="8" rx="4"/><rect fill="#6FC16E" x="152" y="18" width="30" height="8" rx="4"/><rect fill="#545454" width="20" height="8" rx="4"/><rect fill="#545454" x="25" width="35" height="8" rx="4"/><rect fill="#545454" x="65" width="65" height="8" rx="4"/></g><g transform="translate(0 18)"><rect fill="#545454" y="162" width="30" height="8" rx="4"/><rect fill="#545454" x="35" y="162" width="65" height="8" rx="4"/><rect fill="#78C3EB" x="105" y="162" width="20" height="8" rx="4"/><rect fill="#545454" x="130" y="162" width="165" height="8" rx="4"/><rect fill="#545454" y="144" width="25" height="8" rx="4"/><rect fill="#545454" x="30" y="144" width="50" height="8" rx="4"/><rect fill="#545454" x="85" y="144" width="15" height="8" rx="4"/><rect fill="#545454" x="105" y="144" width="145" height="8" rx="4"/><rect fill="#545454" y="126" width="15" height="8" rx="4"/><rect fill="#545454" x="20" y="126" width="60" height="8" rx="4"/><rect fill="#545454" x="85" y="126" width="165" height="8" rx="4"/><path d="M85 130a4 4 0 0 1 3.993-4H130v8H88.993A4 4 0 0 1 85 130z" fill="#5F859A"/><path d="M147 130a4 4 0 0 1-4.006 4H128v-8h14.994a4.006 4.006 0 0 1 4.006 4z" fill="#78C3EB"/><rect fill="#545454" y="108" width="25" height="8" rx="4"/><rect fill="#545454" x="30" y="108" width="90" height="8" rx="4"/><rect fill="#5F859A" x="125" y="108" width="15" height="8" rx="4"/><rect fill="#545454" x="145" y="108" width="110" height="8" rx="4"/><rect fill="#545454" y="90" width="25" height="8" rx="4"/><rect fill="#545454" x="30" y="90" width="5" height="8" rx="2.5"/><rect fill="#588356" x="40" y="90" width="50" height="8" rx="4"/><rect fill="#545454" x="95" y="90" width="65" height="8" rx="4"/><rect fill="#545454" x="165" y="90" width="5" height="8" rx="2.5"/><rect fill="#78C3EB" x="175" y="90" width="15" height="8" rx="4"/><rect fill="#588356" x="195" y="90" width="35" height="8" rx="4"/><rect fill="#545454" y="72" width="25" height="8" rx="4"/><rect fill="#545454" x="30" y="72" width="5" height="8" rx="2.5"/><rect fill="#545454" x="40" y="72" width="35" height="8" rx="4"/><rect fill="#545454" x="80" y="72" width="5" height="8" rx="2.5"/><rect fill="#545454" x="90" y="72" width="15" height="8" rx="4"/><rect fill="#545454" x="110" y="72" width="60" height="8" rx="4"/><rect fill="#545454" y="54" width="25" height="8" rx="4"/><rect fill="#545454" x="30" y="54" width="5" height="8" rx="2.5"/><rect fill="#545454" x="40" y="54" width="25" height="8" rx="4"/><rect fill="#545454" x="70" y="54" width="15" height="8" rx="4"/><rect fill="#545454" x="90" y="54" width="55" height="8" rx="4"/><rect fill="#545454" y="36" width="25" height="8" rx="4"/><rect fill="#545454" x="30" y="36" width="25" height="8" rx="4"/><rect fill="#545454" x="60" y="36" width="15" height="8" rx="4"/><rect fill="#545454" x="80" y="36" width="60" height="8" rx="4"/><path d="M80 40a4 4 0 0 1 3.993-4H125v8H83.993A4 4 0 0 1 80 40z" fill="#78C3EB"/><path d="M140 40c0 2.21-1.784 4-3.99 4H116v-8h20.01a3.998 3.998 0 0 1 3.99 4z" fill="#6FC16E"/><rect fill="#545454" y="18" width="25" height="8" rx="4"/><rect fill="#545454" x="30" y="18" width="25" height="8" rx="4"/><rect fill="#545454" x="60" y="18" width="15" height="8" rx="4"/><rect fill="#545454" x="80" y="18" width="45" height="8" rx="4"/><rect fill="#545454" width="25" height="8" rx="4"/><rect fill="#545454" x="30" width="25" height="8" rx="4"/><rect fill="#545454" x="60" width="15" height="8" rx="4"/><rect fill="#545454" x="80" width="35" height="8" rx="4"/></g><rect fill="#5F859A" width="105" height="8" rx="4"/></g></g></svg>