<?xml version="1.0" encoding="UTF-8"?>
<svg width="700px" height="300px" viewBox="0 0 700 300" version="1.1" xmlns="http://www.w3.org/2000/svg" xmlns:xlink="http://www.w3.org/1999/xlink">
    <!-- Generator: Sketch 55.2 (78181) - https://sketchapp.com -->
    <title>black-logos</title>
    <desc>Created with Sketch.</desc>
    <g id="black-logos" stroke="none" stroke-width="1" fill="none" fill-rule="evenodd">
        <rect fill="#FFFFFF" x="0" y="0" width="700" height="300"></rect>
        <g id="react-star-wars" transform="translate(75.000000, 72.000000)" fill-rule="nonzero">
            <path d="M0,78.2176278 C0,91.4056364 12.7565657,103.716189 32.87,110.655593 C28.854303,131.065607 32.1517879,147.515728 43.1626263,153.924821 C54.4810202,160.513592 71.342404,155.953612 87.3457778,141.832325 C102.945485,155.383178 118.712949,160.715948 129.713303,154.287666 C141.021212,147.681451 144.460242,130.114884 140.332707,109.068148 C161.281434,102.07641 173,91.5800809 173,78.2176278 C173,65.3366416 160.21897,54.1931232 140.376394,47.2973299 C144.820222,25.3801156 141.054414,9.32947183 129.587485,2.65522304 C118.53296,-3.78003671 102.583758,1.82835583 86.7533838,15.7333316 C70.2851818,0.97706639 54.4932525,-3.53058099 43.040303,3.1628567 C31.9962626,9.61730535 28.8438182,26.3657274 32.8734949,47.1525409 C13.4363333,53.9907676 0,65.388975 0,78.2176278 Z" id="Path" fill="#FFFFFF"></path>
            <path d="M136.618727,54.7283129 C134.980081,54.1615506 133.32728,53.6363926 131.661923,53.1533464 C131.938077,52.0231378 132.193258,50.889441 132.427466,49.7487675 C136.180025,31.4003202 133.72784,16.6221458 125.348814,11.7559701 C117.314107,7.09037155 104.17578,11.9548031 90.906367,23.5847885 C89.5984002,24.7337155 88.3197559,25.9154634 87.0716604,27.1288993 C86.2358136,26.3225562 85.3850642,25.5317395 84.5198502,24.7568567 C70.6124844,12.3175861 56.6736579,7.07641836 48.3033708,11.9565472 C40.2774032,16.636099 37.9003745,30.531734 41.2771536,47.9191552 C41.6144819,49.6406303 41.9937578,51.3551288 42.4167291,53.055674 C40.4994936,53.6013943 38.5987931,54.203387 36.7171036,54.8608682 C20.4134831,60.5903977 10,69.5605559 10,78.8690791 C10,88.4828283 21.1772784,98.1244839 38.160799,103.969127 C39.5380774,104.441792 40.9258427,104.879573 42.3240949,105.280727 C41.8697472,107.115114 41.4664297,108.961714 41.1146067,110.8184 C37.8933833,127.904084 40.4084894,141.470075 48.4134831,146.119976 C56.6806492,150.921618 70.5583021,145.98742 84.0706617,134.09058 C85.1668802,133.123375 86.2386277,132.128898 87.2848939,131.108085 C88.6361721,132.421419 90.0238944,133.696888 91.4464419,134.933004 C104.53583,146.276949 117.462672,150.857084 125.458926,146.19323 C133.720849,141.379379 136.403745,126.803526 132.918602,109.072507 C132.644244,107.683396 132.33654,106.301051 131.995755,104.926665 C132.955024,104.642619 133.909464,104.342584 134.858677,104.026684 C152.513358,98.1349488 164,88.6101512 164,78.8690791 C164,69.5291612 153.250936,60.4962136 136.618727,54.7300571 L136.618727,54.7283129 Z" id="Path" fill="#000000"></path>
            <path d="M134.166617,97.6207644 C133.316507,97.899388 132.445405,98.1693047 131.558561,98.4305143 C129.592461,92.2537763 126.940675,85.6869651 123.69591,78.9024792 C126.791993,72.278202 129.342326,65.7967193 131.252451,59.6600334 C132.840724,60.1162796 134.383518,60.5986468 135.868588,61.1053936 C150.236511,66.0178768 159,73.2795057 159,78.8693927 C159,84.828456 149.535083,92.5654865 134.166617,97.6207644 Z M127.789037,110.165794 C129.342326,117.956808 129.564474,125.002504 128.535945,130.508803 C127.608869,135.457856 125.75122,138.757805 123.452772,140.077784 C118.558512,142.890142 108.094802,139.234948 96.8107169,129.59457 C95.4760897,128.45247 94.1735996,127.273669 92.9047549,126.059532 C97.2812515,121.31074 101.652501,115.787026 105.918798,109.655565 C113.426361,108.993833 120.517615,107.912425 126.949421,106.43572 C127.264277,107.70694 127.545898,108.948557 127.789037,110.165794 L127.789037,110.165794 Z M63.3013057,139.591934 C58.520744,141.267159 54.7127371,141.315918 52.4107908,139.99768 C47.5130328,137.19403 45.478714,126.367759 48.2546933,111.847984 C48.5847681,110.131283 48.9627412,108.424053 49.3881744,106.728275 C55.7482631,108.126617 62.7870411,109.131404 70.3120966,109.73741 C74.6081301,115.738267 79.1070707,121.253274 83.6409953,126.083912 C82.6771865,127.010335 81.6906381,127.912379 80.6813501,128.788302 C74.6571077,134.01772 68.6206208,137.725156 63.3013057,139.591934 Z M40.9045578,97.584195 C33.3340232,95.0138918 27.0806356,91.6756322 22.7950973,88.032628 C18.9451096,84.7588001 17,81.5076104 17,78.8693927 C17,73.2586089 25.4293915,66.0979811 39.4877063,61.2325156 C41.2522617,60.6241703 43.0342896,60.0672659 44.8315102,59.5625151 C46.7731215,65.8367714 49.3234541,72.396617 52.3985464,79.0313427 C49.2849717,85.7635866 46.6979059,92.4279161 44.7370535,98.7753111 C43.4499669,98.4095202 42.1720841,98.0123622 40.9045578,97.584195 L40.9045578,97.584195 Z M48.4121212,46.8503111 C45.4944568,32.0449469 47.4325696,20.8756213 52.3075881,18.0737122 C57.50271,15.0889563 68.9879527,19.3449326 81.0941611,30.0162184 C81.8690564,30.6988463 82.6457009,31.4128194 83.4240946,32.1529135 C78.9146588,36.9591715 74.4559497,42.4358676 70.1983986,48.4001551 C62.8954915,49.0740761 55.9056911,50.1537427 49.4791328,51.5991029 C49.083318,50.0247938 48.7275339,48.4407771 48.4121212,46.8485697 L48.4121212,46.8503111 Z M115.385464,63.2682097 C113.867631,60.6649911 112.293568,58.0946707 110.664375,55.5590415 C115.619857,56.1807206 120.365435,57.0044017 124.822395,58.0144125 C123.391637,62.519838 121.733028,66.9503832 119.852919,71.289088 C118.417628,68.5860795 116.928178,65.9119187 115.385464,63.2682097 L115.385464,63.2682097 Z M88.0734664,36.8581704 C91.1345652,40.1494123 94.1974132,43.8237617 97.2112836,47.8080799 C91.097748,47.5214804 84.9740785,47.5203182 78.8604336,47.8045971 C81.749375,44.0076674 84.8240981,40.3544478 88.0734664,36.8581704 L88.0734664,36.8581704 Z M60.5865484,63.313486 C59.0637985,65.9359341 57.6028183,68.5934522 56.2048041,71.2838638 C54.3425971,66.9204113 52.696374,62.4686994 51.2720621,57.9447565 C55.9225288,56.923538 60.6191988,56.1233304 65.3461197,55.5468518 C63.6992607,58.0982528 62.1128815,60.6878463 60.5882976,63.313486 L60.5865484,63.313486 Z M65.4878049,102.663852 C60.4028825,102.09964 55.6083272,101.336907 51.1793545,100.379138 C52.6315734,95.7639284 54.3110874,91.2226734 56.2118009,86.771856 C59.0488366,92.2126729 62.1443388,97.5160031 65.4878049,102.663852 L65.4878049,102.663852 Z M88.2571323,121.349051 C84.9636316,117.802993 81.8463319,114.098677 78.916408,110.249381 C81.8900468,110.364314 84.91966,110.423521 88,110.423521 C91.1660508,110.423521 94.2936191,110.353865 97.3722099,110.216295 C94.3495935,114.29639 91.2954915,118.026464 88.2588815,121.34731 L88.2571323,121.349051 Z M119.915891,86.5350259 C121.990441,91.2298344 123.73964,95.7748827 125.128505,100.093549 C120.346749,101.160629 115.51241,101.979033 110.645134,102.545437 C112.286729,99.9627994 113.876484,97.3478621 115.413452,94.7021816 C116.975033,92.013439 118.476219,89.2903775 119.915891,86.5350259 L119.915891,86.5350259 Z M109.665583,91.4109397 C107.314194,95.4676862 104.830765,99.4471466 102.219241,103.342998 C97.6118502,103.67038 92.8505297,103.839417 88,103.839417 C83.310358,103.842807 78.6218201,103.695873 73.9416851,103.398722 C68.5943424,95.6431341 63.8433987,87.4963139 59.7294407,79.0278599 C61.7735586,74.8045458 63.97678,70.659401 66.3344173,66.6012451 L66.3344173,66.6029865 C68.691522,62.5430911 71.2028545,58.5738994 73.8629712,54.7040152 C83.28378,53.9994746 92.7444703,54.0012208 102.165016,54.7092394 C104.798309,58.5732591 107.293641,62.5286995 109.646341,66.5681585 C112.011466,70.6171822 114.243462,74.7418389 116.338778,78.9355658 C114.264686,83.1722502 112.039456,87.3339344 109.667332,91.4126811 L109.665583,91.4109397 Z M123.351318,17.880417 C128.551688,20.8582073 130.573762,32.8616624 127.306258,48.6038987 C127.092214,49.6296285 126.859532,50.6514159 126.608327,51.6687588 C120.167775,50.1920535 113.172727,49.0949729 105.84883,48.4123449 C101.580783,42.3818843 97.1605568,36.8964812 92.7245873,32.1511721 C93.8868084,31.0376189 95.0766309,29.9529741 96.2929539,28.898241 C107.757206,18.9949116 118.471052,15.0854735 123.353067,17.880417 L123.351318,17.880417 Z" id="Shape" fill="#FFFFFF"></path>
            <path d="M88,64 C95.7318182,64 102,70.2688152 102,77.9991153 C102,85.7311848 95.7318182,92 88,92 C80.2681818,92 74,85.7311848 74,77.9991153 C74,70.2670458 80.2681818,64 88,64" id="Path" fill="#000000"></path>
            <g id="Group" transform="translate(182.000000, 0.000000)" fill="#000000">
                <path d="M68.678218,85.1725 L73.6889479,99.8956111 C76.4009858,107.857256 78.821763,114.224478 79.1374408,114.224478 C79.1428169,114.224037 79.1478152,114.221538 79.1513934,114.2175 C79.4984645,113.912222 89.3071469,85.4132333 89.3071469,85.4132333 L108.317573,85.4132333 L85.3829763,152.272556 L72.1681137,152.272556 C72.1681137,152.272556 58.0637725,111.520589 58.121327,111.365333 L43.3995829,151.759689 L30.3190142,151.759689 L7.6704455,85.1742444 L26.5901801,85.1847111 C26.5901801,85.1847111 36.9534787,114.571622 37.0912607,114.571622 L47.4336303,85.1707556 L68.6764739,85.1725 L68.678218,85.1725 Z M1.21038863,80.5427444 L3.29281517,86.6622556 L25.9396398,153.2477 L27.0070142,156.384211 L46.6348436,156.384211 L47.7440758,153.343644 L57.9661043,125.298211 L60.7513934,133.385456 C63.0971754,140.187044 65.4464455,146.986889 67.7974597,153.784989 L68.8770427,156.897078 L88.6845118,156.897078 L89.7571185,153.774522 L112.691716,86.9169444 L114.795071,80.7869667 L86.0090995,80.7869667 L84.9347488,83.9095222 C82.9639431,89.6313 80.9809289,95.3530778 78.9839621,101.067878 C78.6752607,100.1817 78.3683033,99.2920333 78.0665782,98.4023667 L73.0558483,83.6792556 L71.9884739,80.5462333 L44.16,80.5462333 L43.0716967,83.6373889 L37.030218,100.814933 C34.9967212,95.0944325 32.9701037,89.3714877 30.9503697,83.6461111 L29.8620664,80.5601889 L26.5936682,80.5601889 L7.67393365,80.5462333 L1.21038863,80.5427444 L1.21038863,80.5427444 Z M361.4789,84.9143222 L361.437043,102.437267 C361.437043,102.437267 342.566142,102.376211 332.973725,102.376211 C329.782066,102.376211 327.617668,102.383189 327.514768,102.400633 C325.863128,102.702422 324.81145,106.220967 325.278863,107.763056 C325.509081,108.542822 327.240948,111.0932 329.112341,113.435989 C330.978502,115.778778 334.048076,119.611322 335.921213,121.952367 C340.72963,127.956744 341.388891,129.139478 341.83363,132.588244 C342.557422,138.187911 339.909915,144.246367 334.996853,148.241144 C330.071583,152.248133 330.287848,152.277789 293.733763,152.277789 L292.129213,152.277789 C269.897479,152.270811 258.138919,152.0859 256.427981,151.705611 C253.388057,151.0183 248.54127,147.0619 235.739754,134.774033 C231.135393,130.358844 226.888569,126.493156 226.670559,126.491411 C226.665327,126.491411 226.663583,126.4949 226.663583,126.501878 L226.511848,152.279533 L205.760834,152.187078 L205.631773,85.6993222 L251.912569,85.6993222 C265.859943,86.2034667 275.298882,100.1032 273.420512,108.970211 C272.994957,110.979811 271.906654,113.896522 271.003223,115.445589 C269.147526,118.625711 264.424569,122.707711 260.59109,124.460878 C259.176645,125.101089 258.020322,125.847711 258.020322,126.112867 C258.020322,127.101967 262.680493,131.6916 264.424569,132.420778 C265.917498,133.045289 270.258502,133.1831 289.403223,133.1831 L295.533649,133.184844 C314.779526,133.184844 313.811564,133.045289 315.297517,129.865167 C316.33873,127.649722 315.546919,126.327433 308.223545,118.074467 C298.945062,108.839378 299.916512,104.415467 299.851981,101.148122 C299.721175,97.2335889 302.802957,84.9178111 318.82055,84.9178111 L361.480645,84.9143222 L361.4789,84.9143222 Z M237.161175,115.6305 C246.045498,115.6305 247.848872,115.492689 249.73945,114.671056 C256.121024,111.8939 256.462863,103.696756 250.341156,100.057844 C248.998218,99.2588889 247.276815,99.1280556 237.646028,99.0757222 L226.501384,99.0164111 C226.59382,99.1036333 226.466502,114.958889 226.466502,114.958889 C226.466502,114.958889 229.257024,115.6305 237.159431,115.6305 L237.161175,115.6305 Z M366.114654,80.2880556 L318.82055,80.2880556 C309.552531,80.2880556 304.0709,83.9461556 301.105972,87.0163778 C296.27837,92.0089778 295.14472,98.2959556 295.231924,101.258022 C295.235412,101.505733 295.233668,101.758678 295.231924,102.023833 C295.188322,106.8385 295.896417,112.291633 304.859223,121.247611 C306.631204,123.243256 309.594389,126.590844 310.717573,128.2533 C308.267147,128.555089 302.058237,128.555089 295.533649,128.555089 L292.764057,128.555089 L289.403223,128.553344 C277.897555,128.553344 268.195261,128.518456 266.207014,128.1277 C265.824158,127.861891 265.458347,127.572326 265.111735,127.260711 C269.088227,124.813256 273.106578,121.0156 274.9989,117.770933 C276.146502,115.797967 277.412701,112.425956 277.946389,109.926167 C279.125384,104.361389 277.178995,97.6452778 272.742066,91.9601333 C267.565649,85.3277556 260.03473,81.3591444 252.08,81.0730556 L251.996284,81.0695667 L200.999507,81.0695667 L201.009972,85.7045556 L201.137289,152.192311 L201.146009,156.788922 L205.741649,156.809856 L226.492664,156.900567 L231.109232,156.9215 L231.137137,152.302211 L231.224341,136.860389 C231.648152,137.261611 232.087659,137.680278 232.53763,138.111156 C246.542559,151.550356 251.2411,155.274744 255.405953,156.216744 C256.55181,156.469689 258.444133,156.893589 292.125725,156.902311 L293.730275,156.902311 C311.968076,156.902311 321.120986,156.902311 326.564246,156.378978 C332.801062,155.773656 334.806749,154.358911 337.813536,151.909711 L337.914692,151.827722 C344.08872,146.803722 347.350142,139.204922 346.42055,131.993389 C345.813611,127.304322 344.571829,125.355778 339.529706,119.058333 L338.029801,117.1848 C336.260014,114.97388 334.491521,112.761924 332.724322,110.548933 C331.805613,109.407845 330.940769,108.2244 330.132626,107.002478 L332.975469,106.998989 C342.452777,106.998989 361.23473,107.061789 361.421346,107.063533 L366.051867,107.077489 L366.062332,102.445989 L366.105934,84.9213 L366.114654,80.2880556 L366.114654,80.2880556 Z M231.121441,110.835022 L231.14237,107.0426 C231.147602,105.886033 231.152834,104.727722 231.154578,103.665356 L237.621611,103.700244 C241.338237,103.719433 246.929744,103.752578 248.019791,104.0596 C249.411564,104.905656 250.187678,106.212244 250.103962,107.565933 C250.056872,108.296856 249.709801,109.640078 247.894218,110.426822 C246.882654,110.868167 245.271128,111.004233 237.161175,111.004233 C234.588664,111.004233 232.603905,110.929222 231.121441,110.835022 L231.121441,110.835022 Z M163.587336,84.6404444 L186.875981,151.672467 L167.900436,151.759689 L164.748891,141.690756 L130.817896,141.418622 L127.823318,151.498022 L109.036133,151.3009 L132.031773,84.6683556 L163.587336,84.6404444 L163.587336,84.6404444 Z M148.326673,94.4686444 C148.277839,94.6605333 145.353024,102.690211 142.416,110.719889 C139.458047,118.814111 136.487886,126.911822 136.446028,126.972878 C136.526256,126.9502 147.034313,126.927522 153.769934,126.927522 C156.921479,126.927522 159.246332,126.932756 159.289934,126.944967 C159.171336,126.639689 148.35981,94.8594 148.324929,94.4686444 L148.324929,94.4651556 L148.324929,94.4686444 L148.326673,94.4686444 Z M166.873175,80.0106889 L163.583848,80.0141778 L132.028284,80.0438333 L128.735469,80.0473222 L127.661118,83.1629 L104.665479,149.7937 L102.572588,155.862622 L108.990787,155.928911 L127.774483,156.126033 L131.262635,156.160922 L132.256758,152.818567 L134.260701,146.074544 L161.344455,146.2926 L163.487924,153.143033 L164.508209,156.405144 L167.921365,156.389444 L186.898654,156.302222 L193.369175,156.272567 L191.244891,150.158289 L167.954502,83.1262667 L166.873175,80.0106889 Z M143.101422,122.308233 C143.978692,119.918344 145.159431,116.691122 146.760493,112.309078 L148.143545,108.523633 L149.397536,112.2236 C149.770768,113.326089 151.411943,118.163433 152.819412,122.303 C148.63363,122.303 145.483829,122.303 143.103166,122.308233 L143.101422,122.308233 Z M171.435678,4.63324444 L171.435678,21.1705778 L138.326142,21.1705778 L138.326142,71.7524889 L118.586692,71.7524889 L118.586692,21.1322 L79.9379716,21.2403556 C75.279545,21.2403556 74.6534218,24.9525333 74.6534218,26.376 C74.6534218,28.1221889 75.7940474,29.8683778 82.0483033,37.7899 C86.1050237,42.9360111 89.8338578,48.0716556 90.3256872,49.1933333 C93.0080758,55.3686667 89.539109,64.9927667 83.2203223,68.9003222 C78.7188626,71.6844556 79.488,71.7524889 46.0488341,71.7524889 L4.62180095,71.7524889 L4.62180095,53.1741556 L61.2170616,53.1741556 L62.8878863,52.0106111 C64.0145592,51.2256111 64.6668436,50.1440556 64.9162464,48.6612778 C65.2633175,46.5330556 65.0836777,46.2574333 58.0951659,38.3812667 C49.8352227,29.0711667 48.9614408,27.3720778 49.3904834,21.4270111 C49.8753365,14.6446111 55.9220474,4.79024444 66.4876588,4.79024444 L171.437422,4.63324444 L171.435678,4.63324444 Z M176.060967,0 L171.428701,0.00697777778 L66.4789384,0.163977778 C60.4339716,0.163977778 54.8197915,2.77715556 50.6741232,7.5203 C47.3132891,11.3668 45.1070332,16.4431333 44.7739147,21.0973111 C44.2123223,28.9106778 46.0104645,31.7331889 54.6331754,41.4532333 C57.1376682,44.274 59.5165877,46.9552111 60.3101422,48.0943333 C60.3022848,48.1257654 60.2923805,48.1566498 60.2804929,48.1867889 L60.2386351,48.2164444 L59.7642464,48.5478889 L0,48.5478889 L0,76.3787556 L46.0488341,76.3787556 C62.5355829,76.3787556 70.6734408,76.3648 75.4679052,76.0124222 C80.9530237,75.6112 82.7023318,74.6692 85.3254218,73.0381444 L85.651564,72.8357889 C93.8958104,67.7350333 98.1443791,55.5884667 94.5672796,47.3494556 C93.4632796,44.8304778 86.4730237,35.9320667 85.6794692,34.9255222 C83.4854218,32.1448778 79.8629763,27.5587333 79.2891754,26.2312111 C79.3017988,26.1267409 79.3251773,26.0238541 79.3589384,25.9241889 C79.4548626,25.8997667 79.6379905,25.8666222 79.9379716,25.8666222 L113.961403,25.7689333 L113.961403,76.3787556 L142.949687,76.3787556 L142.949687,25.7968444 L176.060967,25.7968444 L176.060967,0 L176.060967,0 Z M225.229953,5.17053333 L248.45581,72.3752556 L229.513403,72.2705889 L226.436853,62.2051444 L192.657592,62.0533778 L189.640341,71.7524889 L170.350863,71.7524889 L193.320341,5.17053333 L225.229953,5.17053333 Z M198.170616,47.7419556 L221.178464,47.7140444 C221.256948,47.7140444 209.997194,14.6376333 209.922199,14.6132111 C209.840227,14.6114667 197.910749,47.7419556 198.170616,47.7419556 Z M228.524512,0.544266667 L190.027526,0.544266667 L188.953175,3.66158889 L165.980209,70.2435444 L163.8629,76.3787556 L193.046521,76.3787556 L194.058085,73.1271111 L196.05854,66.6953444 L223.014976,66.8157111 L225.093915,73.6242778 L226.089782,76.8794111 L229.492474,76.8968556 L248.436626,77.0015222 L254.966445,77.0381556 L252.833441,70.8645667 L229.607583,3.6581 L228.524512,0.544266667 Z M204.595791,43.1087111 C206.31545,38.2242667 208.05255,33.3450556 209.805346,28.4728222 C211.46745,33.3450556 213.120834,38.2190333 214.768986,43.0965 L204.594047,43.1087111 L204.595791,43.1087111 Z M290.458389,5.17053333 C305.443488,5.17053333 315.839924,5.38335556 317.840379,5.7305 C322.465668,6.53643333 326.644474,9.00482222 329.776834,12.7989889 C333.055697,16.7641111 333.805649,18.6620667 334.234692,24.0977556 C334.846863,31.7715667 331.2,38.3917333 324.002199,42.6883 C321.904076,43.9425556 319.750142,45.1619222 319.211223,45.4061444 C318.384531,45.7812 318.496152,46.1405556 319.973384,47.8745333 C320.925649,48.9909778 322.580777,50.5819111 323.644664,51.4087778 L325.58582,52.9177222 L361.47018,53.4323333 L361.822483,71.7524889 L339.820967,71.7524889 C322.804019,71.7524889 317.360758,71.5954889 315.763185,71.0582 C313.375545,70.2487778 307.632303,65.3800333 295.952227,54.2661778 L287.617289,46.3307 L287.704493,71.7524889 L266.292474,71.7524889 L266.292474,5.17053333 L290.458389,5.17053333 Z M287.3051,35.1052 L298.67473,35.1052 C309.739147,35.1052 310.084474,35.0703111 311.662863,33.8875778 C314.484777,31.7715667 315.482389,29.5910111 315.184152,26.2416778 C314.878938,22.7876778 313.548209,20.9909 310.213536,19.5465 C308.333422,18.7248667 306.524815,18.5922889 297.65619,18.5922889 L287.3051,18.5922889 L287.3051,35.1069444 L287.3051,35.1052 Z M290.458389,0.546011111 L261.672417,0.546011111 L261.672417,76.3805 L292.350711,76.3805 L292.33327,71.7385333 L292.280948,57.1549778 L292.769289,57.619 C307.210237,71.3652222 311.471014,74.4877778 314.282464,75.4402444 C316.438142,76.1694222 320.051867,76.3805 339.824455,76.3805 L366.538464,76.3805 L366.449517,71.6652667 L366.097213,53.3451111 L366.011754,48.8741 L361.541687,48.8095556 L327.204322,48.3176222 L326.485763,47.7576556 C326.210752,47.5393769 325.943176,47.3118884 325.683488,47.0755778 L326.381118,46.6604 C335.052664,41.4828889 339.597725,33.1235111 338.847773,23.7314222 C338.348967,17.3938556 337.217062,14.5382 333.345213,9.85262222 C329.537896,5.2438 324.314389,2.16311111 318.635678,1.17575556 C315.477156,0.628 299.626995,0.546011111 290.458389,0.546011111 L290.458389,0.546011111 Z M291.928645,23.2203 L297.65619,23.2203 C305.764398,23.2203 307.370692,23.3546222 308.361327,23.7872444 C310.239697,24.6001556 310.431545,24.9961444 310.576303,26.6533667 C310.726294,28.3001222 310.522237,28.9630111 308.888038,30.1858667 L308.758976,30.2818111 C307.681137,30.4824222 303.681972,30.4824222 298.67473,30.4824222 L291.928645,30.4824222 L291.928645,23.2185556 L291.928645,23.2203 Z" id="Shape"></path>
            </g>
        </g>
    </g>
</svg>