<svg width="700" height="300" xmlns="http://www.w3.org/2000/svg"><g fill="none" fill-rule="evenodd"><path fill="#FFF" d="M0 0h700v300H0z"/><g fill-rule="nonzero"><path d="M75 150.218c0 13.188 12.757 25.498 32.87 32.438-4.016 20.41-.718 36.86 10.293 43.269 11.318 6.589 28.18 2.029 44.183-12.093 15.6 13.551 31.367 18.884 42.367 12.456 11.308-6.607 14.747-24.173 10.62-45.22C236.28 174.076 248 163.58 248 150.218c0-12.881-12.781-24.025-32.624-30.92 4.444-21.918.678-37.969-10.789-44.643-11.054-6.435-27.003-.827-42.834 13.078-16.468-14.756-32.26-19.264-43.713-12.57-11.044 6.454-14.196 23.203-10.167 43.99C88.436 125.99 75 137.389 75 150.218z" fill="#FFF"/><path d="M211.619 126.728a102.627 102.627 0 0 0-4.957-1.575c.276-1.13.531-2.264.765-3.404 3.753-18.349 1.3-33.127-7.078-37.993-8.035-4.666-21.173.199-34.443 11.829a103.283 103.283 0 0 0-3.834 3.544 94.023 94.023 0 0 0-2.552-2.372c-13.908-12.44-27.846-17.68-36.217-12.8-8.026 4.68-10.403 18.575-7.026 35.962.337 1.722.717 3.436 1.14 5.137a101.617 101.617 0 0 0-5.7 1.805C95.413 132.59 85 141.56 85 150.869c0 9.614 11.177 19.255 28.16 25.1 1.378.473 2.766.91 4.164 1.312a102.092 102.092 0 0 0-1.21 5.537c-3.22 17.086-.706 30.652 7.3 35.302 8.267 4.802 22.144-.133 35.657-12.03a87.478 87.478 0 0 0 3.214-2.982 101.366 101.366 0 0 0 4.161 3.825c13.09 11.344 26.017 15.924 34.013 11.26 8.262-4.814 10.945-19.39 7.46-37.12a88.391 88.391 0 0 0-.923-4.146 89.88 89.88 0 0 0 2.863-.9C227.513 170.135 239 160.61 239 150.869c0-9.34-10.75-18.373-27.381-24.139v-.002z" fill="#000"/><path d="M209.167 169.62c-.85.28-1.722.55-2.608.81-1.967-6.176-4.618-12.743-7.863-19.528 3.096-6.624 5.646-13.105 7.556-19.242 1.589.456 3.132.939 4.617 1.445C225.237 138.018 234 145.28 234 150.87c0 5.96-9.465 13.696-24.833 18.752zm-6.378 12.546c1.553 7.79 1.775 14.837.747 20.343-.927 4.949-2.785 8.249-5.083 9.569-4.894 2.812-15.358-.843-26.642-10.483a94.85 94.85 0 0 1-3.906-3.535c4.376-4.75 8.748-10.273 13.014-16.404 7.507-.662 14.599-1.744 21.03-3.22.315 1.27.597 2.513.84 3.73zm-64.488 29.426c-4.78 1.675-8.588 1.724-10.89.406-4.898-2.804-6.932-13.63-4.156-28.15a93.9 93.9 0 0 1 1.133-5.12c6.36 1.399 13.399 2.403 20.924 3.01 4.296 6 8.795 11.515 13.329 16.346a78.851 78.851 0 0 1-2.96 2.704c-6.024 5.23-12.06 8.937-17.38 10.804zm-22.396-42.008c-7.571-2.57-13.824-5.908-18.11-9.551-3.85-3.274-5.795-6.525-5.795-9.164 0-5.61 8.43-12.771 22.488-17.636a96.21 96.21 0 0 1 5.344-1.67c1.941 6.274 4.491 12.834 7.567 19.468-3.114 6.733-5.701 13.397-7.662 19.744a82.142 82.142 0 0 1-3.832-1.19zm7.507-50.734c-2.918-14.805-.98-25.974 3.896-28.776 5.195-2.985 16.68 1.27 28.786 11.942a83.307 83.307 0 0 1 2.33 2.137c-4.51 4.806-8.968 10.283-13.226 16.247-7.303.674-14.292 1.754-20.719 3.2a95.949 95.949 0 0 1-1.067-4.751v.001zm66.973 16.418a209.136 209.136 0 0 0-4.72-7.709c4.955.622 9.7 1.445 14.157 2.455a139.822 139.822 0 0 1-4.97 13.275 229.012 229.012 0 0 0-4.467-8.02zm-27.312-26.41c3.062 3.291 6.124 6.966 9.138 10.95a196.736 196.736 0 0 0-18.35-.003 145.467 145.467 0 0 1 9.212-10.947zm-27.486 26.455a194.154 194.154 0 0 0-4.382 7.97 144.651 144.651 0 0 1-4.933-13.338 150.646 150.646 0 0 1 14.074-2.398 193.338 193.338 0 0 0-4.758 7.766h-.001zm4.9 39.35c-5.084-.563-9.879-1.326-14.308-2.284a146.971 146.971 0 0 1 5.033-13.607 193.024 193.024 0 0 0 9.276 15.892zm22.77 18.686a148.264 148.264 0 0 1-9.34-11.1c2.973.115 6.003.175 9.083.175 3.166 0 6.294-.07 9.372-.208-3.022 4.08-6.077 7.81-9.113 11.131l-.002.002zm31.659-34.814c2.074 4.695 3.824 9.24 5.213 13.559a141.703 141.703 0 0 1-14.484 2.451 229.938 229.938 0 0 0 4.768-7.843 208.72 208.72 0 0 0 4.503-8.167zm-10.25 4.876a215.642 215.642 0 0 1-7.447 11.932 201.06 201.06 0 0 1-14.219.496c-4.69.004-9.378-.143-14.058-.44a186.506 186.506 0 0 1-14.213-24.371 186.362 186.362 0 0 1 6.605-12.427v.002c2.358-4.06 4.869-8.03 7.529-11.899 9.42-.705 18.881-.703 28.302.005a198.099 198.099 0 0 1 7.481 11.86 215.349 215.349 0 0 1 6.693 12.367 197.9 197.9 0 0 1-6.672 12.477l-.001-.002zm13.685-73.53c5.2 2.977 7.223 14.98 3.955 30.723a86.46 86.46 0 0 1-.698 3.065c-6.44-1.477-13.435-2.574-20.76-3.257-4.267-6.03-8.687-11.516-13.123-16.26a97.261 97.261 0 0 1 3.568-3.254c11.464-9.903 22.178-13.813 27.06-11.018h-.002z" fill="#FFF"/><path d="M163 136c7.732 0 14 6.269 14 14s-6.268 14-14 14-14-6.269-14-14c0-7.733 6.268-14 14-14M325.678 157.173l5.01 14.723c2.713 7.961 5.134 14.328 5.45 14.328a.02.02 0 0 0 .013-.006c.347-.306 10.156-28.805 10.156-28.805h19.01l-22.934 66.86h-13.215s-14.104-40.752-14.047-40.908L300.4 223.76h-13.081l-22.649-66.586 18.92.01s10.363 29.388 10.501 29.388l10.343-29.401 21.242.002h.002zm-67.468-4.63l2.083 6.12 22.647 66.585 1.067 3.136h19.628l1.11-3.04 10.221-28.046 2.785 8.087c2.346 6.802 4.695 13.602 7.046 20.4l1.08 3.112h19.808l1.072-3.122 22.935-66.858 2.103-6.13H343.01l-1.074 3.123a4071.394 4071.394 0 0 1-5.951 17.158 342.59 342.59 0 0 1-.917-2.666l-5.011-14.723-1.068-3.133H301.16l-1.088 3.091-6.042 17.178c-2.033-5.72-4.06-11.444-6.08-17.169l-1.088-3.086h-3.268l-18.92-.014-6.464-.003zm360.269 4.371l-.042 17.523s-18.87-.06-28.463-.06c-3.192 0-5.356.006-5.46.024-1.65.301-2.703 3.82-2.235 5.362.23.78 1.962 3.33 3.833 5.673 1.867 2.343 4.936 6.175 6.81 8.516 4.808 6.005 5.467 7.187 5.912 10.636.723 5.6-1.924 11.658-6.837 15.653-4.925 4.007-4.71 4.037-41.263 4.037h-1.605c-22.232-.007-33.99-.192-35.701-.572-3.04-.688-7.887-4.644-20.688-16.932-4.605-4.415-8.851-8.28-9.07-8.283-.005 0-.006.004-.006.01l-.152 25.779-20.751-.093-.13-66.488h46.282c13.947.504 23.386 14.404 21.508 23.271-.426 2.01-1.514 4.927-2.418 6.476-1.855 3.18-6.578 7.262-10.412 9.015-1.414.64-2.57 1.387-2.57 1.652 0 .989 4.66 5.579 6.404 6.308 1.492.624 5.834.762 24.978.762l6.13.002c19.247 0 18.279-.14 19.765-3.32 1.04-2.215.249-3.538-7.074-11.79-9.279-9.236-8.307-13.66-8.372-16.927-.13-3.914 2.951-16.23 18.969-16.23l42.66-.004h-.002zM494.16 187.631c8.884 0 10.688-.138 12.578-.96 6.382-2.777 6.724-10.974.602-14.613-1.343-.8-3.064-.93-12.695-.982l-11.145-.06c.093.088-.034 15.943-.034 15.943s2.79.672 10.692.672h.002zm128.954-35.343H575.82c-9.268 0-14.75 3.658-17.715 6.728-4.828 4.993-5.961 11.28-5.874 14.242.003.248.002.5 0 .766-.044 4.814.664 10.268 9.627 19.224 1.772 1.995 4.735 5.343 5.859 7.005-2.45.302-8.66.302-15.184.302h-2.77l-3.36-.002c-11.506 0-21.209-.035-23.197-.425a11.146 11.146 0 0 1-1.095-.867c3.976-2.448 7.995-6.245 9.887-9.49 1.148-1.973 2.414-5.345 2.947-7.845 1.18-5.565-.767-12.28-5.204-17.966-5.176-6.632-12.707-10.6-20.662-10.887l-.084-.003H458l.01 4.635.127 66.487.009 4.597 4.596.02 20.75.092 4.617.02.028-4.619.087-15.442c.424.402.864.82 1.314 1.251 14.005 13.44 18.703 17.164 22.868 18.106 1.146.253 3.038.677 36.72.685h1.604c18.238 0 27.391 0 32.834-.523 6.237-.605 8.243-2.02 11.25-4.47l.1-.081c6.175-5.024 9.436-12.623 8.507-19.835-.607-4.689-1.85-6.637-6.891-12.935l-1.5-1.873c-1.77-2.211-3.538-4.423-5.306-6.636a46.983 46.983 0 0 1-2.591-3.547l2.842-.003c9.478 0 28.26.063 28.446.065l4.63.013.011-4.631.044-17.525.009-4.633zM488.12 182.835l.021-3.792c.006-1.157.01-2.315.013-3.378l6.467.035c3.716.02 9.308.053 10.398.36 1.392.846 2.168 2.152 2.084 3.506-.047.73-.394 2.074-2.21 2.86-1.011.442-2.623.578-10.733.578-2.572 0-4.557-.075-6.04-.169zm-67.534-26.195l23.289 67.032-18.976.088-3.151-10.07-33.931-.271-2.995 10.079-18.787-.197 22.996-66.633 31.555-.028zm-15.26 9.829c-.05.192-2.974 8.221-5.911 16.25-2.958 8.095-5.928 16.193-5.97 16.254.08-.023 10.588-.045 17.324-.045 3.151 0 5.476.005 5.52.017-.119-.305-10.93-32.086-10.965-32.476v-.004.004h.002zm18.546-14.458l-3.29.003-31.555.03-3.293.003-1.074 3.116-22.996 66.63-2.092 6.07 6.418.066 18.783.197 3.489.035.994-3.342 2.004-6.744 27.083.218 2.144 6.85 1.02 3.262 3.413-.016 18.978-.087 6.47-.03-2.124-6.114-23.29-67.032-1.082-3.115zm-23.772 42.297a7547 7547 0 0 0 3.66-9.999l1.383-3.785 1.254 3.7c.373 1.102 2.014 5.94 3.421 10.079-4.185 0-7.335 0-9.716.005h-.002zm28.335-117.675v16.538h-33.11v50.581h-19.74v-50.62l-38.648.108c-4.658 0-5.285 3.713-5.285 5.136 0 1.746 1.141 3.492 7.395 11.414 4.057 5.146 7.786 10.282 8.278 11.403 2.682 6.176-.787 15.8-7.106 19.707-4.501 2.784-3.732 2.852-37.171 2.852h-41.427v-18.578h56.595l1.67-1.163c1.128-.785 1.78-1.867 2.03-3.35.346-2.128.167-2.404-6.822-10.28-8.26-9.31-9.134-11.009-8.705-16.954.485-6.782 6.532-16.637 17.098-16.637l104.95-.157h-.002zM433.06 72l-4.632.007-104.95.157c-6.045 0-11.66 2.613-15.805 7.356-3.36 3.847-5.567 8.923-5.9 13.577-.562 7.814 1.236 10.636 9.86 20.356 2.504 2.821 4.883 5.502 5.676 6.641a.743.743 0 0 1-.03.093l-.041.03-.475.33H257v27.832h46.049c16.487 0 24.624-.014 29.419-.367 5.485-.4 7.234-1.343 9.857-2.974l.327-.202c8.244-5.101 12.492-17.248 8.915-25.487-1.104-2.519-8.094-11.417-8.888-12.423-2.194-2.781-5.816-7.367-6.39-8.695.013-.104.036-.207.07-.307.096-.024.279-.057.579-.057l34.023-.098v50.61h28.989V97.797h33.111V72zm49.169 5.17l23.226 67.205-18.943-.104-3.076-10.066-33.78-.152-3.017 9.7h-19.29l22.97-66.582h31.91zm-27.06 42.572l23.008-.028c.079 0-11.18-33.076-11.256-33.1-.082-.003-12.011 33.128-11.751 33.128zm30.355-47.198h-38.497l-1.075 3.118-22.973 66.582-2.117 6.135h29.184l1.011-3.252 2-6.432 26.957.12 2.079 6.81.996 3.254 3.402.018 18.945.105 6.53.036-2.134-6.173-23.225-67.207-1.083-3.114zm-23.93 42.565c1.72-4.885 3.458-9.764 5.21-14.636 1.662 4.872 3.316 9.746 4.964 14.623l-10.175.013h.002zm85.863-37.938c14.985 0 25.382.212 27.382.56 4.626.805 8.804 3.274 11.937 7.068 3.279 3.965 4.029 5.863 4.458 11.299.612 7.674-3.035 14.294-10.233 18.59-2.098 1.255-4.252 2.474-4.79 2.718-.827.375-.716.735.761 2.469.953 1.116 2.608 2.707 3.672 3.534l1.94 1.509 35.885.514.352 18.32h-22.001c-17.017 0-22.46-.157-24.058-.694-2.387-.81-8.13-5.678-19.81-16.792l-8.336-7.935.087 25.421h-21.412V77.171h24.166zm-3.153 29.934h11.37c11.064 0 11.41-.035 12.988-1.217 2.822-2.116 3.82-4.297 3.521-7.646-.305-3.454-1.636-5.251-4.97-6.696-1.88-.821-3.69-.954-12.558-.954h-10.35v16.515-.002zm3.153-34.559h-28.786v75.834h30.679l-.018-4.641-.052-14.584.488.464c14.441 13.746 18.702 16.869 21.513 17.821 2.156.73 5.77.94 25.542.94h26.714l-.088-4.715-.353-18.32-.085-4.47-4.47-.065-34.338-.492-.718-.56a15.625 15.625 0 0 1-.803-.682l.698-.416c8.672-5.177 13.217-13.536 12.467-22.929-.499-6.337-1.63-9.193-5.503-13.878-3.807-4.61-9.03-7.69-14.71-8.677-3.158-.548-19.008-.63-28.177-.63zm1.47 22.674h5.728c8.108 0 9.715.135 10.705.567 1.879.813 2.07 1.21 2.215 2.866.15 1.647-.054 2.31-1.688 3.533l-.129.096c-1.078.2-5.077.2-10.084.2h-6.746V95.22v.001z" fill="#000"/></g></g></svg>